<svg id="Grupo_83767" data-name="Grupo 83767" xmlns="http://www.w3.org/2000/svg" width="105" height="105" viewBox="0 0 105 105">
  <rect id="Rectángulo_5987" data-name="Rectángulo 5987" width="105" height="105" fill="none"/>
  <g id="produccion-en-masa" transform="translate(8 8)">
    <path id="Trazado_132629" data-name="Trazado 132629" d="M83.221,210.656H76.4a1.689,1.689,0,0,1-1.689-1.689v-9.279A1.689,1.689,0,0,1,76.4,198h6.818a1.689,1.689,0,0,1,1.688,1.688v9.279a1.689,1.689,0,0,1-1.688,1.689Zm0,0" transform="translate(-61.581 -163.195)" fill="#c9f3ff"/>
    <path id="Trazado_132630" data-name="Trazado 132630" d="M88.047,422.875H18.438a8.438,8.438,0,0,1,0-16.875H88.047a8.438,8.438,0,0,1,0,16.875Zm0,0" transform="translate(-8.242 -334.633)" fill="#6a80ff"/>
    <path id="Trazado_132631" data-name="Trazado 132631" d="M26.875,414.438A8.438,8.438,0,1,1,18.438,406,8.438,8.438,0,0,1,26.875,414.438Zm0,0" transform="translate(-8.242 -334.633)" fill="#ade5ff"/>
    <path id="Trazado_132632" data-name="Trazado 132632" d="M224.875,414.438A8.438,8.438,0,1,1,216.438,406,8.438,8.438,0,0,1,224.875,414.438Zm0,0" transform="translate(-171.438 -334.633)" fill="#ade5ff"/>
    <path id="Trazado_132633" data-name="Trazado 132633" d="M422.875,414.438A8.438,8.438,0,1,1,414.438,406,8.438,8.438,0,0,1,422.875,414.438Zm0,0" transform="translate(-334.633 -334.633)" fill="#ade5ff"/>
    <path id="Trazado_132634" data-name="Trazado 132634" d="M10,10H96.484v7.031H10Zm0,0" transform="translate(-8.242 -8.242)" fill="#c9f3ff"/>
    <g id="Grupo_83766" data-name="Grupo 83766" transform="translate(5.625 37.104)">
      <path id="Trazado_132635" data-name="Trazado 132635" d="M374.137,211.082h16.875v16.875H374.137Zm0,0" transform="translate(-313.996 -211.082)" fill="#ffb954"/>
      <path id="Trazado_132636" data-name="Trazado 132636" d="M208,310h16.875v16.875H208Zm0,0" transform="translate(-177.063 -292.612)" fill="#ffb954"/>
      <path id="Trazado_132637" data-name="Trazado 132637" d="M55.715,310H72.59v16.875H55.715Zm0,0" transform="translate(-51.546 -292.612)" fill="#ffb954"/>
      <path id="Trazado_132638" data-name="Trazado 132638" d="M53.044,277.031H36.169L32,270H57.213Zm0,0" transform="translate(-32 -259.643)" fill="#ffb954"/>
    </g>
    <path id="Trazado_132639" data-name="Trazado 132639" d="M247.758,447.516a1.758,1.758,0,1,0-1.243-.515A1.772,1.772,0,0,0,247.758,447.516Zm0,0" transform="translate(-202.758 -365.953)" fill="#3a3c07"/>
    <path id="Trazado_132640" data-name="Trazado 132640" d="M444.515,444.515a1.757,1.757,0,1,0,1.243-.515A1.772,1.772,0,0,0,444.515,444.515Zm0,0" transform="translate(-365.954 -365.953)" fill="#3a3c07"/>
    <path id="Trazado_132641" data-name="Trazado 132641" d="M51,447a1.757,1.757,0,1,0-1.243.515A1.772,1.772,0,0,0,51,447Zm0,0" transform="translate(-39.563 -365.953)" fill="#3a3c07"/>
    <path id="Trazado_132642" data-name="Trazado 132642" d="M204.525,40.515A1.757,1.757,0,1,0,205.768,40,1.766,1.766,0,0,0,204.525,40.515Zm0,0" transform="translate(-168.151 -32.969)" fill="#3a3c07"/>
    <path id="Trazado_132643" data-name="Trazado 132643" d="M78.52,10.547h9.722A1.758,1.758,0,0,0,90,8.789V1.758A1.758,1.758,0,0,0,88.242,0H1.758A1.758,1.758,0,0,0,0,1.758V8.789a1.758,1.758,0,0,0,1.758,1.758H16.473V24.434L11.89,29.017a1.761,1.761,0,0,0-.515,1.244v4.128a1.747,1.747,0,0,0,.232.871,3.43,3.43,0,0,0-.232,1.234V45.7H5.625a1.758,1.758,0,0,0-1.512,2.655l3.923,6.617V69.841A10.195,10.195,0,0,0,10.2,90H79.8a10.2,10.2,0,0,0,0-20.391H55.2V54.492a1.758,1.758,0,0,0-1.758-1.758H36.562A1.758,1.758,0,0,0,34.8,54.492V69.609H28.426V54.974l3.923-6.617A1.758,1.758,0,0,0,30.837,45.7H25.086v-9.21a3.423,3.423,0,0,0-.232-1.233,1.751,1.751,0,0,0,.232-.871V30.26a1.758,1.758,0,0,0-.515-1.243l-4.583-4.583V10.547h8.259a1.758,1.758,0,0,0,0-3.516H19.989V6.5a1.758,1.758,0,1,0-3.516,0v.527H3.515V3.516H86.484V7.031H78.52V6.639a1.758,1.758,0,1,0-3.516,0v.392H73.217V6.639a1.758,1.758,0,0,0-3.516,0v.392H44.845a1.758,1.758,0,0,0,0,3.516H69.7v8.965a4.385,4.385,0,0,0,.308,1.615L58.917,32.2a1.757,1.757,0,0,0-.231,2.2l5.322,8.167V45H51.62a1.758,1.758,0,0,0,0,3.516H64.008v5.464a1.758,1.758,0,0,0,1.758,1.758H82.641A1.758,1.758,0,0,0,84.4,53.979V42.556L89.715,34.4a1.759,1.759,0,0,0-.241-2.214L78.213,21.125a4.39,4.39,0,0,0,.306-1.613V10.547ZM36.562,73.125h.745a10.165,10.165,0,0,0,0,13.359H17.887a10.165,10.165,0,0,0,0-13.359Zm35.55,0a10.165,10.165,0,0,0,0,13.359H52.692a10.165,10.165,0,0,0,0-13.359ZM51.679,79.8A6.68,6.68,0,1,1,45,73.125,6.687,6.687,0,0,1,51.679,79.8Zm-48.164,0a6.68,6.68,0,1,1,6.68,6.68A6.687,6.687,0,0,1,3.515,79.8Zm82.969,0a6.68,6.68,0,1,1-6.68-6.68A6.687,6.687,0,0,1,86.484,79.8ZM38.32,56.25H51.679V69.609H38.32ZM11.551,69.609V56.25H24.911V69.609ZM25.667,52.734H10.795L8.711,49.219H27.751ZM14.891,45.7V36.563h6.68V45.7Zm6.68-12.656h-6.68V30.988l3.34-3.34,3.34,3.34ZM75,10.547v8.965a.894.894,0,0,1-1.787,0V10.547ZM67.524,52.221V38.862H80.883V41.89a1.792,1.792,0,0,0,0,.291V52.221ZM84.235,36.368a1.757,1.757,0,0,0-1.594-1.021H65.766a1.757,1.757,0,0,0-1.6,1.027l-1.758-2.7L72.5,23.613a4.389,4.389,0,0,0,3.233,0L85.984,33.685Zm0,0" transform="translate(0 0)" fill="#3a3c07"/>
    <path id="Trazado_132644" data-name="Trazado 132644" d="M283.763,218.516a1.758,1.758,0,0,0,0-3.516h-5a1.758,1.758,0,0,0,0,3.516Zm0,0" transform="translate(-228.309 -177.207)" fill="#3a3c07"/>
    <path id="Trazado_132645" data-name="Trazado 132645" d="M245.636,215.515a1.756,1.756,0,1,0,1.243-.515A1.772,1.772,0,0,0,245.636,215.515Zm0,0" transform="translate(-202.034 -177.207)" fill="#3a3c07"/>
  </g>
</svg>
