<svg id="Grupo_83773" data-name="Grupo 83773" xmlns="http://www.w3.org/2000/svg" width="105" height="105" viewBox="0 0 105 105">
  <rect id="Rectángulo_5987" data-name="Rectángulo 5987" width="105" height="105" fill="none"/>
  <g id="arte" transform="translate(7.004 7.003)">
    <g id="Grupo_83780" data-name="Grupo 83780" transform="translate(1.333 1.333)">
      <path id="Trazado_132681" data-name="Trazado 132681" d="M125.926,59.894V8.97A1.47,1.47,0,0,1,127.4,7.5h43.293a1.47,1.47,0,0,1,1.47,1.47V59.894a1.47,1.47,0,0,1-1.47,1.47H127.4A1.47,1.47,0,0,1,125.926,59.894Z" transform="translate(-104.879 -7.5)" fill="#ffd15b"/>
      <path id="Trazado_132682" data-name="Trazado 132682" d="M363.827,7.5h-3.02a1.471,1.471,0,0,1,1.47,1.47V59.894a1.471,1.471,0,0,1-1.47,1.47h3.02a1.47,1.47,0,0,0,1.47-1.47V8.97a1.47,1.47,0,0,0-1.47-1.47Z" transform="translate(-298.017 -7.5)" fill="#ffc344"/>
      <path id="Trazado_132683" data-name="Trazado 132683" d="M155.927,37.5H191.5V80.7h-35.57Z" transform="translate(-129.548 -32.168)" fill="#faf7f7"/>
      <path id="Trazado_132684" data-name="Trazado 132684" d="M337.578,37.5h3.287V80.7h-3.287Z" transform="translate(-278.916 -32.168)" fill="#dedbee"/>
      <circle id="Elipse_8293" data-name="Elipse 8293" cx="3.62" cy="3.62" r="3.62" transform="translate(40.544 59.65)" fill="#ffc344"/>
      <path id="Trazado_132685" data-name="Trazado 132685" d="M239.927,386.833h5.713v20.912h-5.713Z" transform="translate(-198.62 -319.418)" fill="#685e68"/>
      <path id="Trazado_132686" data-name="Trazado 132686" d="M239.927,395.457h5.713v4.011h-5.713Z" transform="translate(-198.62 -326.509)" fill="#554e56"/>
      <path id="Trazado_132687" data-name="Trazado 132687" d="M234.63,381.927H224.56a.672.672,0,0,1-.672-.672v-2.667a.672.672,0,0,1,.672-.672h10.07a.672.672,0,0,1,.672.672v2.667A.672.672,0,0,1,234.63,381.927Z" transform="translate(-185.431 -312.085)" fill="#ffe177"/>
      <circle id="Elipse_8294" data-name="Elipse 8294" cx="3.62" cy="3.62" r="3.62" transform="translate(2.087 59.65)" fill="#ffc344"/>
      <path id="Trazado_132688" data-name="Trazado 132688" d="M23.539,386.833h5.713v20.912H23.539Z" transform="translate(-20.689 -319.418)" fill="#685e68"/>
      <path id="Trazado_132689" data-name="Trazado 132689" d="M23.539,395.457h5.713v4.011H23.539Z" transform="translate(-20.689 -326.509)" fill="#554e56"/>
      <path id="Trazado_132690" data-name="Trazado 132690" d="M18.242,381.927H8.172a.672.672,0,0,1-.672-.672v-2.667a.672.672,0,0,1,.672-.672h10.07a.672.672,0,0,1,.672.672v2.667A.672.672,0,0,1,18.242,381.927Z" transform="translate(-7.5 -312.085)" fill="#ffe177"/>
      <circle id="Elipse_8295" data-name="Elipse 8295" cx="3.62" cy="3.62" r="3.62" transform="translate(79.001 59.65)" fill="#ffc344"/>
      <path id="Trazado_132691" data-name="Trazado 132691" d="M456.314,386.833h5.713v20.912h-5.713Z" transform="translate(-376.55 -319.418)" fill="#685e68"/>
      <path id="Trazado_132692" data-name="Trazado 132692" d="M456.314,395.457h5.713v4.011h-5.713Z" transform="translate(-376.55 -326.509)" fill="#554e56"/>
      <path id="Trazado_132693" data-name="Trazado 132693" d="M451.018,381.927h-10.07a.672.672,0,0,1-.672-.672v-2.667a.672.672,0,0,1,.672-.672h10.07a.672.672,0,0,1,.672.672v2.667A.672.672,0,0,1,451.018,381.927Z" transform="translate(-363.363 -312.085)" fill="#ffe177"/>
    </g>
    <g id="Grupo_83781" data-name="Grupo 83781" transform="translate(0 0)">
      <path id="Trazado_132694" data-name="Trazado 132694" d="M88.988,341.819h-.235a4.952,4.952,0,1,0-9.6,0h-.235a2.007,2.007,0,0,0-2,2v2.667a2.007,2.007,0,0,0,2,2h.846v1.083c-10.826,7.325-20.677,7.344-30.077.055V348.5h.846a2.007,2.007,0,0,0,2-2v-2.667a2.007,2.007,0,0,0-2-2H50.3a4.953,4.953,0,1,0-9.6,0h-.235a2.007,2.007,0,0,0-2,2v2.667a2.007,2.007,0,0,0,2,2h.846v1.083c-10.827,7.325-20.678,7.344-30.078.055V348.5h.846a2.007,2.007,0,0,0,2-2v-2.667a2.007,2.007,0,0,0-2-2H11.84a4.953,4.953,0,1,0-9.6,0H2a2.007,2.007,0,0,0-2,2v2.667a2.007,2.007,0,0,0,2,2H2.85v6.519a1.333,1.333,0,1,0,2.666,0V348.5H8.563v17.153a1.333,1.333,0,1,0,2.666,0V352.936a25.207,25.207,0,0,0,14.454,4.8q7.6,0,15.624-4.978v12.893a1.333,1.333,0,1,0,2.666,0V348.5H47.02v17.153a1.333,1.333,0,1,0,2.666,0V352.936a25.206,25.206,0,0,0,14.454,4.8q7.6,0,15.624-4.978v12.893a1.333,1.333,0,1,0,2.666,0V348.5h3.047v17.153a1.333,1.333,0,1,0,2.666,0V348.5h.846a2.007,2.007,0,0,0,2-2v-2.667A2.007,2.007,0,0,0,88.988,341.819ZM4.753,340.592a2.287,2.287,0,1,1,4.217,1.228H5.11A2.272,2.272,0,0,1,4.753,340.592ZM2.666,345.83v-1.345h8.748v1.345Zm40.544-5.239a2.287,2.287,0,1,1,4.217,1.228h-3.86A2.272,2.272,0,0,1,43.21,340.592Zm-2.087,5.239v-1.345h8.748v1.345Zm40.544-5.239a2.287,2.287,0,1,1,4.217,1.228h-3.86A2.273,2.273,0,0,1,81.667,340.592Zm6.661,5.239H79.579v-1.345h8.748Z" transform="translate(0 -275.989)" fill="#3a3c07"/>
      <path id="Trazado_132695" data-name="Trazado 132695" d="M210.1,128.219a1.333,1.333,0,0,0-1.181,2.39,9.928,9.928,0,0,1,4.5,13.3,7.685,7.685,0,0,1-10.282,3.482,5.881,5.881,0,0,1-2.665-7.868,4.438,4.438,0,0,1,5.938-2.011A3.284,3.284,0,0,1,207.9,141.9a2.359,2.359,0,0,1-3.158,1.07,1.619,1.619,0,0,1-.735-2.169,1.333,1.333,0,1,0-2.39-1.181,4.285,4.285,0,0,0,1.944,5.74,5.029,5.029,0,0,0,6.728-2.279,5.953,5.953,0,0,0-2.7-7.964,7.107,7.107,0,0,0-9.508,3.221,8.55,8.55,0,0,0,3.874,11.439,10.342,10.342,0,0,0,13.853-4.692,12.594,12.594,0,0,0-5.714-16.87Z" transform="translate(-162.156 -105.318)" fill="#3a3c07"/>
      <path id="Trazado_132696" data-name="Trazado 132696" d="M199.359,90.874a6.4,6.4,0,0,0,3.267-.9,1.333,1.333,0,0,0-1.358-2.294,3.771,3.771,0,0,1-5.161-1.322,2.75,2.75,0,0,1,.964-3.763,1.933,1.933,0,0,1,2.646.678,1.278,1.278,0,0,1-.449,1.751,1.333,1.333,0,0,0,1.358,2.294,3.944,3.944,0,0,0,1.385-5.4,4.6,4.6,0,0,0-6.3-1.614,5.419,5.419,0,0,0-1.9,7.416A6.436,6.436,0,0,0,199.359,90.874Z" transform="translate(-158.748 -65.506)" fill="#3a3c07"/>
      <path id="Trazado_132697" data-name="Trazado 132697" d="M266.774,61.877a4.6,4.6,0,0,0-4.37,4.814,3.948,3.948,0,0,0,4.13,3.749,1.333,1.333,0,0,0-.129-2.663,1.281,1.281,0,0,1-1.339-1.215A1.934,1.934,0,0,1,266.9,64.54a2.753,2.753,0,0,1,2.877,2.611A3.768,3.768,0,0,1,266.2,71.1a1.333,1.333,0,0,0,.063,2.664l.065,0a6.44,6.44,0,0,0,6.115-6.736A5.419,5.419,0,0,0,266.774,61.877Z" transform="translate(-215.765 -50.875)" fill="#3a3c07"/>
      <path id="Trazado_132698" data-name="Trazado 132698" d="M17.372,466.166a1.333,1.333,0,0,0-1.333,1.333v5.48a1.333,1.333,0,1,0,2.666,0V467.5A1.333,1.333,0,0,0,17.372,466.166Z" transform="translate(-13.189 -383.319)" fill="#3a3c07"/>
      <path id="Trazado_132699" data-name="Trazado 132699" d="M121.23,56.53h43.293a2.806,2.806,0,0,0,2.8-2.8V2.8a2.806,2.806,0,0,0-2.8-2.8H130.258a1.333,1.333,0,1,0,0,2.666h32.22L160.07,5.332H125.684l-2.409-2.666h1.83A1.333,1.333,0,0,0,125.1,0H121.23a2.807,2.807,0,0,0-2.8,2.8V53.726A2.807,2.807,0,0,0,121.23,56.53Zm2.528-49.352V49.352l-2.666,2.95V4.227Zm38.236,0,2.666-2.95V52.3l-2.666-2.951ZM155.309,51.2h4.761l2.409,2.666h-39.2l2.409-2.666h24.471a1.333,1.333,0,1,0,0-2.666h-23.73V8h32.9V48.532h-4.02a1.333,1.333,0,1,0,0,2.666Z" transform="translate(-97.38 0)" fill="#3a3c07"/>
    </g>
  </g>
</svg>
