<svg id="Grupo_83775" data-name="Grupo 83775" xmlns="http://www.w3.org/2000/svg" width="105" height="105" viewBox="0 0 105 105">
  <rect id="Rect치ngulo_5987" data-name="Rect치ngulo 5987" width="105" height="105" fill="none"/>
  <g id="alfombra" transform="translate(-60.547 5.5)">
    <rect id="Rect치ngulo_6264" data-name="Rect치ngulo 6264" width="60.98" height="82.19" transform="translate(82.609 5.856)" fill="#f75469"/>
    <path id="Trazado_132673" data-name="Trazado 132673" d="M151.2,75.495V134.46l-7.625,4.419-7.622-4.419-7.622,4.419-7.622-4.419-7.622,4.419-7.622-4.419-7.622,4.419-7.62-4.419V75.495l7.622-4.419,7.625,4.419,7.622-4.419,7.622,4.419,7.622-4.419,7.622,4.419,7.62-4.419Zm-18.084,29.483L120.71,87.826,108.3,104.977l12.408,17.152Z" transform="translate(-7.611 -58.027)" fill="#fcca5f"/>
    <path id="Trazado_132674" data-name="Trazado 132674" d="M145.193,1.657a1.657,1.657,0,1,0-3.314,0V4.248h-3.461V1.657a1.657,1.657,0,0,0-3.314,0V4.248h-3.461V1.657a1.657,1.657,0,1,0-3.314,0V4.248h-3.461V1.657a1.657,1.657,0,0,0-3.314,0V4.248h-3.461V1.657a1.657,1.657,0,1,0-3.314,0V4.248h-3.461V1.657a1.657,1.657,0,0,0-3.314,0V4.248h-3.461V1.657a1.657,1.657,0,1,0-3.314,0V4.248H97.764V1.657a1.657,1.657,0,0,0-3.314,0V4.248H90.988V1.657a1.657,1.657,0,0,0-3.314,0V4.248h-3.46V1.657a1.657,1.657,0,1,0-3.314,0v56.67a1.657,1.657,0,0,0,3.314,0V18.472l5.965-3.458,6.794,3.937a1.657,1.657,0,1,0,1.662-2.867L91.01,11.665a1.657,1.657,0,0,0-1.662,0l-5.134,2.976V7.562H141.88v7.08l-5.135-2.977a1.658,1.658,0,0,0-1.662,0L128.294,15.6,121.5,11.665a1.657,1.657,0,0,0-1.662,0L113.049,15.6l-6.791-3.937a1.657,1.657,0,0,0-1.662,0l-3.565,2.067a1.657,1.657,0,0,0,1.662,2.867l2.734-1.585,6.791,3.937a1.657,1.657,0,0,0,1.662,0l6.791-3.937,6.791,3.937a1.658,1.658,0,0,0,1.662,0l6.789-3.937,5.965,3.458V75.528l-5.967,3.458-6.791-3.937a1.657,1.657,0,0,0-1.662,2.867l7.622,4.419a1.657,1.657,0,0,0,1.662,0l5.137-2.977v7.08H84.214V79.359l5.132,2.976a1.657,1.657,0,0,0,1.662,0L97.8,78.4l6.791,3.937a1.657,1.657,0,0,0,1.662,0l6.791-3.937,6.791,3.937a1.657,1.657,0,0,0,1.662,0l2.729-1.582a1.657,1.657,0,0,0-1.662-2.867l-1.9,1.1-6.791-3.937a1.657,1.657,0,0,0-1.662,0l-6.791,3.937-6.791-3.937a1.657,1.657,0,0,0-1.662,0l-6.791,3.937-5.963-3.458V64.182a1.657,1.657,0,0,0-3.314,0v28.16a1.657,1.657,0,0,0,3.314,0V89.752h3.461v2.591a1.657,1.657,0,1,0,3.314,0V89.752h3.461v2.591a1.657,1.657,0,1,0,3.314,0V89.752h3.461v2.591a1.657,1.657,0,1,0,3.314,0V89.752H108v2.591a1.657,1.657,0,1,0,3.314,0V89.752h3.461v2.591a1.657,1.657,0,1,0,3.314,0V89.752h3.461v2.591a1.657,1.657,0,1,0,3.314,0V89.752h3.461v2.591a1.657,1.657,0,1,0,3.314,0V89.752H135.1v2.591a1.657,1.657,0,0,0,3.314,0V89.752h3.461v2.591a1.657,1.657,0,1,0,3.314,0V1.657Z" fill="#3a3c07"/>
    <path id="Trazado_132675" data-name="Trazado 132675" d="M199.169,160.278l-4.368-6.04a1.657,1.657,0,0,0-2.685,0l-12.408,17.152a1.657,1.657,0,0,0,0,1.943l12.408,17.152a1.657,1.657,0,0,0,2.685,0l12.406-17.152a1.657,1.657,0,0,0,0-1.942l-4.228-5.846a1.657,1.657,0,1,0-2.686,1.942l3.526,4.875-10.361,14.324L183.1,172.361l10.363-14.324,3.026,4.184a1.657,1.657,0,1,0,2.685-1.943Z" transform="translate(-80.411 -125.361)" fill="#3a3c07"/>
    <path id="Trazado_132676" data-name="Trazado 132676" d="M316.572,155.235a1.657,1.657,0,0,0-1.657,1.657v1.491h-1.491a1.657,1.657,0,0,0,0,3.314h1.491v1.491a1.657,1.657,0,0,0,3.314,0V161.7h1.491a1.657,1.657,0,0,0,0-3.314h-1.491v-1.491A1.657,1.657,0,0,0,316.572,155.235Z" transform="translate(-188.482 -126.735)" fill="#3a3c07"/>
    <path id="Trazado_132677" data-name="Trazado 132677" d="M316.572,322.633a1.657,1.657,0,0,0,1.657-1.657v-1.491h1.491a1.657,1.657,0,1,0,0-3.314h-1.491v-1.491a1.657,1.657,0,1,0-3.314,0v1.491h-1.491a1.657,1.657,0,1,0,0,3.314h1.491v1.491A1.657,1.657,0,0,0,316.572,322.633Z" transform="translate(-188.482 -255.553)" fill="#3a3c07"/>
    <path id="Trazado_132678" data-name="Trazado 132678" d="M234.629,239.436a1.657,1.657,0,0,0,1.657-1.657v-1.491h1.491a1.657,1.657,0,1,0,0-3.314h-1.491v-1.491a1.657,1.657,0,0,0-3.314,0v1.491h-1.491a1.657,1.657,0,0,0,0,3.314h1.491v1.491A1.657,1.657,0,0,0,234.629,239.436Z" transform="translate(-121.583 -187.631)" fill="#3a3c07"/>
    <path id="Trazado_132679" data-name="Trazado 132679" d="M146.9,155.235a1.657,1.657,0,0,0-1.657,1.657v1.491h-1.491a1.657,1.657,0,0,0,0,3.314h1.491v1.491a1.657,1.657,0,0,0,3.314,0V161.7h1.491a1.657,1.657,0,0,0,0-3.314h-1.491v-1.491A1.657,1.657,0,0,0,146.9,155.235Z" transform="translate(-49.958 -126.735)" fill="#3a3c07"/>
    <path id="Trazado_132680" data-name="Trazado 132680" d="M143.748,319.485h1.491v1.491a1.657,1.657,0,0,0,3.314,0v-1.491h1.491a1.657,1.657,0,0,0,0-3.314h-1.491V314.68a1.657,1.657,0,0,0-3.314,0v1.491h-1.491a1.657,1.657,0,0,0,0,3.314Z" transform="translate(-49.958 -255.554)" fill="#3a3c07"/>
  </g>
</svg>
