<svg xmlns="http://www.w3.org/2000/svg" xmlns:xlink="http://www.w3.org/1999/xlink" width="1328" height="587" viewBox="0 0 1328 587">
  <defs>
    <clipPath id="clip-path">
      <path id="Rectángulo_6159" data-name="Rectángulo 6159" d="M0,0H714.935a0,0,0,0,1,0,0V569.288A17.712,17.712,0,0,1,697.223,587H0a0,0,0,0,1,0,0V0A0,0,0,0,1,0,0Z" fill="none"/>
    </clipPath>
    <linearGradient id="linear-gradient" x1="1" y1="0.5" x2="0" y2="0.5" gradientUnits="objectBoundingBox">
      <stop offset="0" stop-color="#e0eeff"/>
      <stop offset="1" stop-color="#e0eeff"/>
    </linearGradient>
    <linearGradient id="linear-gradient-2" x1="-26.981" y1="17.234" x2="-28.081" y2="17.234" xlink:href="#linear-gradient"/>
    <linearGradient id="linear-gradient-3" x1="2.957" y1="-0.901" x2="2.074" y2="-0.901" xlink:href="#linear-gradient"/>
  </defs>
  <g id="Grupo_84248" data-name="Grupo 84248" transform="translate(-136 -397)">
    <path id="Trazado_115880" data-name="Trazado 115880" d="M173.318,806.335C141.284,748.878,73.639,741.932,0,764.747V879.889A20.111,20.111,0,0,0,20.111,900H234.427A758.246,758.246,0,0,1,173.318,806.335Z" transform="translate(136 84)" fill="#fee45a"/>
    <g id="Grupo_68911" data-name="Grupo 68911" transform="translate(749.064 397)">
      <g id="Grupo_68903" data-name="Grupo 68903" transform="translate(0 0)" clip-path="url(#clip-path)">
        <path id="Trazado_116428" data-name="Trazado 116428" d="M-226.936,186.924c-66.139-44.609-168.175-62.62-234.545-7.87-14.378,11.861-24.494,21.516-44.127,25.572-17.7,3.657-32.093,3.22-49.092-2.041-30.146-9.329-66.732-12.074-97.716-5.084-60.311,13.6-108.783,61.657-106.142,121.239.881,19.872,15.036,37.832,11.79,58.034-2.449,15.243-16.837,30.967-26.8,43.332-19.444,24.136-38.255,51.044-40.75,82.355-3.855,48.372,5.359,88.634,17.583,106.739,25.8,38.212,74.258,24.712,118.562,43.987l481.247-19.674Z" transform="translate(953.776 -39.953)" fill="url(#linear-gradient)"/>
        <path id="Trazado_116429" data-name="Trazado 116429" d="M-780.384,112.2c16.569,1.369,34.206,9.81,46.821,23.552,7.933,8.643,22.137,29.367,6.086,30.176-9.945.5-60.77-18.858-70.32-31.728C-804.58,125.054-797.954,111.21-780.384,112.2Z" transform="translate(1458.601 -48.006)" fill="url(#linear-gradient-2)"/>
        <path id="Trazado_116430" data-name="Trazado 116430" d="M-208.324,671.975a434.621,434.621,0,0,1-39.057-79.129c-9.764-25.881-14.277-55.364-16.844-80.015-2.022-19.419-5.864-47.6-17.936-65.405-12.335-18.191-27.056-16.11-36.623-13.491-13.661,3.74-20.068,17.368-20.253,44.395-.137,20.051,7.058,44.284,16.7,65.236,19.246,41.818,42.008,52.815,63.877,83.933,9.823,13.977,19.1,28.164,29.346,39.236C-226.686,669.357-202.423,694.746-208.324,671.975Z" transform="translate(371.749 30.195)" fill="url(#linear-gradient-3)"/>
      </g>
    </g>
  </g>
</svg>
