<svg xmlns="http://www.w3.org/2000/svg" width="505.5" height="328.191" viewBox="0 0 505.5 328.191">
  <g id="Grupo_68923" data-name="Grupo 68923" transform="translate(-3317.662 -728.546)">
    <path id="Trazado_116432" data-name="Trazado 116432" d="M3602.171,990.89s-5.947-81.168-20.378-123.484c-18.193-53.348-65.877-70.009-72.276-72.64-.615-.253-9.557-3.616-12.854-4.438-9.1-2.271-37.048-5.949-37.048-5.949-63.277-5.777-91.407,20.309-123.155,62.073-45.115,59.346-1.568,127.623,80.91,86.572l-5.229,27.4h122.871l1.6,30.456Z" transform="translate(0.48 64.676)"/>
    <path id="Trazado_116433" data-name="Trazado 116433" d="M3387.064,784.493s31.274,38.056,47.311,36.944,16.535-27.121,16.535-27.121l3.942-1.338c-2.865-1.033-6.269-2.21-8.041-2.652-9.1-2.271-37.048-5.949-37.048-5.949a174.516,174.516,0,0,0-23.044-.666Z" transform="translate(50.333 64.678)" fill="#fff"/>
    <path id="Trazado_116434" data-name="Trazado 116434" d="M3602.651,992.562l-65.559-.005a1.167,1.167,0,0,1-1.16-1.112L3534.39,962.1H3412.622a1.158,1.158,0,0,1-.9-.425,1.178,1.178,0,0,1-.246-.969l4.789-25.107c-18.642,8.924-36.62,12.815-52.125,11.248-14.717-1.485-26.921-7.7-35.3-17.969-17.227-21.13-14.346-54.34,7.168-82.641,16.362-21.522,31.142-38.12,50.094-49.164,20.371-11.87,43.915-16.115,74.089-13.362,1.189.155,28.158,3.719,37.221,5.979,3.373.842,12.317,4.2,13.015,4.492.284.115.653.261,1.1.437,35.012,13.834,60.525,39.727,71.838,72.9,14.315,41.973,20.378,122.965,20.439,123.779a1.181,1.181,0,0,1-.309.883A1.156,1.156,0,0,1,3602.651,992.562Zm-64.456-2.349,63.2.005c-.831-10.45-6.979-83.108-20.221-121.93-11.089-32.518-36.123-57.907-70.488-71.487-.457-.18-.835-.329-1.127-.45-.659-.272-9.5-3.59-12.7-4.386-8.937-2.229-36.64-5.888-36.918-5.925-65.175-5.947-92.773,23.07-122.083,61.624-20.84,27.416-23.741,59.456-7.214,79.725,7.973,9.783,19.638,15.7,33.728,17.124,15.648,1.581,33.962-2.586,52.959-12.041a1.161,1.161,0,0,1,1.221.119,1.18,1.18,0,0,1,.437,1.154l-4.962,26.011h121.462a1.167,1.167,0,0,1,1.162,1.11Z" transform="translate(0 64.175)"/>
    <g id="Grupo_68917" data-name="Grupo 68917" transform="translate(3633.005 882.875)">
      <g id="Grupo_68916" data-name="Grupo 68916">
        <path id="Trazado_116435" data-name="Trazado 116435" d="M3501.086,818.525a1.017,1.017,0,0,1-.725-.3,1.039,1.039,0,0,1,0-1.462l12.906-13.01a1.021,1.021,0,0,1,1.453,0,1.04,1.04,0,0,1,0,1.462l-12.908,13.01A1.019,1.019,0,0,1,3501.086,818.525Z" transform="translate(-3500.06 -803.447)"/>
        <path id="Trazado_116436" data-name="Trazado 116436" d="M3513.993,818.525a1.02,1.02,0,0,1-.726-.3l-12.906-13.01a1.04,1.04,0,0,1,0-1.462,1.019,1.019,0,0,1,1.451,0l12.908,13.01a1.039,1.039,0,0,1,0,1.462A1.02,1.02,0,0,1,3513.993,818.525Z" transform="translate(-3500.06 -803.447)"/>
      </g>
    </g>
    <path id="Trazado_116438" data-name="Trazado 116438" d="M3374.826,885.065l129.778,0,7.721,30.463H3369.517C3373.393,888.745,3374.826,885.065,3374.826,885.065Z" transform="translate(37.796 140.034)" fill="#fff"/>
    <path id="Trazado_116439" data-name="Trazado 116439" d="M3512.758,917.006H3369.95a1.022,1.022,0,0,1-.776-.357,1.037,1.037,0,0,1-.239-.826c3.848-26.6,5.309-30.54,5.37-30.7a1.026,1.026,0,0,1,.954-.657l129.778.005a1.027,1.027,0,0,1,.994.777l7.721,30.463a1.04,1.04,0,0,1-.184.891A1.019,1.019,0,0,1,3512.758,917.006Zm-141.62-2.068h140.3l-7.2-28.393-128.216-.005C3375.527,888.406,3374.056,894.909,3371.138,914.938Z" transform="translate(37.363 139.593)"/>
    <path id="Trazado_116440" data-name="Trazado 116440" d="M3453.41,947.867a1.171,1.171,0,0,1-1.164-1.178l.556-105.876a60.323,60.323,0,0,0-12.416-36.857,1.178,1.178,0,0,1,.223-1.643,1.155,1.155,0,0,1,1.63.225,62.665,62.665,0,0,1,12.89,38.287l-.556,105.876A1.168,1.168,0,0,1,3453.41,947.867Z" transform="translate(89.277 78.409)"/>
    <path id="Trazado_116478" data-name="Trazado 116478" d="M33.453,0a33.081,33.081,0,0,1,33.3,33.086A33.46,33.46,0,0,1,33.3,66.329,33.081,33.081,0,0,1,0,33.243,33.46,33.46,0,0,1,33.453,0Z" transform="matrix(0.315, -0.949, 0.949, 0.315, 3451.295, 832.64)"/>
    <path id="Trazado_116441" data-name="Trazado 116441" d="M3407.689,787.832c11.756,6.245,21.594,1,22.61-8.8,0,0,14.818-29.075,27.612-24.777,7.809,3.941,10.873,13.39,8.674,23.878-.965,4.6-2.764,17.229-5.8,26.154-3.018,8.885-6.914,18.949-27.829,8.143l-6.616,14.461-28.644-17.22Z" transform="translate(58.335 42.577)" fill="#fff"/>
    <path id="Trazado_116442" data-name="Trazado 116442" d="M3416.75,824.371c-.832-.2-1.145-.775-.986-1.323l3.068-10.652a1.038,1.038,0,0,1,.58-.662,1.02,1.02,0,0,1,.875.03c8.316,4.3,14.4,5.555,18.6,3.846s6.015-6.176,7.792-11.4c2.279-6.705,3.862-15.584,4.911-21.46.33-1.852.616-3.452.851-4.573,2.18-10.4-.936-19.109-8.129-22.74a1.038,1.038,0,0,1-.458-1.387,1.022,1.022,0,0,1,1.378-.462c8.067,4.072,11.6,13.658,9.219,25.018-.23,1.089-.512,2.675-.84,4.51-1.06,5.937-2.661,14.909-4.99,21.765-1.5,4.41-3.551,10.45-8.966,12.653-4.581,1.865-10.869.765-19.194-3.363l-2.725,9.46A1.03,1.03,0,0,1,3416.75,824.371Z" transform="translate(71.474 42.32)"/>
    <path id="Trazado_116443" data-name="Trazado 116443" d="M3398.129,796.65a1.021,1.021,0,0,1-.428-.1,1.035,1.035,0,0,1-.5-1.372l9.991-21.836a1.022,1.022,0,0,1,1.363-.507,1.036,1.036,0,0,1,.5,1.373l-9.991,21.836A1.028,1.028,0,0,1,3398.129,796.65Z" transform="translate(57.902 56.63)"/>
    <path id="Trazado_116444" data-name="Trazado 116444" d="M3421.622,790.6a1.018,1.018,0,0,1-.481-.12l-7.344-3.926a1.04,1.04,0,0,1-.427-1.4,1.022,1.022,0,0,1,1.388-.429l7.344,3.926a1.037,1.037,0,0,1,.427,1.4A1.025,1.025,0,0,1,3421.622,790.6Z" transform="translate(69.671 65.437)"/>
    <path id="Trazado_116445" data-name="Trazado 116445" d="M3424.349,768.724a2.1,2.1,0,0,0,.708,2.872,2.067,2.067,0,0,0,2.849-.714,2.1,2.1,0,0,0-.707-2.87A2.067,2.067,0,0,0,3424.349,768.724Z" transform="translate(77.544 52.893)"/>
    <path id="Trazado_116446" data-name="Trazado 116446" d="M3433.124,771.463a2.1,2.1,0,0,0,.709,2.87,2.067,2.067,0,0,0,2.849-.713,2.1,2.1,0,0,0-.709-2.872A2.066,2.066,0,0,0,3433.124,771.463Z" transform="translate(83.939 54.925)"/>
    <path id="Trazado_116447" data-name="Trazado 116447" d="M3413.779,785.09s-3.66,12.789,4.952,15.477l3.069-11.361Z" transform="translate(69.493 65.798)"/>
    <g id="Grupo_68918" data-name="Grupo 68918" transform="translate(3477.733 814.219)">
      <path id="Trazado_116448" data-name="Trazado 116448" d="M3411.1,769.47a9.355,9.355,0,0,0,4.528,12.374,9.221,9.221,0,0,0,12.276-4.562,9.358,9.358,0,0,0-4.526-12.376A9.224,9.224,0,0,0,3411.1,769.47Z" transform="translate(-3410.249 -764.047)" fill="#fff"/>
      <path id="Trazado_116449" data-name="Trazado 116449" d="M3416.984,774.618a1.028,1.028,0,0,1-1.006-.84l-1.091-5.771a1.027,1.027,0,1,1,2.018-.387l1.089,5.771a1.024,1.024,0,0,1-1.01,1.227Z" transform="translate(-3406.882 -762.019)"/>
    </g>
    <path id="Trazado_116450" data-name="Trazado 116450" d="M3431.037,785.266a1.057,1.057,0,0,1-1.018-1.168l1.876-14.522a1.026,1.026,0,1,1,2.035.266l-1.876,14.523A1.029,1.029,0,0,1,3431.037,785.266Z" transform="translate(81.887 53.608)"/>
    <path id="Trazado_116451" data-name="Trazado 116451" d="M3446.9,746.23a33.65,33.65,0,0,0-44.795,16.648q-.574,1.255-1.039,2.529L3466.1,782.58A34.1,34.1,0,0,0,3446.9,746.23Z" transform="translate(60.793 34.614)" fill="#529ad9"/>
    <g id="Grupo_68919" data-name="Grupo 68919" transform="translate(3661.362 829.196)">
      <path id="Trazado_116452" data-name="Trazado 116452" d="M3534.773,853.74c0,34.924,49.278,109.483,70.422,139.868a11.491,11.491,0,0,0,18.9,0c21.144-30.385,70.422-104.944,70.422-139.868,0-44.461-35.76-80.5-79.874-80.5S3534.773,809.279,3534.773,853.74Z" transform="translate(-3533.748 -772.201)" fill="#fee45a"/>
      <path id="Trazado_116453" data-name="Trazado 116453" d="M3615.08,1000.04a12.393,12.393,0,0,1-10.292-5.4c-21.23-30.507-70.607-105.264-70.607-140.46,0-44.961,36.291-81.539,80.9-81.539s80.9,36.578,80.9,81.539c0,35.2-49.378,109.953-70.609,140.46A12.389,12.389,0,0,1,3615.08,1000.04Zm0-225.33c-43.478,0-78.847,35.651-78.847,79.471,0,34.607,49.118,108.927,70.235,139.273a10.468,10.468,0,0,0,17.223,0c21.118-30.346,70.236-104.666,70.236-139.273C3693.927,810.361,3658.558,774.71,3615.08,774.71Z" transform="translate(-3534.18 -772.642)"/>
      <ellipse id="Elipse_7965" data-name="Elipse 7965" cx="43.425" cy="43.769" rx="43.425" ry="43.769" transform="translate(37.474 37.771)" fill="#fff"/>
    </g>
    <path id="Trazado_116454" data-name="Trazado 116454" d="M3712.765,904.021H3357.781a1.039,1.039,0,0,1,0-2.068h354.983a1.039,1.039,0,0,1,0,2.068Z" transform="translate(28.554 152.574)"/>
    <path id="Trazado_116455" data-name="Trazado 116455" d="M3588.545,879.585l-11.428-41.7a9.24,9.24,0,0,0-8.9-6.824h-204.5V933.585H3615.97V895.057a15.371,15.371,0,0,0-15.268-15.472Z" transform="translate(33.569 99.931)" fill="#fff"/>
    <path id="Trazado_116456" data-name="Trazado 116456" d="M3457.59,934.966a1.032,1.032,0,0,1-1.027-1.035V831.626a1.026,1.026,0,1,1,2.053,0V933.931A1.031,1.031,0,0,1,3457.59,934.966Z" transform="translate(101.241 99.584)"/>
    <path id="Trazado_116457" data-name="Trazado 116457" d="M3463.127,743.423a14.271,14.271,0,1,1,14.158-14.271A14.232,14.232,0,0,1,3463.127,743.423Zm0-26.473a12.2,12.2,0,1,0,12.106,12.2A12.168,12.168,0,0,0,3463.127,716.95Z" transform="translate(95.705 13.664)"/>
    <rect id="Rect치ngulo_6196" data-name="Rect치ngulo 6196" width="72.575" height="47.911" transform="translate(3515.005 1003.471) rotate(180)" fill="#a0a603"/>
    <path id="Trazado_116458" data-name="Trazado 116458" d="M3417.64,862.285h-8.989a1.031,1.031,0,0,1-1.026-1.033V845.6a1.031,1.031,0,0,1,1.026-1.033h8.989a1.029,1.029,0,0,1,1.025,1.033v15.653A1.03,1.03,0,0,1,3417.64,862.285Zm-7.963-2.069h6.936V846.633h-6.936Z" transform="translate(65.571 109.961)"/>
    <path id="Trazado_116459" data-name="Trazado 116459" d="M3491.355,780.638c-.251-.031-90.082-22.9-90.082-22.9a1.034,1.034,0,0,1,.5-2.006l89.828,22.866a1.035,1.035,0,0,1-.25,2.037Z" transform="translate(60.378 43.977)"/>
    <path id="Trazado_116460" data-name="Trazado 116460" d="M3465.607,832.491a1.029,1.029,0,0,1-1.013-.873c-.194-1.23-4.634-30.362,6.732-47.021,9.6-14.069,22.1-23.085,35.207-25.382a35.943,35.943,0,0,1,13.56.317c10.191-15.8,29.127-26.659,48.838-26.368,24.683.39,49,17.03,60.515,41.4a1.04,1.04,0,0,1-.485,1.378,1.023,1.023,0,0,1-1.367-.49c-11.186-23.681-34.773-39.849-58.7-40.227-18.779-.312-36.806,9.919-46.7,24.814,9.289,2.544,17.714,8.739,21.078,18.49,2.253,6.524.625,14.963-3.958,20.524-3.465,4.2-7.991,6.116-12.744,5.391a14.3,14.3,0,0,1-9.561-6.137c-3.747-5.255-5.325-13.477-4.021-20.945a47.8,47.8,0,0,1,5.94-15.955,32.957,32.957,0,0,0-12.05-.16c-12.555,2.2-24.583,10.908-33.867,24.518-10.9,15.972-6.441,45.231-6.395,45.524a1.033,1.033,0,0,1-.853,1.183A.859.859,0,0,1,3465.607,832.491Zm55.421-70.6a45.983,45.983,0,0,0-6.013,15.833c-1.212,6.948.226,14.554,3.667,19.379a12.144,12.144,0,0,0,8.2,5.3c4.009.619,7.868-1.044,10.857-4.668,4.147-5.031,5.627-12.647,3.6-18.521C3538.432,770.787,3530.436,764.374,3521.028,761.893Z" transform="translate(106.355 27.235)"/>
    <path id="Trazado_116461" data-name="Trazado 116461" d="M3344.992,857.221a1.151,1.151,0,0,1-.523-.125,1.173,1.173,0,0,1-.514-1.574c.144-.289,14.761-28.933,43.405-37.427,29.617-8.781,49.546-9.147,60.252-9.344l1.283-.024a1.172,1.172,0,0,1,.045,2.344l-1.285.024c-10.6.2-30.323.558-59.641,9.249-27.657,8.2-41.844,35.954-41.984,36.233A1.165,1.165,0,0,1,3344.992,857.221Z" transform="translate(19.073 83.349)" fill="#fff"/>
    <path id="Trazado_116462" data-name="Trazado 116462" d="M3379.205,821.047a1.2,1.2,0,0,1-.386-.066,1.176,1.176,0,0,1-.712-1.5l5.786-16.627a1.161,1.161,0,0,1,1.483-.718,1.176,1.176,0,0,1,.713,1.495l-5.786,16.628A1.164,1.164,0,0,1,3379.205,821.047Z" transform="translate(44.008 78.409)" fill="#fff"/>
    <rect id="Rect치ngulo_6197" data-name="Rect치ngulo 6197" width="18.11" height="14.08" transform="translate(3631.429 1008.781)" fill="#a0a603"/>
    <path id="Trazado_116463" data-name="Trazado 116463" d="M3616.4,935.061H3364.152a1.031,1.031,0,0,1-1.027-1.035V831.5a1.031,1.031,0,0,1,1.027-1.035h204.5a10.3,10.3,0,0,1,9.886,7.584l11.218,40.943h11.378a16.419,16.419,0,0,1,16.293,16.507v38.528A1.03,1.03,0,0,1,3616.4,935.061Zm-251.226-2.068h250.2V895.5a14.358,14.358,0,0,0-14.24-14.439h-12.158a1.029,1.029,0,0,1-.991-.758l-11.426-41.7a8.238,8.238,0,0,0-7.908-6.068H3365.177Z" transform="translate(33.137 99.49)"/>
    <g id="Grupo_68920" data-name="Grupo 68920" transform="translate(3578.309 1011.37)">
      <path id="Trazado_116464" data-name="Trazado 116464" d="M3511.1,898.986a21.04,21.04,0,1,1-21.04-21.207A21.123,21.123,0,0,1,3511.1,898.986Z" transform="translate(-3467.991 -876.746)" fill="#fff"/>
      <path id="Trazado_116465" data-name="Trazado 116465" d="M3490.489,921.666a22.241,22.241,0,1,1,22.066-22.24A22.179,22.179,0,0,1,3490.489,921.666Zm0-42.412a20.172,20.172,0,1,0,20.013,20.172A20.116,20.116,0,0,0,3490.489,879.254Z" transform="translate(-3468.423 -877.186)"/>
    </g>
    <g id="Grupo_68921" data-name="Grupo 68921" transform="translate(3427.973 1011.37)">
      <path id="Trazado_116466" data-name="Trazado 116466" d="M3424.14,898.986a21.04,21.04,0,1,1-21.04-21.207A21.122,21.122,0,0,1,3424.14,898.986Z" transform="translate(-3381.034 -876.746)" fill="#fff"/>
      <path id="Trazado_116467" data-name="Trazado 116467" d="M3403.532,921.666a22.241,22.241,0,1,1,22.066-22.24A22.18,22.18,0,0,1,3403.532,921.666Zm0-42.412a20.172,20.172,0,1,0,20.013,20.172A20.117,20.117,0,0,0,3403.532,879.254Z" transform="translate(-3381.467 -877.186)"/>
      <path id="Trazado_116468" data-name="Trazado 116468" d="M3411.879,895.281a12.414,12.414,0,1,1-12.415-12.511A12.463,12.463,0,0,1,3411.879,895.281Z" transform="translate(-3377.398 -873.04)"/>
      <path id="Trazado_116469" data-name="Trazado 116469" d="M3498.833,895.281a12.414,12.414,0,1,1-12.414-12.511A12.463,12.463,0,0,1,3498.833,895.281Z" transform="translate(-3314.018 -873.04)"/>
    </g>
    <g id="Grupo_68922" data-name="Grupo 68922" transform="translate(3447.944 887.107)">
      <path id="Trazado_116470" data-name="Trazado 116470" d="M3494.621,824.517c-7.611-16.359-11.311-18.778-31.689-17.774s-28.741,6.881-28.741,6.881l-19.269-2.011a19.391,19.391,0,1,0-1.817,38.7l.8-.007c20.191.366,22.1-4.49,22.1-4.49s5.033,12.306,14.918,10.725c4.253-.681,5.462-3.647,5.434-6.186,2.163,2.992,5.1,5.362,8.94,5.069,8.57-.655,4.69-11.037,3.56-13.677,1.258,2.713,6.768,13.513,14.144,12.257,7.7-1.314,2.164-13.8,1.137-15.861,1.236,2.4,6.748,15.6,15.2,12.771C3506.4,848.54,3502.231,840.878,3494.621,824.517Z" transform="translate(-3392.529 -805.376)" fill="#fff"/>
      <path id="Trazado_116471" data-name="Trazado 116471" d="M3449.637,858.352c-7.334,0-11.775-6.81-13.454-10-2.222,1.666-7.814,3.874-21.81,3.619l-.768.007a20.24,20.24,0,0,1-14.865-6.289,20.682,20.682,0,0,1,1.364-29.864,20.092,20.092,0,0,1,15.428-4.879l18.862,1.969c1.874-1.162,10.624-5.94,28.972-6.845,20.576-1.011,24.867,1.4,32.8,18.448q.768,1.649,1.485,3.18c5.11,10.924,8.193,17.518,6.489,21.533a6.008,6.008,0,0,1-3.942,3.288c-4.855,1.628-8.751-1.253-11.575-4.8a9.262,9.262,0,0,1-.7,4.963,5.545,5.545,0,0,1-4.238,2.966c-4.676.8-8.57-2.525-11.326-6.118a8.288,8.288,0,0,1-.991,4.567c-1.07,1.783-2.92,2.788-5.495,2.985a10.158,10.158,0,0,1-8.279-3.515,7.1,7.1,0,0,1-6,4.62A12.392,12.392,0,0,1,3449.637,858.352Zm-13.131-13.283a1.215,1.215,0,0,1,1.065.794c.048.115,4.822,11.436,13.661,10.014,3.917-.626,4.471-3.41,4.454-5.013a1.171,1.171,0,0,1,.8-1.126,1.155,1.155,0,0,1,1.305.422c2.361,3.266,5.021,4.818,7.913,4.59a4.313,4.313,0,0,0,3.679-1.859c1.4-2.34.351-6.794-1.1-10.183a1.176,1.176,0,0,1,.591-1.534,1.159,1.159,0,0,1,1.53.572c.99,2.136,6.263,12.715,12.9,11.6a3.229,3.229,0,0,0,2.55-1.715c1.627-3.236-1.078-10.1-2.258-12.466a1.176,1.176,0,0,1,.512-1.57,1.16,1.16,0,0,1,1.562.507c.1.2.233.471.393.8,1.632,3.382,6.6,13.677,13.4,11.4a3.779,3.779,0,0,0,2.538-1.985c1.295-3.048-1.787-9.636-6.454-19.612q-.718-1.535-1.487-3.184c-7.512-16.15-10.944-18.067-30.579-17.1-19.712.971-28.054,6.618-28.135,6.676a1.168,1.168,0,0,1-.783.2l-19.269-2.011a17.825,17.825,0,0,0-13.67,4.323,18.326,18.326,0,0,0-1.209,26.461,17.9,17.9,0,0,0,13.172,5.573l.8-.007c17.682.319,20.773-3.4,21.041-3.788a1.072,1.072,0,0,1,1.011-.768C3436.459,845.07,3436.481,845.069,3436.506,845.069Z" transform="translate(-3393.019 -805.875)"/>
      <path id="Trazado_116472" data-name="Trazado 116472" d="M3421.109,837.086a1.164,1.164,0,0,1-1.084-.747l-5.4-13.967a1.176,1.176,0,0,1,.662-1.518,1.159,1.159,0,0,1,1.506.666l5.4,13.968a1.176,1.176,0,0,1-.662,1.518A1.161,1.161,0,0,1,3421.109,837.086Z" transform="translate(-3377.328 -794.812)"/>
      <path id="Trazado_116473" data-name="Trazado 116473" d="M3434.523,845.022a1.166,1.166,0,0,1-1.1-.779l-9.708-27.372a1.173,1.173,0,0,1,.7-1.5,1.159,1.159,0,0,1,1.485.709l9.71,27.372a1.175,1.175,0,0,1-.7,1.5A1.141,1.141,0,0,1,3434.523,845.022Z" transform="translate(-3370.692 -798.874)"/>
      <path id="Trazado_116474" data-name="Trazado 116474" d="M3441.309,837.586a1.163,1.163,0,0,1-1.079-.732l-8.654-21.515a1.176,1.176,0,0,1,.641-1.526,1.158,1.158,0,0,1,1.514.645l8.655,21.517a1.166,1.166,0,0,1-1.077,1.612Z" transform="translate(-3364.979 -800.046)"/>
      <path id="Trazado_116475" data-name="Trazado 116475" d="M3453.316,843.494a1.159,1.159,0,0,1-1.078-.735l-11.6-29a1.175,1.175,0,0,1,.645-1.525,1.161,1.161,0,0,1,1.513.65l11.594,29a1.176,1.176,0,0,1-.643,1.525A1.164,1.164,0,0,1,3453.316,843.494Z" transform="translate(-3358.369 -801.22)"/>
    </g>
    <path id="Trazado_116476" data-name="Trazado 116476" d="M3520.874,860.381H3457.59a1.034,1.034,0,0,1,0-2.069h63.284a1.034,1.034,0,0,1,0,2.069Z" transform="translate(101.241 120.169)"/>
    <path id="Trazado_116477" data-name="Trazado 116477" d="M3430.261,785.4a5.11,5.11,0,0,1-4.02-1.945,5.2,5.2,0,0,1,.811-7.273,1.025,1.025,0,0,1,1.444.164l5.123,6.474a1.035,1.035,0,0,1-.161,1.453A5.081,5.081,0,0,1,3430.261,785.4Zm-2.623-6.819a3.135,3.135,0,0,0,.208,3.583,3.074,3.074,0,0,0,3.42,1Z" transform="translate(78.322 59.015)"/>
  </g>
</svg>
