<?xml version="1.0" encoding="utf-8"?>
<!-- Generator: Adobe Illustrator 25.4.1, SVG Export Plug-In . SVG Version: 6.00 Build 0)  -->
<svg version="1.1" id="Capa_1" xmlns="http://www.w3.org/2000/svg" xmlns:xlink="http://www.w3.org/1999/xlink" x="0px" y="0px"
	 viewBox="0 0 716.4 433.2" style="enable-background:new 0 0 716.4 433.2;" xml:space="preserve">
<style type="text/css">
	.st0{fill:#EEF8FE;}
</style>
<g id="Grupo_84248" transform="translate(-269.903 -304.047)">
	<g id="Grupo_69345" transform="translate(-770.316 -220.428) rotate(-45)">
		<path id="Trazado_111833" class="st0" d="M380.1,1716.6c-109.8-74.5-170.2-241.8-33.5-331.2c27.6-18,71.5-25.4,104.4-20.4
			c38.4,5.9,61.7,32.3,92.6,52.3c45.1,29.3,99,6,144.5,36.6c38.1,25.7,70.2,67.3,74.2,111.9c6.6,74.3-25.2,145.6-96.4,177.5
			c-32,14.3-83.3,16.1-116.4,19.2C497.1,1767.4,422.8,1745.5,380.1,1716.6z"/>
		<path id="Trazado_111834" class="st0" d="M567.7,1373.3c-22.4-1.8-46.2-13.3-63.3-31.8c-10.7-11.7-29.9-39.7-8.2-40.8
			c13.4-0.7,82.1,25.5,95,42.9C600.4,1356,591.4,1374.7,567.7,1373.3z"/>
	</g>
</g>
</svg>
