<svg xmlns="http://www.w3.org/2000/svg" width="399" height="234" viewBox="0 0 399 234">
  <g id="Grupo_84250" data-name="Grupo 84250" transform="translate(-1020 -580)">
    <rect id="Rect치ngulo_6140" data-name="Rect치ngulo 6140" width="399" height="177" rx="10" transform="translate(1020 637)" fill="#d3e6f6"/>
    <g id="Grupo_68846" data-name="Grupo 68846" transform="translate(-4 -132)">
      <rect id="Rect치ngulo_6149" data-name="Rect치ngulo 6149" width="213" height="213" transform="translate(1117 712)" fill="none"/>
      <g id="Grupo_68980" data-name="Grupo 68980" transform="translate(-2613.394 -333.975)">
        <path id="Trazado_116632" data-name="Trazado 116632" d="M3901.8,1121.214a74.9,74.9,0,0,0-13.428-31.151c-20.986-28.477-65.617-33.709-81.721,2.3-8.191,18.316-12.773,41.073-35.159,46.681-19.5,4.886-29.142,24.007-30.09,43.108-3.074,61.924,78.575,63,116.358,37.334,18.851-12.8,32.938-32.2,40.278-53.769A88.817,88.817,0,0,0,3901.8,1121.214Z" transform="translate(-1.016)" fill="#ffb743"/>
        <g id="Grupo_68969" data-name="Grupo 68969" transform="translate(3739.912 1089.555)">
          <path id="Trazado_116633" data-name="Trazado 116633" d="M3740.975,1113.309a14.9,14.9,0,1,0,12.555-16.93A14.9,14.9,0,0,0,3740.975,1113.309Z" transform="translate(-3740.812 -1096.215)" fill="#ffb743"/>
        </g>
        <path id="Trazado_116634" data-name="Trazado 116634" d="M3839.515,1088.7c33.118,10.538,32.8,36.047,43.761,45.926l-40.472,31.988c-5.114-6.256-19.424-25.1-27.15-33.909-14.332-16.343-27.4-22.6-37.347-11.159l-23.291-6.648S3780.705,1069.986,3839.515,1088.7Z" transform="translate(-4.14 -3.905)" fill="#fff"/>
        <path id="Trazado_116635" data-name="Trazado 116635" d="M3842.638,1167.012a.563.563,0,0,1-.437-.207c-1.739-2.128-4.536-5.7-7.776-9.845-6.356-8.126-14.269-18.241-19.362-24.049-9.779-11.151-18.335-16.8-25.43-16.8-4.108.009-7.821,1.908-11.067,5.643a.564.564,0,0,1-.581.172l-23.29-6.648a.563.563,0,0,1-.335-.821,67.235,67.235,0,0,1,20.38-20.311,66.511,66.511,0,0,1,26.513-9.967c11.9-1.758,24.77-.473,38.267,3.822,22.821,7.262,29.922,21.556,35.628,33.042,2.648,5.331,4.936,9.936,8.339,13a.562.562,0,0,1-.028.86l-40.472,31.988A.557.557,0,0,1,3842.638,1167.012Zm-53.006-52.031c7.435,0,16.276,5.782,26.278,17.188,5.115,5.832,13.037,15.96,19.4,24.1,3.026,3.868,5.665,7.243,7.411,9.4l39.523-31.238c-3.292-3.192-5.532-7.7-8.107-12.885-5.612-11.3-12.6-25.352-34.962-32.469-30.169-9.6-51.361-2.026-63.827,6.018a67.343,67.343,0,0,0-19.634,19.306l22.236,6.347c3.414-3.813,7.331-5.751,11.647-5.761Z" transform="translate(-3.973 -3.74)"/>
        <circle id="Elipse_7969" data-name="Elipse 7969" cx="6.732" cy="6.732" r="6.732" transform="translate(3838.302 1117.486) rotate(-76.717)"/>
        <path id="Trazado_116636" data-name="Trazado 116636" d="M3773.172,1133.93a12.512,12.512,0,1,0-18.659-16.657s-5.228,5.842-6.7,7.993c-3.884,5.67-7.234,15.342-8.795,23.3s-4.02,15.06,6.433,20.712,11.359-3.734,10.1-5.686-5.048-3.035-5.048-6.507a30.01,30.01,0,0,1,.164-3.667s3.611,6.072,8.653,2.038q-.166.5-.369,1.02c-1.6,4.064-3.1,9.243,2.157,10.556s7.594-6.833,9.832-13.219c2.14-6.1,3.693-11.711,1.834-18.252a1.693,1.693,0,0,1,.4-1.631Z" transform="translate(-0.166 -10.443)" fill="#fff"/>
        <path id="Trazado_116637" data-name="Trazado 116637" d="M3928.123,1264.151l-65.84,0-3.982,15.59h73.665C3929.966,1266.034,3928.123,1264.151,3928.123,1264.151Z" transform="translate(-27.7 -44.967)"/>
        <path id="Trazado_116638" data-name="Trazado 116638" d="M3931.8,1280.14h-73.665a.562.562,0,0,1-.546-.7l3.983-15.59a.563.563,0,0,1,.545-.423l65.84,0a.564.564,0,0,1,.4.169c.2.207,2.028,2.405,4,15.906a.563.563,0,0,1-.557.644Zm-72.94-1.126h72.288c-1.6-10.695-3.053-13.754-3.482-14.466l-65.111,0Z" transform="translate(-27.534 -44.801)"/>
        <path id="Trazado_116639" data-name="Trazado 116639" d="M3949.243,1169.517c13.231,23.633,31.273,71.748-5.761,84.174-19.39,6.507-36.468-4.389-48.34-16.248h-30.3l-.26-54.185a33.337,33.337,0,0,1,19.493-30.6q.432-.193.872-.384l5.132-1.887,17.3-3.045C3918.675,1146.025,3937.509,1148.557,3949.243,1169.517Z" transform="translate(-29.132 -18.257)" fill="#fff"/>
        <path id="Trazado_116640" data-name="Trazado 116640" d="M3931.656,1256.023c-15.025,0-27.969-9.292-36.914-18.182h-30.067a.564.564,0,0,1-.563-.561l-.26-54.184a33.9,33.9,0,0,1,19.824-31.115q.434-.2.88-.387a.563.563,0,1,1,.445,1.034q-.437.189-.863.381a32.77,32.77,0,0,0-19.161,30.081l.257,53.625h29.74a.561.561,0,0,1,.4.164c10.988,10.976,28.193,22.678,47.763,16.113,9.523-3.2,15.981-9.037,19.194-17.361,6.983-18.092-2.522-45.959-13.745-66-12.67-22.631-33.108-22.847-41.3-21.887a.563.563,0,0,1-.131-1.118c8.424-.984,29.417-.767,42.418,22.455a147.2,147.2,0,0,1,13.389,32.255c3.759,14.018,3.9,25.695.424,34.705-3.339,8.652-10.03,14.716-19.886,18.024A36.992,36.992,0,0,1,3931.656,1256.023Z" transform="translate(-28.966 -18.091)"/>
        <path id="Trazado_116641" data-name="Trazado 116641" d="M3832.4,1223.445h-7.934a22.619,22.619,0,0,0-2.325-5.737l5.573-5.573-7.281-7.282-5.447,5.446a21.22,21.22,0,0,0-5.864-2.545v-7.586h-10.3v7.437a21.233,21.233,0,0,0-6.1,2.458l-5.211-5.21-7.281,7.281,5.182,5.182a21.21,21.21,0,0,0-2.512,6.127h-7.356v10.3h7.449a21.211,21.211,0,0,0,2.576,5.971l-5.339,5.339,7.281,7.282,5.467-5.467a21.176,21.176,0,0,0,5.844,2.313v7.838h10.3v-7.987a21.2,21.2,0,0,0,5.619-2.388l5.691,5.691,7.281-7.282-5.719-5.719a21.24,21.24,0,0,0,2.331-5.554c.047-.037,8.073-.037,8.073-.037v-10.3Zm-22.247,14.208c-10.491,6.025-21.264-4.748-15.239-15.239a7.811,7.811,0,0,1,2.881-2.881c10.491-6.025,21.264,4.748,15.24,15.24A7.807,7.807,0,0,1,3810.149,1237.654Z" transform="translate(-8.822 -30.372)" fill="#fee45a"/>
        <path id="Trazado_116642" data-name="Trazado 116642" d="M3906.748,1110.271a17.094,17.094,0,1,1-22.682-8.363A17.094,17.094,0,0,1,3906.748,1110.271Z" transform="translate(-31.31 -7.599)"/>
        <path id="Trazado_116643" data-name="Trazado 116643" d="M3905.417,1129.924c-6.064,3.2-11.139.513-11.663-4.5,0,0-7.643-14.88-14.243-12.682-4.029,2.018-5.608,6.853-4.475,12.221.5,2.355,1.427,8.818,2.99,13.385,1.557,4.547,3.566,9.7,14.355,4.168l3.413,7.4,14.776-8.813Z" transform="translate(-31.436 -10.378)" fill="#fff"/>
        <path id="Trazado_116644" data-name="Trazado 116644" d="M3893.8,1148.426a.564.564,0,0,1-.541-.407l-1.4-4.8c-4.285,2.1-7.524,2.66-9.892,1.7-2.807-1.133-3.869-4.232-4.644-6.5a81.846,81.846,0,0,1-2.576-11.146c-.169-.938-.315-1.749-.432-2.3-1.232-5.829.6-10.749,4.773-12.84a.563.563,0,1,1,.5,1.007c-3.7,1.851-5.3,6.3-4.174,11.6.121.573.268,1.391.438,2.338a81.008,81.008,0,0,0,2.532,10.98c.914,2.667,1.845,4.947,4,5.816s5.285.227,9.566-1.967a.563.563,0,0,1,.8.344l1.584,5.452a.564.564,0,0,1-.384.7A.557.557,0,0,1,3893.8,1148.426Z" transform="translate(-31.267 -10.278)"/>
        <path id="Trazado_116645" data-name="Trazado 116645" d="M3919.488,1146.641a.563.563,0,0,1-.512-.328l-5.154-11.175a.563.563,0,1,1,1.023-.472l5.154,11.176a.564.564,0,0,1-.276.748A.57.57,0,0,1,3919.488,1146.641Z" transform="translate(-40.352 -15.356)"/>
        <path id="Trazado_116646" data-name="Trazado 116646" d="M3897.448,1151.178a.563.563,0,0,1-.264-1.061l3.789-2.009a.563.563,0,0,1,.527,1l-3.789,2.009A.56.56,0,0,1,3897.448,1151.178Z" transform="translate(-36.501 -18.482)"/>
        <path id="Trazado_116647" data-name="Trazado 116647" d="M3889.862,1130.185a1.139,1.139,0,1,1-1.51-.557A1.138,1.138,0,0,1,3889.862,1130.185Z" transform="translate(-34.403 -14.258)"/>
        <path id="Trazado_116648" data-name="Trazado 116648" d="M3878.773,1132.348a1.139,1.139,0,1,1-1.511-.557A1.137,1.137,0,0,1,3878.773,1132.348Z" transform="translate(-31.874 -14.751)"/>
        <path id="Trazado_116649" data-name="Trazado 116649" d="M3901.75,1148.646s1.889,6.545-2.553,7.921l-1.584-5.815Z" transform="translate(-36.667 -18.62)"/>
        <path id="Trazado_116650" data-name="Trazado 116650" d="M3961.388,1237.523a.563.563,0,0,1-.56-.511c-.054-.58-1.5-14.246-15.7-16.766-14.97-2.657-24.783-4.4-40.3-12.81a.563.563,0,0,1,.537-.99c15.353,8.325,25.1,10.054,39.841,12.67,15.174,2.693,16.726,17.641,16.74,17.792a.563.563,0,0,1-.508.612Z" transform="translate(-38.246 -31.789)"/>
        <path id="Trazado_116651" data-name="Trazado 116651" d="M3939.736,1213.218a.563.563,0,0,1-.547-.432l-6.174-25.832a.563.563,0,0,1,1.1-.262l6.174,25.832a.563.563,0,0,1-.417.678A.554.554,0,0,1,3939.736,1213.218Z" transform="translate(-44.739 -27.2)"/>
        <path id="Trazado_116652" data-name="Trazado 116652" d="M3899.679,1166.823c-.132,0-.262,0-.39-.013-8.687-.6-9.043-13.866-9.054-14.431a.563.563,0,0,1,1.126-.022c0,.128.344,12.8,8.005,13.329,7.883.556,23.772-18.512,23.932-18.7a.563.563,0,0,1,.867.719C3923.51,1148.492,3908.227,1166.823,3899.679,1166.823Z" transform="translate(-34.984 -18.194)"/>
        <path id="Trazado_116653" data-name="Trazado 116653" d="M3899.756,1258.356a.559.559,0,0,1-.408-.176c-.07-.073-1.845-2.007-14.447-21.041a.563.563,0,0,1,.939-.622c12.547,18.952,14.308,20.871,14.324,20.888a.563.563,0,0,1-.408.951Z" transform="translate(-33.746 -38.606)"/>
        <g id="Grupo_68975" data-name="Grupo 68975" transform="translate(3792.182 1083.383)">
          <g id="Grupo_68970" data-name="Grupo 68970" transform="translate(0 0)">
            <path id="Trazado_116654" data-name="Trazado 116654" d="M3856.509,1177.135,3870.089,1208a4.807,4.807,0,1,0,8.585-4.315l-17.111-29.591Z" transform="translate(-3819.473 -1107.807)"/>
            <path id="Trazado_116655" data-name="Trazado 116655" d="M3834.465,1095.06a27.194,27.194,0,0,0-7.254-5.592c-3.867-1.885-6.728-1.291-8.446-.461l-5.044,2.435c-1.7.866-3.843,2.748-4.745,6.833a27.18,27.18,0,0,0-.131,9.158c.886,6.875,3.57,15.206,7.556,23.459s8.844,15.534,13.677,20.5a27.167,27.167,0,0,0,7.254,5.591c3.868,1.885,6.728,1.292,8.446.462.094-.045.19-.094.286-.146l4.612-2.22c1.719-.83,3.962-2.7,4.89-6.9a27.191,27.191,0,0,0,.131-9.158c-.887-6.875-3.571-15.206-7.557-23.459S3839.3,1100.028,3834.465,1095.06Z" transform="translate(-3808.529 -1088.219)" fill="#529ad9"/>
            <path id="Trazado_116656" data-name="Trazado 116656" d="M3840.06,1121.9c7.892,16.34,10.01,31.652,4.731,34.2s-15.955-8.63-23.847-24.969-10.01-31.652-4.731-34.2S3832.168,1105.557,3840.06,1121.9Z" transform="translate(-3809.619 -1090.123)" fill="#fff"/>
            <path id="Trazado_116657" data-name="Trazado 116657" d="M3843,1156.852c-5.939,0-15.4-10.485-22.724-25.643-8.15-16.874-10.114-32.227-4.47-34.954s16.449,8.357,24.6,25.232,10.113,32.228,4.47,34.954A4.258,4.258,0,0,1,3843,1156.852Zm-25.261-59.9a3.282,3.282,0,0,0-1.444.314c-4.906,2.37-2.618,17.687,4.994,33.449,6.933,14.355,16.324,25.021,21.652,25.022a3.267,3.267,0,0,0,1.443-.314c4.906-2.369,2.619-17.687-4.993-33.449C3832.455,1107.623,3823.063,1096.956,3817.736,1096.956Z" transform="translate(-3809.454 -1089.958)"/>
            <path id="Trazado_116658" data-name="Trazado 116658" d="M3838.222,1127.426c4.651,9.631,5.9,18.656,2.789,20.159s-9.4-5.087-14.055-14.717-5.9-18.657-2.79-20.16S3833.571,1117.795,3838.222,1127.426Z" transform="translate(-3811.706 -1093.756)"/>
          </g>
          <g id="Grupo_68974" data-name="Grupo 68974" transform="translate(35.946 74.885)">
            <path id="Trazado_116659" data-name="Trazado 116659" d="M3892.88,1201.654l-10.686-5.5s-8.06-11.741-15.4-10.018c0,0,2.767,4.619-.617,5.823s-6.034-4.374-6.034-4.374-6.546,5.416-3.354,10.575c0,0-3.265,7.368,2.063,10.42,0,0-2.533,6.475,3.66,8.822a4.8,4.8,0,0,0,2.909,5.068c.99.5,12.013,2.972,12.013,2.972l.211.164a14.251,14.251,0,1,0,15.23-23.952Z" transform="translate(-3855.258 -1185.4)" fill="#fff"/>
            <path id="Trazado_116660" data-name="Trazado 116660" d="M3886.181,1228.977a14.771,14.771,0,0,1-9.036-3.092l-.113-.086c-1.589-.358-11.026-2.494-12.019-2.99a5.433,5.433,0,0,1-3.257-5.207,6.526,6.526,0,0,1-3.563-3.341,8.426,8.426,0,0,1-.174-5.6c-4.583-3.02-2.541-9.235-2.013-10.617-3.061-5.436,3.553-11,3.621-11.057a.564.564,0,0,1,.868.192c.024.051,2.47,5.1,5.337,4.085a1.782,1.782,0,0,0,1.182-1.077c.458-1.271-.465-3.266-.86-3.927a.563.563,0,0,1,.355-.837c7.3-1.712,14.979,8.813,15.906,10.129l10.561,5.437a14.82,14.82,0,0,1-6.795,27.99Zm-26.35-40.65c-1.415,1.377-5.1,5.523-2.72,9.372a.563.563,0,0,1,.036.523c-.124.282-2.994,6.942,1.829,9.7a.563.563,0,0,1,.244.694,7.638,7.638,0,0,0,.006,5.191,5.6,5.6,0,0,0,3.329,2.9.564.564,0,0,1,.353.637,4.232,4.232,0,0,0,2.609,4.454c.677.338,7.649,1.974,11.884,2.926a.555.555,0,0,1,.221.1l.212.163a13.687,13.687,0,1,0,14.627-23l-10.685-5.5a.561.561,0,0,1-.206-.182c-.076-.11-7.383-10.628-14.077-9.911a5.97,5.97,0,0,1,.583,4.169,2.881,2.881,0,0,1-1.865,1.76C3863.125,1193.421,3860.708,1189.865,3859.831,1188.326Z" transform="translate(-3855.097 -1185.234)"/>
            <g id="Grupo_68973" data-name="Grupo 68973" transform="translate(0.972 12.197)">
              <g id="Grupo_68972" data-name="Grupo 68972" transform="translate(2.063 10.42)">
                <g id="Grupo_68971" data-name="Grupo 68971">
                  <path id="Trazado_116661" data-name="Trazado 116661" d="M3865.426,1218.007a.559.559,0,0,1-.21-.041l-5.833-2.346a.563.563,0,0,1,.42-1.045l5.833,2.346a.563.563,0,0,1-.21,1.085Z" transform="translate(-3859.03 -1214.534)"/>
                  <path id="Trazado_116662" data-name="Trazado 116662" d="M3866.4,1228.028a.566.566,0,0,1-.232-.05l-2.065-.939a.563.563,0,1,1,.466-1.025l2.065.938a.563.563,0,0,1-.234,1.076Z" transform="translate(-3860.111 -1217.141)"/>
                </g>
              </g>
              <path id="Trazado_116663" data-name="Trazado 116663" d="M3866.925,1206.763a.565.565,0,0,1-.235-.052l-10.006-4.6a.563.563,0,1,1,.471-1.023l10.005,4.6a.564.564,0,0,1-.236,1.075Z" transform="translate(-3856.356 -1201.036)"/>
            </g>
          </g>
        </g>
        <g id="Grupo_68976" data-name="Grupo 68976" transform="translate(3747.127 1149.46)">
          <path id="Trazado_116664" data-name="Trazado 116664" d="M3774,1178.831l-3.25,1.73a10.533,10.533,0,0,0-2.2-1.844l1.068-3.5-4.571-1.4-1.044,3.42a9.86,9.86,0,0,0-2.958.235l-1.654-3.107-4.219,2.245,1.622,3.047a9.863,9.863,0,0,0-1.963,2.337l-3.272-1-1.4,4.571,3.254.994a9.833,9.833,0,0,0,.306,3.058l-3.013,1.6,2.246,4.22,3.052-1.625a9.859,9.859,0,0,0,2.357,1.885l-1.023,3.352,4.572,1.4,1.047-3.432a9.843,9.843,0,0,0,2.9-.326l1.709,3.211,4.22-2.246-1.742-3.273a9.833,9.833,0,0,0,1.782-2.2l3.573,1.091,1.4-4.572-3.592-1.1a9.807,9.807,0,0,0-.255-2.784c.011-.025,3.3-1.775,3.3-1.775l-2.246-4.22Zm-6.017,10.674a5.11,5.11,0,0,1-9.568-2.921,3.626,3.626,0,0,1,.552-1.809,5.11,5.11,0,0,1,9.568,2.921A3.631,3.631,0,0,1,3767.984,1189.5Z" transform="translate(-3750.159 -1173.823)"/>
        </g>
        <g id="Grupo_68978" data-name="Grupo 68978" transform="translate(3785.637 1143.599)">
          <g id="Grupo_68977" data-name="Grupo 68977" transform="translate(0 0)">
            <path id="Trazado_116665" data-name="Trazado 116665" d="M3808.423,1175.166a.564.564,0,0,1-.4-.165l-7.81-7.811a.563.563,0,0,1,.8-.8l7.811,7.811a.563.563,0,0,1-.4.961Z" transform="translate(-3800.049 -1166.229)"/>
            <path id="Trazado_116666" data-name="Trazado 116666" d="M3800.612,1175.166a.563.563,0,0,1-.4-.961l7.81-7.811a.563.563,0,0,1,.8.8L3801.01,1175A.563.563,0,0,1,3800.612,1175.166Z" transform="translate(-3800.049 -1166.229)"/>
          </g>
        </g>
        <path id="Trazado_116667" data-name="Trazado 116667" d="M3751.005,1171.469a12.93,12.93,0,0,1-5.99-1.859c-10-5.408-8.589-12.237-7.094-19.467.126-.611.254-1.227.376-1.849,1.443-7.354,4.75-17.475,8.883-23.509,1.466-2.139,6.452-7.72,6.741-8.042a13.075,13.075,0,1,1,19.493,17.413,1.136,1.136,0,0,0-.268,1.089c1.933,6.8.231,12.674-1.843,18.592-.169.483-.339.975-.51,1.472-1.992,5.781-4.228,12.27-8.719,12.271a5.2,5.2,0,0,1-1.271-.164,5.09,5.09,0,0,1-3.521-2.511c-1.241-2.409-.2-5.8.976-8.8,1.018-2.59,1.175-4.5.466-5.676-.555-.922-1.7-1.487-3.406-1.679a3.294,3.294,0,0,0-2.706.7c-1.716,1.534-1.716,5.248-1.716,7.469,0,1.992,1.459,3.119,2.87,4.209a8.745,8.745,0,0,1,2.088,1.993c.865,1.34.807,4.78-1.047,6.784A4.95,4.95,0,0,1,3751.005,1171.469Zm12.948-58.26a11.959,11.959,0,0,0-9.176,4.263c-.064.072-5.232,5.852-6.668,7.949-4.042,5.9-7.286,15.849-8.708,23.089-.122.626-.251,1.246-.377,1.861-1.469,7.1-2.739,13.239,6.526,18.248,3.887,2.1,6.8,2.283,8.43.524a5.5,5.5,0,0,0,.927-5.409,8.031,8.031,0,0,0-1.83-1.713c-1.473-1.139-3.307-2.555-3.307-5.1,0-2.408,0-6.439,2.092-8.309a4.413,4.413,0,0,1,3.583-.98c2.071.234,3.5.98,4.244,2.217.911,1.514.786,3.7-.383,6.668-1.023,2.6-2.064,5.848-1.023,7.87a3.973,3.973,0,0,0,2.792,1.934c4.357,1.088,6.64-5.537,8.654-11.382.171-.5.342-.993.512-1.477,2.012-5.742,3.666-11.432,1.823-17.913a2.265,2.265,0,0,1,.534-2.173,11.939,11.939,0,0,0-8.644-20.17Z" transform="translate(0 -10.28)"/>
        <path id="Trazado_116668" data-name="Trazado 116668" d="M3759.546,1169.24a4.944,4.944,0,0,1-.889-.081c-2.916-.53-4.707-3.49-4.782-3.617a.563.563,0,0,1,.967-.576c.024.039,1.618,2.653,4.021,3.086a4.686,4.686,0,0,0,3.8-1.2.563.563,0,1,1,.7.88A6.106,6.106,0,0,1,3759.546,1169.24Z" transform="translate(-3.861 -22.28)"/>
        <path id="Trazado_116669" data-name="Trazado 116669" d="M3760.687,1163.8a.581.581,0,0,1-.556-.658l.747-4.39a.563.563,0,1,1,1.11.188l-.747,4.39A.563.563,0,0,1,3760.687,1163.8Z" transform="translate(-5.305 -20.818)"/>
        <path id="Trazado_116670" data-name="Trazado 116670" d="M3883.339,1111.865a7.471,7.471,0,1,1-7.47-7.471A7.471,7.471,0,0,1,3883.339,1111.865Z" transform="translate(-30.003 -8.526)"/>
        <path id="Trazado_116671" data-name="Trazado 116671" d="M3874.226,1118.176a8.034,8.034,0,1,1,8.034-8.034A8.043,8.043,0,0,1,3874.226,1118.176Zm0-14.942a6.908,6.908,0,1,0,6.908,6.908A6.916,6.916,0,0,0,3874.226,1103.234Z" transform="translate(-29.5 -8.004)"/>
        <path id="Trazado_116672" data-name="Trazado 116672" d="M3900.51,1116.147a7.246,7.246,0,1,1-7.246-7.246A7.246,7.246,0,0,1,3900.51,1116.147Z" transform="translate(-34.022 -9.554)"/>
        <g id="Grupo_68979" data-name="Grupo 68979" transform="translate(3858.383 1111.326)">
          <path id="Trazado_116673" data-name="Trazado 116673" d="M3903.981,1127.372a5.077,5.077,0,1,1-6.736-2.484A5.076,5.076,0,0,1,3903.981,1127.372Z" transform="translate(-3894.292 -1124.419)" fill="#fff"/>
          <path id="Trazado_116674" data-name="Trazado 116674" d="M3900.1,1132.044a.582.582,0,0,1-.553-.669l.6-3.141a.563.563,0,0,1,1.107.211l-.6,3.142A.564.564,0,0,1,3900.1,1132.044Z" transform="translate(-3895.489 -1125.185)"/>
        </g>
        <path id="Trazado_116675" data-name="Trazado 116675" d="M3872.351,1128.235a.563.563,0,0,1-.1-1.116l12.42-2.357a.563.563,0,1,1,.21,1.107l-12.42,2.357A.549.549,0,0,1,3872.351,1128.235Z" transform="translate(-30.776 -13.169)" fill="#529ad9"/>
        <path id="Trazado_116676" data-name="Trazado 116676" d="M3888.513,1136.57a6.016,6.016,0,1,1,1.432-.174A6.02,6.02,0,0,1,3888.513,1136.57Zm.009-10.9a4.9,4.9,0,0,0-1.172.143,4.852,4.852,0,1,0,1.172-.143Z" transform="translate(-33.22 -13.123)" fill="#529ad9"/>
        <path id="Trazado_116677" data-name="Trazado 116677" d="M3872.421,1139.624a6.011,6.011,0,1,1,1.431-.173A6.021,6.021,0,0,1,3872.421,1139.624Zm0-10.895a4.883,4.883,0,0,0-4.177,2.353,4.884,4.884,0,1,0,4.177-2.353Z" transform="translate(-29.549 -13.82)" fill="#529ad9"/>
        <path id="Trazado_116678" data-name="Trazado 116678" d="M3881.964,1139.139a.564.564,0,0,1-.558-.49l-1.029-7.906a.563.563,0,0,1,1.117-.145l1.029,7.9a.563.563,0,0,1-.485.631A.577.577,0,0,1,3881.964,1139.139Z" transform="translate(-32.734 -14.391)"/>
        <path id="Trazado_116679" data-name="Trazado 116679" d="M3881.463,1144.043a.563.563,0,0,1-.084-1.12l2.471-.375a.563.563,0,0,1,.169,1.114l-2.472.375A.627.627,0,0,1,3881.463,1144.043Z" transform="translate(-32.855 -17.227)"/>
      </g>
    </g>
  </g>
</svg>
