<svg xmlns="http://www.w3.org/2000/svg" width="124" height="124" viewBox="0 0 124 124">
  <g id="Grupo_84096" data-name="Grupo 84096" transform="translate(-0.333)">
    <rect id="Rectángulo_5987" data-name="Rectángulo 5987" width="124" height="124" transform="translate(0.333)" fill="none"/>
    <g id="disenador" transform="translate(7.666 -10.669)">
      <g id="Grupo_84101" data-name="Grupo 84101" transform="translate(1.601 29.452)">
        <path id="Trazado_133689" data-name="Trazado 133689" d="M109.731,122.927H11.394a3.9,3.9,0,0,1-3.9-3.9V57.511a3.9,3.9,0,0,1,3.9-3.9h98.337a3.9,3.9,0,0,1,3.9,3.9V119.03A3.9,3.9,0,0,1,109.731,122.927Z" transform="translate(-7.497 -53.614)" fill="#f5f8f9"/>
      </g>
      <g id="Grupo_84102" data-name="Grupo 84102" transform="translate(99.565 29.452)">
        <path id="Trazado_133690" data-name="Trazado 133690" d="M474.425,57.511v61.52a3.9,3.9,0,0,1-3.9,3.9h-4.269a3.9,3.9,0,0,0,3.9-3.9V57.511a3.9,3.9,0,0,0-3.9-3.9h4.269A3.9,3.9,0,0,1,474.425,57.511Z" transform="translate(-466.259 -53.616)" fill="#d9e7ec"/>
      </g>
      <g id="Grupo_84103" data-name="Grupo 84103" transform="translate(22.836 111.927)">
        <path id="Trazado_133691" data-name="Trazado 133691" d="M170.6,448.76h-63.66v-2.148a6.772,6.772,0,0,1,6.772-6.772h50.116a6.772,6.772,0,0,1,6.772,6.772Z" transform="translate(-106.941 -439.84)" fill="#b6c4cf"/>
      </g>
      <g id="Grupo_84104" data-name="Grupo 84104" transform="translate(75.177 111.926)">
        <path id="Trazado_133692" data-name="Trazado 133692" d="M363.367,446.611v2.147h-4.547v-2.147a6.772,6.772,0,0,0-6.773-6.773h4.547A6.772,6.772,0,0,1,363.367,446.611Z" transform="translate(-352.048 -439.838)" fill="#9facba"/>
      </g>
      <g id="Grupo_84105" data-name="Grupo 84105" transform="translate(44.532 98.765)">
        <path id="Trazado_133693" data-name="Trazado 133693" d="M227.1,378.2H210.255a102.226,102.226,0,0,1-1.713,13.162h20.269A102.2,102.2,0,0,1,227.1,378.2Z" transform="translate(-208.542 -378.202)" fill="#d9e7ec"/>
      </g>
      <g id="Grupo_84106" data-name="Grupo 84106" transform="translate(58.566 98.765)">
        <path id="Trazado_133694" data-name="Trazado 133694" d="M280.5,391.366h-4.521a102.263,102.263,0,0,1-1.714-13.161h4.521A102.292,102.292,0,0,0,280.5,391.366Z" transform="translate(-274.262 -378.205)" fill="#c5d3dd"/>
      </g>
      <g id="Grupo_84107" data-name="Grupo 84107" transform="translate(1.601 87.395)">
        <path id="Trazado_133695" data-name="Trazado 133695" d="M113.628,324.958H7.5v7.473a3.9,3.9,0,0,0,3.9,3.9h98.337a3.9,3.9,0,0,0,3.9-3.9Z" transform="translate(-7.497 -324.958)" fill="#b6c4cf"/>
      </g>
      <g id="Grupo_84108" data-name="Grupo 84108" transform="translate(99.565 87.395)">
        <path id="Trazado_133696" data-name="Trazado 133696" d="M474.425,324.958v7.473a3.9,3.9,0,0,1-3.9,3.9h-4.269a3.9,3.9,0,0,0,3.9-3.9v-7.473Z" transform="translate(-466.259 -324.958)" fill="#9facba"/>
      </g>
      <g id="Grupo_84109" data-name="Grupo 84109" transform="translate(36.997 45.196)">
        <path id="Trazado_133697" data-name="Trazado 133697" d="M206.781,162.658H175.04a1.786,1.786,0,0,1-1.786-1.786V129.131a1.786,1.786,0,0,1,1.786-1.786h31.741a1.786,1.786,0,0,1,1.786,1.786v31.741A1.785,1.785,0,0,1,206.781,162.658Z" transform="translate(-173.254 -127.345)" fill="#f5f8f9"/>
      </g>
      <g id="Grupo_84110" data-name="Grupo 84110" transform="translate(36.997 45.196)">
        <path id="Trazado_133698" data-name="Trazado 133698" d="M206.781,162.658H175.04a1.786,1.786,0,0,1-1.786-1.786V129.131a1.786,1.786,0,0,1,1.786-1.786h31.741a1.786,1.786,0,0,1,1.786,1.786v31.741A1.785,1.785,0,0,1,206.781,162.658Z" transform="translate(-173.254 -127.345)" fill="#d9e7ec"/>
      </g>
      <g id="Grupo_84111" data-name="Grupo 84111" transform="translate(66.255 45.196)">
        <path id="Trazado_133699" data-name="Trazado 133699" d="M316.322,129.13v31.74a1.787,1.787,0,0,1-1.786,1.786h-4.269a1.787,1.787,0,0,0,1.786-1.786V129.13a1.787,1.787,0,0,0-1.786-1.786h4.269A1.787,1.787,0,0,1,316.322,129.13Z" transform="translate(-310.267 -127.344)" fill="#c5d3dd"/>
      </g>
      <g id="Grupo_84112" data-name="Grupo 84112" transform="translate(1.601 29.452)">
        <path id="Trazado_133700" data-name="Trazado 133700" d="M113.629,57.511v4.963H7.5V57.511a3.9,3.9,0,0,1,3.9-3.9h98.336a3.9,3.9,0,0,1,3.9,3.9Z" transform="translate(-7.498 -53.616)" fill="#596c76"/>
      </g>
      <g id="Grupo_84113" data-name="Grupo 84113" transform="translate(99.565 29.452)">
        <path id="Trazado_133701" data-name="Trazado 133701" d="M474.425,57.511v4.963h-4.269V57.511a3.9,3.9,0,0,0-3.9-3.9h4.269A3.9,3.9,0,0,1,474.425,57.511Z" transform="translate(-466.259 -53.616)" fill="#465a61"/>
      </g>
      <g id="Grupo_84114" data-name="Grupo 84114" transform="translate(80.54 38.31)">
        <path id="Trazado_133702" data-name="Trazado 133702" d="M377.166,95.1h27.191v28.194H377.166Z" transform="translate(-377.166 -95.098)" fill="#fedba6"/>
      </g>
      <g id="Grupo_84115" data-name="Grupo 84115" transform="translate(103.463 38.31)">
        <path id="Trazado_133703" data-name="Trazado 133703" d="M484.511,95.1h4.269v28.194h-4.269Z" transform="translate(-484.511 -95.098)" fill="#fece85"/>
      </g>
      <g id="Grupo_84116" data-name="Grupo 84116" transform="translate(80.54 66.505)">
        <path id="Trazado_133704" data-name="Trazado 133704" d="M377.166,227.131h27.191v20.89H377.166Z" transform="translate(-377.166 -227.131)" fill="#c1e9af"/>
      </g>
      <g id="Grupo_84117" data-name="Grupo 84117" transform="translate(103.463 66.505)">
        <path id="Trazado_133705" data-name="Trazado 133705" d="M484.511,227.131h4.269v20.89h-4.269Z" transform="translate(-484.511 -227.131)" fill="#ade194"/>
      </g>
      <g id="Grupo_84121" data-name="Grupo 84121" transform="translate(0 22.891)">
        <g id="Grupo_84118" data-name="Grupo 84118" transform="translate(9.707 1.601)">
          <path id="Trazado_133706" data-name="Trazado 133706" d="M63.661,86.4H46.316a.857.857,0,0,1-.857-.857v-54.3a.857.857,0,0,1,.857-.857H63.661a.857.857,0,0,1,.857.857v54.3A.857.857,0,0,1,63.661,86.4Z" transform="translate(-45.459 -30.388)" fill="#fedba6"/>
        </g>
        <g id="Grupo_84119" data-name="Grupo 84119" transform="translate(23.641 1.6)">
          <path id="Trazado_133707" data-name="Trazado 133707" d="M115.836,31.242V85.548a.858.858,0,0,1-.858.856H110.71a.856.856,0,0,0,.856-.856V31.242a.856.856,0,0,0-.856-.856h4.268a.858.858,0,0,1,.858.856Z" transform="translate(-110.71 -30.386)" fill="#fece85"/>
        </g>
        <g id="Grupo_84120" data-name="Grupo 84120">
          <path id="Trazado_133708" data-name="Trazado 133708" d="M395.474,258.025h2.366a1.6,1.6,0,0,0,0-3.2h-2.366a1.6,1.6,0,0,0,0,3.2Z" transform="translate(-309.765 -205.296)" fill="#3a3c07"/>
          <path id="Trazado_133709" data-name="Trazado 133709" d="M431.488,258.025h9.164a1.6,1.6,0,1,0,0-3.2h-9.164a1.6,1.6,0,1,0,0,3.2Z" transform="translate(-338.088 -205.296)" fill="#3a3c07"/>
          <path id="Trazado_133710" data-name="Trazado 133710" d="M395.474,285.473h2.366a1.6,1.6,0,1,0,0-3.2h-2.366a1.6,1.6,0,1,0,0,3.2Z" transform="translate(-309.765 -226.883)" fill="#3a3c07"/>
          <path id="Trazado_133711" data-name="Trazado 133711" d="M431.488,285.473h9.164a1.6,1.6,0,1,0,0-3.2h-9.164a1.6,1.6,0,1,0,0,3.2Z" transform="translate(-338.088 -226.883)" fill="#3a3c07"/>
          <path id="Trazado_133712" data-name="Trazado 133712" d="M412.328,114.654H395.474a1.6,1.6,0,1,0,0,3.2h16.854a1.6,1.6,0,0,0,0-3.2Z" transform="translate(-309.765 -95.059)" fill="#3a3c07"/>
          <path id="Trazado_133713" data-name="Trazado 133713" d="M412.328,140.63H395.474a1.6,1.6,0,1,0,0,3.2h16.854a1.6,1.6,0,0,0,0-3.2Z" transform="translate(-309.765 -115.488)" fill="#3a3c07"/>
          <path id="Trazado_133714" data-name="Trazado 133714" d="M452.845,166.6h-5.853a1.6,1.6,0,0,0,0,3.2h5.853a1.6,1.6,0,0,0,0-3.2Z" transform="translate(-350.282 -135.916)" fill="#3a3c07"/>
          <path id="Trazado_133715" data-name="Trazado 133715" d="M395.474,169.807h3.618a1.6,1.6,0,0,0,0-3.2h-3.618a1.6,1.6,0,1,0,0,3.2Z" transform="translate(-309.765 -135.916)" fill="#3a3c07"/>
          <path id="Trazado_133716" data-name="Trazado 133716" d="M412.328,192.58H395.474a1.6,1.6,0,1,0,0,3.2h16.854a1.6,1.6,0,0,0,0-3.2Z" transform="translate(-309.765 -156.344)" fill="#3a3c07"/>
          <path id="Trazado_133717" data-name="Trazado 133717" d="M200.885,119.847h-3.732a1.6,1.6,0,1,0,0,3.2h3.732a.185.185,0,0,1,.185.185v31.741a.185.185,0,0,1-.185.185H169.144a.185.185,0,0,1-.185-.185V123.234a.185.185,0,0,1,.185-.185h20.448a1.6,1.6,0,1,0,0-3.2H169.144a3.39,3.39,0,0,0-3.387,3.387v31.741a3.39,3.39,0,0,0,3.387,3.387h31.742a3.39,3.39,0,0,0,3.386-3.387V123.234A3.39,3.39,0,0,0,200.885,119.847Z" transform="translate(-130.361 -99.143)" fill="#3a3c07"/>
          <path id="Trazado_133718" data-name="Trazado 133718" d="M103.835,27.851H30.367v-2.5a2.46,2.46,0,0,0-2.457-2.457H10.564a2.436,2.436,0,0,0-.251.013,2.461,2.461,0,0,0-2.207,2.445v2.5H5.5a5.5,5.5,0,0,0-5.5,5.5V94.868a5.5,5.5,0,0,0,5.5,5.5H44.515c-.2,2.378-.627,6.752-1.268,9.961H29.609a8.383,8.383,0,0,0-8.373,8.373v2.148a1.6,1.6,0,0,0,1.6,1.6H39.471a1.6,1.6,0,1,0,0-3.2H24.437V118.7a5.178,5.178,0,0,1,5.172-5.172H79.724A5.178,5.178,0,0,1,84.9,118.7v.547H46.875a1.6,1.6,0,1,0,0,3.2H86.5a1.6,1.6,0,0,0,1.6-1.6V118.7a8.383,8.383,0,0,0-8.373-8.373H66.087c-.641-3.209-1.068-7.583-1.268-9.961h39.017a5.5,5.5,0,0,0,5.5-5.5V33.348a5.5,5.5,0,0,0-5.5-5.5ZM30.367,33.828V31.053h73.468a2.3,2.3,0,0,1,2.3,2.294v3.362H30.367ZM82.141,64.9V39.911h23.99V64.9Zm23.99,3.2V85.794H82.141V68.105ZM20.838,26.093h6.328v6.134H20.838Zm0,9.336h6.328v6.135H20.838Zm0,9.336h6.328V50.9H20.838Zm0,9.336h6.328v6.134H20.838Zm0,9.336h6.328v6.135H20.838Zm0,9.336h6.328v6.134H20.838ZM11.308,26.093h6.328v6.134H11.308Zm0,9.336h6.328v6.135H11.308Zm0,9.336h6.328V50.9H11.308Zm0,9.336h6.328v6.134H11.308Zm0,9.336h6.328v6.135H11.308Zm0,9.336h6.328v6.134H11.308ZM3.2,33.347a2.3,2.3,0,0,1,2.3-2.294H8.106v5.656H3.2Zm0,6.564h4.9V79.652A2.461,2.461,0,0,0,10.313,82.1c.082.008,17.6.013,17.6.013a2.46,2.46,0,0,0,2.457-2.457V39.911H78.94V85.794H3.2Zm43.305,70.415c.636-3.441,1.039-7.73,1.222-9.961H61.6c.183,2.23.586,6.52,1.222,9.961Zm59.625-15.458a2.3,2.3,0,0,1-2.3,2.3H5.5a2.3,2.3,0,0,1-2.3-2.3V89h102.93Z" transform="translate(0 -22.891)" fill="#3a3c07"/>
        </g>
      </g>
    </g>
  </g>
</svg>
