<svg xmlns="http://www.w3.org/2000/svg" width="124" height="124" viewBox="0 0 124 124">
  <g id="Grupo_84100" data-name="Grupo 84100" transform="translate(-0.333)">
    <rect id="Rectángulo_5987" data-name="Rectángulo 5987" width="124" height="124" transform="translate(0.333)" fill="none"/>
    <g id="toolbox" transform="translate(4.033 4.701)">
      <g id="Grupo_84141" data-name="Grupo 84141" transform="translate(15.149 6.302)">
        <path id="Trazado_133775" data-name="Trazado 133775" d="M74.077,6.5H49.421A5.321,5.321,0,0,0,44.1,11.821v23.21H79.4V11.821A5.321,5.321,0,0,0,74.077,6.5Zm0,23.21H49.421V11.821H74.077Z" transform="translate(-18.598 -6.5)" fill="#fdd82e"/>
        <path id="Trazado_133776" data-name="Trazado 133776" d="M96.327,24.192H20.667a5.321,5.321,0,0,0-5.321,5.321V84.391h86.3V29.513a5.321,5.321,0,0,0-5.321-5.321Z" transform="translate(-15.346 -8.501)" fill="#fdd82e"/>
        <g id="Grupo_84140" data-name="Grupo 84140" transform="translate(21.291 32.042)">
          <path id="Trazado_133777" data-name="Trazado 133777" d="M66.44,49.013l-2.4-6.385h-4.8l-2.4,6.385,2.144,5.7V77.274H64.3V54.709Z" transform="translate(-41.329 -42.628)" fill="#eaeaf0"/>
          <path id="Trazado_133778" data-name="Trazado 133778" d="M84.789,43.224l-1.016-.587v5.217l-2.528,1.02-2.519-1.02V42.628l-1.031.6a7.087,7.087,0,0,0,0,12.28,7.321,7.321,0,0,0,.887.428V75.818H83.9V55.932a7.083,7.083,0,0,0,.885-12.708Z" transform="translate(-43.287 -42.628)" fill="#eaeaf0"/>
          <path id="Trazado_133779" data-name="Trazado 133779" d="M42.013,42.628l-2.661,2.741V61.583h5.321V45.369Z" transform="translate(-39.352 -42.628)" fill="#eaeaf0"/>
        </g>
        <path id="Trazado_133780" data-name="Trazado 133780" d="M45.834,61.3H37.852v5.052l1.33,2.956v9.092H44.5V69.314l1.33-2.956Z" transform="translate(-17.891 -12.698)" fill="#f7502f"/>
        <path id="Trazado_133781" data-name="Trazado 133781" d="M15.346,81.692h86.3v24.663A10.643,10.643,0,0,1,91.006,117H25.989a10.643,10.643,0,0,1-10.643-10.643V81.692Z" transform="translate(-15.346 -15.004)" fill="#f7502f"/>
        <path id="Trazado_133782" data-name="Trazado 133782" d="M33,81.692h5.321v21.286H33Z" transform="translate(-17.342 -15.004)" fill="#fdd82e"/>
        <path id="Trazado_133783" data-name="Trazado 133783" d="M31.5,89.192h7.982v7.982H31.5Z" transform="translate(-17.172 -15.852)" fill="#d93922"/>
        <path id="Trazado_133784" data-name="Trazado 133784" d="M0,0H5.321V21.286H0Z" transform="translate(70.648 87.975) rotate(180)" fill="#fdd82e"/>
        <path id="Trazado_133785" data-name="Trazado 133785" d="M0,0H7.982V7.982H0Z" transform="translate(71.979 81.323) rotate(180)" fill="#d93922"/>
        <path id="Trazado_133786" data-name="Trazado 133786" d="M15.346,75.692h86.3v5.321h-86.3Z" transform="translate(-15.346 -14.325)" fill="#ff9800"/>
        <path id="Trazado_133787" data-name="Trazado 133787" d="M20.667,24.192h75.66a5.321,5.321,0,0,1,5.321,5.321v5.321h-86.3V29.513a5.321,5.321,0,0,1,5.321-5.321Z" transform="translate(-15.346 -8.501)" fill="#ff9800"/>
      </g>
      <g id="Grupo_84142" data-name="Grupo 84142" transform="translate(13.6 4.75)">
        <path id="Trazado_133788" data-name="Trazado 133788" d="M15.152,61.89A1.552,1.552,0,0,0,16.7,60.338V56.51a1.552,1.552,0,0,0-3.1,0v3.828a1.551,1.551,0,0,0,1.552,1.552Z" transform="translate(-13.6 -10.428)" fill="#3a3c07"/>
        <path id="Trazado_133789" data-name="Trazado 133789" d="M103,27.313a6.882,6.882,0,0,0-6.874-6.874H77.5V11.624A6.881,6.881,0,0,0,70.628,4.75H65.912a1.552,1.552,0,1,0,0,3.1h4.716A3.773,3.773,0,0,1,74.4,11.624v8.816H72.18V11.624a1.551,1.551,0,0,0-1.552-1.552H45.972a1.551,1.551,0,0,0-1.552,1.552v8.816H42.2V11.624a3.773,3.773,0,0,1,3.769-3.769H57.413a1.552,1.552,0,1,0,0-3.1H45.972A6.881,6.881,0,0,0,39.1,11.624v8.816H20.474A6.881,6.881,0,0,0,13.6,27.313V45.4a1.552,1.552,0,1,0,3.1,0V34.188H99.9V66.117H92.3a1.552,1.552,0,0,0,0,3.1h7.6v2.217H16.7V69.221H84.39a1.552,1.552,0,1,0,0-3.1H78.61V52.628c.035-.018.07-.038.107-.057a8.643,8.643,0,0,0,3.167-11.814,8.825,8.825,0,0,0-3.167-3.164l-1.02-.585a1.552,1.552,0,0,0-2.325,1.346v4.168l-.976.393-.967-.393V38.346A1.553,1.553,0,0,0,71.1,37l-1.027.594a8.643,8.643,0,0,0,.014,14.982l.1.052V66.117H60.961V50.707L63,45.277a1.557,1.557,0,0,0,0-1.09L60.606,37.8a1.552,1.552,0,0,0-1.455-1.008H54.344A1.552,1.552,0,0,0,52.89,37.8l-2.4,6.386a1.557,1.557,0,0,0,0,1.094l2.049,5.43V66.117H43.311V63.255l1.194-2.661a1.558,1.558,0,0,0,.137-.634V54.913a1.547,1.547,0,0,0-1.33-1.53v-12.3a1.552,1.552,0,0,0-.443-1.081l-2.661-2.741a1.6,1.6,0,0,0-2.227,0l-2.661,2.741a1.551,1.551,0,0,0-.434,1.081v12.3a1.546,1.546,0,0,0-1.33,1.53V59.96a1.558,1.558,0,0,0,.136.636l1.195,2.661v2.862H16.7V60.194a1.552,1.552,0,1,0-3.1,0V97.653a12.208,12.208,0,0,0,12.195,12.195H90.812A12.208,12.208,0,0,0,103,97.653Zm-30.675,22.9a6.464,6.464,0,0,1-.7-.333,5.536,5.536,0,0,1-1.3-8.557V43.57a1.553,1.553,0,0,0,.968,1.438l2.52,1.02a1.556,1.556,0,0,0,1.165,0l2.527-1.02a1.555,1.555,0,0,0,.971-1.439V41.339a5.615,5.615,0,0,1,.724.976,5.535,5.535,0,0,1,0,5.533,5.444,5.444,0,0,1-2,2.01,7.048,7.048,0,0,1-.734.355,1.553,1.553,0,0,0-.965,1.437V66.117H73.289V51.65a1.551,1.551,0,0,0-.964-1.436ZM55.54,49.878,53.6,44.732,55.418,39.9h2.661l1.813,4.834L57.959,49.88a1.57,1.57,0,0,0-.1.545V66.117H55.639V50.426a1.557,1.557,0,0,0-.1-.547ZM39.1,40.575l1.109,1.141V53.361H37.99V41.716ZM37.857,62.286l-1.194-2.661v-3.16h4.878v3.162l-1.195,2.661a1.557,1.557,0,0,0-.136.636v3.193H37.99V62.924a1.558,1.558,0,0,0-.136-.637Zm9.667-49.111H69.076v7.264H47.524ZM16.7,31.084V27.313a3.774,3.774,0,0,1,3.769-3.769H96.126A3.774,3.774,0,0,1,99.9,27.313v3.771Zm68.872,50.11v4.878H80.7V81.194Zm-3.548,7.982h2.217v3.548H82.028ZM84.245,78.09H82.028V74.542h2.217Zm-48.336,3.1v4.878H31.031V81.194Zm-3.548,7.982h2.217v3.548H32.362ZM34.579,78.09H32.362V74.542h2.217ZM99.9,97.653a9.1,9.1,0,0,1-9.091,9.091H25.791A9.1,9.1,0,0,1,16.7,97.653V74.542h12.55v3.57a1.548,1.548,0,0,0-1.33,1.53v7.982a1.548,1.548,0,0,0,1.33,1.531v5.119a1.551,1.551,0,0,0,1.552,1.552h5.321a1.551,1.551,0,0,0,1.552-1.552v-5.12a1.548,1.548,0,0,0,1.33-1.53V79.642a1.548,1.548,0,0,0-1.33-1.529V74.542H78.921v3.571a1.548,1.548,0,0,0-1.33,1.529v7.982a1.548,1.548,0,0,0,1.33,1.53v5.12a1.551,1.551,0,0,0,1.552,1.552h5.321a1.551,1.551,0,0,0,1.552-1.552V89.155a1.548,1.548,0,0,0,1.33-1.531V79.642a1.548,1.548,0,0,0-1.33-1.53v-3.57H99.9Z" transform="translate(-13.6 -4.75)" fill="#3a3c07"/>
        <path id="Trazado_133790" data-name="Trazado 133790" d="M108,58.26V52.052a1.552,1.552,0,1,0-3.1,0V58.26a1.552,1.552,0,1,0,3.1,0Z" transform="translate(-23.926 -9.924)" fill="#3a3c07"/>
        <path id="Trazado_133791" data-name="Trazado 133791" d="M73.1,96.442H51.79a1.552,1.552,0,0,0,0,3.1H73.1a1.552,1.552,0,1,0,0-3.1Z" transform="translate(-17.744 -15.12)" fill="#3a3c07"/>
      </g>
    </g>
  </g>
</svg>
