<svg xmlns="http://www.w3.org/2000/svg" width="124" height="124" viewBox="0 0 124 124">
  <g id="Grupo_84099" data-name="Grupo 84099" transform="translate(-0.333)">
    <rect id="Rectángulo_5987" data-name="Rectángulo 5987" width="124" height="124" transform="translate(0.333)" fill="none"/>
    <g id="startup" transform="translate(7.171 6.837)">
      <path id="Trazado_133751" data-name="Trazado 133751" d="M132.268,223.052H38.562V166.044a3.232,3.232,0,0,1,3.232-3.232h87.242a3.232,3.232,0,0,1,3.232,3.232Z" transform="translate(-30.253 -127.729)" fill="#548eb5"/>
      <path id="Trazado_133752" data-name="Trazado 133752" d="M52.564,162.808a3.233,3.233,0,0,0-3.232,3.232v57.007H38.558V166.04a3.233,3.233,0,0,1,3.232-3.232Z" transform="translate(-30.25 -127.726)" fill="#447d99"/>
      <path id="Trazado_133753" data-name="Trazado 133753" d="M69.625,193.874h80.319V247.42H69.625Z" transform="translate(-54.622 -152.098)" fill="#c9ebfa"/>
      <path id="Trazado_133754" data-name="Trazado 133754" d="M326.806,220.7,312.128,214c2.3-7.387,4.476-14.489,4.631-20.061l.009,0,6.693,6.68Z" transform="translate(-244.871 -152.148)" fill="#f07281"/>
      <path id="Trazado_133755" data-name="Trazado 133755" d="M146.383,214.023,131.748,220.7l3.346-20.078,6.693-6.68.015.011c.17,3.771,1.752,10.19,3.333,15.8.424,1.506.849,2.954,1.248,4.277Z" transform="translate(-103.359 -152.148)" fill="#f07281"/>
      <path id="Trazado_133756" data-name="Trazado 133756" d="M69.628,193.878h4.079v53.545H69.628Z" transform="translate(-54.625 -152.101)" fill="#a0ddf3"/>
      <path id="Trazado_133757" data-name="Trazado 133757" d="M211.806,47.053c0,7.3-3.739,17.417-6.695,27.379H185.033s-1.674-5.021-3.346-10.951-3.349-12.778-3.349-16.428A63.582,63.582,0,0,1,182.4,24.514a53.457,53.457,0,0,1,7.839-14.026q4.832-5.976,9.662,0a53.458,53.458,0,0,1,7.839,14.026A63.582,63.582,0,0,1,211.806,47.053Z" transform="translate(-139.91 -5.884)" fill="#f5fcff"/>
      <path id="Trazado_133758" data-name="Trazado 133758" d="M198.3,8.839a11.622,11.622,0,0,0-1.6,1.651,52.333,52.333,0,0,0-6.51,10.821A62.911,62.911,0,0,0,184.8,47.055c0,3.65,1.674,10.494,3.349,16.428.422,1.5.847,2.941,1.241,4.258,1.17,3.892,2.105,6.693,2.105,6.693h-6.464l-.019-.058c-.138-.416-1-3.045-2.071-6.585l-.015-.05c-.394-1.317-.819-2.758-1.241-4.258-1.674-5.934-3.349-12.778-3.349-16.428A63.582,63.582,0,0,1,182.4,24.516a53.457,53.457,0,0,1,7.839-14.026Q194.275,5.5,198.3,8.839Z" transform="translate(-139.91 -5.886)" fill="#dff1f7"/>
      <path id="Trazado_133759" data-name="Trazado 133759" d="M223.88,287.063H199.64l2.1,6.693h20.08Z" transform="translate(-156.622 -225.207)" fill="#f07281"/>
      <path id="Trazado_133760" data-name="Trazado 133760" d="M208.208,293.751h-6.464l-.019-.058-2.071-6.585-.015-.05H206.1C207.272,290.95,208.208,293.751,208.208,293.751Z" transform="translate(-156.62 -225.203)" fill="#eb5569"/>
      <path id="Trazado_133761" data-name="Trazado 133761" d="M222.538,24.514a23.476,23.476,0,0,0-25.34,0,53.458,53.458,0,0,1,7.839-14.026q4.832-5.976,9.662,0a53.458,53.458,0,0,1,7.839,14.026Z" transform="translate(-154.706 -5.884)" fill="#f07281"/>
      <path id="Trazado_133762" data-name="Trazado 133762" d="M213.1,8.839a11.621,11.621,0,0,0-1.6,1.651,52.333,52.333,0,0,0-6.51,10.821,23.4,23.4,0,0,0-7.794,3.2,53.458,53.458,0,0,1,7.839-14.026Q209.071,5.5,213.1,8.839Z" transform="translate(-154.706 -5.886)" fill="#eb5569"/>
      <path id="Trazado_133763" data-name="Trazado 133763" d="M108.128,455.758H13.964A6.464,6.464,0,0,1,7.5,449.293v-6.922H114.593v6.922A6.464,6.464,0,0,1,108.128,455.758Z" transform="translate(-5.884 -347.049)" fill="#f5fcff"/>
      <path id="Trazado_133764" data-name="Trazado 133764" d="M24.736,455.756H13.962A6.464,6.464,0,0,1,7.5,449.291v-6.923H18.272v6.923A6.464,6.464,0,0,0,24.736,455.756Z" transform="translate(-5.882 -347.047)" fill="#dff1f7"/>
      <path id="Trazado_133765" data-name="Trazado 133765" d="M202.971,442.372h-40.16l6.693,6.693h26.773Z" transform="translate(-127.729 -347.05)" fill="#548eb5"/>
      <path id="Trazado_133766" data-name="Trazado 133766" d="M120.768,349.183s.015,4.844,0,6.688a7.009,7.009,0,0,0-6.693,6.7h-6.693a7.2,7.2,0,0,0-6.693,6.693h66.933a7.2,7.2,0,0,0-6.693-6.693h-6.693a6.7,6.7,0,0,0-6.693-6.7v-6.688Z" transform="translate(-78.992 -273.941)" fill="#a0ddf3"/>
      <path id="Trazado_133767" data-name="Trazado 133767" d="M224.936,349.184l6.693,13.376,6.693-13.376Z" transform="translate(-176.467 -273.942)" fill="#fcd700"/>
      <ellipse id="Elipse_8717" data-name="Elipse 8717" cx="10.036" cy="10.036" rx="10.036" ry="10.036" transform="translate(45.126 28.407)" fill="#f07281"/>
      <path id="Trazado_133768" data-name="Trazado 133768" d="M221.618,151.667a10.036,10.036,0,1,1-2.155-19.839,9.871,9.871,0,0,1,2.155.235,10.037,10.037,0,0,0,0,19.6Z" transform="translate(-164.301 -103.422)" fill="#eb5569"/>
      <path id="Trazado_133769" data-name="Trazado 133769" d="M193.874,324.816l3.347-6.693H217.3l3.347,6.693Z" transform="translate(-152.098 -249.574)" fill="#8cbdf9"/>
      <path id="Trazado_133770" data-name="Trazado 133770" d="M203.689,318.118l-3.346,6.693h-6.464l3.346-6.693Z" transform="translate(-152.101 -249.57)" fill="#73a2da"/>
      <circle id="Elipse_8718" data-name="Elipse 8718" cx="3.347" cy="3.347" r="3.347" transform="translate(51.816 35.096)" fill="#8cbdf9"/>
      <path id="Trazado_133771" data-name="Trazado 133771" d="M244.892,169.384a3.3,3.3,0,0,1-1.077.179,3.347,3.347,0,0,1,0-6.695,3.3,3.3,0,0,1,1.077.179,3.347,3.347,0,0,0,0,6.337Z" transform="translate(-188.652 -127.773)" fill="#73a2da"/>
      <g id="Grupo_84139" data-name="Grupo 84139" transform="translate(0 0)">
        <path id="Trazado_133772" data-name="Trazado 133772" d="M108.709,93.706h-5.076V38.314a4.854,4.854,0,0,0-4.848-4.848h-9.77a1.616,1.616,0,0,0,0,3.232h9.77a1.618,1.618,0,0,1,1.616,1.616V93.705H96.937V41.777a1.616,1.616,0,0,0-1.616-1.616H73.5q-.026-1.739-.14-3.463H81.97a1.616,1.616,0,1,0,0-3.232h-8.9A64.427,64.427,0,0,0,70.339,20.88,53.967,53.967,0,0,0,61.25,3.589C59.325,1.208,57.277,0,55.162,0S51,1.208,49.074,3.589A53.965,53.965,0,0,0,39.986,20.88a64.411,64.411,0,0,0-2.733,12.586H11.541a4.854,4.854,0,0,0-4.848,4.848V93.706H1.616A1.616,1.616,0,0,0,0,95.322v6.922a8.09,8.09,0,0,0,8.08,8.08h94.164a8.09,8.09,0,0,0,8.08-8.08V95.322a1.616,1.616,0,0,0-1.616-1.616Zm-15-50.313V93.705H90.054a8.845,8.845,0,0,0-8.119-6.692H76.7a8.337,8.337,0,0,0-6.536-6.541v-5.23a1.627,1.627,0,0,0-.171-.723L66.934,68.4c.431-1.438.877-2.885,1.321-4.312l13.01,5.932a1.648,1.648,0,0,0,2.264-1.736L80.183,48.2a1.616,1.616,0,0,0-.453-.878l-3.94-3.933ZM44.391,73.626l1.731-3.461H64.2l1.731,3.461ZM59.24,76.858l-4.078,8.149-4.078-8.149ZM64,66.933h-17.7c-.26-1-.595-2.176-.974-3.46H65.082C64.706,64.647,64.34,65.8,64,66.933ZM43.4,76.858h4.075l6.247,12.484a1.616,1.616,0,0,0,2.89,0l6.247-12.484h4.079V81.93a1.616,1.616,0,0,0,1.616,1.616,5.092,5.092,0,0,1,5.077,5.083,1.616,1.616,0,0,0,1.616,1.616h6.693a5.656,5.656,0,0,1,4.729,3.46h-63a5.656,5.656,0,0,1,4.729-3.46h6.693A1.616,1.616,0,0,0,36.7,88.63a5.433,5.433,0,0,1,5.08-5.083,1.616,1.616,0,0,0,1.614-1.6c.009-1.155.007-3.5,0-5.086Zm29.8-31.491,3.888,3.88,2.762,16.571L69.224,60.976a104.936,104.936,0,0,0,3.968-15.61ZM51.595,5.612c1.279-1.579,2.479-2.38,3.568-2.38s2.289.8,3.568,2.38a50.016,50.016,0,0,1,5.834,9.517,25.091,25.091,0,0,0-18.8,0,50.028,50.028,0,0,1,5.834-9.517ZM43.841,19.7a21.842,21.842,0,0,1,22.643,0,60.169,60.169,0,0,1,3.8,21.472c-.038,5.876-2.091,12.641-4.157,19.072H44.353c-1.944-6.459-4.308-14.4-4.308-19.072a62.285,62.285,0,0,1,3.8-21.472ZM41.071,60.99,30.483,65.818l2.762-16.571,3.971-3.963A140.355,140.355,0,0,0,41.071,60.99ZM9.925,38.314A1.618,1.618,0,0,1,11.541,36.7H36.963q-.114,1.723-.14,3.463H15a1.616,1.616,0,0,0-1.616,1.616V71.72a1.616,1.616,0,0,0,3.232,0V43.393H34.534l-3.94,3.933a1.617,1.617,0,0,0-.453.878L26.8,68.283a1.648,1.648,0,0,0,2.264,1.736l12.953-5.906c.6,1.957,1.1,3.488,1.366,4.309l-3.049,6.1a1.637,1.637,0,0,0-.171.728c0,.039.009,3.09.006,5.249a8.868,8.868,0,0,0-6.518,6.518H28.389a8.846,8.846,0,0,0-8.119,6.692H16.619V78.764a1.616,1.616,0,0,0-3.232,0V93.706H9.925Zm97.168,63.93a4.854,4.854,0,0,1-4.848,4.848H8.08a4.854,4.854,0,0,1-4.848-4.848V96.938H34.413l6.221,6.221a1.615,1.615,0,0,0,1.143.473h9.839a1.616,1.616,0,1,0,0-3.232h-9.17l-3.462-3.462H71.34L67.879,100.4H58.66a1.616,1.616,0,1,0,0,3.232h9.888a1.615,1.615,0,0,0,1.143-.473l6.221-6.221h31.181Z" transform="translate(0 0)" fill="#3a3c07"/>
        <path id="Trazado_133773" data-name="Trazado 133773" d="M213.575,147.633a11.652,11.652,0,1,0-11.652-11.652A11.665,11.665,0,0,0,213.575,147.633Zm0-20.071a8.419,8.419,0,1,1-8.42,8.419A8.429,8.429,0,0,1,213.575,127.562Z" transform="translate(-158.413 -97.539)" fill="#3a3c07"/>
        <path id="Trazado_133774" data-name="Trazado 133774" d="M237.93,165.3a4.963,4.963,0,1,0-4.963-4.963A4.968,4.968,0,0,0,237.93,165.3Zm0-6.693a1.731,1.731,0,1,1-1.731,1.731A1.733,1.733,0,0,1,237.93,158.6Z" transform="translate(-182.767 -121.892)" fill="#3a3c07"/>
      </g>
    </g>
  </g>
</svg>
