<svg xmlns="http://www.w3.org/2000/svg" width="124" height="124" viewBox="0 0 124 124">
  <g id="Grupo_84097" data-name="Grupo 84097" transform="translate(-0.333)">
    <rect id="Rectángulo_5987" data-name="Rectángulo 5987" width="124" height="124" transform="translate(0.333)" fill="none"/>
    <g id="analytics" transform="translate(11.333 11)">
      <path id="Trazado_133719" data-name="Trazado 133719" d="M24.484,94.837H18.047A8.047,8.047,0,0,1,10,86.791V18.047A8.047,8.047,0,0,1,18.047,10H100.93a8.047,8.047,0,0,1,8.047,8.047V86.791a8.047,8.047,0,0,1-8.047,8.047H24.484Z" transform="translate(-7.988 -7.988)" fill="#fff"/>
      <path id="Trazado_133720" data-name="Trazado 133720" d="M100.93,10H18.047A8.047,8.047,0,0,0,10,18.047v6.438h98.977V18.047A8.047,8.047,0,0,0,100.93,10Z" transform="translate(-7.988 -7.988)" fill="#ff5a5a"/>
      <path id="Trazado_133721" data-name="Trazado 133721" d="M21,82H116.56" transform="translate(-16.779 -65.504)" fill="#231f20"/>
      <rect id="Rectángulo_6818" data-name="Rectángulo 6818" width="14" height="23" transform="translate(11 78)" fill="#a0a603"/>
      <rect id="Rectángulo_6819" data-name="Rectángulo 6819" width="13" height="27" transform="translate(56 74)" fill="#529ad9"/>
      <rect id="Rectángulo_6820" data-name="Rectángulo 6820" width="12.875" height="44.372" transform="translate(33.797 56.616)" fill="#fcb442"/>
      <rect id="Rectángulo_6821" data-name="Rectángulo 6821" width="12.875" height="47.376" transform="translate(78.859 53.612)" fill="#ff5a5a"/>
      <circle id="Elipse_8712" data-name="Elipse 8712" cx="5.23" cy="5.23" r="5.23" transform="translate(33.871 29.359)" fill="#fcb442"/>
      <circle id="Elipse_8713" data-name="Elipse 8713" cx="5.23" cy="5.23" r="5.23" transform="translate(57.348 53.311)" fill="#529ad9"/>
      <circle id="Elipse_8714" data-name="Elipse 8714" cx="5.23" cy="5.23" r="5.23" transform="translate(80.066 29.359)" fill="#ff5a5a"/>
      <circle id="Elipse_8715" data-name="Elipse 8715" cx="5.23" cy="5.23" r="5.23" transform="translate(12.34 51.385)" fill="#a0a603"/>
      <path id="Trazado_133722" data-name="Trazado 133722" d="M95.976,88.617A7.032,7.032,0,0,0,103,81.592V10.059A10.07,10.07,0,0,0,92.941,0H10.059A10.07,10.07,0,0,0,0,10.059V81.592a7.032,7.032,0,0,0,7.024,7.025h2.23v10.36H2.012a2.012,2.012,0,0,0,0,4.023h98.977a2.012,2.012,0,0,0,0-4.023H93.746V88.617ZM10.059,4.023H92.941a6.042,6.042,0,0,1,6.035,6.035v4.426H4.225c-.068,0-.136,0-.2.01V10.059A6.042,6.042,0,0,1,10.059,4.023Zm3.219,94.953V80.871h8.852V98.977Zm22.531,0V58.628H44.66V98.977Zm22.531,0V75.641h8.852V98.977Zm22.531,0V77.3a2.012,2.012,0,0,0-4.023,0V98.977H71.215V73.629A2.012,2.012,0,0,0,69.2,71.617H56.328a2.012,2.012,0,0,0-2.012,2.012V98.977H48.684V56.616A2.012,2.012,0,0,0,46.672,54.6H33.8a2.012,2.012,0,0,0-2.012,2.012v42.36H26.152V78.859a2.012,2.012,0,0,0-2.012-2.012H11.266a2.012,2.012,0,0,0-2.012,2.012v5.734H7.024a3,3,0,0,1-3-3V18.5c.066.007.134.01.2.01H98.977V81.592a3,3,0,0,1-3,3h-2.23V53.612A2.012,2.012,0,0,0,91.734,51.6H78.859a2.012,2.012,0,0,0-2.012,2.012V63.771a2.012,2.012,0,0,0,4.023,0V55.624h8.852V98.977Z" fill="#3a3c07"/>
      <path id="Trazado_133723" data-name="Trazado 133723" d="M214.077,40.023h45.452a2.012,2.012,0,0,0,0-4.023H214.077a2.012,2.012,0,0,0,0,4.023Z" transform="translate(-169.403 -28.758)" fill="#3a3c07"/>
      <path id="Trazado_133724" data-name="Trazado 133724" d="M96.012,40.023a2.013,2.013,0,1,0-1.422-.59A2.026,2.026,0,0,0,96.012,40.023Z" transform="translate(-75.09 -28.758)" fill="#3a3c07"/>
      <path id="Trazado_133725" data-name="Trazado 133725" d="M56.012,40.023a2.013,2.013,0,1,0-1.422-.59A2.026,2.026,0,0,0,56.012,40.023Z" transform="translate(-43.137 -28.758)" fill="#3a3c07"/>
      <path id="Trazado_133726" data-name="Trazado 133726" d="M136.012,40.023a2.013,2.013,0,1,0-1.422-.59A2.026,2.026,0,0,0,136.012,40.023Z" transform="translate(-107.043 -28.758)" fill="#3a3c07"/>
      <path id="Trazado_133727" data-name="Trazado 133727" d="M384.012,342.64a2.012,2.012,0,1,0,1.422.589A2.019,2.019,0,0,0,384.012,342.64Z" transform="translate(-305.152 -273.71)" fill="#3a3c07"/>
      <path id="Trazado_133728" data-name="Trazado 133728" d="M126.305,150.423a7.253,7.253,0,1,0-5.86-2.994l-13.363,13.363a7.225,7.225,0,0,0-6.679-.163L86.451,146.677a7.243,7.243,0,1,0-12.5.311l-11.88,11.88a7.248,7.248,0,1,0,2.845,2.845L76.94,149.691a7.226,7.226,0,0,0,6.666-.169l13.816,13.816a7.242,7.242,0,1,0,12.505.3l13.721-13.721A7.2,7.2,0,0,0,126.305,150.423Zm0-10.461a3.219,3.219,0,1,1-3.219,3.219A3.223,3.223,0,0,1,126.305,139.962ZM58.578,168.427a3.219,3.219,0,1,1,3.219-3.219A3.223,3.223,0,0,1,58.578,168.427ZM80.111,146.4a3.219,3.219,0,1,1,3.219-3.219A3.223,3.223,0,0,1,80.111,146.4Zm23.477,23.952a3.219,3.219,0,1,1,3.219-3.219A3.223,3.223,0,0,1,103.588,170.351Z" transform="translate(-41.009 -108.592)" fill="#3a3c07"/>
      <path id="Trazado_133729" data-name="Trazado 133729" d="M133.272,130.043a2.009,2.009,0,1,0-1.424-.589A2.03,2.03,0,0,0,133.272,130.043Z" transform="translate(-104.854 -100.668)" fill="#3a3c07"/>
      <path id="Trazado_133730" data-name="Trazado 133730" d="M48.012,130.044h9.656a2.012,2.012,0,0,0,0-4.023H48.012a2.012,2.012,0,0,0,0,4.023Z" transform="translate(-36.746 -100.669)" fill="#3a3c07"/>
      <path id="Trazado_133731" data-name="Trazado 133731" d="M57.668,178.044a2.012,2.012,0,0,0,0-4.023H48.012a2.012,2.012,0,0,0,0,4.023Z" transform="translate(-36.746 -139.013)" fill="#3a3c07"/>
    </g>
  </g>
</svg>
