<svg id="Grupo_83344" data-name="Grupo 83344" xmlns="http://www.w3.org/2000/svg" width="105" height="105" viewBox="0 0 105 105">
  <rect id="Rectángulo_5987" data-name="Rectángulo 5987" width="105" height="105" fill="none"/>
  <g id="botella-de-soda" transform="translate(-34.849 4.959)">
    <g id="Grupo_83345" data-name="Grupo 83345" transform="translate(51.883 11.685)">
      <path id="Trazado_130344" data-name="Trazado 130344" d="M91.167,104.669v30.163a16.85,16.85,0,0,1-2.121,8.178,2.822,2.822,0,0,1-2.466,1.452H80.448a2.824,2.824,0,0,1-2.427-1.379,2.823,2.823,0,0,0-4.852,0,2.818,2.818,0,0,1-2.425,1.379H64.612a2.847,2.847,0,0,1-2.466-1.452,16.823,16.823,0,0,1-2.121-8.178V104.669A72.5,72.5,0,0,1,63.3,82.775a41.479,41.479,0,0,1,4.912-11.052,6.218,6.218,0,0,0,1.1-3.532v-5.27H81.671v5.27a6.218,6.218,0,0,0,1.1,3.532,35.6,35.6,0,0,1,3.41,6.638A68.9,68.9,0,0,1,91.167,104.669Z" transform="translate(-60.025 -62.921)" fill="#e0e7ef"/>
    </g>
    <g id="Grupo_83346" data-name="Grupo 83346" transform="translate(51.883 27.125)">
      <path id="Trazado_130345" data-name="Trazado 130345" d="M91.167,172.37v30.163a16.85,16.85,0,0,1-2.121,8.178,2.822,2.822,0,0,1-2.466,1.452H80.448a2.824,2.824,0,0,1-2.427-1.379,2.823,2.823,0,0,0-4.852,0,2.818,2.818,0,0,1-2.425,1.379H64.612a2.847,2.847,0,0,1-2.466-1.452,16.823,16.823,0,0,1-2.121-8.178V172.37A72.5,72.5,0,0,1,63.3,150.476c.551-1.756.994-2.945,1.528-4.414H86.18A68.893,68.893,0,0,1,91.167,172.37Z" transform="translate(-60.025 -146.062)" fill="#d42525"/>
    </g>
    <g id="Grupo_83347" data-name="Grupo 83347" transform="translate(59.127 1.857)">
      <path id="Trazado_130346" data-name="Trazado 130346" d="M113.147,10H101.362a2.33,2.33,0,0,0-2.33,2.33v7.5h16.446v-7.5A2.33,2.33,0,0,0,113.147,10Z" transform="translate(-99.032 -10)" fill="#727997"/>
    </g>
    <g id="Grupo_83348" data-name="Grupo 83348" transform="translate(51.883 53.289)">
      <path id="Trazado_130347" data-name="Trazado 130347" d="M60.028,286.948H91.169V312.2H60.028Z" transform="translate(-60.028 -286.948)" fill="#e0e7ef"/>
    </g>
    <g id="Grupo_83349" data-name="Grupo 83349" transform="translate(93.842 53.059)">
      <path id="Trazado_130348" data-name="Trazado 130348" d="M293.107,285.709h-7.144v32.7a7.47,7.47,0,0,0,7.47,7.47h15.892a7.468,7.468,0,0,0,7.468-7.47v-32.7H293.107Z" transform="translate(-285.963 -285.709)" fill="#e0e7ef"/>
    </g>
    <g id="Grupo_83350" data-name="Grupo 83350" transform="translate(91.74 64.899)">
      <path id="Trazado_130349" data-name="Trazado 130349" d="M316.792,349.467v20.857a7.468,7.468,0,0,1-7.468,7.47H293.432a7.47,7.47,0,0,1-7.47-7.47V349.467Z" transform="translate(-285.962 -349.467)" fill="#d42525"/>
    </g>
    <g id="Grupo_83351" data-name="Grupo 83351" transform="translate(50.026 0)">
      <path id="Trazado_130350" data-name="Trazado 130350" d="M84.881,53.289a70.477,70.477,0,0,0-5.127-26.875,40.638,40.638,0,0,0-3.6-6.982,4.342,4.342,0,0,1-.772-2.477V13.542h.187a1.857,1.857,0,0,0,1.857-1.857v-7.5A4.192,4.192,0,0,0,73.242,0H61.457A4.192,4.192,0,0,0,57.27,4.187v7.5a1.857,1.857,0,0,0,1.857,1.857h.186v3.414a4.343,4.343,0,0,1-.772,2.477,43.308,43.308,0,0,0-5.153,11.546,74.427,74.427,0,0,0-3.361,22.454V83.6a18.724,18.724,0,0,0,2.353,9.077,4.721,4.721,0,0,0,4.091,2.41H62.6A4.7,4.7,0,0,0,66.623,92.8a.963.963,0,0,1,.831-.472,1,1,0,0,1,.859.52,4.656,4.656,0,0,0,3.936,2.237h6.189a4.685,4.685,0,0,0,4.093-2.414A18.771,18.771,0,0,0,84.882,83.6V53.433q0-.072,0-.144Zm-23.9-49.1a.474.474,0,0,1,.473-.473H73.242a.474.474,0,0,1,.473.473v5.64H60.984ZM53.79,50.645a71.443,71.443,0,0,1,4.257-21.663H76.782a67.125,67.125,0,0,1,4.359,22.45H53.769C53.775,51.17,53.781,50.907,53.79,50.645Zm19.31-29.1a27.493,27.493,0,0,1,2.077,3.726h-15.6A25.661,25.661,0,0,1,61.6,21.542a8.04,8.04,0,0,0,1.429-4.586V13.542h8.645v3.413A8.042,8.042,0,0,0,73.1,21.542Zm-19.359,33.6H81.167V76.682H53.741ZM79.281,90.872a.965.965,0,0,1-.843.5h-6.1a.957.957,0,0,1-.857-.467,4.815,4.815,0,0,0-4.027-2.291A4.642,4.642,0,0,0,63.43,90.9a.966.966,0,0,1-.828.47H56.47a.98.98,0,0,1-.843-.5A15,15,0,0,1,53.74,83.6V80.4H81.168v3.192a15.083,15.083,0,0,1-1.887,7.284Z" transform="translate(-50.026 0)" fill="#3a3c07"/>
      <path id="Trazado_130351" data-name="Trazado 130351" d="M308.65,275.709h-7.3a1.857,1.857,0,1,0,0,3.714h5.443v8.126H279.677v-8.126h5.287a1.857,1.857,0,1,0,0-3.714H277.82a1.857,1.857,0,0,0-1.857,1.857v32.7a9.338,9.338,0,0,0,9.327,9.327h15.892a9.336,9.336,0,0,0,9.325-9.327v-32.7a1.857,1.857,0,0,0-1.857-1.857Zm-1.857,34.554a5.618,5.618,0,0,1-5.611,5.613H285.29a5.619,5.619,0,0,1-5.613-5.613v-19h27.116Z" transform="translate(-236.106 -224.507)" fill="#3a3c07"/>
      <path id="Trazado_130352" data-name="Trazado 130352" d="M389.192,406.9a1.856,1.856,0,1,0,.8-2.325A1.87,1.87,0,0,0,389.192,406.9Z" transform="translate(-328.195 -329.254)" fill="#3a3c07"/>
      <path id="Trazado_130353" data-name="Trazado 130353" d="M335.338,384.612a1.855,1.855,0,1,0,1-2.425A1.874,1.874,0,0,0,335.338,384.612Z" transform="translate(-284.343 -311.099)" fill="#3a3c07"/>
      <path id="Trazado_130354" data-name="Trazado 130354" d="M351.68,438.442a1.857,1.857,0,1,0,2.576-.513A1.876,1.876,0,0,0,351.68,438.442Z" transform="translate(-297.513 -356.353)" fill="#3a3c07"/>
      <path id="Trazado_130355" data-name="Trazado 130355" d="M359.122,278.307a1.856,1.856,0,1,0,.762-2.3A1.873,1.873,0,0,0,359.122,278.307Z" transform="translate(-303.709 -224.538)" fill="#3a3c07"/>
    </g>
  </g>
</svg>
