<svg id="Grupo_83337" data-name="Grupo 83337" xmlns="http://www.w3.org/2000/svg" width="105" height="105" viewBox="0 0 105 105">
  <rect id="Rectángulo_5987" data-name="Rectángulo 5987" width="105" height="105" fill="none"/>
  <g id="car" transform="translate(5.792 5.792)">
    <g id="Grupo_83332" data-name="Grupo 83332" transform="translate(1.371 1.371)">
      <path id="Trazado_130280" data-name="Trazado 130280" d="M440.36,117.568a5.85,5.85,0,0,0,5.85-5.85,5.85,5.85,0,0,0,5.85,5.85,5.85,5.85,0,0,0-5.85,5.85A5.85,5.85,0,0,0,440.36,117.568Z" transform="translate(-361.385 -92.706)" fill="#fcde76"/>
      <path id="Trazado_130281" data-name="Trazado 130281" d="M7.515,117.568a5.85,5.85,0,0,0,5.85-5.85,5.85,5.85,0,0,0,5.85,5.85,5.85,5.85,0,0,0-5.85,5.85A5.85,5.85,0,0,0,7.515,117.568Z" transform="translate(-7.515 -92.706)" fill="#fcde76"/>
      <path id="Trazado_130282" data-name="Trazado 130282" d="M215.922,14.827a7.313,7.313,0,0,0,7.312-7.312,7.313,7.313,0,0,0,7.312,7.312,7.313,7.313,0,0,0-7.312,7.312A7.313,7.313,0,0,0,215.922,14.827Z" transform="translate(-177.897 -7.515)" fill="#fcde76"/>
    </g>
    <path id="Trazado_130283" data-name="Trazado 130283" d="M105.146,280.047H37.872l-6.223,8.712a5.849,5.849,0,0,0-1.09,3.4V309.3h81.9V292.159a5.849,5.849,0,0,0-1.09-3.4Z" transform="translate(-24.983 -228.951)" fill="#e6608d"/>
    <path id="Trazado_130284" data-name="Trazado 130284" d="M137.913,168.643l-7.4-20.959a5.85,5.85,0,0,0-5.517-3.9H83.552a5.85,5.85,0,0,0-5.517,3.9l-7.4,20.959Z" transform="translate(-57.75 -117.548)" fill="#d4506f"/>
    <path id="Trazado_130285" data-name="Trazado 130285" d="M104.625,183.915l5.334-15.112a1.465,1.465,0,0,1,1.379-.976h41.447a1.465,1.465,0,0,1,1.379.976l5.334,15.112Z" transform="translate(-85.536 -137.207)" fill="#878493"/>
    <path id="Trazado_130286" data-name="Trazado 130286" d="M111.338,167.828a1.465,1.465,0,0,0-1.379.976l-5.334,15.112h17.3l15.226-16.087Z" transform="translate(-85.536 -137.207)" fill="#787485"/>
    <ellipse id="Elipse_7981" data-name="Elipse 7981" cx="7.312" cy="4.387" rx="7.312" ry="4.387" transform="translate(65.538 65.721)" fill="#fcde76"/>
    <path id="Trazado_130287" data-name="Trazado 130287" d="M369.438,369.315c-4.038,0-7.312-1.964-7.312-4.387a3.357,3.357,0,0,1,1.332-2.524c-2.512.694-4.257,2.218-4.257,3.986,0,2.423,3.274,4.387,7.312,4.387a9.418,9.418,0,0,0,5.98-1.864A11.519,11.519,0,0,1,369.438,369.315Z" transform="translate(-293.663 -296.282)" fill="#fccf6f"/>
    <ellipse id="Elipse_7982" data-name="Elipse 7982" cx="7.312" cy="4.387" rx="7.312" ry="4.387" transform="translate(12.888 65.721)" fill="#fcde76"/>
    <path id="Trazado_130288" data-name="Trazado 130288" d="M80.876,369.315c-4.038,0-7.312-1.964-7.312-4.387A3.357,3.357,0,0,1,74.9,362.4c-2.512.694-4.257,2.218-4.257,3.986,0,2.423,3.274,4.387,7.312,4.387a9.418,9.418,0,0,0,5.98-1.864A11.521,11.521,0,0,1,80.876,369.315Z" transform="translate(-57.75 -296.282)" fill="#fccf6f"/>
    <g id="Grupo_83333" data-name="Grupo 83333" transform="translate(8.501 86.195)">
      <path id="Trazado_130289" data-name="Trazado 130289" d="M56.829,478.272H48.054a1.463,1.463,0,0,1-1.463-1.463v-4.387h11.7v4.387A1.463,1.463,0,0,1,56.829,478.272Z" transform="translate(-46.591 -472.422)" fill="#787485"/>
      <path id="Trazado_130290" data-name="Trazado 130290" d="M400.743,478.272h8.775a1.463,1.463,0,0,0,1.463-1.463v-4.387h-11.7v4.387A1.463,1.463,0,0,0,400.743,478.272Z" transform="translate(-334.93 -472.422)" fill="#787485"/>
    </g>
    <g id="Grupo_83334" data-name="Grupo 83334" transform="translate(8.501 86.196)">
      <rect id="Rectángulo_6250" data-name="Rectángulo 6250" width="11.7" height="2.925" transform="translate(64.35)" fill="#696578"/>
      <rect id="Rectángulo_6251" data-name="Rectángulo 6251" width="11.7" height="2.925" fill="#696578"/>
    </g>
    <path id="Trazado_130291" data-name="Trazado 130291" d="M209.182,361.722H182.857v-11.7a5.85,5.85,0,0,1,5.85-5.85h14.625a5.85,5.85,0,0,1,5.85,5.85v11.7Z" transform="translate(-149.494 -281.376)" fill="#d2d1d6"/>
    <g id="Grupo_83335" data-name="Grupo 83335" transform="translate(2.651 45.246)">
      <path id="Trazado_130292" data-name="Trazado 130292" d="M456.149,253.834h-8.775l1.462-5.85h7.313Z" transform="translate(-368.399 -247.984)" fill="#e6608d"/>
      <path id="Trazado_130293" data-name="Trazado 130293" d="M14.528,253.834H23.3l-1.462-5.85H14.528Z" transform="translate(-14.528 -247.984)" fill="#e6608d"/>
    </g>
    <path id="Trazado_130294" data-name="Trazado 130294" d="M106.609,446.21h-70.2a5.85,5.85,0,0,1-5.85-5.85h81.9A5.85,5.85,0,0,1,106.609,446.21Z" transform="translate(-24.983 -360.014)" fill="#d4506f"/>
    <g id="Grupo_83336" data-name="Grupo 83336" transform="translate(18.738 68.646)">
      <circle id="Elipse_7983" data-name="Elipse 7983" cx="1.463" cy="1.463" r="1.463" fill="#fdfab6"/>
      <circle id="Elipse_7984" data-name="Elipse 7984" cx="1.463" cy="1.463" r="1.463" transform="translate(52.65)" fill="#fdfab6"/>
    </g>
    <path id="Trazado_130295" data-name="Trazado 130295" d="M445.915,110.053a4.484,4.484,0,0,1-4.479-4.479,1.371,1.371,0,0,0-2.742,0,4.484,4.484,0,0,1-4.479,4.479,1.371,1.371,0,1,0,0,2.742,4.484,4.484,0,0,1,4.479,4.479,1.371,1.371,0,0,0,2.742,0,4.484,4.484,0,0,1,4.479-4.479,1.371,1.371,0,1,0,0-2.742Zm-5.85,2.992a7.29,7.29,0,0,0-1.621-1.621,7.29,7.29,0,0,0,1.621-1.621,7.29,7.29,0,0,0,1.621,1.621A7.294,7.294,0,0,0,440.065,113.045Z" transform="translate(-353.87 -85.191)" fill="#3a3c07"/>
    <path id="Trazado_130296" data-name="Trazado 130296" d="M5.85,117.273a1.371,1.371,0,1,0,2.742,0,4.484,4.484,0,0,1,4.479-4.479,1.371,1.371,0,1,0,0-2.742,4.484,4.484,0,0,1-4.479-4.479,1.371,1.371,0,1,0-2.742,0,4.484,4.484,0,0,1-4.479,4.479,1.371,1.371,0,1,0,0,2.742A4.484,4.484,0,0,1,5.85,117.273ZM7.221,109.8a7.286,7.286,0,0,0,1.621,1.621,7.29,7.29,0,0,0-1.621,1.621A7.286,7.286,0,0,0,5.6,111.423,7.282,7.282,0,0,0,7.221,109.8Z" transform="translate(0 -85.19)" fill="#3a3c07"/>
    <path id="Trazado_130297" data-name="Trazado 130297" d="M209.777,10.055A5.948,5.948,0,0,1,215.719,16a1.371,1.371,0,0,0,2.742,0,5.948,5.948,0,0,1,5.941-5.941,1.371,1.371,0,0,0,0-2.742,5.948,5.948,0,0,1-5.941-5.941,1.371,1.371,0,0,0-2.742,0,5.948,5.948,0,0,1-5.941,5.941,1.371,1.371,0,1,0,0,2.742Zm7.312-4a8.761,8.761,0,0,0,2.634,2.634,8.761,8.761,0,0,0-2.634,2.634,8.759,8.759,0,0,0-2.634-2.634A8.759,8.759,0,0,0,217.09,6.05Z" transform="translate(-170.381)" fill="#3a3c07"/>
    <path id="Trazado_130298" data-name="Trazado 130298" d="M154.482,178.563a1.371,1.371,0,0,0,.174-1.248L149.322,162.2a2.838,2.838,0,0,0-2.672-1.891H105.2a2.838,2.838,0,0,0-2.672,1.89L97.2,177.315a1.385,1.385,0,0,0,1.293,1.827h54.872A1.371,1.371,0,0,0,154.482,178.563ZM100.429,176.4l4.689-13.284a.094.094,0,0,1,.086-.061H146.65a.094.094,0,0,1,.086.061l4.689,13.284Z" transform="translate(-79.401 -131.063)" fill="#3a3c07"/>
    <path id="Trazado_130299" data-name="Trazado 130299" d="M351.687,358.447c0,3.229,3.814,5.759,8.684,5.759s8.684-2.53,8.684-5.759-3.814-5.759-8.684-5.759S351.687,355.218,351.687,358.447Zm14.625,0c0,1.424-2.541,3.016-5.941,3.016s-5.941-1.592-5.941-3.016,2.541-3.016,5.941-3.016S366.312,357.023,366.312,358.447Z" transform="translate(-287.52 -288.339)" fill="#3a3c07"/>
    <path id="Trazado_130300" data-name="Trazado 130300" d="M71.807,352.689c-4.869,0-8.684,2.53-8.684,5.759s3.814,5.759,8.684,5.759,8.684-2.53,8.684-5.759S76.676,352.689,71.807,352.689Zm0,8.775c-3.4,0-5.941-1.592-5.941-3.016s2.541-3.016,5.941-3.016,5.941,1.592,5.941,3.016S75.207,361.464,71.807,361.464Z" transform="translate(-51.606 -288.339)" fill="#3a3c07"/>
    <path id="Trazado_130301" data-name="Trazado 130301" d="M96.134,155.278H88.821a1.371,1.371,0,0,0-1.33,1.039l-.963,3.853-6.736-19.086a7.232,7.232,0,0,0-6.809-4.818H31.536a7.232,7.232,0,0,0-6.809,4.818L17.99,160.17l-.963-3.853a1.371,1.371,0,0,0-1.33-1.039H8.384a1.371,1.371,0,0,0-1.371,1.371v5.85a1.371,1.371,0,0,0,1.371,1.371h7.573l-4.674,6.544a7.181,7.181,0,0,0-1.345,4.2v17.138a7.215,7.215,0,0,0,2.927,5.8c0,.016,0,.032,0,.048v4.387a2.837,2.837,0,0,0,2.834,2.834h8.775a2.837,2.837,0,0,0,2.834-2.834v-3.016H77.213v3.016a2.837,2.837,0,0,0,2.834,2.834h8.775a2.837,2.837,0,0,0,2.834-2.834V197.6c0-.016,0-.032,0-.048a7.215,7.215,0,0,0,2.927-5.8V174.612a7.181,7.181,0,0,0-1.345-4.2l-4.674-6.544h7.573A1.371,1.371,0,0,0,97.5,162.5v-5.85A1.37,1.37,0,0,0,96.134,155.278Zm-86.378,5.85v-3.108h4.871l.777,3.108Zm30.712,20.292H64.05v3.108H40.468Zm.215-2.742a4.486,4.486,0,0,1,4.263-3.108H59.572a4.486,4.486,0,0,1,4.263,3.108Zm-.215,8.592H64.05v3.108H40.468Zm51.154,5.85a4.486,4.486,0,0,1-4.263,3.108h-70.2A4.486,4.486,0,0,1,12.9,193.12Zm-67.059,8.866a.091.091,0,0,1-.091.091H15.7a.091.091,0,0,1-.091-.091V198.97h8.958v3.016Zm64.35-3.017v3.016a.092.092,0,0,1-.091.091H80.046a.092.092,0,0,1-.091-.091V198.97h8.958Zm2.925-24.359v15.767H66.793V180.049a7.229,7.229,0,0,0-7.221-7.221H44.947a7.229,7.229,0,0,0-7.221,7.221v10.329H12.68V174.612a4.454,4.454,0,0,1,.834-2.6l5.813-8.138H69.809a1.371,1.371,0,1,0,0-2.742H20.56L27.312,142a4.486,4.486,0,0,1,4.224-2.988H72.983A4.486,4.486,0,0,1,77.206,142l6.752,19.132h-8.3a1.371,1.371,0,1,0,0,2.742h9.532L91,172.008A4.452,4.452,0,0,1,91.838,174.612Zm2.925-13.483H89.115l.777-3.108h4.871Z" transform="translate(-5.733 -111.404)" fill="#3a3c07"/>
    <path id="Trazado_130302" data-name="Trazado 130302" d="M80.525,331.383H89.3a1.371,1.371,0,0,0,0-2.742H80.525a1.371,1.371,0,0,0,0,2.742Z" transform="translate(-64.712 -268.679)" fill="#3a3c07"/>
    <path id="Trazado_130303" data-name="Trazado 130303" d="M367.718,330.013a1.371,1.371,0,0,0,1.371,1.371h8.775a1.371,1.371,0,1,0,0-2.742h-8.775A1.371,1.371,0,0,0,367.718,330.013Z" transform="translate(-300.626 -268.68)" fill="#3a3c07"/>
  </g>
</svg>
