<svg xmlns="http://www.w3.org/2000/svg" width="146" height="144.363" viewBox="0 0 146 144.363">
  <g id="Grupo_85312" data-name="Grupo 85312" transform="translate(-570 -2036)">
    <g id="Grupo_83957" data-name="Grupo 83957" transform="translate(-621.371 -11.596)">
      <path id="Trazado_133119" data-name="Trazado 133119" d="M1271.051,2047.6a69.258,69.258,0,0,0-69.179,69.179v.728h2.547v-.728a66.632,66.632,0,1,1,133.264,0v.728h2.547v-.728A69.258,69.258,0,0,0,1271.051,2047.6Z" transform="translate(-6.68)" fill="#e8e8e8"/>
      <path id="Trazado_133120" data-name="Trazado 133120" d="M1335.916,2239.71h-8.733v1.456a62.811,62.811,0,1,1-125.623,0v-1.456h-10.189v1.456a73,73,0,0,0,146,0v-1.456Z" transform="translate(0 -122.207)" fill="#6f7302"/>
    </g>
    <g id="human-resources" transform="translate(608.765 2071.064)">
      <path id="Trazado_133121" data-name="Trazado 133121" d="M35.051,178.673H33.512a3.417,3.417,0,0,1-3.417-3.417V172a3.417,3.417,0,0,1,3.417-3.417h1.539a3.05,3.05,0,0,1,3.05,3.05v3.99A3.05,3.05,0,0,1,35.051,178.673Z" transform="translate(-26.07 -145.371)" fill="#ffbaa8"/>
      <path id="Trazado_133122" data-name="Trazado 133122" d="M23.762,255.664H10.52v-6.3a5.332,5.332,0,0,1,5.331-5.331h2.579a5.332,5.332,0,0,1,5.331,5.331v6.3Z" transform="translate(-9.113 -210.732)" fill="#529ad9"/>
      <path id="Trazado_133123" data-name="Trazado 133123" d="M399.174,178.673h-1.539a3.417,3.417,0,0,1-3.417-3.417V172a3.417,3.417,0,0,1,3.417-3.417h1.539a3.05,3.05,0,0,1,3.05,3.05v3.99A3.05,3.05,0,0,1,399.174,178.673Z" transform="translate(-341.498 -145.371)" fill="#ffbaa8"/>
      <g id="Grupo_83960" data-name="Grupo 83960" transform="translate(20.277 33.302)">
        <path id="Trazado_133124" data-name="Trazado 133124" d="M387.885,255.664H374.643v-6.3a5.332,5.332,0,0,1,5.331-5.331h2.579a5.331,5.331,0,0,1,5.331,5.331v6.3Z" transform="translate(-344.817 -244.034)" fill="#529ad9"/>
        <path id="Trazado_133125" data-name="Trazado 133125" d="M151.621,277.695v-7.527c0-4.332,3.952-6.577,8.307-6.577h7.584c4.355,0,8.307,2.245,8.307,6.577v7.527Z" transform="translate(-151.621 -260.975)" fill="#529ad9"/>
      </g>
      <path id="Trazado_133126" data-name="Trazado 133126" d="M209.286,179.75h-.914c-2.894,0-4.678-2.346-4.678-5.241v-2.462c0-2.894,1.783-5.241,4.678-5.241h.914c2.894,0,4.678,2.346,4.678,5.241v2.462C213.964,177.4,212.181,179.75,209.286,179.75Z" transform="translate(-176.453 -143.833)" fill="#ffbaa8"/>
      <g id="Grupo_83961" data-name="Grupo 83961" transform="translate(10.569 10.875)">
        <path id="Trazado_133127" data-name="Trazado 133127" d="M217.484,263.591l-4.493,7.058-4.493-7.058Z" transform="translate(-191.185 -238.549)" fill="#ecf0f1"/>
        <path id="Trazado_133128" data-name="Trazado 133128" d="M119.1,110.069a21.8,21.8,0,1,0-6.645,6.533l16.488,16.488,6.589-6.589Zm-18.257,3.549a15.476,15.476,0,1,1,15.476-15.476A15.493,15.493,0,0,1,100.84,113.618Z" transform="translate(-79.033 -76.336)" fill="#ecf0f1"/>
      </g>
      <g id="Grupo_83962" data-name="Grupo 83962" transform="translate(0 0.769)">
        <path id="Trazado_133129" data-name="Trazado 133129" d="M68.06,116.393,54.354,102.686h8.991a1.407,1.407,0,0,0,1.407-1.407v-6.3a6.741,6.741,0,0,0-3.407-5.854,4.431,4.431,0,0,0,.789-2.528V82.61a4.462,4.462,0,0,0-4.457-4.457H56.138a4.8,4.8,0,0,0-2.8.9,23.209,23.209,0,0,0-41.854-.133,4.431,4.431,0,0,0-2.5-.77H7.442a4.83,4.83,0,0,0-4.824,4.824v3.256a4.8,4.8,0,0,0,.916,2.823A6.744,6.744,0,0,0,0,94.981v6.3a1.407,1.407,0,0,0,1.407,1.407H13.617a23.2,23.2,0,0,0,30.151,6.572l15.713,15.713a1.407,1.407,0,0,0,1.99,0l6.589-6.589A1.407,1.407,0,0,0,68.06,116.393Zm-6.122-16.52H52.9a23.085,23.085,0,0,0,2.6-8.816h2.515a3.929,3.929,0,0,1,3.925,3.925v4.891Zm-5.8-18.906h1.539A1.645,1.645,0,0,1,59.32,82.61V86.6a1.645,1.645,0,0,1-1.644,1.644H56.138a2,2,0,0,1-.566-.083,23.087,23.087,0,0,0-1.112-6.287A2.009,2.009,0,0,1,56.138,80.966ZM5.432,82.977a2.013,2.013,0,0,1,2.011-2.01H8.981a1.643,1.643,0,0,1,1.368.734A23.094,23.094,0,0,0,9.178,88.23a1.649,1.649,0,0,1-.2.013H7.442a2.013,2.013,0,0,1-2.011-2.011S5.432,82.977,5.432,82.977Zm-2.618,16.9V94.981a3.929,3.929,0,0,1,3.925-3.925H9.252a23.038,23.038,0,0,0,2.6,8.816H2.814Zm57.662,22.114L44.983,106.494a1.407,1.407,0,0,0-1.745-.2,20.4,20.4,0,1,1,6.218-6.113,1.407,1.407,0,0,0,.182,1.765l15.437,15.437Z" transform="translate(0 -57.117)" fill="#3a3c07"/>
        <path id="Trazado_133130" data-name="Trazado 133130" d="M132.735,113.156a16.882,16.882,0,1,0,16.882,16.882A16.9,16.9,0,0,0,132.735,113.156Zm0,2.814a14.065,14.065,0,0,1,12.609,20.3c-1.276-2.327-3.838-3.91-7.15-4.307a7.263,7.263,0,0,0,1.082-3.932v-2.462c0-3.852-2.559-6.648-6.085-6.648h-.914c-3.526,0-6.085,2.8-6.085,6.648v2.462a7.263,7.263,0,0,0,1.082,3.932c-3.312.4-5.873,1.98-7.15,4.307a14.065,14.065,0,0,1,12.609-20.3Zm-3.728,12.064v-2.462c0-1.908,1.011-3.834,3.271-3.834h.914c2.26,0,3.271,1.926,3.271,3.834v2.462c0,1.908-1.011,3.834-3.271,3.834h-.914C130.019,131.868,129.007,129.942,129.007,128.034Zm5.658,6.647-1.929,3.031-1.929-3.031Zm-1.929,9.426a14.041,14.041,0,0,1-10.654-4.89c.33-2.668,2.744-4.084,5.448-4.442l4.018,6.313a1.407,1.407,0,0,0,2.374,0l4.018-6.313c2.7.359,5.119,1.775,5.448,4.442A14.042,14.042,0,0,1,132.735,144.107Z" transform="translate(-100.359 -98.126)" fill="#3a3c07"/>
        <path id="Trazado_133131" data-name="Trazado 133131" d="M232.979,6.256a1.407,1.407,0,0,0,1.407-1.407V2.176a1.407,1.407,0,1,0-2.814,0V4.849A1.407,1.407,0,0,0,232.979,6.256Z" transform="translate(-200.603 -0.769)" fill="#3a3c07"/>
        <path id="Trazado_133132" data-name="Trazado 133132" d="M331.6,35a1.406,1.406,0,0,0,1.922-.515l1.337-2.315a1.407,1.407,0,0,0-2.437-1.407l-1.336,2.315A1.407,1.407,0,0,0,331.6,35Z" transform="translate(-286.644 -26.142)" fill="#3a3c07"/>
        <path id="Trazado_133133" data-name="Trazado 133133" d="M123.776,34.482a1.407,1.407,0,0,0,2.437-1.407l-1.337-2.315a1.407,1.407,0,0,0-2.437,1.407Z" transform="translate(-105.902 -26.14)" fill="#3a3c07"/>
      </g>
    </g>
  </g>
</svg>
