<svg xmlns="http://www.w3.org/2000/svg" width="146" height="144.363" viewBox="0 0 146 144.363">
  <g id="Grupo_85314" data-name="Grupo 85314" transform="translate(-1200 -2036)">
    <g id="Grupo_83959" data-name="Grupo 83959" transform="translate(8.629 -11.596)">
      <path id="Trazado_133119" data-name="Trazado 133119" d="M1271.051,2047.6a69.258,69.258,0,0,0-69.179,69.179v.728h2.547v-.728a66.632,66.632,0,1,1,133.264,0v.728h2.547v-.728A69.258,69.258,0,0,0,1271.051,2047.6Z" transform="translate(-6.68)" fill="#e8e8e8"/>
      <path id="Trazado_133120" data-name="Trazado 133120" d="M1335.916,2239.71h-8.733v1.456a62.811,62.811,0,1,1-125.623,0v-1.456h-10.189v1.456a73,73,0,0,0,146,0v-1.456Z" transform="translate(0 -122.207)" fill="#e5dec1"/>
    </g>
    <g id="money" transform="translate(1237.24 2061.98)">
      <path id="Trazado_133162" data-name="Trazado 133162" d="M66.6,195.549H6.856V166.873H66.6Z" transform="translate(-5.832 -135.16)" fill="#a0a603"/>
      <path id="Trazado_133163" data-name="Trazado 133163" d="M15.744,78.406,19.2,62.873,72.6,74.888l-.631,3.518" transform="translate(-13.393 -46.693)" fill="#a0a603"/>
      <path id="Trazado_133164" data-name="Trazado 133164" d="M72.312,217.99h9l5.337-5.206v-8.6l-4.855-5.31h-37.6l-5.337,5.206v8.6l4.855,5.31h28.6Z" transform="translate(-33.053 -162.38)" fill="#cdd500"/>
      <path id="Trazado_133165" data-name="Trazado 133165" d="M96.384,22.485l3.921-9.364L139.17,29.313l-.855,2.606" transform="translate(-81.989 -4.371)" fill="#a0a603"/>
      <path id="Trazado_133166" data-name="Trazado 133166" d="M310.856,406.873v4.779c0,1.98,5.349,3.585,11.948,3.585s11.948-1.6,11.948-3.585v-4.779" transform="translate(-264.428 -339.314)" fill="#f8cf26"/>
      <circle id="Elipse_8702" data-name="Elipse 8702" cx="9.559" cy="9.559" r="9.559" transform="translate(20.141 36.493)" fill="#faff7d"/>
      <path id="Trazado_133167" data-name="Trazado 133167" d="M310.856,374.873v4.779c0,1.98,5.349,3.585,11.948,3.585s11.948-1.6,11.948-3.585v-4.779" transform="translate(-264.428 -312.094)" fill="#cda349"/>
      <path id="Trazado_133168" data-name="Trazado 133168" d="M310.856,342.873v4.779c0,1.98,5.349,3.585,11.948,3.585s11.948-1.6,11.948-3.585v-4.779" transform="translate(-264.428 -284.873)" fill="#f8cf26"/>
      <path id="Trazado_133169" data-name="Trazado 133169" d="M310.856,310.873v4.779c0,1.98,5.349,3.585,11.948,3.585s11.948-1.6,11.948-3.585v-4.779" transform="translate(-264.428 -257.653)" fill="#cda349"/>
      <path id="Trazado_133170" data-name="Trazado 133170" d="M310.856,278.873v4.779c0,1.98,5.349,3.585,11.948,3.585s11.948-1.6,11.948-3.585v-4.779" transform="translate(-264.428 -230.432)" fill="#f8cf26"/>
      <path id="Trazado_133171" data-name="Trazado 133171" d="M310.856,246.873v4.779c0,1.98,5.349,3.585,11.948,3.585s11.948-1.6,11.948-3.585v-4.779" transform="translate(-264.428 -203.211)" fill="#cda349"/>
      <ellipse id="Elipse_8703" data-name="Elipse 8703" cx="11.948" cy="3.585" rx="11.948" ry="3.585" transform="translate(46.428 40.077)" fill="#f8cf26"/>
      <path id="Trazado_133172" data-name="Trazado 133172" d="M60.766,165.649a1.023,1.023,0,0,0,1.024-1.022v-3.587a1.023,1.023,0,0,0-1.022-1.024H1.024A1.023,1.023,0,0,0,0,161.039v28.679a1.023,1.023,0,0,0,1.022,1.024H41.649a1.024,1.024,0,1,0,0-2.048H2.048V162.065H59.742v2.561a1.023,1.023,0,0,0,1.022,1.024Z" transform="translate(0 -129.328)"/>
      <path id="Trazado_133173" data-name="Trazado 133173" d="M18.861,56.178a1.03,1.03,0,0,0-.452.643L16.02,67.575a1.024,1.024,0,0,0,2,.444h0l2.166-9.751L66.979,68.8a.974.974,0,0,0,.226.025,1.024,1.024,0,0,0,.223-2.023L19.634,56.044a1.03,1.03,0,0,0-.773.134Z" transform="translate(-13.606 -40.863)"/>
      <path id="Trazado_133174" data-name="Trazado 133174" d="M105.836,14.249l1.961-3.924L135.588,21.9a1.027,1.027,0,0,0,.791-1.9L107.7,8.061a1.028,1.028,0,0,0-1.314.489L104,13.329a1.028,1.028,0,0,0,1.808.977c.011-.02.021-.04.03-.06Z" transform="translate(-88.36 0)"/>
      <path id="Trazado_133175" data-name="Trazado 133175" d="M267.531,193.041a1.024,1.024,0,0,0-1.024-1.024h-9.483a1.024,1.024,0,1,0,0,2.048h9.483A1.024,1.024,0,0,0,267.531,193.041Z" transform="translate(-217.765 -156.548)"/>
      <path id="Trazado_133176" data-name="Trazado 133176" d="M138.971,213.5a10.515,10.515,0,1,0-10.515-10.515h0A10.525,10.525,0,0,0,138.971,213.5Zm0-19.117a8.6,8.6,0,1,1-8.6,8.6A8.6,8.6,0,0,1,138.971,194.385Z" transform="translate(-109.27 -156.936)"/>
      <path id="Trazado_133177" data-name="Trazado 133177" d="M316,214.873c-6.333,0-13.143,1.5-13.143,4.779v28.676c0,3.283,6.811,4.779,13.143,4.779s13.143-1.5,13.143-4.779V219.652C329.142,216.369,322.332,214.873,316,214.873Zm10.754,28.658c-.18.663-3.764,2.408-10.754,2.408s-10.573-1.744-10.754-2.39v-1.878c2.543,1.281,6.743,1.878,10.754,1.878s8.212-.6,10.754-1.879Zm0-4.779c-.18.663-3.764,2.408-10.754,2.408s-10.573-1.744-10.754-2.39v-1.878c2.543,1.281,6.743,1.878,10.754,1.878s8.212-.6,10.754-1.879Zm0-4.779c-.18.663-3.764,2.408-10.754,2.408s-10.573-1.744-10.754-2.39v-1.878c2.543,1.281,6.743,1.878,10.754,1.878s8.212-.6,10.754-1.879Zm0-4.779c-.18.663-3.764,2.408-10.754,2.408s-10.573-1.744-10.754-2.39v-1.878c2.543,1.275,6.743,1.878,10.754,1.878s8.212-.6,10.754-1.879Zm0-4.779c-.18.663-3.764,2.408-10.754,2.408s-10.573-1.744-10.754-2.39v-1.878c2.543,1.275,6.743,1.878,10.754,1.878s8.212-.6,10.754-1.88ZM316,217.263c6.93,0,10.515,1.713,10.754,2.39-.239.676-3.823,2.39-10.754,2.39-6.979,0-10.561-1.74-10.754-2.368v-.007C305.438,219,309.02,217.263,316,217.263Zm0,33.456c-6.99,0-10.573-1.744-10.754-2.39V246.45c2.543,1.281,6.743,1.878,10.754,1.878s8.212-.6,10.754-1.879v1.862C326.572,248.974,322.989,250.718,316,250.718Z" transform="translate(-257.623 -175.991)"/>
      <path id="Trazado_133178" data-name="Trazado 133178" d="M38.77,194.065h8.585a1.024,1.024,0,0,0,0-2.048h-9a1.025,1.025,0,0,0-.717.29L32.3,197.513a1.284,1.284,0,0,0-.308.836v8.5a1.025,1.025,0,0,0,.268.691l4.855,5.31a1.024,1.024,0,0,0,.756.333h9.485a1.024,1.024,0,1,0,0-2.048H38.323l-4.282-4.684v-7.766Z" transform="translate(-27.214 -156.548)"/>
      <path id="Trazado_133179" data-name="Trazado 133179" d="M179.038,234.042h-2.987a1.195,1.195,0,0,0,0,2.39h1.195a1.195,1.195,0,1,0,2.39,0v-.054a2.782,2.782,0,0,0,2.39-2.629,2.853,2.853,0,0,0-2.987-2.694h-1.195c-.372,0-.6-.208-.6-.3s.226-.3.6-.3h2.987a1.195,1.195,0,0,0,0-2.39h-1.195a1.195,1.195,0,1,0-2.39,0v.054a2.782,2.782,0,0,0-2.39,2.629,2.853,2.853,0,0,0,2.987,2.694h1.195c.372,0,.6.208.6.3S179.41,234.042,179.038,234.042Z" transform="translate(-148.74 -186.198)"/>
    </g>
  </g>
</svg>
