<svg xmlns="http://www.w3.org/2000/svg" width="161.333" height="161.333" viewBox="0 0 161.333 161.333">
  <g id="Grupo_83989" data-name="Grupo 83989" transform="translate(-1199 -1222.5)">
    <g id="Grupo_68984" data-name="Grupo 68984" transform="translate(1199 1222.5)">
      <rect id="Rectángulo_6027" data-name="Rectángulo 6027" width="161.333" height="161.333" fill="none"/>
      <g id="Filled_stroke_cut_Ex" data-name="Filled stroke cut Ex" transform="translate(-20.245 -9.167)">
        <g id="Grupo_84088" data-name="Grupo 84088" transform="translate(32 16)">
          <path id="Trazado_133641" data-name="Trazado 133641" d="M400,312l16.744,16.744A18.458,18.458,0,0,1,422.15,341.8v15.12a9.229,9.229,0,0,1-9.229,9.229h-8V348.917H400Z" transform="translate(-286.789 -220.939)" fill="#fa5d3f"/>
          <path id="Trazado_133642" data-name="Trazado 133642" d="M120,314.45V265.228L147.072,248h29.533l27.072,17.228V314.45Z" transform="translate(-92.928 -176.628)" fill="#fa5d3f"/>
          <path id="Trazado_133643" data-name="Trazado 133643" d="M237.533,225.844l-14.767,14.767L208,225.844,210.461,216h24.611Z" transform="translate(-153.855 -154.472)" fill="#ffd4cf"/>
          <path id="Trazado_133644" data-name="Trazado 133644" d="M239.408,219.735,238.475,216H213.863l-.949,3.8,8.285,4.142a11.075,11.075,0,0,0,9.956-.025Z" transform="translate(-157.258 -154.472)" fill="#fbb8b0"/>
          <path id="Trazado_133645" data-name="Trazado 133645" d="M212.914,97.844h-3.692V88H169.844v9.844h-3.692A6.153,6.153,0,0,0,160,104v2.461a6.153,6.153,0,0,0,6.153,6.153h3.692v4.141a9.229,9.229,0,0,0,5.1,8.255l11.818,5.909a6.153,6.153,0,0,0,5.531-.014l11.867-6.009a9.229,9.229,0,0,0,5.059-8.234v-4.047h3.692a6.153,6.153,0,0,0,6.153-6.153V104A6.153,6.153,0,0,0,212.914,97.844Z" transform="translate(-120.622 -65.85)" fill="#ffd4cf"/>
          <g id="Grupo_84087" data-name="Grupo 84087" transform="translate(56.606 34.456)">
            <path id="Trazado_133646" data-name="Trazado 133646" d="M216,128h4.922v4.922H216Z" transform="translate(-216 -128)" fill="#3a3c07"/>
            <path id="Trazado_133647" data-name="Trazado 133647" d="M280,128h4.922v4.922H280Z" transform="translate(-260.311 -128)" fill="#3a3c07"/>
          </g>
          <path id="Trazado_133648" data-name="Trazado 133648" d="M239.383,186.153c-4.14,0-7.383-2.7-7.383-6.153h4.922c0,.434.934,1.231,2.461,1.231s2.461-.8,2.461-1.231h4.922C246.767,183.45,243.524,186.153,239.383,186.153Z" transform="translate(-170.472 -129.547)" fill="#3a3c07"/>
          <path id="Trazado_133649" data-name="Trazado 133649" d="M199.382,24h13.536A15.382,15.382,0,0,1,228.3,39.382v4.307H184V39.382A15.382,15.382,0,0,1,199.382,24Z" transform="translate(-137.239 -21.539)" fill="#fa5d3f"/>
          <path id="Trazado_133650" data-name="Trazado 133650" d="M218.734,76.669l-5.758-3.839a12.306,12.306,0,0,0-13.652,0l-5.758,3.839A6.153,6.153,0,0,1,184,71.55V68.28l10.2-5.665a24.611,24.611,0,0,1,23.9,0l10.2,5.665v3.27a6.153,6.153,0,0,1-9.566,5.119Z" transform="translate(-137.239 -46.13)" fill="#fac850"/>
          <path id="Trazado_133651" data-name="Trazado 133651" d="M112,280h88.6v63.989H112Z" transform="translate(-87.389 -198.783)" fill="#fac850"/>
          <path id="Trazado_133652" data-name="Trazado 133652" d="M105.844,432H96v17.228h27.072A17.228,17.228,0,0,0,105.844,432Z" transform="translate(-76.311 -304.022)" fill="#ffd4cf"/>
          <path id="Trazado_133653" data-name="Trazado 133653" d="M224,280h19.689v22.15H224Z" transform="translate(-164.933 -198.783)" fill="#fa7d29"/>
          <path id="Trazado_133654" data-name="Trazado 133654" d="M224,440h19.689v14.767H224Z" transform="translate(-164.933 -309.561)" fill="#fa7d29"/>
          <path id="Trazado_133655" data-name="Trazado 133655" d="M62.15,312,45.406,328.744A18.458,18.458,0,0,0,40,341.8v15.12a9.229,9.229,0,0,0,9.229,9.229h8V348.917H62.15Z" transform="translate(-37.539 -220.939)" fill="#fa5d3f"/>
          <path id="Trazado_133656" data-name="Trazado 133656" d="M345.228,432h9.844v17.228H328A17.228,17.228,0,0,1,345.228,432Z" transform="translate(-236.939 -304.022)" fill="#ffd4cf"/>
          <path id="Trazado_133657" data-name="Trazado 133657" d="M136,304h4.922v4.922H136Z" transform="translate(-104.005 -215.4)" fill="#3a3c07"/>
          <path id="Trazado_133658" data-name="Trazado 133658" d="M168,304h9.844v4.922H168Z" transform="translate(-126.161 -215.4)" fill="#3a3c07"/>
          <path id="Trazado_133659" data-name="Trazado 133659" d="M136,336h19.689v4.922H136Z" transform="translate(-104.005 -237.555)" fill="#3a3c07"/>
          <path id="Trazado_133660" data-name="Trazado 133660" d="M326.153,312h8.614v6.153a6.153,6.153,0,0,1-6.153,6.153H320v-6.153A6.153,6.153,0,0,1,326.153,312Z" transform="translate(-231.4 -220.939)" fill="#fffffe"/>
          <path id="Trazado_133661" data-name="Trazado 133661" d="M323.075,321.228h-8.614A2.461,2.461,0,0,1,312,318.767v-6.153A8.624,8.624,0,0,1,320.614,304h8.614a2.461,2.461,0,0,1,2.461,2.461v6.153A8.624,8.624,0,0,1,323.075,321.228Zm-6.153-4.922h6.153a3.7,3.7,0,0,0,3.692-3.692v-3.692h-6.153a3.7,3.7,0,0,0-3.692,3.692Z" transform="translate(-225.861 -215.4)" fill="#3a3c07"/>
          <path id="Trazado_133662" data-name="Trazado 133662" d="M163.7,122.065l-9.361-9.361-3.481,3.481,9.361,9.36a15.894,15.894,0,0,1,4.685,11.312v15.12a6.776,6.776,0,0,1-6.768,6.768h-5.538V146.439h4.922v-4.922h-9.844v-44.3a2.461,2.461,0,0,0-2.461-2.461H131.865l-14.037-8.933-2.037-8.148.861-.437a11.634,11.634,0,0,0,6.41-10.429V65.222h1.231a8.624,8.624,0,0,0,8.614-8.614V54.147a8.624,8.624,0,0,0-8.428-8.612,8.605,8.605,0,0,0,1.044-4.115V33.843A17.863,17.863,0,0,0,107.679,16H94.143A17.863,17.863,0,0,0,76.3,33.843V41.42a8.605,8.605,0,0,0,1.046,4.115,8.624,8.624,0,0,0-8.429,8.612v2.461a8.624,8.624,0,0,0,8.614,8.614h1.231V66.9a11.626,11.626,0,0,0,6.462,10.456l.789.395-2.018,8.07L69.958,94.756H56.611a2.461,2.461,0,0,0-2.461,2.461v8.825l-9.124,9.124,3.481,3.481L54.15,113v28.514H44.305v4.922h4.922v12.306H43.69a6.776,6.776,0,0,1-6.768-6.768v-15.12a15.9,15.9,0,0,1,4.685-11.312l1.977-1.977-3.48-3.481-1.978,1.977A20.782,20.782,0,0,0,32,136.857v15.12a11.7,11.7,0,0,0,11.69,11.69H158.132a11.7,11.7,0,0,0,11.69-11.69v-15.12a20.782,20.782,0,0,0-6.127-14.792ZM93.528,99.678h14.767v17.228H93.528Zm18.247-4.922,4.247-4.245,6.674,4.245Zm-28.6-50.081a3.638,3.638,0,0,1-1.95-3.255V39.6l8.932-4.962a22.021,22.021,0,0,1,21.514,0L120.6,39.6V41.42a3.692,3.692,0,0,1-5.739,3.071L109.1,40.653a14.727,14.727,0,0,0-16.382,0l-5.758,3.839A3.639,3.639,0,0,1,83.172,44.675Zm44.811,9.472v2.461a3.7,3.7,0,0,1-3.692,3.692h-1.231V50.456h1.231a3.7,3.7,0,0,1,3.692,3.692ZM94.143,20.922h13.536A12.935,12.935,0,0,1,120.6,33.843v.123l-6.542-3.633a26.913,26.913,0,0,0-26.295,0l-6.542,3.633v-.123A12.935,12.935,0,0,1,94.143,20.922ZM77.53,60.3a3.7,3.7,0,0,1-3.692-3.692V54.147a3.7,3.7,0,0,1,3.692-3.692h1.231V60.3Zm6.153,6.6V49.947a8.594,8.594,0,0,0,6.009-1.36l5.758-3.839a9.819,9.819,0,0,1,10.921,0l5.758,3.839a8.6,8.6,0,0,0,6.009,1.36V66.809a6.735,6.735,0,0,1-3.711,6.038l-11.867,6.009a3.707,3.707,0,0,1-3.319.009L87.425,72.955A6.731,6.731,0,0,1,83.683,66.9ZM97.041,83.268a8.651,8.651,0,0,0,7.744-.02l6.5-3.292,1.666,6.663-8.139,8.136H97.008L88.87,86.617l1.653-6.61ZM85.8,90.51l4.247,4.246H79.126ZM59.072,99.678H88.606v19.689a2.461,2.461,0,0,0,2.461,2.461h19.689a2.461,2.461,0,0,0,2.461-2.461V99.678H142.75v41.839h-2.461a19.72,19.72,0,0,0-19.535,17.228h-7.537V146.439a2.461,2.461,0,0,0-2.461-2.461H91.067a2.461,2.461,0,0,0-2.461,2.461v12.306H81.068a19.72,19.72,0,0,0-19.535-17.228H59.072ZM54.15,158.745V146.439h7.383a14.791,14.791,0,0,1,14.562,12.306Zm39.378,0V148.9h14.767v9.844Zm54.145,0H125.727a14.791,14.791,0,0,1,14.562-12.306h7.383Z" transform="translate(-32 -16)" fill="#3a3c07"/>
        </g>
      </g>
    </g>
  </g>
</svg>
