<svg xmlns="http://www.w3.org/2000/svg" width="161.333" height="161.333" viewBox="0 0 161.333 161.333">
  <g id="Grupo_83987" data-name="Grupo 83987" transform="translate(-1199 -1222.5)">
    <g id="Grupo_68984" data-name="Grupo 68984" transform="translate(1199 1222.5)">
      <rect id="Rectángulo_6027" data-name="Rectángulo 6027" width="161.333" height="161.333" fill="none"/>
      <g id="restaurant" transform="translate(1.464 8.094)">
        <g id="Grupo_84083" data-name="Grupo 84083" transform="translate(11.666 2.218)">
          <path id="Trazado_133620" data-name="Trazado 133620" d="M152.54,268.716a13.31,13.31,0,0,1-13.31-13.31,13.31,13.31,0,1,1-26.62,0,13.31,13.31,0,0,1-26.6.7,13.31,13.31,0,0,1-26.6-.7H59.37A13.308,13.308,0,0,1,37.2,265.34v58.539H161.4V265.34A13.26,13.26,0,0,1,152.54,268.716Z" transform="translate(-32.749 -182.08)" fill="#f05475"/>
          <path id="Trazado_133621" data-name="Trazado 133621" d="M437.078,292.04v55.492h5.916V288.993A13.278,13.278,0,0,1,437.078,292.04Z" transform="translate(-314.348 -205.733)" fill="#e21743"/>
          <path id="Trazado_133622" data-name="Trazado 133622" d="M146.368,120.406H31.014L22.141,155.9v4.437a13.31,13.31,0,1,0,26.62,0H48.8a13.31,13.31,0,0,0,26.6.7,13.31,13.31,0,0,0,26.6-.7,13.31,13.31,0,1,0,26.62,0,13.31,13.31,0,1,0,26.62,0V155.9Z" transform="translate(-22.141 -87.011)" fill="#fff"/>
          <path id="Trazado_133623" data-name="Trazado 133623" d="M202.141,120.406v40.873c.006-.081.014-.161.018-.242a13.31,13.31,0,0,0,26.6-.7v-39.93Z" transform="translate(-148.901 -87.011)" fill="#b6e6fa"/>
          <path id="Trazado_133624" data-name="Trazado 133624" d="M35.451,173.646a13.31,13.31,0,0,1-13.31-13.31V155.9l8.873-35.494H53.2l-4.424,40.431c-.006-.166-.013-.332-.013-.5A13.31,13.31,0,0,1,35.451,173.646Z" transform="translate(-22.141 -87.011)" fill="#b6e6fa"/>
          <path id="Trazado_133625" data-name="Trazado 133625" d="M71.929,120.406,67.5,160.837c-.006-.166-.013-.332-.013-.5A13.312,13.312,0,0,1,57.14,173.312a13.306,13.306,0,0,0,16.268-12.976c0,.168.007.334.013.5l4.424-40.431Z" transform="translate(-46.788 -87.011)" fill="#54c9f3"/>
          <path id="Trazado_133626" data-name="Trazado 133626" d="M384.888,173.646a13.31,13.31,0,0,0,13.31-13.31V155.9l-8.873-35.494H367.141l4.424,40.431c.006-.166.013-.332.013-.5A13.31,13.31,0,0,0,384.888,173.646Z" transform="translate(-265.097 -87.011)" fill="#b6e6fa"/>
          <path id="Trazado_133627" data-name="Trazado 133627" d="M424.535,120.406H418.62l8.873,35.494v4.437a13.312,13.312,0,0,1-10.352,12.976,13.306,13.306,0,0,0,16.268-12.976V155.9Z" transform="translate(-300.308 -87.011)" fill="#54c9f3"/>
          <circle id="Elipse_8711" data-name="Elipse 8711" cx="35.475" cy="35.475" r="35.475" transform="translate(31.094 0)" fill="#fee95d"/>
          <path id="Trazado_133628" data-name="Trazado 133628" d="M240.161,7.5c-1,0-1.982.043-2.958.124a35.475,35.475,0,0,1,0,70.7c.975.08,1.962.124,2.958.124a35.475,35.475,0,1,0,0-70.95Z" transform="translate(-173.592 -7.5)" fill="#fcad42"/>
          <path id="Trazado_133629" data-name="Trazado 133629" d="M37.2,328.969H81.57v28.968H37.2Z" transform="translate(-32.748 -233.885)" fill="#8ad8f6"/>
          <path id="Trazado_133630" data-name="Trazado 133630" d="M167.2,328.969h5.916v28.968H167.2Z" transform="translate(-124.297 -233.885)" fill="#00adeb"/>
          <path id="Trazado_133631" data-name="Trazado 133631" d="M307.141,328.969h44.367v28.968H307.141Z" transform="translate(-222.844 -233.885)" fill="#8ad8f6"/>
          <path id="Trazado_133632" data-name="Trazado 133632" d="M437.141,328.969h5.916v28.968h-5.916Z" transform="translate(-314.393 -233.885)" fill="#00adeb"/>
          <path id="Trazado_133633" data-name="Trazado 133633" d="M187.2,328.969H222.66v46.715H187.2Z" transform="translate(-138.381 -233.885)" fill="#fee95d"/>
          <path id="Trazado_133634" data-name="Trazado 133634" d="M216.744,328.969v40.8H187.2v5.916H222.66V328.969Z" transform="translate(-138.381 -233.885)" fill="#fcad42"/>
          <g id="Grupo_84082" data-name="Grupo 84082" transform="translate(44.394 19.994)">
            <path id="Trazado_133635" data-name="Trazado 133635" d="M184.065,118.671H178.15a5.915,5.915,0,0,1-5.916-5.916v-7.413h17.747v7.413A5.915,5.915,0,0,1,184.065,118.671Z" transform="translate(-172.234 -96.397)" fill="#fff"/>
            <path id="Trazado_133636" data-name="Trazado 133636" d="M279.919,89.444c0,7.923-3.973,10.944-8.873,10.944s-8.873-3.021-8.873-10.944S266.145,75.1,271.045,75.1,279.919,81.522,279.919,89.444Z" transform="translate(-235.57 -75.099)" fill="#fff"/>
          </g>
        </g>
        <g id="Grupo_84086" data-name="Grupo 84086" transform="translate(7.266 0)">
          <g id="Grupo_84084" data-name="Grupo 84084" transform="translate(18.32 104.549)">
            <path id="Trazado_133637" data-name="Trazado 133637" d="M91.386,357.906H86.95v-4.437h4.437Zm-8.873,0H78.076v-4.437h4.437Zm-8.873,0H69.2v-4.437H73.64Z" transform="translate(-69.203 -353.469)" fill="#fff"/>
          </g>
          <g id="Grupo_84085" data-name="Grupo 84085" transform="translate(0 0)">
            <path id="Trazado_133638" data-name="Trazado 133638" d="M142.529,141.8V117.535h-4.437v6.516H98.181V99.52h39.912v13.588h4.437V86.416a15.475,15.475,0,0,0,4.455-10.872v-4.71L137.625,33.4H115.685A37.548,37.548,0,0,0,101.991,8.427l-2.8,3.443A33.251,33.251,0,0,1,93.752,67.1l0-17.565c5.6-.959,8.874-5.656,8.874-12.977,0-9.288-4.872-16.564-11.092-16.564S80.444,27.27,80.444,36.558c0,7.321,3.274,12.018,8.873,12.977l0,19.515a33.252,33.252,0,0,1-22.174,0l.01-22.34h.74a8.143,8.143,0,0,0,8.134-8.134V22.3H71.589V28.94H67.152V22.3H62.715V28.94H58.279V22.3H53.842V38.571a8.143,8.143,0,0,0,8.134,8.134h.739l-.009,20.389A33.255,33.255,0,1,1,95.795,9.445L98.141,5.68A37.7,37.7,0,0,0,40.788,33.4H18.807L9.447,70.834v4.71A15.476,15.476,0,0,0,13.9,86.416V141.8H7.266v4.437H149.2V141.8Zm.019-66.255a11.092,11.092,0,0,1-22.183,0h-.054l-.242-2.209h22.479Zm-8.387-37.712L141.928,68.9H119.583l-3.4-31.066ZM113.236,51.68,115.12,68.9H99.356A37.907,37.907,0,0,0,113.236,51.68Zm2.37,21.655.306,2.8A11.09,11.09,0,0,1,93.754,75.9V73.335h21.853ZM84.88,36.558c0-5.736,2.733-12.127,6.655-12.127s6.655,6.391,6.655,12.127c0,5.79-2.239,8.725-6.655,8.725S84.88,42.348,84.88,36.558ZM78.234,75.387a37.571,37.571,0,0,0,11.081-1.663v1.82h-.009a11.091,11.091,0,0,1-22.165.625V73.72a37.577,37.577,0,0,0,11.093,1.666ZM61.976,42.268a3.7,3.7,0,0,1-3.7-3.7V33.376h13.31v5.195a3.7,3.7,0,0,1-3.7,3.7Zm2.949,41.317a15.532,15.532,0,0,0,26.6-.05,15.521,15.521,0,0,0,26.62,0,15.514,15.514,0,0,0,19.946,6.044v5.5H18.339v-5.5A15.514,15.514,0,0,0,38.3,83.505a15.532,15.532,0,0,0,26.62.081ZM40.541,75.334l.222-2h10.87V68.9H41.256l1.927-17.341A37.915,37.915,0,0,0,62.7,72.037l0,4.133a11.091,11.091,0,0,1-22.165-.626Zm-18.27-37.5H40.244L36.792,68.9H14.5ZM13.884,75.544V73.335H36.068v2.209a11.092,11.092,0,0,1-22.183,0ZM58.269,141.8H18.339v-13.31h39.93Zm0-17.747H18.339V99.52h39.93ZM93.726,141.8H62.706V99.52h31.02Zm44.367,0H98.163v-13.31h39.93Z" transform="translate(-7.266 0)" fill="#3a3c07"/>
            <path id="Trazado_133639" data-name="Trazado 133639" d="M224.641,389.437h4.437v8.873h-4.437Z" transform="translate(-160.346 -274.25)" fill="#3a3c07"/>
            <path id="Trazado_133640" data-name="Trazado 133640" d="M254.641,389.437h4.437v8.873h-4.437Z" transform="translate(-181.473 -274.25)" fill="#3a3c07"/>
          </g>
        </g>
      </g>
    </g>
  </g>
</svg>
