<svg xmlns="http://www.w3.org/2000/svg" width="37.492" height="40" viewBox="0 0 37.492 40">
  <path id="hand-heart-regular" d="M31.877,8.75c-.211,0-.422.016-.625.031V8.125A5.631,5.631,0,0,0,25.627,2.5a5.572,5.572,0,0,0-1.453.188,5.625,5.625,0,0,0-9.594,0A5.572,5.572,0,0,0,13.127,2.5,5.631,5.631,0,0,0,7.5,8.125v7.2a5.626,5.626,0,0,0-6.484,8.531L9.885,37.211A6.234,6.234,0,0,0,15.088,40H29.2a6.271,6.271,0,0,0,6.133-5.023l1.609-8.063a29.069,29.069,0,0,0,.555-5.641v-6.9A5.62,5.62,0,0,0,31.877,8.75Zm1.875,12.523a25.235,25.235,0,0,1-.484,4.906l-1.609,8.063a2.494,2.494,0,0,1-2.453,2.008H15.088A2.521,2.521,0,0,1,13,35.133L4.088,21.7a1.874,1.874,0,0,1,3.07-2.148l2.953,4.25a.627.627,0,0,0,1.141-.359V8.125a1.875,1.875,0,0,1,3.75,0v11.25a.627.627,0,0,0,.625.625h1.25a.627.627,0,0,0,.625-.625V5.625a1.875,1.875,0,0,1,3.75,0v13.75a.627.627,0,0,0,.625.625h1.25a.627.627,0,0,0,.625-.625V8.125a1.875,1.875,0,0,1,3.75,0v11.25a.627.627,0,0,0,.625.625h1.25A.627.627,0,0,0,30,19.375v-5a1.875,1.875,0,0,1,3.75,0Zm-7.461,1.914a3.57,3.57,0,0,0-4.555.3l-.484.453-.484-.453a3.594,3.594,0,0,0-4.555-.3,3.021,3.021,0,0,0-.242,4.641L20.7,32.289a.808.808,0,0,0,1.1,0l4.727-4.461a3.02,3.02,0,0,0-.234-4.641Z" transform="translate(-0.002)" fill="#6f7302"/>
</svg>
