<svg xmlns="http://www.w3.org/2000/svg" width="45" height="40" viewBox="0 0 45 40">
  <path id="trophy-alt-regular" d="M28.071,10.852l-3.391-.492-1.516-3.07a.74.74,0,0,0-1.328,0l-1.516,3.07-3.391.492a.743.743,0,0,0-.414,1.266l2.453,2.391-.578,3.375a.743.743,0,0,0,1.078.781L22.5,17.07l3.031,1.594a.744.744,0,0,0,1.078-.781l-.578-3.375,2.453-2.391A.743.743,0,0,0,28.071,10.852ZM35,5V1.25A1.254,1.254,0,0,0,33.75,0H11.25A1.254,1.254,0,0,0,10,1.25V5H1.25A1.254,1.254,0,0,0,0,6.25V11c0,4.711,5.336,9.781,12.469,11.141,2.141,4.523,5.32,6.891,8.156,7.609v6.5h-5A3.124,3.124,0,0,0,12.5,39.375a.627.627,0,0,0,.625.625h18.75a.627.627,0,0,0,.625-.625,3.124,3.124,0,0,0-3.125-3.125h-5v-6.5c2.836-.727,6.016-3.086,8.156-7.609C39.649,20.789,45,15.719,45,11V6.25A1.254,1.254,0,0,0,43.75,5ZM3.75,11V8.75H10a36.068,36.068,0,0,0,.961,9.125C6.656,16.4,3.75,13.274,3.75,11ZM22.5,26.25c-4.141,0-8.75-6.125-8.75-16.875V3.75h17.5V9.375C31.25,20.352,26.5,26.25,22.5,26.25ZM41.25,11c0,2.273-2.906,5.4-7.211,6.875A36.1,36.1,0,0,0,35,8.75h6.25Z" fill="#a0a603"/>
</svg>
