<svg xmlns="http://www.w3.org/2000/svg" width="382.78" height="352.028" viewBox="0 0 382.78 352.028">
  <g id="Grupo_68886" data-name="Grupo 68886" transform="translate(-4601.32 -692.887)">
    <path id="Trazado_115826" data-name="Trazado 115826" d="M4873.063,839.742c-.723,7.014-4.762,12.58-10.125,16.933-6.535,5.308-14.095,9.607-21.437,13.7-7.025,3.916-14.462,7.791-22.621,8.542-7.915.735-15.855-1.719-22.622-5.744-6.279-3.726-12.5-8.9-14.806-16.088-1.214-3.807-1.419-7.859-1.773-11.8-.409-4.529-.777-9.059-.955-13.6a114.343,114.343,0,0,1,.191-12.607,94.1,94.1,0,0,1,2.128-12.935,10.844,10.844,0,0,0,.286-5.323c-.586-1.965-2.36-2.646-4.106-3.328-10.22-3.991-21.6-6.7-31.244-11.932-9.723-5.269-19.088-16.238-14.821-27.911,2.471-6.781,8.188-12.075,14.178-15.813,12.771-8,29.007-10.93,43.581-6.646a48.318,48.318,0,0,1,30.236,25.693c2.756,6,3.726,13.046,7.832,18.38,2.4,3.123,5.812,4.5,9.47,5.662a26.822,26.822,0,0,1,9.441,4.6,21.759,21.759,0,0,1,5.949,7.86c1.582,3.52,1.446,7.163,2.279,10.848.886,3.956,3.942,5.894,7.163,7.914a25.535,25.535,0,0,1,7.067,6.181A24.986,24.986,0,0,1,4873.063,839.742Z" transform="translate(87.463 27.39)" fill="#1a1a1a"/>
    <path id="Trazado_115827" data-name="Trazado 115827" d="M4847.133,811.949c-4.735-3.456-10.748-3.2-15.834-5.766-6.331-3.2-4.823-10.495-5.257-16.359a14.149,14.149,0,0,0-7.971-12.251c-4.64-2.359-9.907-3.071-14.7-5.049a17,17,0,0,1-7.493-5.6c-2.345-3.177-4.032-6.819-6.168-10.135a95.983,95.983,0,0,0-15.814-18.7c-1.293-1.186-3.071.883-1.776,2.072a92.944,92.944,0,0,1,14.024,16.181c1.9,2.794,3.563,5.711,5.254,8.631a23.924,23.924,0,0,0,5.645,7.093c3.934,3.076,8.92,4.255,13.614,5.649,4.43,1.315,9.608,3.009,11.627,7.6,2.4,5.452.036,11.773,2.208,17.311,2.154,5.5,7.63,7.044,12.855,8.312,5.253,1.276,9.774,3.2,12.344,8.245a21.792,21.792,0,0,1,1.367,14.649c-3.223,13.794-18.022,20.709-29.677,26.135-1.578.735-.722,3.328.868,2.589,11.053-5.145,23.861-11.116,29.53-22.66C4856.084,831.135,4855.618,818.142,4847.133,811.949Z" transform="translate(115.701 30.462)" fill="#1a1a1a"/>
    <path id="Trazado_115828" data-name="Trazado 115828" d="M4797.809,785.2a33.046,33.046,0,1,1-12.108-45.138A33.048,33.048,0,0,1,4797.809,785.2Z" transform="translate(91.563 29.03)" fill="#ffc89e"/>
    <path id="Trazado_115829" data-name="Trazado 115829" d="M4760.034,852.391c-3.641,7.818-36.423,66.154-44.948,69.9s-49.879-18.34-47.306-27.1,32.114-66.823,49.465-86.19,28.2-24.63,34.224-25.018S4760.034,852.391,4760.034,852.391Z" transform="translate(45.061 61.874)" fill="#529ad9"/>
    <path id="Trazado_115830" data-name="Trazado 115830" d="M4670.944,860.376c-3.593,4.336-9.272,6.75-16.294,4.509-10.962-3.5-15.883-16.216-22.646-24.41a11.089,11.089,0,0,1-2.863-6.381,6.052,6.052,0,0,1,2.366-5.531,1.485,1.485,0,0,1,2.291-1.181c10.4,7.047,19.644,7.279,30.445,11.7C4674.9,843.438,4678,851.853,4670.944,860.376Z" transform="translate(18.884 91.166)" fill="#ffc89e"/>
    <path id="Trazado_115831" data-name="Trazado 115831" d="M4702.968,873.428a40.819,40.819,0,0,1-9.1,13.338c-.341.358-.721.746-1.128,1.184-6.648-3.113-13.234-6.505-18.73-9.533-14.755-8.1-27.125-20.016-27.125-20.016l-16.414-29.308c5.007,2.351,42.124,1.95,67.092,2.752,3.81,8.194,7.028,16.775,7.583,25.851A37.236,37.236,0,0,1,4702.968,873.428Z" transform="translate(19.798 92.508)" fill="#ffc89e"/>
    <path id="Trazado_115832" data-name="Trazado 115832" d="M4685.205,825.373a27.55,27.55,0,0,0-.5-5.231l4.4-6.488-5.694-9.628-7.979.381a27.371,27.371,0,0,0-8.436-4.839l-3.342-7.091h-11.186l-3.731,7.056a27.341,27.341,0,0,0-6.793,3.526l-7.926-1.021-6.449,9.14,3.868,6.823a27.405,27.405,0,0,0-.486,12.718l-4.175,6.806,5.694,9.628,7.81-.735a27.325,27.325,0,0,0,8.458,4.8l3.731,7.056h11.186l3.342-7.091a27.359,27.359,0,0,0,6.6-3.427l7.731,1.36,6.449-9.14-3.615-7.12A27.408,27.408,0,0,0,4685.205,825.373Zm-27.394,9.116a9.116,9.116,0,1,1,9.118-9.116A9.115,9.115,0,0,1,4657.811,834.489Z" transform="translate(17.288 67.639)" fill="#1a1a1a"/>
    <path id="Trazado_115833" data-name="Trazado 115833" d="M4642.843,803.174a19.677,19.677,0,0,0-.357-3.718l3.13-4.609L4641.568,788l-5.671.27a19.426,19.426,0,0,0-6-3.439l-2.372-5.039h-7.95l-2.653,5.014a19.424,19.424,0,0,0-4.827,2.505l-5.632-.725-4.585,6.495,2.751,4.848a19.494,19.494,0,0,0-.721,5.241,19.706,19.706,0,0,0,.373,3.8l-2.966,4.836,4.048,6.843,5.55-.522a19.431,19.431,0,0,0,6.009,3.414l2.653,5.014h7.95l2.372-5.039a19.362,19.362,0,0,0,4.693-2.437l5.493.967,4.584-6.495-2.569-5.059A19.515,19.515,0,0,0,4642.843,803.174Zm-19.467,6.478a6.478,6.478,0,1,1,6.479-6.478A6.476,6.476,0,0,1,4623.376,809.653Z" transform="translate(0 59.027)" fill="#a2a0eb"/>
    <path id="Trazado_115834" data-name="Trazado 115834" d="M4679.05,869.833a10.929,10.929,0,0,1-3.93,3.726,5.464,5.464,0,0,1-2.729,1.936c-4.382,1.432-8.951-1.909-12.267-4.337a51.947,51.947,0,0,1-4.694-3.944c-2.77-1.951-5.444-4.025-8.064-6.045-4.256-3.288-8.35-6.754-12.319-10.355-5.514-3.738-10.617-8.186-15.719-12.28-5.76-4.6-12.239-10.37-11.886-18.447.137-3.029,1.433-6.754,4.584-7.887,3.5-1.227,6.551,1.474,8.05,4.393,1.243,2.43,2.239,4.927,3.466,7.341a16.471,16.471,0,0,1,3.535-12.54c2.88-3.506,8.556-5.976,12.349-2.346a5.759,5.759,0,0,1,1.72,4.079c2.673-2.21,6.439-3.506,9.646-1.6,3.438,2.047,3.533,6.277,2.359,9.687-1.459,4.19-4.885,7.41-6.152,11.68-.724,2.428,1.228,7.722,2.073,9.892,1.161-2.442,1.665-7.64,3.1-9.934,2.688-4.352,5.472-8.458,10.628-9.879,4.6-1.254,8.87.6,8.474,5.5a18.338,18.338,0,0,1-2.142,6.468,83.141,83.141,0,0,1-4.762,8.46c.777,3.656,4.871,5.375,7.9,6.945,3.451,1.773,6.6,4.092,7.559,8.05C4680.727,862.151,4681.163,866.409,4679.05,869.833Z" transform="translate(4.149 77.679)" fill="#ffc89e"/>
    <path id="Trazado_115835" data-name="Trazado 115835" d="M4654.174,817.5a9.687,9.687,0,0,0-10.126-.166c-3.5,1.911-6.071,5.356-8.071,8.72a38.055,38.055,0,0,0-5.174,22.635c.152,1.729,2.881,1.832,2.729.084a35.613,35.613,0,0,1,3.891-19.719c2.579-4.885,8.871-13.751,15.331-9.222C4654.189,820.843,4655.609,818.511,4654.174,817.5Z" transform="translate(19.927 83.61)" fill="#ff7e64"/>
    <path id="Trazado_115836" data-name="Trazado 115836" d="M4638.292,811.284a14.782,14.782,0,0,0-3.459,1.74,7.079,7.079,0,0,0-5.3-6.737c-4.483-1.014-8.931,2.255-11.167,5.885-5.457,8.868-.873,20.865,3.583,29.177a60,60,0,0,0,10.714,14.288,1.346,1.346,0,0,0,.752.39c.457.507.926,1,1.416,1.484,1.254,1.223,3.25-.64,1.988-1.869a30.3,30.3,0,0,1-8.872-24.051c.376-4.6,1.8-9.645,4.92-13.155a16.441,16.441,0,0,1,5.838-4.411c2.1-.843,5.325-.693,6.2,1.84.566,1.647,3.23,1.049,2.66-.61C4646.225,811.381,4641.989,810.05,4638.292,811.284Zm-10.01,9.084a31.8,31.8,0,0,0-1.682,23.55,50.532,50.532,0,0,1-7.5-18.147c-.936-5-.487-10.644,3.343-14.379,1.694-1.651,4.512-3.209,6.923-2.324a4.454,4.454,0,0,1,2.693,5.083,1.305,1.305,0,0,0,.145.992A20.154,20.154,0,0,0,4628.282,820.368Z" transform="translate(9.884 76.891)" fill="#ff7e64"/>
    <path id="Trazado_115837" data-name="Trazado 115837" d="M4652.714,835.3c-1.915-1-4.036-1.362-6.034-2.133a6.947,6.947,0,0,1-2.242-1.333c-.334-.311-1.283-1.36-1.016-1.776.952-1.474-1.377-2.9-2.331-1.421-1.2,1.86.3,4.2,1.755,5.412a16.135,16.135,0,0,0,5.993,2.661,11.224,11.224,0,0,1,5.271,3.078,10.311,10.311,0,0,1,2.576,5.388c.281,1.738,2.938,1.115,2.662-.611A12.932,12.932,0,0,0,4652.714,835.3Z" transform="translate(26.716 91.777)" fill="#ff7e64"/>
    <path id="Trazado_115838" data-name="Trazado 115838" d="M4705.458,832.084a32.968,32.968,0,0,0-13.976-.873c-2.956-.027-8.772-.166-16.082-.39-.974-.02-1.985-.05-3.025-.089,1.158,2.482,2.249,4.989,3.231,7.534a61.384,61.384,0,0,1,4.352,18.317,37.236,37.236,0,0,1-2.178,15.732,38.332,38.332,0,0,1-7.55,11.664c-.5.568-1.027,1.127-1.551,1.674-.341.358-.721.746-1.128,1.184l2.623,1.209c2.787,1.269,5.57,2.467,8.258,3.538a33.181,33.181,0,0,0,20.531,5.264,20.164,20.164,0,0,0,4-.569,33.042,33.042,0,0,0,2.489-64.195Z" transform="translate(44.984 93.621)" fill="#529ad9"/>
    <path id="Trazado_115839" data-name="Trazado 115839" d="M4859.413,861.929c6.168-6,13.563-14.886,13.563-24.178,0-13.549-9.319-24.479-23.386-29.787-2.51-1.4-5.336-2.824-8.283-4.188-1.023-.479-2.061-.956-3.11-1.419a99.282,99.282,0,0,1-30.237,10.629c-16.647,2.947-37.836,2.537-49.571-11.653a28.909,28.909,0,0,1-6.8-16.318c-.886-.04-1.786-.082-2.688-.109-2.346-.082-4.72-.123-7.025-.123a33.034,33.034,0,0,0-29.394,56.051,43.061,43.061,0,0,0-5.959,18.463c-.506,6.344.3,13.249,4.134,18.543a18.7,18.7,0,0,0,11.794,7.21l2.982,15.438s113.756,50.322,119.61,52.4,18.966-45.845,15.171-78.251A118.514,118.514,0,0,1,4859.413,861.929Z" transform="translate(68.747 62.006)" fill="#529ad9"/>
    <path id="Trazado_115840" data-name="Trazado 115840" d="M4716.837,820.335c1.433-1.928,2.936-3.7,2.261-6.246a80.746,80.746,0,0,0-3.086-8.146c-.631-1.637-3.221-.772-2.589.868l1.577,4.1c.5,1.3,1.433,2.873,1.556,4.28.127,1.454-1.336,2.749-2.136,3.84q-1.141,1.559-2.195,3.177a52.34,52.34,0,0,0-6.772,14.508c-2.688,9.654-1.551,20.672,4.894,28.632,1.1,1.355,3.372-.158,2.265-1.525-6.74-8.322-7.114-19.816-3.518-29.564A56.06,56.06,0,0,1,4716.837,820.335Z" transform="translate(69.802 76.189)" fill="#e8eaff"/>
    <path id="Trazado_115841" data-name="Trazado 115841" d="M4818.356,802.021a99.278,99.278,0,0,1-30.237,10.629c-16.646,2.947-37.836,2.537-49.571-11.653a28.908,28.908,0,0,1-6.795-16.318c12.131.5,23.143,1.719,23.143,1.719l33.77,4.134S4804.314,795.744,4818.356,802.021Z" transform="translate(88.587 62.342)" fill="#ffc89e"/>
    <path id="Trazado_115842" data-name="Trazado 115842" d="M4773.257,859.048c-.345,8.618,2.068,75.489,7.928,82.73s52.74,6.549,54.463-2.415,2.068-74.11-4.48-99.275-13.788-34.816-18.96-37.917S4773.257,859.048,4773.257,859.048Z" transform="translate(116.754 74.144)" fill="#529ad9"/>
    <path id="Trazado_115843" data-name="Trazado 115843" d="M4803.184,906.041a27.393,27.393,0,0,1-11.148,13.14c-.626.383-1.281.75-1.936,1.078a148.664,148.664,0,0,1-23.729-10.889c-22.759-13.438-31.546-14.8-33.525-18.775s9.387-30.168,9.387-30.168c6.891.354,29.419,1.392,50.322,2.43,6.413,5.731,10.261,14.191,11.681,22.786C4805.327,892.3,4805.721,899.655,4803.184,906.041Z" transform="translate(89.173 113.789)" fill="#ffc89e"/>
    <path id="Trazado_115844" data-name="Trazado 115844" d="M4788.454,811.488l-38.955-.7-.368-16.646-.259-11.885-.055-2.142,34.807-13.1Z" transform="translate(100.177 50.35)" fill="#ffc89e"/>
    <path id="Trazado_115845" data-name="Trazado 115845" d="M4777.216,777.775c-1.882,2.154-4.121,4.065-6.112,6.112-4.68,4.776-10.669,10.246-17.942,9.128a13.477,13.477,0,0,1-4.054-1.337l-.258-11.885a42.97,42.97,0,0,0,10.341-1.855,60.154,60.154,0,0,0,12.131-5.158c1.8-1.036,4.517-3.123,6.6-1.568C4780.341,773.025,4778.731,776.041,4777.216,777.775Z" transform="translate(100.199 52.818)" fill="#ff7e64"/>
    <path id="Trazado_115846" data-name="Trazado 115846" d="M4788.044,787.375a28.325,28.325,0,1,1-10.378-38.69A28.326,28.326,0,0,1,4788.044,787.375Z" transform="translate(90.915 35.319)" fill="#ffc89e"/>
    <path id="Trazado_115847" data-name="Trazado 115847" d="M4755.806,754.774a1.529,1.529,0,0,0-.637-.813,1.231,1.231,0,0,0-.783-.479,3.1,3.1,0,0,0-1.985.415,1.534,1.534,0,0,0-.636.422,4.86,4.86,0,0,0-.437.66,6.11,6.11,0,0,0-.765,3.432c.022.116.044.23.067.346a1.011,1.011,0,0,0,.284.465,1.244,1.244,0,0,0,.748.44,3.851,3.851,0,0,0,1.509-.133,3.613,3.613,0,0,0,1.093-.561,4.3,4.3,0,0,0,1.557-2.262,3.352,3.352,0,0,0,.121-1.2A3.867,3.867,0,0,0,4755.806,754.774Z" transform="translate(101.363 41.139)" fill="#1a1a1a"/>
    <path id="Trazado_115848" data-name="Trazado 115848" d="M4743.994,752.364a1.353,1.353,0,0,0-.7-.794l-.332-.111a1.359,1.359,0,0,0-.7.045,3.6,3.6,0,0,0-1.105.485,3.9,3.9,0,0,0-.9.808,3.831,3.831,0,0,0-.607,1.008c-.05.134-.075.259-.112.388a4.968,4.968,0,0,0-.544,1.6,1.368,1.368,0,0,0,.328,1.16,1.312,1.312,0,0,0,1.1.464,4.043,4.043,0,0,0,2.831-1.619,4.59,4.59,0,0,0,.763-1.614A3.986,3.986,0,0,0,4743.994,752.364Z" transform="translate(93.494 39.764)" fill="#1a1a1a"/>
    <path id="Trazado_115849" data-name="Trazado 115849" d="M4751.681,752.4a8.1,8.1,0,0,0-4.38-6,7.222,7.222,0,0,0-2.729-.655,8.941,8.941,0,0,0-4.693,1.187,14.531,14.531,0,0,0-6.864,14.79,8.105,8.105,0,0,0,4.381,6,7.128,7.128,0,0,0,3.057.668c.273,0,.545-.014.817-.04a9.083,9.083,0,0,0,2.853-.806,1.319,1.319,0,0,0-.409-.573,1.49,1.49,0,0,1-.572-.873c-.015-.082.081-.655-.1-.45.163-.191.873-.3,1.105-.383.3-.123.6-.245.887-.381a14.892,14.892,0,0,0,3.835-2.512,8.757,8.757,0,0,0,2.81-9.974Zm-3.643,7.3a11.078,11.078,0,0,1-4.544,5.1,6.489,6.489,0,0,1-3.084.86,4.348,4.348,0,0,1-1.87-.41,5.427,5.427,0,0,1-2.851-4.065,11.846,11.846,0,0,1,5.513-11.872,6.541,6.541,0,0,1,1.813-.682,4.915,4.915,0,0,1,1.229-.165,3.842,3.842,0,0,1,.573.042,4.288,4.288,0,0,1,1.323.368,5.443,5.443,0,0,1,2.866,4.067,10.8,10.8,0,0,1-.7,6.1C4748.228,759.264,4748.134,759.483,4748.038,759.7Z" transform="translate(89.29 35.893)" fill="#529ad9"/>
    <path id="Trazado_115850" data-name="Trazado 115850" d="M4749.109,750.949a4.217,4.217,0,0,0-1.173.517c-.191.109-.369.233-.561.327-.136.069-.464.109-.382.2a2.57,2.57,0,0,0-.436-.2,4.675,4.675,0,0,0-.56-1.283c-1-1.6-3.233-2.729-5.049-1.923a1.863,1.863,0,0,0-.328.163,1.311,1.311,0,0,1-1.475-.04,1.275,1.275,0,0,1-.04-2.21,6.254,6.254,0,0,1,1.6-.683,6.876,6.876,0,0,1,5.771,1.256A7.184,7.184,0,0,1,4749.109,750.949Z" transform="translate(93.158 35.818)" fill="#1a1a1a"/>
    <path id="Trazado_115851" data-name="Trazado 115851" d="M4768.037,752.485a16.04,16.04,0,0,0-4.181-3.073,26.651,26.651,0,0,0-5.166-2.22,9.7,9.7,0,0,0-9.5,1.792,1.374,1.374,0,0,0,.147,1.924,1.4,1.4,0,0,0,1.924-.148c1.987-1.829,5.1-1.541,7.442-.715a18.973,18.973,0,0,1,7.55,4.512,1.374,1.374,0,0,0,1.924-.148A1.4,1.4,0,0,0,4768.037,752.485Z" transform="translate(100.208 36.543)" fill="#1a1a1a"/>
    <path id="Trazado_115852" data-name="Trazado 115852" d="M4750.17,752.4a12.039,12.039,0,0,1-2.566,5.978,13.609,13.609,0,0,1-1.813,1.923,14.9,14.9,0,0,1-3.835,2.512c-.287.136-.586.259-.886.381-.232.082-.942.192-1.105.383.178-.2.082.368.1.45a1.492,1.492,0,0,0,.572.873,1.32,1.32,0,0,1,.41.573,1.388,1.388,0,0,1-2.183,1.5,4.585,4.585,0,0,1-.67-.7,4.056,4.056,0,0,1-.859-2.688c.205-1.829,1.229-2.4,2.565-2.88a12.04,12.04,0,0,0,5.335-3.738,8.557,8.557,0,0,0,.887-1.214,8.143,8.143,0,0,0,1.229-6.114,2.575,2.575,0,0,1,.436.2c-.082-.1.246-.136.381-.2.192-.094.37-.218.561-.327a4.217,4.217,0,0,1,1.173-.517A9.338,9.338,0,0,1,4750.17,752.4Z" transform="translate(92.371 37.972)" fill="#ff7e64"/>
    <path id="Trazado_115853" data-name="Trazado 115853" d="M4761.644,748.554a12.578,12.578,0,0,0-11.815,8.324,13.315,13.315,0,0,0-2.41-1.281,6.776,6.776,0,0,0-5.98.411,1.372,1.372,0,0,0-.369,1.894,1.4,1.4,0,0,0,1.894.369,6.027,6.027,0,0,1,.823-.341,4.172,4.172,0,0,1,.753-.133,4.743,4.743,0,0,1,.559-.008c-.183-.01.3.047.353.055.143.025.284.057.423.094a13.688,13.688,0,0,1,2.3,1.11c.114.069.23.138.344.21-.2-.126.218.158.257.186.109.086.208.176.309.269.01.539-.013.971-.013,1.407a12.568,12.568,0,1,0,12.567-12.567Zm0,22.405a9.838,9.838,0,1,1,9.838-9.838A9.849,9.849,0,0,1,4761.644,770.959Z" transform="translate(94.759 37.808)" fill="#529ad9"/>
    <path id="Trazado_115854" data-name="Trazado 115854" d="M4796.348,775.033a41.505,41.505,0,0,1-5.4,17.861,1.407,1.407,0,0,1-1.487.735,30.806,30.806,0,0,1-13.059-6.384c-7.326-5.991-11.844-14.587-14.409-23.566a106,106,0,0,1-3-15.3c-.327-2.468-.369-5.293-1.665-7.491a4.813,4.813,0,0,0-2.812-2.114,1.159,1.159,0,0,1-.612-.082,2.2,2.2,0,0,0-1.747.71c-1.214,1.268-3.29-.505-2.074-1.788a5.136,5.136,0,0,1,3.86-1.61c5.063-3.562,12.186-1.459,17.67-.027,5.294,1.379,10.575,3.288,15,6.577a24.171,24.171,0,0,1,9.061,14.3A59.248,59.248,0,0,1,4796.348,775.033Z" transform="translate(100.784 27.956)" fill="#1a1a1a"/>
    <path id="Trazado_115855" data-name="Trazado 115855" d="M4748.288,763.395a1.392,1.392,0,0,0-1.728-.86c-.533.171-1.07.319-1.615.438-.35.069-.478.091-.6.111-.275.044-.553.082-.829.112-.555.061-1.113.094-1.671.1-.259,0-.516,0-.774-.008-.128-.005-.257-.01-.386-.018.253.015-.247-.022-.293-.027a1.4,1.4,0,0,0-1.6,1.078,1.382,1.382,0,0,0,1.078,1.6,18.912,18.912,0,0,0,7.563-.8A1.377,1.377,0,0,0,4748.288,763.395Z" transform="translate(93.354 47.258)" fill="#ff7e64"/>
    <path id="Trazado_115856" data-name="Trazado 115856" d="M4762.155,887.536a17.134,17.134,0,0,1-9.618,8.7,24.872,24.872,0,0,1-7.519,1.543c-2.264.123-4.912.232-7.04-.683-2.061-.9-3.085-2.823-3.889-4.8-1.092-2.7-2.088-5.457-3.056-8.214-.97-2.729-1.871-5.5-2.73-8.268a1.179,1.179,0,0,1-.5-.435c-5.294-7.588-2.688-19.131,5.854-23.087a16.058,16.058,0,0,1,21.217,7.694c1.134,2.156,2.007,4.421,2.963,6.66,1.022,2.428,2.278,4.734,3.356,7.136C4763.193,878.189,4764.2,882.951,4762.155,887.536Z" transform="translate(84.041 107.282)" fill="#ffc89e"/>
    <path id="Trazado_115857" data-name="Trazado 115857" d="M4759.686,929.362l-76.565-132.616,11.2-6.467L4770.885,922.9a6.466,6.466,0,0,1-11.2,6.465Z" transform="translate(55.557 66.146)" fill="#1a1a1a"/>
    <path id="Trazado_115858" data-name="Trazado 115858" d="M4772.479,871.034c-1.1-6.522-7.314-11.42-11.994-15.527a117.109,117.109,0,0,0-12.442-9.538c-4.613-3.083-8.187-3.751-13.646-4.5-6.045-.833-12.39-2.238-18.517-1.6-5.43.573-10.232,3.234-12.771,8.188a20.939,20.939,0,0,0-1.1,15.363,11.6,11.6,0,0,0,5.021,6.836,8.192,8.192,0,0,0,5.28,1.009,13.022,13.022,0,0,0,1.31,2.416c2.17,3.248,5.281,5.54,8.856,5.867a7.483,7.483,0,0,0,2.619,4.8,13.252,13.252,0,0,0,7.435,2.893c2.718,4.283,8.734,9.482,12.828,4.911a4.8,4.8,0,0,1-.615-3.753,22.162,22.162,0,0,1,1.788-4.27,28.924,28.924,0,0,1,5.524-7.368,1.4,1.4,0,0,1,1.925-.136,1.367,1.367,0,0,1,.232.259,6.974,6.974,0,0,1,1.529,1.761,11.247,11.247,0,0,0,3.288,3.424c3.151,1.788,7.313,0,9.836-2.156C4772.11,877.132,4773,874.076,4772.479,871.034Zm-55.656-11.91a5.334,5.334,0,0,1,.328-2.265,4.775,4.775,0,0,1,.926-1.911,1.421,1.421,0,0,1,1.188-.354,7.433,7.433,0,0,1,1.938.477C4719.784,856.311,4718.242,857.622,4716.823,859.123Z" transform="translate(67.733 99.717)" fill="#ffc89e"/>
    <path id="Trazado_115859" data-name="Trazado 115859" d="M4733.562,852.148c-4.016,3.983-7.1,8.735-10.038,13.536-2.726,4.453-6.089,9.639-3.224,14.856.844,1.54,3.1.007,2.264-1.523-2.422-4.413,1.934-9.763,4.154-13.341a62.972,62.972,0,0,1,8.916-11.749C4736.88,852.69,4734.8,850.915,4733.562,852.148Z" transform="translate(80.065 107.883)" fill="#ff7e64"/>
    <path id="Trazado_115860" data-name="Trazado 115860" d="M4728.707,847.467a46.9,46.9,0,0,0-10.7,13.459,79.038,79.038,0,0,0-3.744,7.825c-1.02,2.458-1.758,5.194-.212,7.595.953,1.476,3.218-.049,2.266-1.525-1.291-2,.357-4.826,1.2-6.718,1.025-2.307,2.139-4.574,3.386-6.769a42.416,42.416,0,0,1,9.328-11.6C4731.561,848.61,4730.052,846.333,4728.707,847.467Z" transform="translate(75.964 104.778)" fill="#ff7e64"/>
    <path id="Trazado_115861" data-name="Trazado 115861" d="M4730.26,843.774c-4.276,1.327-7.992,4.309-11.461,7.042s-7.357,5.7-9.878,9.39a10.54,10.54,0,0,0-1.982,5.192,12.088,12.088,0,0,0,1.394,5.773c1.635,3.594,4.7,7.059,9.047,6.421,1.73-.254,1.565-2.979-.174-2.724-3.963.583-6.093-3.558-7.15-6.728-1.166-3.489.77-6.364,3.133-8.8a75.089,75.089,0,0,1,8.52-7.33c2.892-2.2,5.91-4.559,9.421-5.649C4732.81,845.839,4731.936,843.253,4730.26,843.774Z" transform="translate(71.721 102.432)" fill="#ff7e64"/>
    <path id="Trazado_115862" data-name="Trazado 115862" d="M4716.828,858.762a1.042,1.042,0,0,0-.326-.438c-.1-.064-.2-.129-.3-.193a1.354,1.354,0,0,0-.68-.133l-.346.067a1.389,1.389,0,0,0-.6.4l-.7,1.024a1.513,1.513,0,0,0-.327.976,1.508,1.508,0,0,0,.475.949l.295.195a1.373,1.373,0,0,0,.679.131c.116-.022.231-.044.348-.067a1.391,1.391,0,0,0,.6-.4q.352-.514.705-1.024a1.037,1.037,0,0,0,.248-.462,1.231,1.231,0,0,0-.07-1.024Z" transform="translate(76.219 112.138)" fill="#ff7e64"/>
    <g id="Grupo_68885" data-name="Grupo 68885" transform="translate(4782.841 953.193)">
      <path id="Trazado_115863" data-name="Trazado 115863" d="M4715.5,848.653a4.256,4.256,0,0,1-.638-.03c-.684-.064-1.076-.113-1.468-.173a19.8,19.8,0,0,1-2.316-.507,1.368,1.368,0,0,0-1.6,1.078,14.077,14.077,0,0,0,.463,5.133,1.376,1.376,0,0,0,1.729.86,1.394,1.394,0,0,0,.859-1.728c-.049-.173-.1-.346-.138-.521-.1-.623-.177-.974-.21-1.332-.015-.148-.014-.3-.021-.443a22.372,22.372,0,0,0,3.514.386,1.372,1.372,0,0,0,.949-.474,1.363,1.363,0,0,0-1.122-2.25Z" transform="translate(-4709.421 -847.907)" fill="#ff7e64"/>
    </g>
    <path id="Trazado_115864" data-name="Trazado 115864" d="M4840.774,896.817a33.071,33.071,0,0,1-22.854,31.451,18.271,18.271,0,0,1-6.89,1.842,25.271,25.271,0,0,1-4.763-.274,33.424,33.424,0,0,1-8.638-1.542,235.575,235.575,0,0,1-27.493-7.832c-1.091-.383-2.2-.777-3.287-1.187.654-.327,1.309-.7,1.936-1.078a27.4,27.4,0,0,0,11.148-13.14c2.536-6.386,2.143-13.741,1.051-20.4-1.419-8.6-5.268-17.055-11.681-22.786,1.393.067,2.784.149,4.163.218,13.193.668,25.255,1.323,31.669,1.8.858-.067,1.718-.109,2.591-.109A33.038,33.038,0,0,1,4840.774,896.817Z" transform="translate(112.423 114.771)" fill="#529ad9"/>
    <path id="Trazado_115865" data-name="Trazado 115865" d="M4813.5,863.8a368.323,368.323,0,0,1-67.352-4.294c-1.734-.272-2.262,2.4-.523,2.678a372.18,372.18,0,0,0,68.048,4.339C4815.433,866.474,4815.249,863.75,4813.5,863.8Z" transform="translate(97.28 113.151)" fill="#e8eaff"/>
    <path id="Trazado_115866" data-name="Trazado 115866" d="M4773.151,834.563v47.054c0,1.76,2.725,1.575,2.725-.175V834.39C4775.876,832.628,4773.151,832.815,4773.151,834.563Z" transform="translate(116.705 95.268)" fill="#e8eaff"/>
    <path id="Trazado_115867" data-name="Trazado 115867" d="M4706.978,711.392a87.9,87.9,0,1,0,87.9,87.9A87.9,87.9,0,0,0,4706.978,711.392Zm0,166.354a78.456,78.456,0,1,1,78.458-78.456A78.458,78.458,0,0,1,4706.978,877.746Z" transform="translate(12.062 12.568)" fill="#fee45a"/>
    <path id="Trazado_115868" data-name="Trazado 115868" d="M4781.618,795.471a78.457,78.457,0,0,1-156.914,0c0-.505,0-1.009.014-1.5a78.457,78.457,0,0,1,156.9,1.5Z" transform="translate(15.882 16.387)" fill="#fff" opacity="0.63"/>
    <path id="Trazado_115869" data-name="Trazado 115869" d="M4742.99,820.472a62.168,62.168,0,0,0-1.12-11.692l9.853-14.518-12.744-21.532-17.848.86a60.658,60.658,0,0,0-18.857-10.821L4694.8,746.9h-25.01l-8.35,15.786a60.621,60.621,0,0,0-15.187,7.887l-17.725-2.292-3.808,5.39c-.014.492-.014,1-.014,1.5a78.468,78.468,0,0,0,118.667,67.377l-2.715-5.335A61.034,61.034,0,0,0,4742.99,820.472Zm-61.251,20.385a20.384,20.384,0,1,1,20.385-20.385A20.378,20.378,0,0,1,4681.739,840.858Z" transform="translate(15.882 36.685)" fill="#a0a603"/>
    <path id="Trazado_115870" data-name="Trazado 115870" d="M4684.386,735.441a14.291,14.291,0,0,0-4.307-1.048l-5.827-1.1a1.242,1.242,0,0,0-1.343.576,1.387,1.387,0,0,0-1.743,1.364,178.872,178.872,0,0,0,2.8,27.616c.258,1.436,2.388,1.81,2.7.175a73.992,73.992,0,0,1,6.829-19.9C4684.57,741.023,4687.537,737.222,4684.386,735.441Zm-3.118,6.047q-1.053,2.013-1.98,4.089a76.268,76.268,0,0,0-3.695,10.283,179.344,179.344,0,0,1-1.664-19.853l4.567.865q1.059.2,2.118.4a6.482,6.482,0,0,1,2.109.422C4683.482,738.275,4681.638,740.774,4681.268,741.488Z" transform="translate(47.436 27.423)" fill="#edef8f"/>
    <path id="Trazado_115871" data-name="Trazado 115871" d="M4711.748,744.022a49.689,49.689,0,0,0-12.117-14.676,1.386,1.386,0,0,0-2.119.443q-10.138,18.946-18.63,38.707a1.291,1.291,0,0,0-.047.908c-.21.113-.406.24-.619.349-1.56.8-.022,3.054,1.524,2.264,6.426-3.283,11.219-8.329,15.964-13.642,4.392-4.922,8.975-10.008,15.345-12.3A1.387,1.387,0,0,0,4711.748,744.022Zm-17.109,11.45c-3.841,4.268-7.58,8.431-12.184,11.689q7.687-17.624,16.7-34.62a47.569,47.569,0,0,1,9.514,11.583C4703.063,746.581,4698.7,750.957,4694.639,755.473Z" transform="translate(51.784 24.545)" fill="#edef8f"/>
    <path id="Trazado_115872" data-name="Trazado 115872" d="M4706.333,761.515c-.937-2.562-1.861-5.126-2.812-7.682a4.024,4.024,0,0,0-1.659-2.354c-1.153-.608-2.331-.084-3.429.363l-15.1,6.129c-1.62.658-.759,3.249.869,2.588a3.209,3.209,0,0,0,.839.193,92.7,92.7,0,0,1,19.739,2.536A1.374,1.374,0,0,0,4706.333,761.515Zm-9.355-6.144q1.55-.627,3.1-1.258c.456-.183.456-.267.686.129a9.275,9.275,0,0,1,.533,1.443q.809,2.214,1.618,4.423a95.441,95.441,0,0,0-13.039-1.852Z" transform="translate(55.112 39.607)" fill="#edef8f"/>
    <path id="Trazado_115873" data-name="Trazado 115873" d="M4683.414,785.1c-6.475-7.383-17.875-9.334-26.774-5.566-5.812,2.462-9.836,7.288-9.976,13.756-.039,1.76,2.685,1.57,2.724-.175.28-13,17.927-15.029,26.936-10.208,9.294,4.974,12.579,18.2,5.318,26.339-1.169,1.308.9,3.09,2.072,1.777C4690.108,803.85,4689.664,792.222,4683.414,785.1Z" transform="translate(30.797 57.574)" fill="#edef8f"/>
    <path id="Trazado_115874" data-name="Trazado 115874" d="M4692.2,772.321c-3.508-4.829-9.54-5.855-14.444-8.673a16.62,16.62,0,0,1-8.1-15.312c.128-1.733-2.548-2.274-2.678-.522a19.482,19.482,0,0,0,7.464,16.9,37.848,37.848,0,0,0,8.144,4.164c2.748,1.175,5.549,2.487,7.354,4.97C4690.969,775.262,4693.237,773.744,4692.2,772.321Z" transform="translate(44.558 36.574)" fill="#edef8f"/>
    <path id="Trazado_115875" data-name="Trazado 115875" d="M4790.814,762.569l-.665-.927c-.7-.979-.7-.979,4.166-5.793.71-.709,1.264-1.253,1.356-1.35a21.684,21.684,0,0,0,2.828-5.442,22.186,22.186,0,0,1,5.24-43.741h35.23c12.362,0,22.543,9.827,22.7,21.9a22.178,22.178,0,0,1-22.146,22.5h-24.907c-7.182,5.625-16.963,9.848-21.186,11.669-.723.309-1.265.544-1.586.694Zm12.926-54.53a19.475,19.475,0,0,0-3.244,38.671l1.139.188.006,1.369a26.319,26.319,0,0,1-3.932,8.045c-.022.029-.137.138-.31.316a81.311,81.311,0,0,0,15.887-9.34l.373-.3h25.862a19.463,19.463,0,0,0,19.423-19.739c-.138-10.594-9.1-19.213-19.974-19.213Z" transform="translate(122.43 8.442)" fill="#f9fcb9"/>
    <path id="Trazado_115876" data-name="Trazado 115876" d="M4832.854,702.411a123.8,123.8,0,0,0-26.306,35.4,72.039,72.039,0,0,0-8.623-12.567c-1.13-1.317-3.4.191-2.263,1.523a72.16,72.16,0,0,1,9.8,14.76,1.373,1.373,0,0,0,2.36-.168,121.854,121.854,0,0,1,27.1-37.167C4836.208,702.992,4834.128,701.22,4832.854,702.411Z" transform="translate(131.78 6.2)" fill="#f9fcb9"/>
    <path id="Trazado_115877" data-name="Trazado 115877" d="M4825.678,707.122a49.605,49.605,0,0,0-32.544-14.189c-10.262-.467-22.081,2.593-28.263,11.146a23.376,23.376,0,0,0-2.32-1.758,24.57,24.57,0,0,0-16.608-3.622c-7.337.88-14.139,4.173-20.424,7.9-5.6,3.32-11.454,7.145-13.524,13.662-.531,1.674,2.152,2.181,2.68.524,1.513-4.771,5.852-7.877,9.9-10.421a68.955,68.955,0,0,1,14.955-7.43c5.091-1.671,10.74-2.441,15.967-.925a20.708,20.708,0,0,1,7.914,4.378,21.221,21.221,0,0,0-.971,2.017c-1.715,4.127-2.982,11.751,1.935,14.342a5.078,5.078,0,0,0,5.949-.732c1.667-1.818,1.442-5.078,1.036-7.325a17.655,17.655,0,0,0-4.492-8.708c5.654-8.184,16.677-10.708,26.169-10.335a46.8,46.8,0,0,1,30.862,13.548C4825.146,710.43,4826.922,708.356,4825.678,707.122Zm-59.336,13.465c-2.451-.537-2.754-3.828-2.645-5.86a16.244,16.244,0,0,1,1.74-6.263q.541.655,1.016,1.358a13.787,13.787,0,0,1,2.327,5.953C4769.015,717.668,4769.209,721.215,4766.342,720.587Z" transform="translate(75.12)" fill="#f9fcb9"/>
    <path id="Trazado_115878" data-name="Trazado 115878" d="M4825.359,752.47a1.33,1.33,0,0,1-1.9-1.805,1.382,1.382,0,0,0-1.926.146l-3.241,4.337c-.985,1.32-2.221,3.039-1.378,4.745.9,1.819,2.979,1.62,4.69,1.58l5.493-.126a1.4,1.4,0,0,0,1.274-1.449A9.8,9.8,0,0,0,4825.359,752.47Zm-5.382,6.312a2.8,2.8,0,0,1-.6-.076,3.606,3.606,0,0,1,.325-.863c.24-.363.348-.505.455-.646.219-.294.438-.588.656-.882l2.353-3.147a1.409,1.409,0,0,0,.412,1.374,7.492,7.492,0,0,1,1.59,2.426q.148.388.259.788c.037.133.07.267.1.4.051.3.054.4.066.5q-1.657.038-3.307.077C4821.519,758.749,4820.748,758.784,4819.978,758.782Z" transform="translate(146.236 39.025)" fill="#f9fcb9"/>
  </g>
</svg>
