<?xml version="1.0" encoding="utf-8"?>
<!-- Generator: Adobe Illustrator 26.0.1, SVG Export Plug-In . SVG Version: 6.00 Build 0)  -->
<svg version="1.1" id="Capa_1" xmlns="http://www.w3.org/2000/svg" xmlns:xlink="http://www.w3.org/1999/xlink" x="0px" y="0px"
	 viewBox="0 0 1320 506.8" style="enable-background:new 0 0 1320 506.8;" xml:space="preserve">
<style type="text/css">
	.st0{clip-path:url(#SVGID_00000181794302252258351650000012319549665455645581_);}
	.st1{fill:url(#Rect치ngulo_5345_00000042011210367019057760000016516097153819575705_);}
	.st2{clip-path:url(#SVGID_00000062183661504744791750000010581339556121842576_);}
	.st3{opacity:0.26;fill:url(#Trazado_110476_00000021818402708389596100000015024750083053909637_);enable-background:new    ;}
	.st4{fill:url(#Trazado_101628_00000117667996143214354790000002986492559341736109_);}
	.st5{opacity:0.5;fill:url(#Trazado_101629_00000183955190971995866000000016507877303300049851_);enable-background:new    ;}
	.st6{opacity:0.25;fill:#DFF147;enable-background:new    ;}
	.st7{fill:#648231;}
	.st8{fill:#566F29;}
	.st9{fill:#6A8C36;}
	.st10{fill:#4E711C;}
	.st11{fill:#465B1F;}
	.st12{fill:#5F7930;}
	.st13{opacity:0.25;fill:#D1DF55;enable-background:new    ;}
	.st14{opacity:0.2;}
	.st15{fill:#FFFFFF;}
	.st16{opacity:0.32;}
	.st17{opacity:0.29;}
	.st18{opacity:0.3;}
	.st19{opacity:0.54;}
</style>
<g>
	<defs>
		<path id="SVGID_1_" d="M1299.2,0H20.8C9.3,0,0,8.4,0,18.8v469.3c0,10.4,9.3,18.8,20.8,18.8h1278.4c11.5,0,20.8-8.4,20.8-18.8V18.8
			C1320,8.4,1310.7,0,1299.2,0z"/>
	</defs>
	<clipPath id="SVGID_00000133529704531542571210000007403704548479292840_">
		<use xlink:href="#SVGID_1_"  style="overflow:visible;"/>
	</clipPath>
	
		<g id="Grupo_54225" transform="translate(0 0)" style="clip-path:url(#SVGID_00000133529704531542571210000007403704548479292840_);">
		<g id="Grupo_54224" transform="translate(-17.846 -1.169)">
			
				<radialGradient id="Rect치ngulo_5345_00000126293626964699283550000015624723217843585179_" cx="380.1916" cy="675.5938" r="0.568" gradientTransform="matrix(1350.368 -3.556 -20.2555 -1076.96 -498885.4375 728989.25)" gradientUnits="userSpaceOnUse">
				<stop  offset="0" style="stop-color:#F3F095"/>
				<stop  offset="1" style="stop-color:#E4EE86"/>
			</radialGradient>
			
				<rect id="Rect치ngulo_5345" x="0" y="0" style="fill:url(#Rect치ngulo_5345_00000126293626964699283550000015624723217843585179_);" width="1350.4" height="508"/>
			<g id="Grupo_54209">
				<g>
					<defs>
						<rect id="SVGID_00000072268971031210961020000010154242564936431295_" x="0" y="0" width="1350.4" height="508"/>
					</defs>
					<clipPath id="SVGID_00000065055744437711959330000014936181470445322428_">
						<use xlink:href="#SVGID_00000072268971031210961020000010154242564936431295_"  style="overflow:visible;"/>
					</clipPath>
					<g id="Grupo_54208" style="clip-path:url(#SVGID_00000065055744437711959330000014936181470445322428_);">
						
							<linearGradient id="Trazado_110476_00000093879125457697783500000014917082818902699957_" gradientUnits="userSpaceOnUse" x1="380.4882" y1="675.0111" x2="379.6932" y2="675.2371" gradientTransform="matrix(1528.0393 -133.4733 -38.0823 -435.9761 -554421.6875 345445.9688)">
							<stop  offset="0" style="stop-color:#BAC653"/>
							<stop  offset="1" style="stop-color:#A0DB48;stop-opacity:0.278"/>
						</linearGradient>
						
							<path id="Trazado_110476" style="opacity:0.26;fill:url(#Trazado_110476_00000093879125457697783500000014917082818902699957_);enable-background:new    ;" d="
							M1442.3,311.8c0,0-193.1-101.1-651.6,22.7S78.8,369.9,22.9,156.5l-132.8,11.6l38.1,436l1501.9-131.2L1442.3,311.8z"/>
						
							<linearGradient id="Trazado_101628_00000049202602041101084250000005277725791234091151_" gradientUnits="userSpaceOnUse" x1="380.4968" y1="674.9377" x2="379.7018" y2="675.1638" gradientTransform="matrix(1534.176 0 0 -437.7271 -582524.125 295895.4688)">
							<stop  offset="0" style="stop-color:#BAC653"/>
							<stop  offset="1" style="stop-color:#B1DB23;stop-opacity:0.278"/>
						</linearGradient>
						<path id="Trazado_101628" style="fill:url(#Trazado_101628_00000049202602041101084250000005277725791234091151_);" d="
							M1398.7,411.5c0,0-183.6-117.5-651.3-34.1S34.9,350.7-2.2,133.1h-133.3v437.7h1507.9L1398.7,411.5z"/>
						
							<linearGradient id="Trazado_101629_00000047779999777211152580000013879524239244369599_" gradientUnits="userSpaceOnUse" x1="379.7047" y1="675.2667" x2="380.5617" y2="675.1037" gradientTransform="matrix(1491.552 0 0 -594.1591 -566312.875 401511.1562)">
							<stop  offset="0" style="stop-color:#99AF5D;stop-opacity:0.2"/>
							<stop  offset="1" style="stop-color:#90B236"/>
						</linearGradient>
						
							<path id="Trazado_101629" style="opacity:0.5;fill:url(#Trazado_101629_00000047779999777211152580000013879524239244369599_);enable-background:new    ;" d="
							M1375.9,448.7c0,0-133.9-92.5-532.4-28C362.7,448.4-43.6,395.4,11.1-8.4h-125.9v594.2h1491.6L1375.9,448.7z"/>
						<path id="Trazado_101630" class="st6" d="M-51.2,56.2c0,0-73.1,341.9,478.1,398.9c0,0-405.7,9.7-510.5-208.6L-51.2,56.2z"/>
						<g id="Grupo_54159" transform="translate(1286.607 209.596)">
							<path id="Trazado_101631" class="st7" d="M95.5,82.7C79.7,45.7,45,17.2,9.4,0.3C7.1-0.8,5.1,1.4,5.6,3.6
								C12,36.8-7.5,69,3.4,102.1c8.8,26.6,30.2,47.1,57.1,54.9c0.2,0.1,0.4,0.2,0.6,0.2c0.1,0,0.3,0.1,0.4,0.1
								c0.1,0,0.2,0.1,0.4,0.1c0.2,0.1,0.4,0.1,0.6,0.1c15.8,3.2,29.4-7.3,35.5-21.5C105.2,118.9,102.7,99.4,95.5,82.7z"/>
							<g id="Grupo_54152" transform="translate(9.023 5.132)">
								<path id="Trazado_101632" class="st8" d="M66.8,150.9c-22-17.2-23.8-46.4-28.7-71.8C32.5,49.5,19.8,24.3,0.2,1.4
									c-0.3-0.3-0.3-0.9,0-1.2c0.3-0.3,0.9-0.3,1.2,0c19.7,19,31.9,44.1,37.8,70.7c6.1,27.6,6.2,58.5,28.6,79
									C68.5,150.6,67.5,151.5,66.8,150.9L66.8,150.9z"/>
							</g>
							<g id="Grupo_54153" transform="translate(14.689 106.921)">
								<path id="Trazado_101633" class="st8" d="M0.5,0c14.4,3.6,25.2,16.2,40.6,16.3c0.7,0,1.3,0.6,1.2,1.3c0,0.7-0.6,1.2-1.2,1.2
									C25.3,18.6,14.4,6.2,0.3,0.8C0.1,0.8-0.1,0.5,0,0.3C0.1,0.1,0.3,0,0.5,0L0.5,0z"/>
							</g>
							<g id="Grupo_54154" transform="translate(56.836 89.164)">
								<path id="Trazado_101634" class="st8" d="M23.6,0.3c-1.5,8.4-0.6,14.6-5.9,21.8c-4.1,5.6-9.4,11.4-15.9,14.3
									c-1.4,0.6-2.6-1.5-1.2-2.1c6.3-2.6,11.3-8.1,15.5-13.4c5.1-6.5,5.1-13.1,7-20.7C23.2-0.1,23.6,0,23.6,0.3L23.6,0.3z"/>
							</g>
							<g id="Grupo_54155" transform="translate(17.02 81.34)">
								<path id="Trazado_101635" class="st8" d="M0.4,0.7c4-1.3,7.6-0.6,11.4,1.3c2.9,1.4,5.7,3.2,8.6,4.7
									c3.2,1.6,8.7,5.3,12.4,4.1c0.9-0.3,1.3,1,0.6,1.4c-3,2-6.5-0.4-9.5-1.7C17.1,7.5,8.3,0.2,0.7,1.8C0.4,1.9,0.1,1.7,0,1.4
									C-0.1,1.1,0.1,0.7,0.4,0.7L0.4,0.7L0.4,0.7z"/>
							</g>
							<g id="Grupo_54156" transform="translate(47.413 56.817)">
								<path id="Trazado_101636" class="st8" d="M21.6,0.2C19,12,13,30.2,1.5,36.2c-1.2,0.6-2.2-1.2-1-1.8
									c11.1-5.8,16.1-23.6,20.8-34.3C21.4-0.1,21.6,0,21.6,0.2L21.6,0.2z"/>
							</g>
							<g id="Grupo_54157" transform="translate(18.075 47.316)">
								<path id="Trazado_101637" class="st8" d="M0.5,0c3.2,0.2,6.4,0.9,9.4,2.2c2.6,1.1,10.6,7.2,13.3,6c1.1-0.5,2.1,1.1,0.9,1.6
									C21.3,11.2,18.5,9,16,7.7C10.8,5,6.2,1.8,0.4,1C-0.2,0.9-0.1,0,0.5,0L0.5,0z"/>
							</g>
							<g id="Grupo_54158" transform="translate(40.52 29.313)">
								<path id="Trazado_101638" class="st8" d="M4.8,0.8c-3.9,8.1,3,19.3-3.3,26.4c-0.3,0.3-0.9,0.3-1.2,0C0,26.9,0,26.6,0,26.3
									c1.4-5.2,1.5-9.6,1.5-15c-0.1-4,0.3-7.6,2.4-11C4,0,4.3-0.1,4.6,0.1C4.8,0.2,4.9,0.5,4.8,0.8L4.8,0.8z"/>
							</g>
						</g>
						<g id="Grupo_54167" transform="translate(1282.313 139.477)">
							<path id="Trazado_101639" class="st9" d="M80.6,2C47.9,9.7,19.5,34.2,0.5,61.1c-1.3,1.8,0.3,3.7,2.2,3.6
								c28.2-0.6,51.9,20.1,80.8,15.9c23.1-3.5,43.1-18.1,53.3-39.1c0.1-0.1,0.2-0.3,0.3-0.5c0.1-0.1,0.1-0.2,0.1-0.3
								c0-0.1,0.1-0.2,0.1-0.3c0.1-0.2,0.1-0.3,0.2-0.5c4.9-12.5-1.8-25.3-12.7-32.3C111.8-0.8,95.4-1.5,80.6,2z"/>
							<g id="Grupo_54160" transform="translate(4.496 27.616)">
								<path id="Trazado_101640" class="st10" d="M133,0.1c-19.8,15.3-44.8,11.2-68.1,12.2c-23.1,0.9-45.8,7.3-64.6,21.1
									c-0.6,0.5,0,1.6,0.7,1.2c22.5-13.3,45.8-20.1,71.9-20.2c20.9-0.1,44.2,1.7,60.9-13.3c0.2-0.2,0.3-0.6,0.1-0.8
									C133.6,0,133.2,0,133,0.1L133,0.1z"/>
							</g>
							<g id="Grupo_54161" transform="translate(89.053 39.667)">
								<path id="Trazado_101641" class="st10" d="M0.7,32.3C7,21.4,19.1,14.2,21.4,1.2c0.2-1.4-1.9-1.6-2.1-0.3
									C17.2,13.6,4.9,20.5,0,31.9C-0.1,32.3,0.4,32.6,0.7,32.3L0.7,32.3z"/>
							</g>
							<g id="Grupo_54162" transform="translate(83.746 15.373)">
								<path id="Trazado_101642" class="st10" d="M0.1,0.4c5.5,2.6,10.7,3,15.2,7.7c4,4.2,8.4,9.7,9.6,15.4c0.3,1.3,2.3,1,2-0.3
									C25.5,17.2,21,11.4,16.6,7.1C11.7,2.3,6.4,2.4,0.3,0C0.2,0,0.1,0,0,0.2C0,0.3,0,0.4,0.1,0.4L0.1,0.4z"/>
							</g>
							<g id="Grupo_54163" transform="translate(68.763 40.271)">
								<path id="Trazado_101643" class="st10" d="M1.1,25.8C0.8,19.5,7.6,13.9,10.8,9c1.6-2.5,4.7-5.6,3.4-8.6
									C14,0,13.6-0.1,13.3,0.1c-0.3,0.1-0.4,0.4-0.4,0.7c0.4,2.5-3,6.6-4.4,8.6c-1.5,2.2-3.2,4.2-4.9,6.2
									c-2.5,3.1-4.2,6.3-3.6,10.4C0.2,26.6,1.1,26.4,1.1,25.8L1.1,25.8z"/>
							</g>
							<g id="Grupo_54164" transform="translate(55.492 20.129)">
								<path id="Trazado_101644" class="st10" d="M0.1,0.3c4.4,2.9,9,5.7,13.2,8.9c4.6,3.5,10.4,7.4,12.1,13.2
									c0.3,1.1,1.9,0.4,1.6-0.7c-1.6-5.3-6.3-8.9-10.6-12.1C11.4,5.6,6,2.5,0.2,0C0,0-0.1,0.2,0.1,0.3L0.1,0.3z"/>
							</g>
							<g id="Grupo_54165" transform="translate(40.468 41.739)">
								<path id="Trazado_101645" class="st10" d="M0.8,18.8c1.3-4.1,3.9-7.1,6.6-10.4c1.6-2,4.9-4.9,4.2-7.7
									c-0.3-1-1.8-0.8-1.6,0.2c0.4,1.8-2.1,4.1-3.1,5.3C5.7,7.5,4.6,9,3.6,10.4c-1.7,2.4-2.9,5.2-3.6,8.1
									C-0.1,19,0.7,19.2,0.8,18.8L0.8,18.8z"/>
							</g>
							<g id="Grupo_54166" transform="translate(29.419 35.72)">
								<path id="Trazado_101646" class="st10" d="M0.2,0.8C2.7,3,5.8,3.8,9.1,4.3c1.9,0.3,3.7,0.4,5.6,0.8c2.4,0.5,4.2,1.5,6.4,2.5
									c0.7,0.3,1.2-0.6,0.8-1.1C17.3,0.4,6.6,4.4,0.7,0.1C0.2-0.2-0.3,0.4,0.2,0.8L0.2,0.8z"/>
							</g>
						</g>
						<g id="Grupo_54175" transform="translate(1296.114 58.45)">
							<path id="Trazado_101647" class="st7" d="M16.4,95C-0.3,67.9-2.8,32.5,2.5,1.8c0.4-2,2.7-2.3,3.9-1
								c18.5,19.3,48.2,21.3,64.7,43.5c13.2,17.8,16.7,41,9.4,61.9c0,0.2-0.1,0.3-0.1,0.5c0,0.1-0.1,0.2-0.1,0.3
								c0,0.1-0.1,0.2-0.1,0.3c-0.1,0.2-0.1,0.3-0.2,0.5c-5.1,11.7-18.1,15.7-30.1,13.1C35.4,117.7,24,107.2,16.4,95z"/>
							<g id="Grupo_54168" transform="translate(5.278 3.984)">
								<path id="Trazado_101648" class="st11" d="M66.5,111.9c-3-23.5-22.4-37.5-37.4-53.8C14.3,42,3.4,22.5,0,0.7
									c-0.1-0.7,1.1-1,1.3-0.3c6.1,23.9,17.2,44.1,34.5,61.7c13.9,14.1,30.7,28.4,31.8,49.7c0,0.3-0.2,0.6-0.5,0.6
									C66.8,112.4,66.5,112.2,66.5,111.9L66.5,111.9z"/>
							</g>
							<g id="Grupo_54169" transform="translate(60.65 53.932)">
								<path id="Trazado_101649" class="st11" d="M8.8,0.4C5.7,11.9,9,24.8,1.8,35.1c-0.8,1.1-2.4-0.2-1.6-1.3
									C7.3,24,3.7,11.1,8.1,0.2C8.2-0.2,8.9,0,8.8,0.4L8.8,0.4z"/>
							</g>
							<g id="Grupo_54170" transform="translate(27.609 87.933)">
								<path id="Trazado_101650" class="st11" d="M0.3,0c5.5,2,9.2,5.2,15.4,5c5.5-0.1,12.1-0.9,16.7-3.9c1-0.7,2.2,0.9,1.1,1.5
									c-5,3.1-11.9,4-17.7,3.9C9.2,6.5,5.8,2.9,0.1,0.4C0,0.3,0,0.2,0,0.1C0.1,0,0.2,0,0.3,0L0.3,0z"/>
							</g>
							<g id="Grupo_54171" transform="translate(43.092 44.102)">
								<path id="Trazado_101651" class="st11" d="M9.1,0.9c-4.4,4-3.6,12.2-4.7,17.7c-0.6,2.7-0.6,6.9-3.5,8
									c-0.3,0.1-0.7-0.1-0.8-0.4C0,26,0,25.7,0.2,25.5c2-1.4,2.4-6.5,2.8-8.7c0.4-2.5,0.6-4.9,0.9-7.4c0.4-3.8,1.4-7,4.6-9.3
									C9-0.3,9.6,0.5,9.1,0.9L9.1,0.9z"/>
							</g>
							<g id="Grupo_54172" transform="translate(11.883 65.897)">
								<path id="Trazado_101652" class="st11" d="M0.2,0C5.1,1,10,2.2,14.9,2.9c5.4,0.7,11.9,2,16.9-0.7c0.9-0.5,1.5,1,0.6,1.5
									c-4.6,2.5-10.2,1.7-15.2,1C11.3,4,5.6,2.5,0.1,0.3C0,0.2,0,0.2,0,0.1C0,0,0.1,0,0.2,0L0.2,0z"/>
							</g>
							<g id="Grupo_54173" transform="translate(23.211 28.965)">
								<path id="Trazado_101653" class="st11" d="M6.2,0.6C4.3,4.2,4,8,3.6,11.9c-0.3,2.4,0,6.6-2.4,8c-0.8,0.5-1.7-0.7-0.9-1.2
									c1.5-0.9,1.3-4.1,1.4-5.6C1.9,11.4,2.1,9.7,2.5,8C3,5.2,4,2.6,5.5,0.2C5.7-0.2,6.4,0.2,6.2,0.6L6.2,0.6z"/>
							</g>
							<g id="Grupo_54174" transform="translate(5.011 37.725)">
								<path id="Trazado_101654" class="st11" d="M0.5,0c3.2,0.2,5.8,1.7,8.4,3.6c1.4,1.1,2.8,2.2,4.3,3.2c1.9,1.3,3.8,1.8,6,2.6
									c0.3,0.2,0.5,0.6,0.3,0.9c-0.1,0.2-0.3,0.4-0.5,0.4C11.7,11.8,7.2,1.9,0.3,0.8C0.1,0.8,0,0.6,0,0.3C0,0.1,0.2,0,0.5,0L0.5,0
									z"/>
							</g>
						</g>
						<g id="Grupo_54183" transform="translate(1241.344 -37.58)">
							<path id="Trazado_101655" class="st12" d="M55,17.6C23.9,43.1,6.3,84.4,0,123.3c-0.4,2.6,2.2,3.8,4.3,2.8
								c30-15.5,66.4-5.7,95.2-25.5c23-15.9,36.8-42.2,36.7-70.2c0-0.2,0.1-0.4,0-0.6c0-0.2,0-0.3,0-0.4c0-0.1,0-0.2,0-0.4
								c0-0.2,0-0.4-0.1-0.6c-1.3-16.1-15.2-26.2-30.6-28C87.1-1.8,69,6.1,55,17.6z"/>
							<g id="Grupo_54176" transform="translate(4.525 14.918)">
								<path id="Trazado_101656" class="st11" d="M126.5,1.1C116.1,27,88.6,36.9,65.5,48.7c-26.9,13.7-47.4,33-64,58.2
									c-0.2,0.4-0.8,0.5-1.2,0.3c-0.4-0.2-0.5-0.7-0.3-1.1c12.7-24.3,33.4-42.9,57.3-56c24.8-13.6,54.4-22.3,67.8-49.6
									C125.6-0.5,126.8,0.2,126.5,1.1L126.5,1.1z"/>
							</g>
							<g id="Grupo_54177" transform="translate(100.767 42.776)">
								<path id="Trazado_101657" class="st11" d="M0,45.2C-0.6,30.3,8.6,16.5,4.4,1.6C4.2,0.9,4.6,0.2,5.3,0.1
									C6-0.1,6.6,0.3,6.8,0.9c4.1,15.3-4.7,29.2-6,44.2c0,0.2-0.2,0.4-0.4,0.4C0.2,45.6,0,45.4,0,45.2L0,45.2z"/>
							</g>
							<g id="Grupo_54178" transform="translate(65.546 28.288)">
								<path id="Trazado_101658" class="st11" d="M0.2,1.9C8.7,1,14.4-1.6,22.8,1.5c6.5,2.4,13.6,5.8,18.1,11.3
									c1,1.2-0.7,2.9-1.7,1.7C35,9.1,28.3,5.8,22.1,3.3c-7.7-3.1-14-1.2-21.8-0.9C-0.1,2.4-0.1,2,0.2,1.9z"/>
							</g>
							<g id="Grupo_54179" transform="translate(73.932 57.768)">
								<path id="Trazado_101659" class="st11" d="M2.3,35c-2.4-3.5-2.7-7.1-2-11.2c0.5-3.2,1.5-6.4,2.1-9.6C3,10.7,5,4.3,2.8,1.1
									C2.3,0.4,3.4-0.4,4,0.2c2.8,2.3,1.4,6.3,1,9.6c-0.8,7.3-5.4,17.8-1.7,24.6c0.2,0.3,0.1,0.7-0.2,0.8S2.5,35.3,2.3,35L2.3,35
									L2.3,35z"/>
							</g>
							<g id="Grupo_54180" transform="translate(37.664 49.992)">
								<path id="Trazado_101660" class="st11" d="M0.2,0.2c12.1-0.8,31.2-0.1,40.1,9.2c0.9,1-0.5,2.4-1.4,1.5
									C30.2,1.9,11.7,2,0.1,0.6C-0.1,0.6,0,0.3,0.2,0.2z"/>
							</g>
							<g id="Grupo_54181" transform="translate(41.916 75.585)">
								<path id="Trazado_101661" class="st11" d="M0.7,25.8c-0.7-3.2-0.9-6.4-0.5-9.7C0.5,13.3,4.1,3.9,2.3,1.7
									C1.5,0.7,2.8-0.6,3.6,0.3c2,2.4,0.8,5.7,0.2,8.5c-1.2,5.7-2.9,11-2.1,16.8C1.8,26.2,0.8,26.4,0.7,25.8z"/>
							</g>
							<g id="Grupo_54182" transform="translate(17.97 75.368)">
								<path id="Trazado_101662" class="st11" d="M0.6,5.2C9.5,6.7,18.4-3.1,26.9,1c0.4,0.2,0.5,0.8,0.3,1.2
									c-0.1,0.2-0.4,0.4-0.7,0.4C21,2.7,16.8,3.8,11.6,5.4C7.8,6.6,4.3,7.2,0.4,6.2C0.1,6.1,0,5.8,0,5.6C0.1,5.3,0.4,5.2,0.6,5.2
									L0.6,5.2z"/>
							</g>
						</g>
						<g id="Grupo_54191" transform="translate(1165.534 -69.461)">
							<path id="Trazado_101663" class="st9" d="M2,58.6c7.7,32.7,32.2,61.1,59.1,80.1c1.8,1.3,3.7-0.3,3.6-2.2
								c-0.6-28.2,20.1-51.9,15.9-80.8C77.2,32.6,62.5,12.6,41.5,2.4c-0.1-0.1-0.3-0.2-0.5-0.3C40.9,2,40.8,2,40.7,2
								c-0.1,0-0.2-0.1-0.3-0.1c-0.2-0.1-0.3-0.1-0.5-0.2C27.4-3.3,14.6,3.4,7.6,14.3C-0.8,27.4-1.5,43.8,2,58.6z"/>
							<g id="Grupo_54184" transform="translate(27.616 0.719)">
								<path id="Trazado_101664" class="st10" d="M0.1,1c15.3,19.8,11.2,44.8,12.2,68.1c0.9,23.1,7.3,45.8,21.1,64.6
									c0.5,0.6,1.6,0,1.2-0.7c-13.3-22.5-20.1-45.8-20.2-71.9C14.3,40.1,16.1,16.9,1.1,0.2C0.8,0,0.5-0.1,0.2,0.2
									C0,0.4,0,0.7,0.1,1L0.1,1z"/>
							</g>
							<g id="Grupo_54185" transform="translate(39.666 28.647)">
								<path id="Trazado_101665" class="st10" d="M32.3,20.8C21.4,14.5,14.2,2.4,1.2,0c-1.4-0.2-1.6,1.9-0.3,2.1
									c12.7,2.1,19.6,14.4,31,19.3C32.3,21.6,32.6,21,32.3,20.8L32.3,20.8z"/>
							</g>
							<g id="Grupo_54186" transform="translate(15.373 28.462)">
								<path id="Trazado_101666" class="st10" d="M0.4,26.8c2.6-5.5,3-10.7,7.7-15.2c4.2-4,9.7-8.4,15.4-9.6c1.3-0.3,1-2.3-0.3-2
									C17.2,1.4,11.4,5.9,7.1,10.3C2.3,15.3,2.4,20.5,0,26.7c0,0.1,0,0.2,0.1,0.3C0.3,27,0.4,26.9,0.4,26.8L0.4,26.8z"/>
							</g>
							<g id="Grupo_54187" transform="translate(40.272 55.886)">
								<path id="Trazado_101667" class="st10" d="M25.8,13.4C19.5,13.7,13.9,6.9,9,3.7C6.6,2.1,3.4-1,0.4,0.3
									C0,0.5-0.1,0.9,0.1,1.2c0.1,0.3,0.4,0.4,0.7,0.4c2.5-0.4,6.6,3,8.6,4.4c2.2,1.5,4.2,3.2,6.2,4.9c3.1,2.5,6.3,4.2,10.4,3.6
									C26.6,14.3,26.4,13.4,25.8,13.4L25.8,13.4z"/>
							</g>
							<g id="Grupo_54188" transform="translate(20.129 56.687)">
								<path id="Trazado_101668" class="st10" d="M0.3,26.9c2.9-4.4,5.7-9,8.9-13.2c3.5-4.6,7.4-10.4,13.2-12.1
									c1.1-0.3,0.4-1.9-0.7-1.6c-5.3,1.6-8.9,6.3-12.1,10.6C5.6,15.6,2.5,21,0,26.8C0,26.9,0.2,27.1,0.3,26.9L0.3,26.9z"/>
							</g>
							<g id="Grupo_54189" transform="translate(41.739 86.99)">
								<path id="Trazado_101669" class="st10" d="M18.8,10.9c-4.1-1.3-7.1-3.9-10.4-6.6c-2-1.6-4.9-4.9-7.7-4.2
									c-1,0.3-0.8,1.8,0.2,1.6c1.8-0.4,4.1,2.1,5.3,3.1C7.5,6,9,7.1,10.4,8.1c2.4,1.7,5.2,2.9,8.1,3.6C19,11.8,19.2,11,18.8,10.9z
									"/>
							</g>
							<g id="Grupo_54190" transform="translate(35.72 87.7)">
								<path id="Trazado_101670" class="st10" d="M0.8,21.9c2.2-2.6,3.1-5.6,3.6-8.9c0.3-1.9,0.4-3.7,0.8-5.6
									C5.6,4.9,6.7,3.2,7.7,1C8,0.3,7.1-0.3,6.5,0.1C0.4,4.7,4.4,15.5,0.1,21.4C-0.2,21.8,0.4,22.3,0.8,21.9L0.8,21.9z"/>
							</g>
						</g>
						<g id="Grupo_54199" transform="translate(1040.258 -81.989)">
							<path id="Trazado_101671" class="st9" d="M2,58.6c7.7,32.7,32.2,61.1,59.1,80.1c1.8,1.3,3.7-0.3,3.6-2.2
								c-0.6-28.2,20.1-51.9,15.9-80.8C77.2,32.6,62.5,12.6,41.5,2.4c-0.1-0.1-0.3-0.2-0.5-0.3C40.9,2,40.8,2,40.7,2
								c-0.1,0-0.2-0.1-0.3-0.1c-0.2-0.1-0.3-0.1-0.5-0.2C27.4-3.3,14.6,3.4,7.6,14.3C-0.8,27.4-1.5,43.8,2,58.6z"/>
							<g id="Grupo_54192" transform="translate(27.616 0.719)">
								<path id="Trazado_101672" class="st10" d="M0.1,1c15.3,19.8,11.2,44.8,12.2,68.1c0.9,23.1,7.3,45.8,21.1,64.6
									c0.5,0.6,1.6,0,1.2-0.7c-13.3-22.5-20.1-45.8-20.2-71.9C14.3,40.1,16.1,16.9,1.1,0.2C0.8,0,0.5-0.1,0.2,0.1
									C0,0.4,0,0.7,0.1,1L0.1,1z"/>
							</g>
							<g id="Grupo_54193" transform="translate(39.666 28.647)">
								<path id="Trazado_101673" class="st10" d="M32.3,20.8C21.4,14.5,14.2,2.4,1.2,0c-1.4-0.2-1.6,1.9-0.3,2.1
									c12.7,2.1,19.6,14.4,31,19.3C32.3,21.6,32.6,21,32.3,20.8z"/>
							</g>
							<g id="Grupo_54194" transform="translate(15.373 28.462)">
								<path id="Trazado_101674" class="st10" d="M0.4,26.8c2.6-5.5,3-10.7,7.7-15.2c4.2-4,9.7-8.4,15.4-9.6c1.3-0.3,1-2.3-0.3-2
									C17.2,1.4,11.4,5.9,7.1,10.3C2.3,15.3,2.4,20.5,0,26.7c0,0.1,0,0.2,0.1,0.3C0.3,27,0.4,26.9,0.4,26.8L0.4,26.8z"/>
							</g>
							<g id="Grupo_54195" transform="translate(40.271 55.886)">
								<path id="Trazado_101675" class="st10" d="M25.8,13.4C19.5,13.7,13.9,6.9,9,3.7C6.6,2.1,3.4-1,0.4,0.3
									C0,0.5-0.1,0.9,0.1,1.2c0.1,0.3,0.4,0.4,0.7,0.4c2.5-0.4,6.6,3,8.6,4.4c2.2,1.5,4.2,3.2,6.2,4.8c3.1,2.5,6.3,4.2,10.4,3.6
									C26.6,14.3,26.4,13.4,25.8,13.4L25.8,13.4z"/>
							</g>
							<g id="Grupo_54196" transform="translate(20.128 56.687)">
								<path id="Trazado_101676" class="st10" d="M0.3,26.9c2.9-4.4,5.7-9,8.9-13.2c3.5-4.6,7.4-10.4,13.2-12.1
									c1.1-0.3,0.4-1.9-0.7-1.6c-5.3,1.6-8.9,6.3-12.1,10.6C5.6,15.6,2.5,21,0,26.8C0,26.9,0.2,27.1,0.3,26.9L0.3,26.9z"/>
							</g>
							<g id="Grupo_54197" transform="translate(41.739 86.99)">
								<path id="Trazado_101677" class="st10" d="M18.8,10.9c-4.1-1.3-7.1-3.9-10.4-6.6c-2-1.6-4.9-4.9-7.7-4.2
									c-1,0.3-0.8,1.8,0.2,1.6c1.8-0.4,4.1,2.1,5.3,3.1C7.5,6,9,7.1,10.5,8.1c2.4,1.7,5.2,2.9,8.1,3.6C19,11.8,19.2,11,18.8,10.9
									L18.8,10.9z"/>
							</g>
							<g id="Grupo_54198" transform="translate(35.72 87.701)">
								<path id="Trazado_101678" class="st10" d="M0.8,21.9c2.2-2.6,3.1-5.6,3.6-8.9c0.3-1.9,0.4-3.7,0.8-5.6
									C5.6,4.9,6.7,3.2,7.7,1C8,0.3,7.1-0.3,6.5,0.1C0.4,4.7,4.4,15.5,0.1,21.4C-0.2,21.8,0.4,22.3,0.8,21.9L0.8,21.9z"/>
							</g>
						</g>
						<g id="Grupo_54207" transform="translate(1087.639 -15.782)">
							<path id="Trazado_101679" class="st12" d="M95,67.8C67.9,84.5,32.5,87,1.8,81.7c-2-0.4-2.3-2.7-1-3.9
								c19.3-18.5,21.3-48.2,43.5-64.7C62.1,0,85.3-3.5,106.2,3.7c0.2,0,0.3,0.1,0.5,0.1c0.1,0,0.2,0.1,0.3,0.1
								c0.1,0,0.2,0.1,0.3,0.1c0.2,0.1,0.3,0.1,0.5,0.2c11.7,5.1,15.7,18.1,13.1,30.1C117.7,48.8,107.2,60.2,95,67.8z"/>
							<g id="Grupo_54200" transform="translate(3.984 11.342)">
								<path id="Trazado_101680" class="st11" d="M111.9,1.1c-23.5,3-37.5,22.4-53.8,37.4C42,53.3,22.5,64.2,0.7,67.6
									c-0.7,0.1-1-1.1-0.3-1.3c23.9-6.1,44.1-17.2,61.7-34.5C76.2,17.8,90.5,1.1,111.8,0c0.3,0,0.6,0.2,0.6,0.5
									C112.4,0.8,112.2,1.1,111.9,1.1L111.9,1.1z"/>
							</g>
							<g id="Grupo_54201" transform="translate(53.932 14.784)">
								<path id="Trazado_101681" class="st11" d="M0.4,0C11.9,3.1,24.8-0.2,35.1,7c1.1,0.8-0.2,2.4-1.3,1.6
									C24,1.5,11.1,5.1,0.2,0.7C-0.2,0.5,0-0.1,0.4,0L0.4,0z"/>
							</g>
							<g id="Grupo_54202" transform="translate(87.933 22.678)">
								<path id="Trazado_101682" class="st11" d="M0,33.6c2-5.5,5.2-9.2,5-15.4C4.9,12.8,4.2,6.2,1.1,1.5C0.5,0.5,2-0.6,2.7,0.4
									c3.1,5,4,11.9,3.9,17.7c-0.1,6.5-3.7,10-6.2,15.7c0,0.1-0.2,0.2-0.3,0.1C0,33.9,0,33.7,0,33.6L0,33.6z"/>
							</g>
							<g id="Grupo_54203" transform="translate(44.102 31.828)">
								<path id="Trazado_101683" class="st11" d="M0.9,0.2c4,4.4,12.2,3.6,17.7,4.7c2.7,0.6,6.9,0.6,8,3.5c0.1,0.3-0.1,0.7-0.4,0.8
									c-0.2,0.1-0.5,0-0.7-0.2c-1.4-2-6.5-2.4-8.7-2.8c-2.5-0.4-4.9-0.7-7.4-0.9c-3.8-0.4-7-1.4-9.3-4.6C-0.3,0.2,0.5-0.3,0.9,0.2
									L0.9,0.2z"/>
							</g>
							<g id="Grupo_54204" transform="translate(65.897 39.433)">
								<path id="Trazado_101684" class="st11" d="M0,32.7c1-4.9,2.2-9.8,2.9-14.8C3.6,12.5,4.9,6.1,2.2,1c-0.5-0.9,1-1.5,1.5-0.6
									c2.5,4.6,1.7,10.2,1,15.2C4,21.6,2.5,27.3,0.3,32.8c0,0.1-0.1,0.1-0.2,0.1C0,32.8,0,32.8,0,32.7L0,32.7z"/>
							</g>
							<g id="Grupo_54205" transform="translate(28.964 54.767)">
								<path id="Trazado_101685" class="st11" d="M0.6,0C4.2,2,8,2.2,11.9,2.6c2.4,0.3,6.6,0,8,2.4c0.5,0.8-0.7,1.7-1.2,0.9
									c-0.9-1.5-4.1-1.3-5.6-1.4C11.4,4.3,9.7,4.1,8,3.8c-2.8-0.5-5.4-1.5-7.8-3C-0.2,0.5,0.2-0.2,0.6,0L0.6,0z"/>
							</g>
							<g id="Grupo_54206" transform="translate(37.725 59.739)">
								<path id="Trazado_101686" class="st11" d="M0,19c0.2-3.2,1.7-5.8,3.6-8.4c1.1-1.4,2.2-2.8,3.2-4.3c1.3-1.9,1.8-3.8,2.6-6
									c0.2-0.3,0.6-0.5,0.9-0.3c0.2,0.1,0.4,0.3,0.4,0.5c1.1,7.2-8.8,11.7-9.9,18.5c0,0.2-0.3,0.4-0.5,0.3C0.1,19.4,0,19.2,0,19
									L0,19z"/>
							</g>
						</g>
						<path id="Trazado_101687" class="st13" d="M1449.5,512.6c0,0-155.5-135.7-442.6-78.3c0,0,263.1-36.5,422.8,120.1L1449.5,512.6
							z"/>
					</g>
				</g>
			</g>
			<g id="Grupo_54211" transform="translate(888.934 32.187)" class="st14">
				<path id="Trazado_101688" class="st15" d="M18,17.2"/>
				<g id="Grupo_54210">
					<path id="Trazado_101689" class="st15" d="M18,34.3C-6,34.3-6,0,18,0C42,0,42,34.3,18,34.3z"/>
				</g>
			</g>
			<g id="Grupo_61026" transform="translate(1021.934 15.036)" class="st14">
				<path id="Trazado_101688-2" class="st15" d="M9,8.6"/>
				<g id="Grupo_54210-2">
					<path id="Trazado_101689-2" class="st15" d="M9,17.2C-3,17.2-3,0,9,0C21,0,21,17.2,9,17.2z"/>
				</g>
			</g>
			<g id="Grupo_61027" transform="translate(1230.126 178.212)" class="st16">
				<path id="Trazado_101688-3" class="st15" d="M6.3,6"/>
				<g id="Grupo_54210-3">
					<path id="Trazado_101689-3" class="st15" d="M6.3,12C3,12.2,0.1,9.7-0.1,6.4C-0.3,3.1,2.2,0.2,5.5,0C5.8,0,6,0,6.3,0
						c3.3-0.2,6.2,2.3,6.4,5.6c0.2,3.3-2.3,6.2-5.6,6.4C6.8,12,6.5,12,6.3,12z"/>
				</g>
			</g>
			<g id="Grupo_54213" transform="translate(1253.226 290.815)" class="st14">
				<path id="Trazado_101690" class="st15" d="M11.9,11.3"/>
				<g id="Grupo_54212" transform="translate(0)">
					<path id="Trazado_101691" class="st15" d="M11.9,22.7C-4,22.7-4,0,11.9,0C27.8,0,27.8,22.7,11.9,22.7z"/>
				</g>
			</g>
			<g id="Grupo_61029" transform="translate(1242.227 269.815)" class="st17">
				<path id="Trazado_101690-2" class="st15" d="M5.1,4.9"/>
				<g id="Grupo_54212-2" transform="translate(0)">
					<path id="Trazado_101691-2" class="st15" d="M5.1,9.8c-2.7,0.1-5-2-5.1-4.7c-0.1-2.7,2-5,4.7-5.1C4.9,0,5,0,5.1,0
						c2.7-0.1,5,2,5.1,4.7c0.1,2.7-2,5-4.7,5.1C5.4,9.8,5.3,9.8,5.1,9.8z"/>
				</g>
			</g>
			<g id="Grupo_54215" transform="translate(1236.414 103.77)" class="st14">
				<path id="Trazado_101692" class="st15" d="M11.9,11.3"/>
				<g id="Grupo_54214" transform="translate(0)">
					<path id="Trazado_101693" class="st15" d="M11.9,22.7C-4,22.7-4,0,11.9,0C27.8,0,27.8,22.7,11.9,22.7z"/>
				</g>
			</g>
			<g id="Grupo_54217" transform="translate(877.029 26.66)" class="st18">
				<path id="Trazado_101694" class="st15" d="M11.9,11.3"/>
				<g id="Grupo_54216" transform="translate(0)">
					<path id="Trazado_101695" class="st15" d="M11.9,22.7C-4,22.7-4,0,11.9,0C27.8,0,27.8,22.7,11.9,22.7z"/>
				</g>
			</g>
			<g id="Grupo_61028" transform="translate(1104.029 130.66)" class="st14">
				<path id="Trazado_101694-2" class="st15" d="M11.9,11.3"/>
				<g id="Grupo_54216-2" transform="translate(0)">
					<path id="Trazado_101695-2" class="st15" d="M11.9,22.7C-4,22.7-4,0,11.9,0C27.8,0,27.8,22.7,11.9,22.7z"/>
				</g>
			</g>
			<g id="Grupo_61033" transform="translate(211.029 26.66)" class="st14">
				<path id="Trazado_101694-3" class="st15" d="M7.6,7.2"/>
				<g id="Grupo_54216-3" transform="translate(0)">
					<path id="Trazado_101695-3" class="st15" d="M7.6,14.4C-2.5,14.4-2.5,0,7.6,0C17.6,0,17.6,14.4,7.6,14.4z"/>
				</g>
			</g>
			<g id="Grupo_61034" transform="translate(154.029 60.168)" class="st14">
				<path id="Trazado_101694-4" class="st15" d="M4.6,4.4"/>
				<g id="Grupo_54216-4" transform="translate(0)">
					<path id="Trazado_101695-4" class="st15" d="M4.6,8.8C2.2,8.9,0.1,7.1,0,4.6S1.8,0.1,4.2,0c0.1,0,0.3,0,0.4,0
						c2.4-0.1,4.5,1.8,4.6,4.2S7.5,8.7,5.1,8.8C4.9,8.8,4.8,8.8,4.6,8.8z"/>
				</g>
			</g>
			<g id="Grupo_54219" transform="translate(284.319 282.287)" class="st14">
				<path id="Trazado_101696" class="st15" d="M11.9,11.3"/>
				<g id="Grupo_54218" transform="translate(0)">
					<path id="Trazado_101697" class="st15" d="M11.9,22.7C-4,22.7-4,0,11.9,0C27.8,0,27.8,22.7,11.9,22.7z"/>
				</g>
			</g>
			<g id="Grupo_54221" transform="translate(672.673 269.76)" class="st14">
				<path id="Trazado_101698" class="st15" d="M11.9,11.3"/>
				<g id="Grupo_54220" transform="translate(0)">
					<path id="Trazado_101699" class="st15" d="M11.9,22.7C-4,22.7-4,0,11.9,0C27.8,0,27.8,22.7,11.9,22.7z"/>
				</g>
			</g>
			<g id="Grupo_54223" transform="translate(284.319 53.659)" class="st14">
				<path id="Trazado_101700" class="st15" d="M11.9,11.3"/>
				<g id="Grupo_54222" transform="translate(0)">
					<path id="Trazado_101701" class="st15" d="M11.9,22.7C-4,22.7-4,0,11.9,0C27.8,0,27.8,22.7,11.9,22.7z"/>
				</g>
			</g>
			<g id="Grupo_61030" transform="translate(1007.127 73.66)" class="st19">
				<path id="Trazado_101694-5" class="st15" d="M1.7,1.6"/>
				<g id="Grupo_54216-5" transform="translate(0)">
					<path id="Trazado_101695-5" class="st15" d="M1.7,3.2C0.8,3.3,0,2.6,0,1.7C0,0.8,0.6,0,1.5,0c0.1,0,0.1,0,0.2,0
						c0.9,0,1.6,0.6,1.7,1.5c0,0.9-0.6,1.6-1.5,1.7C1.8,3.2,1.7,3.2,1.7,3.2z"/>
				</g>
			</g>
			<g id="Grupo_61031" transform="translate(1160.127 85.66)" class="st19">
				<path id="Trazado_101694-6" class="st15" d="M3.9,3.7"/>
				<g id="Grupo_54216-6" transform="translate(0)">
					<path id="Trazado_101695-6" class="st15" d="M3.9,7.3C1.8,7.4,0.1,5.9,0,3.9c-0.1-2,1.5-3.8,3.5-3.9c0.1,0,0.2,0,0.4,0
						c2-0.1,3.8,1.5,3.9,3.5c0.1,2-1.5,3.8-3.5,3.9C4.1,7.4,4,7.4,3.9,7.3z"/>
				</g>
			</g>
			<g id="Grupo_61032" transform="translate(1273.18 149.664)" class="st19">
				<path id="Trazado_101694-7" class="st15" d="M1.9,1.8"/>
				<g id="Grupo_54216-7" transform="translate(0)">
					<path id="Trazado_101695-7" class="st15" d="M1.9,3.7C0.9,3.7,0,2.9,0,1.9c-0.1-1,0.7-1.9,1.7-1.9c0.1,0,0.1,0,0.2,0
						c1-0.1,1.9,0.7,1.9,1.7c0.1,1-0.7,1.9-1.7,1.9C2.1,3.7,2,3.7,1.9,3.7z"/>
				</g>
			</g>
		</g>
	</g>
</g>
</svg>
