<svg xmlns="http://www.w3.org/2000/svg" width="313.682" height="300.029" viewBox="0 0 313.682 300.029">
  <g id="Grupo_84164" data-name="Grupo 84164" transform="translate(-1064.157 -1430.632)">
    <path id="Trazado_133792" data-name="Trazado 133792" d="M1205.339,1430.774c37.678-1.851,54.25,14.493,61.205,42.12,3.364,13.361,4.538,27.277,9.007,40.31s13.128,25.649,26.149,30.155c14.811,5.126,31.38-1.31,46.7,2,15.2,3.284,27.538,16.991,29.218,32.446,1.121,10.31-2.117,20.689-7.023,29.826-10.177,18.955-27.227,33.347-45.4,44.855-43,27.222-95.966,40.591-145.823,30.388s-95.253-45.952-111.041-94.332c-3.5-10.726-5.565-22.29-3.069-33.293s10.316-21.3,21.21-24.237c11.846-3.192,25.777,2.309,36.069-4.37,9.375-6.085,10.717-18.9,13.164-29.8,7.513-33.491,34.461-62.585,69.64-66.066" transform="translate(0 0)" fill="#f7ce60"/>
    <g id="Grupo_84143" data-name="Grupo 84143" transform="translate(1097.113 1540.446)">
      <path id="Trazado_133793" data-name="Trazado 133793" d="M1201.479,1842.329a75.447,75.447,0,0,0,6.581-12.8,73.8,73.8,0,0,0,2.91-8.51c-.7-.193-1.387-.418-2.073-.679a72.279,72.279,0,0,1-8.736,20.151c-.152-.273-.3-.547-.451-.821a1.057,1.057,0,0,0,.144-.512c.249-7.326.482-15.153,3.569-21.933a19.168,19.168,0,0,1-1.618-1.455c-.119.26-.234.52-.346.776a35.956,35.956,0,0,0-2.141,6.626,74.624,74.624,0,0,0-1.448,13.065q-3.455-6.622-6.347-13.517a67.735,67.735,0,0,0,7.752-10.135,20.934,20.934,0,0,1-1.157-2.121q-.295.493-.6.98a64.155,64.155,0,0,1-5.306,7.324,39.641,39.641,0,0,1,4.116-13.542,31.315,31.315,0,0,1-.561-3.306l-.088.148a42.013,42.013,0,0,0-2.741,5.523,41.206,41.206,0,0,0-2.869,11.563q-3.049-7.741-5.37-15.75c3.327-7.15,9.611-12.616,12.07-20.218.53-1.64.9-3.661-.13-5.193a3.587,3.587,0,0,0-4.855-.776c-1.736,1.036-3.007,3.026-4.022,4.722a29.623,29.623,0,0,0-2.66,5.928,48.6,48.6,0,0,0-1.982,9.687c-.044-.173-.085-.346-.128-.519q-.77-3.081-1.434-6.188-1.238-5.811-2.083-11.7.862-.366,1.743-.746.988-.427,1.987-.88c5.594-2.545,11.243-5.777,14.3-11.087a5.812,5.812,0,0,0,.573-5.3,3.848,3.848,0,0,0-4.056-2.258,9.929,9.929,0,0,0-4.911,2.651,34.572,34.572,0,0,0-4.348,4.4c-.822.984-1.6,2-2.344,3.041a63.756,63.756,0,0,0,1.543-6.437,66.8,66.8,0,0,0,.981-7.887c.154-2.421.447-5.314-.974-7.445a4.379,4.379,0,0,0-5.213-1.928c-1.72.715-2.545,2.547-2.869,4.278-.08.427-.139.859-.183,1.294a44.614,44.614,0,0,0-.072,5.343q0,.26.008.519.048,3.809.262,7.613.135,2.389.335,4.773c-.446-1.236-.9-2.467-1.38-3.691-1.11-2.847-2.2-6.934-5.216-8.356a4.045,4.045,0,0,0-6.008,3.552,7.548,7.548,0,0,0,1.622,4.4c1.052,1.524,2.2,2.99,3.366,4.429a90.264,90.264,0,0,0,8.417,9.045,1.152,1.152,0,0,0,.344.765q1.158,8.162,3.064,16.193c-1.326-2.562-2.721-5.086-4.26-7.527-2.79-4.425-6.132-8.978-10.343-12.16-1.821-1.376-4.5-2.283-6.291-.347-1.847,2-.976,4.838.236,6.893,2.543,4.313,6.207,7.831,10,11.033,3.365,2.838,6.891,5.5,10.126,8.482q.88.812,1.728,1.659c.4.4.8.811,1.191,1.229a1.184,1.184,0,0,0,.089.083q2.087,7.091,4.752,14a96.089,96.089,0,0,0-8.221-8.549q-.824-.736-1.675-1.435a36.294,36.294,0,0,0-8.6-5.373c-1.864-.8-4.111-1.239-5.877.046a4.122,4.122,0,0,0-1.108,5.107c.9,2.026,2.939,3.151,4.769,4.212q3.316,1.923,6.712,3.7c.151.079.3.156.454.234q.929.483,1.862.955,6.592,3.329,13.439,6.116a1.055,1.055,0,0,0,.3.075c.056.134.11.269.167.4q2.474,5.84,5.358,11.491c-3.078-2.2-6.191-4.35-9.461-6.255a58.137,58.137,0,0,0-6.278-3.2c-1.909-.821-4.025-1.5-6.077-.773a4.317,4.317,0,0,0-2.953,3.933,6.379,6.379,0,0,0,2.526,5c3.2,2.687,7.39,4.325,11.368,5.449a94.457,94.457,0,0,0,14.468,2.528q3.015,5.333,6.394,10.452c.079-.406.156-.812.235-1.217s.16-.8.24-1.2c.035-.174.072-.347.107-.521q-2.35-3.659-4.517-7.428A1.133,1.133,0,0,0,1201.479,1842.329Zm-10.625-61.251c.7-.931,3.342-3.919,4.221-1.578.52,1.384-.306,3.238-.816,4.507a42.79,42.79,0,0,1-5.32,8.834c-1.3,1.8-2.609,3.589-3.8,5.458C1185.823,1792.186,1187.115,1786.07,1190.855,1781.078Zm-20.261-12.535c-1.225-1.489-2.428-3.01-3.523-4.6-.851-1.236-2.016-3.183-.941-4.646,1.147-1.561,3.264-.194,4.092.938a22.255,22.255,0,0,1,2.331,4.972c1.208,3.038,2.289,6.123,3.343,9.216Q1173.119,1771.6,1170.594,1768.543Zm11.853,4.039c2.558-3.969,5.468-7.755,9.283-10.459,1.139-.807,3.252-2,4.3-.422.985,1.486-.014,3.328-.9,4.582a24.528,24.528,0,0,1-7.394,6.509,52.146,52.146,0,0,1-4.817,2.561q-.976.462-1.964.9-.519.231-1.039.457.439-.736.888-1.477C1181.333,1774.347,1181.881,1773.46,1182.447,1772.582Zm-4.521-9.77q-.085-1.781-.134-3.565-.046-1.7-.064-3.4c-.013-1.287-.009-2.574.02-3.859.034-1.468.163-3.854,1.613-4.694a2.213,2.213,0,0,1,2.81.961,6.426,6.426,0,0,1,.8,3.769,56.7,56.7,0,0,1-.756,8.439c-.308,1.926-.71,3.836-1.192,5.725-.344,1.349-.727,2.688-1.158,4.013q-.517,1.588-1.116,3.148Q1178.178,1768.1,1177.925,1762.812Zm-13.783,22.039c-1.355-1.65-3.2-3.841-3.529-6.012-.142-.95.146-2.191,1.217-2.455,1.159-.286,2.438.725,3.255,1.415a47.7,47.7,0,0,1,9.3,11.162c2.042,3.24,3.833,6.626,5.542,10.052C1174.593,1794.365,1168.659,1790.351,1164.143,1784.851Zm13.573,31.351-.748-.375q-.931-.467-1.864-.939a93.373,93.373,0,0,1-8.874-4.992c-1.277-.835-3.382-2.869-1.978-4.5,1.371-1.592,4.062-.139,5.476.587a39.013,39.013,0,0,1,7.235,4.892q.838.7,1.646,1.442.256.233.509.469c2.466,2.3,4.744,4.794,6.969,7.33Q1181.852,1818.269,1177.716,1816.2Zm-.406,18.619a10.853,10.853,0,0,1-4.184-3.352c-.909-1.49-.678-3.454,1.16-4.012,1.929-.584,4.049.561,5.749,1.362,1.78.839,3.511,1.778,5.2,2.781,3.89,2.306,7.565,4.949,11.232,7.589a.89.89,0,0,0,.688.182c.149.276.3.553.448.829C1190.649,1839.348,1183.492,1838.28,1177.309,1834.82Z" transform="translate(-1158.496 -1744.99)" fill="#ebba51"/>
      <path id="Trazado_133794" data-name="Trazado 133794" d="M1712.155,1917.1c.827-2.575,1.6-5.168,2.186-7.81.362-1.642.705-3.372.911-5.112a22.832,22.832,0,0,0,.082-5.233,3.534,3.534,0,0,0-1.739-3,2.421,2.421,0,0,0-1.043-.228,3.1,3.1,0,0,0-2.439,1.336c-.934,1.311-.98,3.134-1.163,4.678-.222,1.877-.364,3.762-.449,5.649-.191,4.213-.1,8.431-.014,12.646q-3.179,2.416-6.544,4.572c-.908.581-1.828,1.142-2.755,1.694a80.034,80.034,0,0,0,2.378-9.545q.512-2.788.829-5.607a19.031,19.031,0,0,0,.245-5,3.123,3.123,0,0,0-1.909-2.634c-.248.29-.5.576-.765.853a18.391,18.391,0,0,1-4.273,3.31,18.174,18.174,0,0,0-.418,6.3c.29,4.542.624,9.081.937,13.621a1.123,1.123,0,0,0,.084.361q-2.995,1.648-6.1,3.082.133,1.076.266,2.153,3.378-1.537,6.631-3.318a34.348,34.348,0,0,0,19.589,3.228c.4-.053.828-.1,1.258-.18a4.125,4.125,0,0,0,2.148-.917,2.371,2.371,0,0,0,.316-.362,2.288,2.288,0,0,0-.1-2.745,3.386,3.386,0,0,0-.639-.673,6.437,6.437,0,0,0-1.361-.821c-2.331-1.061-5.362-.991-7.743-.8-3.016.246-6.076.868-9.111.733q3.675-2.259,7.15-4.82a1.15,1.15,0,0,0,.249.127,27.686,27.686,0,0,0,9.453,1.414c.688,0,1.375,0,2.062-.017q.567-.012,1.134-.027c4-.11,8.149-.192,11.967-1.527a10.524,10.524,0,0,0,4.819-2.867,3.046,3.046,0,0,0-.38-4.526c-1.672-1.231-4.094-.754-6.009-.552-2.216.234-4.419.584-6.6,1.022-1.819.365-3.624.792-5.419,1.256q-1.022.264-2.042.543c-1.407.386-2.808.789-4.207,1.2q2-1.679,3.916-3.459.939-.872,1.858-1.766,1.625-1.586,3.18-3.242a112.164,112.164,0,0,0,11.45-1.665,48.671,48.671,0,0,0,5.431-1.469,24.177,24.177,0,0,0,5.073-2.157c1.2-.755,2.342-2.023,1.96-3.556s-1.978-2.238-3.4-2.424a12.862,12.862,0,0,0-5.632.916c-1.721.566-3.428,1.179-5.1,1.869-1.4.576-2.766,1.2-4.1,1.9q2.37-3,4.514-6.168A51.488,51.488,0,0,0,1751.723,1886c1.176-1.112,2.858-2.45,2.884-4.225a3.067,3.067,0,0,0-2.993-2.879,9.777,9.777,0,0,0-5.362,1.744,30.4,30.4,0,0,0-4.506,3.473q-1.376,1.228-2.689,2.521,1.726-3.412,3.189-6.952a.956.956,0,0,0,.307-.4,41.432,41.432,0,0,0,3.2-10.917c.227-1.576.634-3.437.084-4.986a3.03,3.03,0,0,0-3.255-2.019c-3.444.368-4.6,4.876-5.244,7.649-.937,4.032-1.732,8.1-2.592,12.15l-1.48,6.969q-.168-2.048-.385-4.093-.309-2.888-.718-5.765a30.933,30.933,0,0,0-.857-5.076,3.14,3.14,0,0,0-2.526-2.442,3.235,3.235,0,0,0-3.189,2.223c-1.33,3.338.314,7.26,1.344,10.45q2,6.2,4.4,12.27a.984.984,0,0,0-.317.5,100.383,100.383,0,0,1-6.687,8.805,66.424,66.424,0,0,0,.043-8.243c-.1-1.817-.29-3.628-.539-5.431a28.565,28.565,0,0,0-.946-5.112,3,3,0,0,0-2.579-2.339,3.149,3.149,0,0,0-2.924,2.342,13.725,13.725,0,0,0-.233,4.992,36.4,36.4,0,0,0,.769,5.232,81.1,81.1,0,0,0,3.691,11.465.912.912,0,0,0-.281.471q-1.162,1.25-2.366,2.46-.9.9-1.819,1.783Q1714.724,1914.943,1712.155,1917.1Zm-14.739-2.4a25.46,25.46,0,0,1-.037-4.929c.17-1.338.742-3.744,2.231-4.238,1.531-.508.936,3.149.875,3.815q-.276,3.041-.8,6.052-.663,3.83-1.7,7.577Q1697.7,1918.836,1697.416,1914.7Zm11.571,14.147a28.113,28.113,0,0,1,5.181-.208,11.9,11.9,0,0,1,2.547.467,7.734,7.734,0,0,1,1.494.578c.344.2.592.43.528.687-.046.188-.294.314-.6.4a9.951,9.951,0,0,1-1.37.214,29.939,29.939,0,0,1-3,.285,32.9,32.9,0,0,1-5.486-.2,31.538,31.538,0,0,1-6.979-1.677A51.21,51.21,0,0,0,1708.987,1928.845Zm1.565-20.458c.071-2.023.2-4.045.421-6.058.072-.662.334-5.25,1.786-4.465.5.269.512,1.259.533,1.737a27.238,27.238,0,0,1-.042,2.767,39.2,39.2,0,0,1-.8,5.78c-.514,2.455-1.2,4.868-1.952,7.261C1710.467,1913.068,1710.47,1910.727,1710.552,1908.386Zm7.489,11.079q1.018-.282,2.039-.55a76.24,76.24,0,0,1,13.408-2.433,7.023,7.023,0,0,1,2.665.034c1.106.381,1.031,1.239.319,1.992a10.258,10.258,0,0,1-4.558,2.271,40.807,40.807,0,0,1-10.23,1.132q-.7.02-1.394.034c-.691.014-1.382.02-2.073.014a30.162,30.162,0,0,1-6.487-.653C1713.825,1920.677,1715.927,1920.052,1718.041,1919.466Zm20.092-44.215c.677-3.187,1.075-6.687,2.5-9.646.417-.865,1.662-2.927,2.91-2.01.935.688.341,3.059.219,3.979a38.971,38.971,0,0,1-2.847,10.27,1.1,1.1,0,0,0-.344.462,95.939,95.939,0,0,1-5.5,11.357Zm2.437,12.83a33,33,0,0,1,7.642-6.135c.757-.388,4.167-1.938,4.3-.167.049.636-.862,1.364-1.266,1.768q-.929.93-1.907,1.81a48.8,48.8,0,0,1-14.505,9A78.845,78.845,0,0,1,1740.57,1888.081Zm-11.309-4.244c-.619-1.885-1.287-3.781-1.732-5.715a9.653,9.653,0,0,1-.281-3.151c.07-.675.318-2.143,1.249-2.125,1.168.024,1.262,3.416,1.376,4.163q.472,3.1.821,6.218.362,3.23.595,6.473Q1730.231,1886.784,1729.261,1883.837Zm3.98,19.652c1.8-.729,3.627-1.382,5.476-1.962a12.353,12.353,0,0,1,3.1-.672c.681-.031,2.149-.031,2.553.706,1.04,1.9-8.532,4.309-9.8,4.605a83.432,83.432,0,0,1-9.269,1.531A40.5,40.5,0,0,1,1733.241,1903.489Zm-13.132-6.841a33.933,33.933,0,0,1-.866-5.431c-.065-.927-.6-4.837.777-5.2,1.52-.4,2.126,8.785,2.208,9.948a66.027,66.027,0,0,1,.075,7.83A66.042,66.042,0,0,1,1720.109,1896.648Z" transform="translate(-1504.457 -1820.7)" fill="#ebba51"/>
      <path id="Trazado_133795" data-name="Trazado 133795" d="M1688.8,1773.413c-1.49,1.583-1.733,4.388-1.751,6.37a97.476,97.476,0,0,0,.793,10.451q.55,5.544,1.256,11.072c-.422,1.24-.863,2.47-1.307,3.695a64.677,64.677,0,0,0-.751-6.526q-.433-2.577-1.076-5.113a14.545,14.545,0,0,0-1.353-4.041,2.718,2.718,0,0,0-5.08.613c-.423,1.5.2,3.079.622,4.507q.744,2.535,1.563,5.047,1.83,5.616,4.015,11.107-.147.4-.3.795a.868.868,0,0,0-.293.784c-.614,1.635-1.244,3.264-1.906,4.879a53.164,53.164,0,0,0-1.306-8.163c-.4-1.656-.894-3.286-1.45-4.9a17.458,17.458,0,0,0-1.793-4.254,2.576,2.576,0,0,0-2.791-1.207,3.276,3.276,0,0,0-2.071,2.712c-.018.1-.034.195-.048.293q1.189,1.345,2.263,2.789a5.013,5.013,0,0,1-.011-3.229c.755-1.643,1.743,1.564,1.959,2.128a49.613,49.613,0,0,1,1.642,5.092q.383,1.446.679,2.914a67.645,67.645,0,0,1,4.424,11.14,34.224,34.224,0,0,0,15.366-2.111c1.273-.482,2.97-1.105,3.121-2.69.166-1.745-1.657-2.637-3.1-2.9a12.71,12.71,0,0,0-5.127.423,57.148,57.148,0,0,0-10.075,3.355c.749-1.794,1.457-3.606,2.143-5.425a1.144,1.144,0,0,0,.193.02,28.317,28.317,0,0,0,11.218-2.091,27.239,27.239,0,0,0,5.037-2.722c1.1-.747,2.923-1.936,2.066-3.516-.784-1.446-2.755-.926-4.036-.686a37.393,37.393,0,0,0-5.683,1.557,36.325,36.325,0,0,0-7.385,3.647c.737-1.992,1.472-3.99,2.17-6a52.561,52.561,0,0,0,14.252-4.761c.627-.315,1.246-.644,1.86-.984q2.185-1.21,4.258-2.625c1.2-.823,2.762-1.778,2.828-3.406a2.843,2.843,0,0,0-2.776-2.73,12.309,12.309,0,0,0-4.9,1,27.615,27.615,0,0,0-3.989,1.758c-.336.18-.67.364-1,.556-.28.162-.556.329-.831.5q-1.141.7-2.236,1.472.889-1.064,1.748-2.152.683-.86,1.349-1.734a109.056,109.056,0,0,0,6.593-9.662c.953-1.574,1.952-3.458.925-5.26-.928-1.628-3-1.7-4.564-1.073-3.743,1.5-5.335,6.033-6.926,9.37l-.174.366-1.078,2.261-1.664,3.492a46.559,46.559,0,0,0,.58-5.218v-.016c.066-1.309.1-2.669.045-4.026a23.168,23.168,0,0,0-.62-4.724c-.449-1.792-1.834-3.628-3.691-3.272a3.106,3.106,0,0,0-.946.357A3.739,3.739,0,0,0,1688.8,1773.413Zm-4.842,26.251q-.827-2.509-1.58-5.042c-.262-.882-1.677-4.084-.432-4.707,1.389-.695,2.693,7.034,2.865,7.97a62.687,62.687,0,0,1,.864,6.717Q1684.775,1802.146,1683.953,1799.664Zm9.305,18.013a32.478,32.478,0,0,1,4.354-.969,6.987,6.987,0,0,1,2.022-.012,2.919,2.919,0,0,1,.992.281c.494.3.512.342.168.7a5.6,5.6,0,0,1-1.814.777c-.74.275-1.49.517-2.249.731a33.425,33.425,0,0,1-4.437.935,32.054,32.054,0,0,1-6.525.232A53.9,53.9,0,0,1,1693.259,1817.677Zm1.6-9.478a33.8,33.8,0,0,1,4.514-1.547q1.086-.288,2.189-.507c.384-.076.953-.085,1.441-.16-.206.152-.417.344-.588.462-.624.433-1.273.83-1.936,1.2a26.42,26.42,0,0,1-3.973,1.817,25.464,25.464,0,0,1-6.776,1.421A35.17,35.17,0,0,1,1694.863,1808.2Zm2.437-20.034.1-.218.961-2.017,1.818-3.816a19.508,19.508,0,0,1,2.54-4.332c.726-.854,2.728-2.7,3.967-1.759,1.344,1.02-1.037,3.927-1.621,4.855q-2.405,3.823-5.122,7.437-.667.889-1.353,1.765c-.065.083-.129.167-.194.25q-2.335,2.967-4.877,5.757Zm4.28,6.055c.067-.04.131-.083.2-.123q.8-.477,1.634-.912a24.83,24.83,0,0,1,3.757-1.615,16.86,16.86,0,0,1,2.829-.712c.623-.089,2.307-.05,1.5.967a8.813,8.813,0,0,1-2.039,1.568c-.865.585-1.753,1.14-2.655,1.668q-.68.4-1.373.774c-.616.336-1.242.656-1.872.966-.654.322-1.311.634-1.978.928a49.684,49.684,0,0,1-8.443,2.834A66.69,66.69,0,0,1,1701.58,1794.219Zm-11.693-18.65c.438-.872,1.3-1.672,1.979-.555a8.66,8.66,0,0,1,.776,3.426c.1.84.157,1.678.191,2.515a49.088,49.088,0,0,1-2.224,15.554q-.759-6.526-1.3-13.073c-.2-2.472-.526-5.362.5-7.706C1689.835,1775.676,1689.861,1775.622,1689.887,1775.569Z" transform="translate(-1493.771 -1762.768)" fill="#ebba51"/>
    </g>
    <g id="Grupo_84144" data-name="Grupo 84144" transform="translate(1082.812 1443.464)">
      <path id="Trazado_133796" data-name="Trazado 133796" d="M1150.024,1631.83a7.5,7.5,0,0,0,.358.669,8.131,8.131,0,1,0,4.5-12.111,8.489,8.489,0,0,0-5.4,10.835A1.04,1.04,0,0,0,1150.024,1631.83Z" transform="translate(-1138.026 -1566.743)" fill="#f7ce60"/>
      <path id="Trazado_133797" data-name="Trazado 133797" d="M1763.856,1694.081a7.534,7.534,0,0,0,.358.669,8.131,8.131,0,1,0,4.5-12.111,8.489,8.489,0,0,0-5.4,10.835A1.04,1.04,0,0,0,1763.856,1694.081Z" transform="translate(-1537.428 -1607.249)" fill="#f7ce60"/>
      <path id="Trazado_133798" data-name="Trazado 133798" d="M1483.3,1598.7a5.729,5.729,0,0,0,3.671-10.283,5.761,5.761,0,0,0-6.275-.409,1,1,0,0,0-.389.182c-.15.111-.293.23-.432.353a5.956,5.956,0,0,0-.473.405,1.064,1.064,0,0,0-.24.336,5.77,5.77,0,0,0-1.165,5.327A5.911,5.911,0,0,0,1483.3,1598.7Zm-2.39-8.3a3.7,3.7,0,0,1,5.225.07,3.629,3.629,0,1,1-5.392,4.855A3.685,3.685,0,0,1,1480.906,1590.4Z" transform="translate(-1351.933 -1545.385)" fill="#fff"/>
      <path id="Trazado_133799" data-name="Trazado 133799" d="M1795.446,1882.2a5.761,5.761,0,0,0-6.275-.409,1.009,1.009,0,0,0-.389.182c-.15.111-.293.23-.432.353a6.138,6.138,0,0,0-.473.405,1.058,1.058,0,0,0-.24.336,5.769,5.769,0,0,0-1.166,5.327,5.739,5.739,0,0,0,10.92.233A5.845,5.845,0,0,0,1795.446,1882.2Zm-1.108,7.286a3.629,3.629,0,0,1-5.121-.376,3.629,3.629,0,0,1,5.393-4.855A3.643,3.643,0,0,1,1794.337,1889.491Z" transform="translate(-1552.65 -1736.544)" fill="#fff"/>
      <path id="Trazado_133800" data-name="Trazado 133800" d="M1126.764,1903.392a5.761,5.761,0,0,0-6.275-.409,1.009,1.009,0,0,0-.389.182c-.15.111-.293.23-.432.353a6.008,6.008,0,0,0-.473.405,1.06,1.06,0,0,0-.24.335,5.77,5.77,0,0,0-1.166,5.327,5.739,5.739,0,0,0,10.92.233A5.845,5.845,0,0,0,1126.764,1903.392Zm-1.108,7.286a3.629,3.629,0,0,1-5.121-.376,3.629,3.629,0,0,1,5.393-4.855A3.642,3.642,0,0,1,1125.655,1910.678Z" transform="translate(-1117.558 -1750.33)" fill="#fff"/>
      <path id="Trazado_133801" data-name="Trazado 133801" d="M1416.434,1475.995a7.353,7.353,0,0,0-1.377-6.921c-1.844-2.048-4.735-2.08-7.1-1.01l-.114.051a8.773,8.773,0,0,0-1.684,1.043,9.816,9.816,0,0,0-2.246,2.519,9.42,9.42,0,0,0-3.93-3.562c-2.387-1.123-5.342-1.122-7.215.959a7.352,7.352,0,0,0-1.378,6.921c.835,2.918,2.959,5.369,5,7.532a62.979,62.979,0,0,0,7.133,6.343,1.134,1.134,0,0,0,.344.185v.026l.042-.013.042.013v-.026a1.136,1.136,0,0,0,.344-.185,63.032,63.032,0,0,0,7.133-6.343,31.534,31.534,0,0,0,3.216-3.862,14.943,14.943,0,0,0,1.108-1.911A11.13,11.13,0,0,0,1416.434,1475.995Z" transform="translate(-1295.525 -1467.366)" fill="#fffaff"/>
    </g>
    <g id="Grupo_84163" data-name="Grupo 84163" transform="translate(1125.986 1439.836)">
      <g id="stylist" transform="translate(48.617 0)">
        <g id="hand_R" data-name="hand R" transform="translate(0 55.559)">
          <path id="hand_R-2" data-name="hand R" d="M1478.105,1659.388c.6-1.3-9.821,8.486-22.256,13.474-2.313.928-5.466,1.531-8.269,0-9.567-5.223-12.145-16.089-15.708-23.923,1.32-.78,4.089-1.56,5.409-2.341,1.2-.21,11.42,15.23,13.785,13.277s16.515-12.146,16.515-12.146Z" transform="translate(-1413.864 -1635.917)" fill="#de9e90"/>
          <g id="hand">
            <path id="Trazado_133802" data-name="Trazado 133802" d="M1420.759,1628.938s-.629-9.855-4.07-12.566c-1.26-.992-4.031.428-5.119.737-.256.073-4.4.595-6.432,2.544-1.942,1.86.332,1.569.9,2.788,1.243,2.664,2.255.408,3.168,1.265a.578.578,0,0,1,.137.2c.087.193,3.4,5.467,5.77,6.407C1417.047,1631.084,1419.606,1629.689,1420.759,1628.938Z" transform="translate(-1395.969 -1616.024)" fill="#de9e90"/>
            <g id="brush" transform="translate(0 0.99)">
              <path id="Trazado_133803" data-name="Trazado 133803" d="M1419.376,1618.857l.349,1.325-18.915,5.285-.5-1.893Z" transform="translate(-1393.329 -1618.857)" fill="#261616"/>
              <path id="Trazado_133804" data-name="Trazado 133804" d="M1380.5,1629.593l.153.022,6.656.944.5,1.894-3.878,3.026-1.559,1.218C1380.617,1634.1,1379.982,1631.733,1380.5,1629.593Z" transform="translate(-1380.323 -1625.843)" fill="#926464"/>
              <path id="Trazado_133805" data-name="Trazado 133805" d="M1380.5,1629.593l.153.022a5.576,5.576,0,0,0,.512.779c.667.8,1.11.575.886,1.551s-.449,1.226.5,1.893a5.879,5.879,0,0,1,1.38,1.641l-1.559,1.218C1380.617,1634.1,1379.982,1631.733,1380.5,1629.593Z" transform="translate(-1380.323 -1625.843)" fill="#de908b"/>
            </g>
            <path id="finger" d="M1415.739,1622.191s-7,4.256-8.156,4.132c-2.406-.259.937-2.242,2.643-3.549S1415.739,1622.191,1415.739,1622.191Z" transform="translate(-1397.512 -1619.906)" fill="#de9e90"/>
          </g>
        </g>
        <g id="legs" transform="translate(60.973 222.517)">
          <g id="shoe_L" data-name="shoe L">
            <path id="Trazado_133806" data-name="Trazado 133806" d="M1581.383,2094.644c-1.7-.16-3.381-.434-5.068-.681q-1.944.148-3.9.138c2.749,14.058,7.679,31.837,6.658,33.8-1.686,3.242-13.823,9.743-13.823,9.743,17.052,5.338,23.226-5.01,23.226-5.01s-1.376-25.877-2.24-37.874A32.37,32.37,0,0,1,1581.383,2094.644Z" transform="translate(-1561.624 -2093.963)" fill="#eaac9d"/>
            <path id="Trazado_133807" data-name="Trazado 133807" d="M1581.953,2194.164c.289-.461,1.094,1.384,1.623,3.2.892,3.067,1.474,4.566,1.026,5.653-.841,2.044-4.12,1.857-11.943,3.321-9.136,1.71-13.065,3.51-15.9,1.394a4.636,4.636,0,0,1-1.444-1.771,2.5,2.5,0,0,1-.144-2.54c.375-.616,6.716-6.418,11.749-5.975.705.062,1.689,1.51,3.478,2.147a9.06,9.06,0,0,0,8.862-1.278A9.312,9.312,0,0,0,1581.953,2194.164Z" transform="translate(-1554.867 -2159.114)" fill="#d0d7e0"/>
            <path id="Trazado_133808" data-name="Trazado 133808" d="M1557.228,2202.122c3.585,1.737,27.6-2.833,27.872-3.22.4-.573-.38-2.887-1.181-5.64-.528-1.815-1.179-3.674-1.468-3.213a9.306,9.306,0,0,1-2.7,4.152,7.886,7.886,0,0,1-4.4,1.825c-1.8.183-3.3.419-4.461-.549a6.12,6.12,0,0,0-2.837-1.76.777.777,0,0,0-.146-.028c-.985-.086-11.23,4.471-12.221,7.056C1555.55,2201.108,1556.136,2201.592,1557.228,2202.122Z" transform="translate(-1555.389 -2156.437)" fill="#f2f5f8"/>
            <path id="Trazado_133809" data-name="Trazado 133809" d="M1566.931,2200.672c.169.526,5.483-.718,5.9-.874a58.886,58.886,0,0,1,6.194-1.8c-.262-.286-.172-1.112-.14-1.959.056-1.468-.255-1.8-.487-2.081a2.121,2.121,0,0,0-1.439-.669c-1.677-.116-2.469,2.043-4.691,4.1C1569.543,2199.9,1566.807,2200.286,1566.931,2200.672Z" transform="translate(-1562.714 -2158.589)" fill="#e4cfcf"/>
            <g id="Grupo_84145" data-name="Grupo 84145" transform="translate(1.656 42.282)">
              <path id="Trazado_133810" data-name="Trazado 133810" d="M1563.744,2218.836a27.013,27.013,0,0,1-3.982-.252.183.183,0,0,1,.057-.363,40.339,40.339,0,0,0,8.2.067v0c5.56-.669,19.014-3.1,19.585-3.279a.184.184,0,0,1,.112.35c-.68.216-12.97,2.407-18.746,3.178a3.448,3.448,0,0,1-1.015.125c-.51.041-1.319.1-2.28.136C1565.1,2218.82,1564.44,2218.836,1563.744,2218.836Z" transform="translate(-1559.607 -2215)" fill="#e4cfcf"/>
            </g>
            <path id="Trazado_133811" data-name="Trazado 133811" d="M1721.328,2213.109a18.858,18.858,0,0,0-2.024,4.745,9.185,9.185,0,0,0-.715,4.465c.071.37.411.5.391.025-.13-3.179,1.7-5.938,2.492-8.9C1721.488,2213.385,1721.452,2212.933,1721.328,2213.109Z" transform="translate(-1661.344 -2171.462)" fill="#d0d7e0"/>
          </g>
          <g id="shoe_R" data-name="shoe R" transform="translate(25.239 13.667)">
            <path id="Trazado_133812" data-name="Trazado 133812" d="M1683.5,2134.058c-2.767.9-5.6,1.656-8.341,2.645l-.958.382c2.122,10.632,5.1,20.913,4.284,22.2-1.98,3.123-8.29,7.658-8.29,7.658,16.482,6.469,19.351-3.49,19.351-3.49s-1.54-14.993-3.1-30.368Q1684.967,2133.576,1683.5,2134.058Z" transform="translate(-1655.144 -2133.088)" fill="#eaac9d"/>
            <path id="Trazado_133813" data-name="Trazado 133813" d="M1662.993,2213.012c.365-.536,1.244,1.653,1.793,3.8.926,3.621,1.553,5.4.971,6.671-1.078,2.363-4.944,2.091-13.793,3.493-11.447,1.814-16.286,4.024-19.659,1.409a5.311,5.311,0,0,1-1.643-2.115,2.886,2.886,0,0,1-.057-2.99c.475-.716,8.305-7.392,14.293-6.756.839.089,1.949,1.814,4.054,2.605,3.231,1.213,7.519,1.2,10.636-1.3A11.241,11.241,0,0,0,1662.993,2213.012Z" transform="translate(-1629.12 -2185.039)" fill="#d0d7e0"/>
            <path id="Trazado_133814" data-name="Trazado 133814" d="M1633.085,2221.785c4.2,2.125,33.07-2.694,33.415-3.143.509-.664-.323-3.4-1.156-6.66-.548-2.147-1.242-4.348-1.608-3.812a11.23,11.23,0,0,1-3.406,4.82,9.668,9.668,0,0,1-5.334,2.044c-2.155.174-3.962.417-5.3-.748a7.148,7.148,0,0,0-3.307-2.135.9.9,0,0,0-.173-.037c-1.172-.124-13.606,5-14.9,8.015C1631.128,2220.555,1631.805,2221.138,1633.085,2221.785Z" transform="translate(-1629.827 -2181.889)" fill="#f2f5f8"/>
            <path id="Trazado_133815" data-name="Trazado 133815" d="M1645.029,2219.1c.142.512,4.938-.152,7.081-.892a72.285,72.285,0,0,1,7.475-1.973c-.3-.341-.156-1.311-.079-2.306.141-1.841-.321-2.22-.488-2.459a3.027,3.027,0,0,0-2.127-1.08c-2.443-.142-3.151,3.326-7.363,6.245C1647.01,2218.378,1644.934,2218.754,1645.029,2219.1Z" transform="translate(-1638.77 -2183.382)" fill="#e4cfcf"/>
            <g id="Grupo_84146" data-name="Grupo 84146" transform="translate(3.041 36.536)">
              <path id="Trazado_133816" data-name="Trazado 133816" d="M1640.75,2241.83a14.945,14.945,0,0,1-4.786-.589.217.217,0,1,1,.154-.406c2.835,1.074,9.677.264,9.746.256,6.672-.659,22.841-3.2,23.531-3.4a.217.217,0,0,1,.122.417c-.867.253-17.289,2.795-23.606,3.419A48.178,48.178,0,0,1,1640.75,2241.83Z" transform="translate(-1635.823 -2237.676)" fill="#e4cfcf"/>
            </g>
            <path id="Trazado_133817" data-name="Trazado 133817" d="M1630.036,2195.059a14.551,14.551,0,0,0-2.918,8.318c-.021.313.433.918.458.343a19.676,19.676,0,0,1,2.565-8.309C1630.18,2195.338,1630.164,2194.909,1630.036,2195.059Z" transform="translate(-1627.118 -2173.39)" fill="#d0d7e0"/>
          </g>
        </g>
        <g id="neck" transform="translate(64.737 38.269)">
          <path id="Trazado_133818" data-name="Trazado 133818" d="M1565.64,1586.72l6,5.736,21.944-7.226-1.131-6.091s-3.937.912-6.852-5.888a27.386,27.386,0,0,1-1.319-3.962q-.326-1.27-.606-2.761l-7.353,4.24-4.9,2.823c.074.4,2.35,3.807-.139,6.6,0,0,0,0,0,0C1568.781,1582.986,1565.64,1586.72,1565.64,1586.72Z" transform="translate(-1565.64 -1566.528)" fill="#eaac9d"/>
          <path id="Trazado_133819" data-name="Trazado 133819" d="M1596.1,1578.395c-1.529,2.709-4.9,7.573-9.474,7.961a8.366,8.366,0,0,1-4.843-1.022c2.489-2.792.213-6.2.139-6.6l4.9-2.823c2.394-.445,6.125-1.135,7.959-1.479Z" transform="translate(-1576.146 -1571.671)" fill="#de9e90"/>
        </g>
        <g id="head" transform="translate(60.341)">
          <path id="hair_back" data-name="hair back" d="M1578.819,1478.555a17.226,17.226,0,0,1,10.545,3.385c7.171,5.525,9.108,17.08,4.378,25.107-3.888,6.6-10.932,8.521-12.836,8.963a18.236,18.236,0,0,1-11.085-.51c-7.138-2.89-12.7-11.814-11.119-20.837C1560.3,1485.59,1568.741,1478.568,1578.819,1478.555Z" transform="translate(-1556.554 -1471.018)" fill="#724b4b"/>
          <path id="Trazado_133820" data-name="Trazado 133820" d="M1618.993,1467.108s-4.562-5.216,0-7.194,4.706,3.6,4.706,3.6,4.173-11.461,7.23-4.022-4.263,12.475-4.56,12.475S1618.993,1467.108,1618.993,1467.108Z" transform="translate(-1594.64 -1456.979)" fill="#926464"/>
          <path id="Trazado_133821" data-name="Trazado 133821" d="M1568.418,1526.609a18.224,18.224,0,0,0,10.3-4.971,19.818,19.818,0,0,0,4.708-19.518c-2.771-8.525-12.414-16.167-18.764-13.223-3.829,1.775-6,7.449-6.435,9.392a79.463,79.463,0,0,0-.806,12.549c.012.893.046,1.795.11,2.687C1558.066,1521,1560.6,1527.934,1568.418,1526.609Z" transform="translate(-1555.894 -1477.329)" fill="#eaac9d"/>
          <path id="Trazado_133822" data-name="Trazado 133822" d="M1593.382,1555.26c.339-.208,5.773-1.686,7.777-.361s-.1,2.519-2.61,2.449S1591.956,1556.138,1593.382,1555.26Z" transform="translate(-1579.103 -1520.337)" fill="#de908b"/>
          <path id="Trazado_133823" data-name="Trazado 133823" d="M1557.548,1555.528c2.563-.662,5.52-2.035,4.043-2.542a21.155,21.155,0,0,0-4.153-.145C1557.449,1553.735,1557.484,1554.636,1557.548,1555.528Z" transform="translate(-1555.907 -1519.332)" fill="#de908b"/>
          <path id="nose" d="M1576.389,1550.76c.235-.857.488-1.709.733-2.562.1-.363.38.226.329.42l-.4,1.512a6.272,6.272,0,0,0-.4,1.513c.05,1.24,1.78.932,2.628,1.209.2.065.351.742.091.8-1.026.213-2.926-.184-3.166-1.423A3.173,3.173,0,0,1,1576.389,1550.76Z" transform="translate(-1568.094 -1516.257)" fill="#ae6356"/>
          <path id="mouth" d="M1579.606,1571.077s-5.411,1.263-9.674.344C1569.658,1571.971,1574.731,1578.767,1579.606,1571.077Z" transform="translate(-1564.03 -1531.219)" fill="#faf0ef"/>
          <g id="Grupo_84147" data-name="Grupo 84147" transform="translate(2.363 30.645)">
            <path id="Trazado_133824" data-name="Trazado 133824" d="M1596.625,1548.3a1.307,1.307,0,1,0,.953-1.823A1.476,1.476,0,0,0,1596.625,1548.3Z" transform="translate(-1583.746 -1545.843)" fill="#2b1816"/>
            <path id="Trazado_133825" data-name="Trazado 133825" d="M1559.852,1546.3a1.13,1.13,0,1,0,.824-1.577A1.276,1.276,0,0,0,1559.852,1546.3Z" transform="translate(-1559.822 -1544.704)" fill="#2b1816"/>
          </g>
          <g id="brows" transform="translate(1.193 27.823)">
            <path id="Trazado_133826" data-name="Trazado 133826" d="M1599.308,1540.263a.564.564,0,0,1-.5-.115,6.839,6.839,0,0,0-4.845-1.2.539.539,0,0,1-.519-.8l.009-.016c.322-.531,4.882-.113,5.976,1.559C1599.667,1540.064,1599.5,1540.208,1599.308,1540.263Z" transform="translate(-1580.48 -1537.469)" fill="#926464"/>
            <path id="Trazado_133827" data-name="Trazado 133827" d="M1556.792,1537.363c.348-.273,3.116-.968,3.348-.662l.011.013a.539.539,0,0,1-.369.877,10,10,0,0,0-2.867.731.317.317,0,0,1-.436-.205l0-.01A.958.958,0,0,1,1556.792,1537.363Z" transform="translate(-1556.471 -1536.624)" fill="#926464"/>
          </g>
          <path id="Trazado_133828" data-name="Trazado 133828" d="M1580.175,1502.51a108.419,108.419,0,0,1-13.311-11.006c-2.779-2.7-5.226-5.365-7.374-7.914a13.852,13.852,0,0,0-3.681,6.021,19.42,19.42,0,0,0-.746,3.779s0,.034-.066.013c-1.93-.653-3.719-6.528,1.436-11.976,5.039-5.325,16.494-6.016,23.54-2.363a28.764,28.764,0,0,1,6,3.619,19.275,19.275,0,0,1,2.061,2.284c2.478,3.321,4.1,10.039,2.209,16.429-2.538,8.581-12.836,13.46-12.836,13.46C1576.533,1514.276,1576.309,1511.8,1580.175,1502.51Z" transform="translate(-1553.056 -1469.864)" fill="#926464"/>
          <g id="ear" transform="translate(23.272 29.194)">
            <path id="Trazado_133829" data-name="Trazado 133829" d="M1619.787,1542.591c.44-.881,2.3-2.63,4.349-1.84,2.439.94,2.887,4.217,1.224,6.659-2.241,3.291-5.135.974-5.674,0C1619.631,1547.312,1619.787,1542.591,1619.787,1542.591Z" transform="translate(-1619.674 -1540.552)" fill="#eaac9d"/>
            <g id="Grupo_84148" data-name="Grupo 84148" transform="translate(1.983 2.193)">
              <path id="Trazado_133830" data-name="Trazado 133830" d="M1629.2,1549.438a.207.207,0,0,0,.046-.193,3.255,3.255,0,0,0-3.721-2.379.208.208,0,0,0,.074.409,2.805,2.805,0,0,1,3.246,2.081.207.207,0,0,0,.255.145A.2.2,0,0,0,1629.2,1549.438Z" transform="translate(-1625.351 -1546.83)" fill="#ae6356"/>
            </g>
            <g id="Grupo_84149" data-name="Grupo 84149" transform="translate(3.387 2.303)">
              <path id="Trazado_133831" data-name="Trazado 133831" d="M1629.777,1550.139a2.1,2.1,0,0,0-.051-2.933.208.208,0,1,0-.3.289,1.676,1.676,0,0,1,.041,2.366.208.208,0,0,0,.3.284Z" transform="translate(-1629.369 -1547.143)" fill="#ae6356"/>
            </g>
            <path id="Trazado_133832" data-name="Trazado 133832" d="M1627.753,1563.336c0,1.514-.538,2.741-1.2,2.741s-1.2-1.227-1.2-2.741.537-2.741,1.2-2.741S1627.753,1561.822,1627.753,1563.336Z" transform="translate(-1623.369 -1553.593)" fill="#f2f5f8"/>
          </g>
        </g>
        <g id="t-shirt" transform="translate(43.689 48.046)">
          <g id="Grupo_84150" data-name="Grupo 84150" transform="translate(4.357 1.586)">
            <path id="Trazado_133833" data-name="Trazado 133833" d="M1578.519,1667.4c-.138,2.808-11.256,4.449-17.736,5.385a136.8,136.8,0,0,1-17.156,1.38c-.159,0-.313.006-.47.008,1-2.343.779-3.756.32-4.638-1.152-2.214-4.12-1.671-6.813-4.087-1.444-1.3-2.032-2.648-2.963-5.405a44.761,44.761,0,0,1-1.971-12.955c-.094-2.825-.073-6.007.04-9.655a.277.277,0,0,1,0-.042c.008-.286.017-.57.027-.856,0-.1,0-.194.008-.288q.025-.792.05-1.58c.006-.161.011-.313.015-.457q.013-.394.025-.789c0-.115.008-.224.01-.322s.006-.18.008-.269c0-.121.008-.221.01-.3l-.017.008c-.977.559-1.952,1.134-2.94,1.672l-.048.027-.432.232c-.013-.021-.027-.04-.039-.06s-.034-.052-.052-.082c0,0,0,0,0-.006l-.013-.019q-1.278-1.995-2.71-4.067c-.019-.029-.04-.056-.059-.083-.04-.058-.079-.115-.121-.173a.5.5,0,0,0-.029-.042c-.048-.069-.1-.138-.146-.209-.157-.226-.315-.451-.476-.679q-1.062-1.5-2.209-3.025c-.041-.056-.083-.115-.127-.171q-1.7-2.264-3.4-4.324c-.415-.509-.829-1.009-1.244-1.5l.576-.553c8.629-8.3,15.158-14.135,16.9-15.258a17.906,17.906,0,0,1,1.913-1.081,11.962,11.962,0,0,1,3.32-1.213.121.121,0,0,1,.025,0h0c-.011.031-.111.288-.238.7-.1.325-.219.745-.324,1.234-.455,2.071-.716,5.324,1.395,7.282a4.92,4.92,0,0,0,.526.428,1.524,1.524,0,0,0,.2.121,2.154,2.154,0,0,0,1.176.226,3.706,3.706,0,0,0,.687-.111c3.62-.9,9.318-6.846,13.845-11.769.184-.2.344-.376.48-.52a2.664,2.664,0,0,1,.495-.468q1.087.113,2.092.278s.255.042.5.086a21.7,21.7,0,0,1,11.987,8.663c3.119,4.386,3.822,8.4,5.144,15.928a114.685,114.685,0,0,1,1.4,15.759c.155,3.27.538,5.791.008,9.208a29.515,29.515,0,0,1-2.375,7.835c-1.389,1.359-3.192,3.534-2.79,5.771C1575.3,1665.285,1578.595,1665.862,1578.519,1667.4Z" transform="translate(-1517.862 -1599.057)" fill="#91a3c2"/>
          </g>
          <path id="Trazado_133834" data-name="Trazado 133834" d="M1620.189,1698.3l-16.094,1.937c-.316-.795-.614-1.606-.9-2.413-1.347-.689-8.464-4.484-9.25-11.084-.475-3.986,1.652-7.186,5.907-13.585,3.1-4.67,4.657-7.005,7.286-8.293,6.1-2.99,15-.822,18.025,4.349a7.7,7.7,0,0,1,1.1,3.319C1626.468,1678.164,1623.858,1689.673,1620.189,1698.3Z" transform="translate(-1562.971 -1639.403)" fill="#8098b3"/>
          <path id="Trazado_133835" data-name="Trazado 133835" d="M1548.337,1668.639l-2.97,9.929c-.1-2.893-.075-6.151.041-9.886a.3.3,0,0,1,0-.043c.009-.3.017-.592.028-.876,0-.1,0-.2.009-.3q.026-.811.052-1.619c.006-.165.01-.321.015-.468q.013-.4.026-.808c0-.117.008-.229.01-.329s.007-.184.009-.276c0-.124.008-.227.01-.3l-.017.009-3.01,1.712-.049.028-.449.256c-.013-.028-.028-.054-.043-.083s-.032-.058-.051-.088a.086.086,0,0,0-.011-.02c-.028-.053-.06-.109-.094-.169a.039.039,0,0,1-.011-.015c-.036-.064-.079-.134-.124-.208,0,0-.006-.01-.011-.015-.15-.248-.338-.539-.553-.868-.066-.1-.137-.209-.212-.319,0,0-.007-.009-.009-.013-.075-.113-.154-.233-.237-.355-.139-.205-.286-.419-.438-.643-.042-.064-.088-.128-.132-.195q-.269-.391-.562-.81c-.1-.141-.2-.282-.3-.425-.03-.043-.06-.088-.092-.131-.06-.087-.119-.175-.184-.263a.453.453,0,0,0-.03-.042c-.049-.071-.1-.141-.149-.214l-.154-.218c-.109-.156-.22-.31-.332-.469l0-.006,0,0,7.729-11.667Z" transform="translate(-1526.81 -1629.598)" fill="#8098b3"/>
          <g id="Grupo_84151" data-name="Grupo 84151" transform="translate(0 20.701)">
            <path id="Trazado_133836" data-name="Trazado 133836" d="M1529.488,1668.334c-.267.248-.527.49-.782.73,0,0,0,0-.006,0l-.048-.087s0,0,0-.006c-.43-.774-1.492-2.338-2.789-4.186-.019-.029-.04-.056-.06-.085-.255-.364-.519-.737-.788-1.117l0-.006c-.8-1.126-1.566-2.171-2.259-3.1l-.13-.174c-2.013-2.7-3.416-4.414-3.416-4.414l-.062-.015q-.639-.782-1.275-1.533l.59-.567a91.5,91.5,0,0,1,6.183,7.4C1526.491,1663.649,1528.1,1666.058,1529.488,1668.334Z" transform="translate(-1513.506 -1653.775)" fill="#8098b3"/>
            <path id="Trazado_133837" data-name="Trazado 133837" d="M1505.39,1657.9c.392.194,9.936,16.1,9.936,16.1s5.627-2.658,5.781-4.321-10.46-16-11.482-15.7S1505.39,1657.9,1505.39,1657.9Z" transform="translate(-1505.39 -1653.899)" fill="#91a3c2"/>
          </g>
          <path id="Trazado_133838" data-name="Trazado 133838" d="M1592.063,1621.382c-.24.044-1.017-6.505-1.279-8.784,4.377-.272,12.863-10.118,15.01-12.4,0,0,0,0,0,0,1.291-.045,3.085-.108,3.087-.106C1610.677,1601.477,1592.355,1621.328,1592.063,1621.382Z" transform="translate(-1560.953 -1598.144)" fill="#8098b3"/>
          <path id="Trazado_133839" data-name="Trazado 133839" d="M1591.822,1606.1s1.076,9.606,1.367,9.552,15.871-19.276,15.869-19.276-3.427-1.862-3.427-1.862Z" transform="translate(-1561.629 -1594.516)" fill="#91a3c2"/>
          <path id="Trazado_133840" data-name="Trazado 133840" d="M1575.125,1607.071l1.681,7.359-2.77,6.954-4.424-12.307Z" transform="translate(-1547.177 -1602.685)" fill="#8098b3"/>
          <path id="Trazado_133841" data-name="Trazado 133841" d="M1574.241,1602.309l1.681,7.359-2.77,6.954-4.424-12.307Z" transform="translate(-1546.602 -1599.587)" fill="#91a3c2"/>
          <path id="Trazado_133842" data-name="Trazado 133842" d="M1588.824,1702.121c-.161,0-.321.006-.48.008q-.255-2.4-.478-4.8a352.968,352.968,0,0,1-.764-55.1c.018-.273.229-.269.213.006q-.45,7.632-.561,15.281A367.856,367.856,0,0,0,1588.824,1702.121Z" transform="translate(-1558.084 -1625.424)" fill="#8098b3"/>
        </g>
        <g id="hand_R-3" data-name="hand R" transform="translate(17.136 56.508)">
          <g id="hand-2" data-name="hand" transform="translate(0 8.959)">
            <path id="Trazado_133843" data-name="Trazado 133843" d="M1567.168,1658.76s-7.5,19.445-10.294,22.008c-2.967,2.722-5.886,6.529-12.454,9.747-5.854,2.869-13.733,2.543-17.239,2.582a134.36,134.36,0,0,1-16.584-1.251l-2.067-.492c-.01,0-1.439,1.3.843-6.766,2.607.2,23.144-4.365,27.771-4.276,1.108.021,8.679-11.27,10.885-14.212,5.626-7.5,6.546-14.769,8.957-21.55C1557.678,1642.6,1567.168,1658.76,1567.168,1658.76Z" transform="translate(-1480.587 -1644.387)" fill="#eaac9d"/>
            <path id="Trazado_133844" data-name="Trazado 133844" d="M1477.012,1759.011c-5.51.042-5.556,1.659-10.64,1.164-2.808-.274-7.674-.153-9.82-2.487-3.738-4.066-3.346-7.693-3.187-8.14,3.352-.7,7.6-2.177,9.391-1.887,3.394.551,5.958,1.927,10.8,3.236,2.424.656,4.45-.1,5.782.1Z" transform="translate(-1444.924 -1711.56)" fill="#eaac9d"/>
            <g id="color" transform="translate(0 24.742)">
              <ellipse id="Elipse_8719" data-name="Elipse 8719" cx="6.176" cy="6.902" rx="6.176" ry="6.902" transform="translate(0 9.413) rotate(-49.646)" fill="#e4cfcf"/>
              <path id="Trazado_133845" data-name="Trazado 133845" d="M1450.753,1735.933a5.056,5.056,0,1,1-.918-6.68A4.783,4.783,0,0,1,1450.753,1735.933Z" transform="translate(-1437.665 -1723.503)" fill="#c9d8ed"/>
              <ellipse id="Elipse_8720" data-name="Elipse 8720" cx="8.02" cy="6.176" rx="8.02" ry="6.176" transform="matrix(0.997, -0.081, 0.081, 0.997, 10.787, 11.085)" fill="#e4cfcf"/>
              <ellipse id="Elipse_8721" data-name="Elipse 8721" cx="5.759" cy="4.435" rx="5.759" ry="4.435" transform="translate(13.181 12.637) rotate(-4.646)" fill="#de908b"/>
              <path id="Trazado_133846" data-name="Trazado 133846" d="M1465.993,1748.574q-.715.641-1.391,1.321a1.514,1.514,0,0,0-.534.48.207.207,0,0,0-.024.091c-.108.113-.217.225-.323.339-.076.082-.046.3.031.487-.028.153.03.486.152.393.028-.021.053-.044.081-.065a.112.112,0,0,0,.123,0,10.363,10.363,0,0,0,1.237-.989,2.046,2.046,0,0,0,1.153-1.414C1466.522,1749.038,1466.249,1748.344,1465.993,1748.574Z" transform="translate(-1451.695 -1736.89)" fill="#e6e4e1"/>
            </g>
            <path id="finger-2" data-name="finger" d="M1475.34,1774.038c-2.146.449-4.709,1.027-5.459,1.878s.177,2.184,1.643,1.579,9.9.293,11.91-2.868C1484.7,1772.638,1486.347,1771.738,1475.34,1774.038Z" transform="translate(-1455.559 -1727.861)" fill="#eaac9d"/>
          </g>
          <path id="Trazado_133847" data-name="Trazado 133847" d="M1631.953,1635.34c.818,4.043-4.813,15.68-9.6,24.73-2.093,3.959-3.839,7.07-4.467,8.178l-.249.438-15.3-12.2c-.078-.043-.021-.386.139-.953.4-1.406,1.415-4.182,2.54-7.111,1.831-4.777,3.939-9.964,4.068-10.3l1.874-4.962c1.828-4.565,6.025-14.415,6.025-14.415S1630.516,1628.227,1631.953,1635.34Z" transform="translate(-1541.896 -1618.741)" fill="#91a3c2"/>
          <path id="Trazado_133848" data-name="Trazado 133848" d="M1622.677,1715.346c-2.093,3.959-3.839,7.07-4.467,8.178-3.255-2.727-12.1-10.123-15.408-12.719.4-1.406,1.415-4.181,2.54-7.11C1607.811,1704.437,1618.456,1711.642,1622.677,1715.346Z" transform="translate(-1542.22 -1674.017)" fill="#8098b3"/>
          <path id="Trazado_133849" data-name="Trazado 133849" d="M1598.485,1712.522c.53.069,17.9,14.662,17.9,14.662s5.449-5.313,4.965-7.3-18.461-14.338-19.524-13.589S1598.485,1712.522,1598.485,1712.522Z" transform="translate(-1539.411 -1675.691)" fill="#91a3c2"/>
        </g>
        <g id="pants" transform="translate(64.601 105.75)">
          <path id="Trazado_133850" data-name="Trazado 133850" d="M1604.352,1825.139l-6.266,85.982-.6-.079c-1.334-.182-4.767-.648-8.782-1.221-3.745-.534-7.995-1.163-11.516-1.738-3.9-.637-6.906-1.21-7.333-1.522-.167-.119-.244-1.952-.248-5.079-.018-14.34,1.507-55.906,3.133-84.686q.121-2.133.24-4.165c.511-8.539,1.022-15.644,1.493-20.112a2.934,2.934,0,0,1,1.119-1.956,4.892,4.892,0,0,1,.676-.475c.139-.083.282-.16.429-.233a12.429,12.429,0,0,1,5.123-1.105l9.937-1.172,2.6,7.763Z" transform="translate(-1568.089 -1777.839)" fill="#d6dce3"/>
          <path id="Trazado_133851" data-name="Trazado 133851" d="M1619.218,1771.386c4.69,8.067,9.922,25.46,10.158,35.828l-.869,94.51s-13.084,4.154-25.874,0c0,0-5.963-96.2-6.427-97.464l-16.938-5.034,1.342-19.208c.263-2.976,2.74-3.3,5.238-3.876l31.473-9.513C1618.656,1766.32,1618.45,1770.066,1619.218,1771.386Z" transform="translate(-1574.371 -1764.197)" fill="#f5f4f4"/>
          <g id="Grupo_84153" data-name="Grupo 84153" transform="translate(0 26.756)">
            <path id="Trazado_133852" data-name="Trazado 133852" d="M1593.948,1957.117s-2.364-.073-5.663-.192c-3.56-.133-8.21-.323-12.15-.541-2.7-.15-5.067-.312-6.524-.481-.018-14.34,1.507-55.906,3.133-84.686,5.723,3.5,17.2,9.927,17.2,9.927Z" transform="translate(-1568.089 -1859.018)" fill="#ededed"/>
            <path id="Trazado_133853" data-name="Trazado 133853" d="M1583.725,1898.1q-.128-19.5.748-38.995c.331-7.536.782-15.063,1.289-22.588.014-.213-.179-.349-.2-.069a685.539,685.539,0,0,0-2.009,78.685c.209,7.367.322,14.795,1,22.132.026.283.447.788.435.234-.135-6.564-.643-13.127-.869-19.69S1583.767,1904.675,1583.725,1898.1Z" transform="translate(-1576.946 -1836.295)" fill="#d6dce3"/>
            <g id="Grupo_84152" data-name="Grupo 84152" transform="translate(0 95.113)">
              <path id="Trazado_133854" data-name="Trazado 133854" d="M1565.958,2108.779c3.755.706,18.637,1.854,29.2-.212v11.741s-26.42,3.848-28.687-.143l-1.216-10.615A.648.648,0,0,1,1565.958,2108.779Z" transform="translate(-1565.252 -2108.567)" fill="#e0e3e8"/>
              <path id="Trazado_133855" data-name="Trazado 133855" d="M1565.958,2109.987c3.755.706,18.637,1.855,29.2-.212v11.741s-26.42,3.847-28.687-.143l-1.216-10.615A.649.649,0,0,1,1565.958,2109.987Z" transform="translate(-1565.252 -2109.353)" fill="#f5f4f4"/>
            </g>
          </g>
          <g id="Grupo_84154" data-name="Grupo 84154" transform="translate(4.729)">
            <path id="Trazado_133856" data-name="Trazado 133856" d="M1581.271,1777.666c5.461-2,31.536-10.5,36.966-12.267a1.471,1.471,0,0,0,.819-1.631l-.377-2.844c-.11-.831-.743-1.376-1.377-1.184l-37.659,11.394a1.522,1.522,0,0,0-.787,1.885l1.04,3.728C1580.1,1777.472,1580.7,1777.875,1581.271,1777.666Z" transform="translate(-1578.788 -1759.702)" fill="#f5f4f4"/>
            <path id="Trazado_133857" data-name="Trazado 133857" d="M1619.67,1771.19a28.815,28.815,0,0,1-6.4,2.214c-2.538.622-5.037,1.45-7.573,2.093q-4.226,1.072-8.43,2.24c-2.931.813-5.893,1.43-8.827,2.223-2.859.773-5.744.98-8.62,1.467l-.079.022.773,2.772c.2.725.8,1.128,1.376.919,5.461-2,31.536-10.5,36.966-12.267a1.471,1.471,0,0,0,.819-1.631Z" transform="translate(-1579.41 -1767.177)" fill="#d6dce3"/>
          </g>
          <g id="Grupo_84155" data-name="Grupo 84155" transform="translate(27.27 126.272)">
            <path id="Trazado_133858" data-name="Trazado 133858" d="M1644.033,2121.387c3.8.716,18.889,1.879,29.6-.215v11.9s-26.777,3.9-29.074-.144l-1.232-10.759A.657.657,0,0,1,1644.033,2121.387Z" transform="translate(-1643.317 -2121.172)" fill="#e0e3e8"/>
            <path id="Trazado_133859" data-name="Trazado 133859" d="M1644.033,2122.611c3.8.716,18.889,1.88,29.6-.215v11.9s-26.777,3.9-29.074-.145l-1.232-10.759A.657.657,0,0,1,1644.033,2122.611Z" transform="translate(-1643.317 -2121.969)" fill="#f5f4f4"/>
          </g>
          <path id="Trazado_133860" data-name="Trazado 133860" d="M1647.033,1912.02c-2.546-14.885-5.357-29.724-7.9-44.609a85.774,85.774,0,0,1-1.337-11.3c-.147-3.992.15-7.98.338-11.966a97.1,97.1,0,0,0-1.465-21.361c-1.419-8.187-3.271-16.339-3.583-24.67-.012-.314-.216-.1-.211.112.352,14.395,5.314,28.234,4.828,42.7-.13,3.86-.453,7.711-.506,11.573a69.934,69.934,0,0,0,.809,11.171c1.092,7.41,2.536,14.776,3.82,22.154,1.5,8.614,2.93,17.241,4.482,25.845C1646.381,1912.1,1647.17,1912.825,1647.033,1912.02Z" transform="translate(-1609.25 -1784.595)" fill="#d6dce3"/>
        </g>
      </g>
      <g id="client" transform="translate(0 31.445)">
        <g id="chair" transform="translate(1.569 55.834)">
          <path id="Trazado_133861" data-name="Trazado 133861" d="M1300.414,1957.03c2.365-1.6,49.957-13.734,49.957-13.734l-54.325-16.619-50.4,13.2Z" transform="translate(-1245.643 -1849.876)" fill="#261616"/>
          <rect id="Rect치ngulo_6822" data-name="Rect치ngulo 6822" width="4.883" height="177.52" transform="translate(49.958)" fill="#261616"/>
          <path id="Trazado_133862" data-name="Trazado 133862" d="M1536.348,2011.99h-4.883l.515-133.1h4.882Z" transform="translate(-1431.619 -1818.784)" fill="#4f3737"/>
          <path id="Trazado_133863" data-name="Trazado 133863" d="M1440.983,2055.842l-52.33-17v-4.476l52.33,17Z" transform="translate(-1338.695 -1919.945)" fill="#261616"/>
          <path id="Trazado_133864" data-name="Trazado 133864" d="M1443.976,1850.656l-55.323-17.42v-6.724l55.323,17.42Z" transform="translate(-1338.695 -1784.702)" fill="#4f3737"/>
          <path id="Trazado_133865" data-name="Trazado 133865" d="M1443.424,1947.416l-54.771-17.8v-4.476l54.771,17.155Z" transform="translate(-1338.695 -1848.879)" fill="#261616"/>
          <path id="Trazado_133866" data-name="Trazado 133866" d="M1300.414,1707.333v26.17c-16.42,4.656-32.839,6.464-49.259,11.12h-5.513V1720.89l49.3-13.181,1.411-.376Z" transform="translate(-1245.642 -1707.156)" fill="#261616"/>
          <rect id="Rect치ngulo_6823" data-name="Rect치ngulo 6823" width="4.883" height="178.998" transform="translate(0 9.458)" fill="#4f3737"/>
          <path id="Trazado_133867" data-name="Trazado 133867" d="M1448.512,2071.086l-52.33-17v-4.476l52.33,17Z" transform="translate(-1343.594 -1929.864)" fill="#4f3737"/>
        </g>
        <g id="head-2" data-name="head">
          <g id="hair_back-2" data-name="hair back">
            <path id="Trazado_133868" data-name="Trazado 133868" d="M1256.185,1571.374a44.029,44.029,0,0,0-7.731,16.411c-3.159,13.773,2.656,16.557,0,28.753-2.437,11.189-8.1,13.3-7.209,22.312.122,1.224.951,9.57,6.395,13.222,14.164,9.5,52.894-17.384,49.615-29.336a7.4,7.4,0,0,0-3.1-4.027c-7.866-5.56-9.4-27.272-8.835-28.419s-.575-18-3.8-21.917S1263.373,1562.558,1256.185,1571.374Z" transform="translate(-1241.151 -1558.768)" fill="#f3dda7"/>
            <path id="Trazado_133869" data-name="Trazado 133869" d="M1277.265,1600.458c-2.91.284-6.067,8.566-4.11,14.606,1.455,4.492,4.663,5.7,4.645,9.427-.017,3.526-2.993,5.033-6.666,9.156a41.648,41.648,0,0,0-10.307,27.4,33.075,33.075,0,0,0,1.615,9.562c9.623-20.595,16.369-30.436,20.97-35.554a4.615,4.615,0,0,0,1.4-1.8C1286.8,1627.753,1282.742,1599.923,1277.265,1600.458Z" transform="translate(-1253.95 -1581.776)" fill="#ddc28a"/>
            <path id="Trazado_133870" data-name="Trazado 133870" d="M1282.95,1549.156s-8.678,11.665-10.579,11.256a5.682,5.682,0,0,1-3.677-3.8c-.481-1.783,0-4.1,2.728-6.775,5.238-5.12,9.976-1.952,11.214-.949C1282.841,1549.049,1282.95,1549.156,1282.95,1549.156Z" transform="translate(-1258.965 -1546.993)" fill="#f3dda7"/>
            <path id="Trazado_133871" data-name="Trazado 133871" d="M1283.256,1552.366s-8.678,11.665-10.579,11.256a5.682,5.682,0,0,1-3.677-3.8c2.927-3.581,7.543-8.327,13.035-7.859a6.688,6.688,0,0,1,.907.135C1283.147,1552.26,1283.256,1552.366,1283.256,1552.366Z" transform="translate(-1259.271 -1550.204)" fill="#ddc28a"/>
          </g>
          <g id="neck-2" data-name="neck" transform="translate(22.989 35.834)">
            <path id="Trazado_133872" data-name="Trazado 133872" d="M1335.5,1663.5l-4.015,7.5-23.683-.046-.839-6.295s4.127-.366,4.8-7.92a28.04,28.04,0,0,0,.022-4.28c-.058-.894-.153-1.854-.29-2.884l8.515,1.787,5.674,1.189c.055.412-1.077,4.458,2.239,6.385,0,0,0,0,0,0C1331.247,1660.863,1335.5,1663.5,1335.5,1663.5Z" transform="translate(-1306.96 -1649.574)" fill="#eaac9d"/>
            <path id="Trazado_133873" data-name="Trazado 133873" d="M1320.7,1660.067c2.353,2.152,7.186,5.818,11.767,4.737a8.578,8.578,0,0,0,4.393-2.54c-3.316-1.927-2.184-5.973-2.239-6.385l-5.674-1.189c-2.474.33-6.329.846-8.225,1.1Z" transform="translate(-1315.901 -1652.903)" fill="#de9e90"/>
          </g>
          <path id="face" d="M1313.551,1603.176c-15.561,3.086-21.745-13.094-22.978-20.454s9.629-22.369,23.043-13.4a85.134,85.134,0,0,1,5.725,13.873c.281.93.542,1.877.77,2.824C1322.03,1593.947,1320.983,1601.7,1313.551,1603.176Z" transform="translate(-1273.246 -1559.714)" fill="#eaac9d"/>
          <g id="Grupo_84156" data-name="Grupo 84156" transform="translate(25.599 24.151)">
            <path id="Trazado_133874" data-name="Trazado 133874" d="M1322.784,1632.022c-.406-.1-6.3.2-7.865,2.174s.917,2.477,3.4,1.59S1324.491,1632.432,1322.784,1632.022Z" transform="translate(-1314.431 -1626.459)" fill="#de908b"/>
            <path id="Trazado_133875" data-name="Trazado 133875" d="M1365.99,1618.841c-2.769.176-6.162-.228-4.856-1.214a22.155,22.155,0,0,1,4.091-1.5C1365.5,1617.022,1365.764,1617.931,1365.99,1618.841Z" transform="translate(-1344.631 -1616.128)" fill="#de908b"/>
          </g>
          <path id="nose-2" data-name="nose" d="M1354.829,1620.98c-.514-.776-1.043-1.543-1.565-2.314-.222-.328-.305.349-.191.525l.893,1.375a6.537,6.537,0,0,1,.895,1.376c.355,1.251-1.469,1.509-2.224,2.061-.178.13-.108.853.169.822,1.092-.122,2.856-1.137,2.691-2.45A3.331,3.331,0,0,0,1354.829,1620.98Z" transform="translate(-1313.628 -1593.571)" fill="#ae6356"/>
          <path id="mouth-2" data-name="mouth" d="M1340.383,1640.761s5.748-.943,9.509-3.539C1350.378,1637.645,1348.183,1646.259,1340.383,1640.761Z" transform="translate(-1305.718 -1605.702)" fill="#faf0ef"/>
          <g id="eyes" transform="translate(29.526 20.998)">
            <path id="Trazado_133876" data-name="Trazado 133876" d="M1328.33,1622.474a1.37,1.37,0,1,1-1.543-1.506A1.548,1.548,0,0,1,1328.33,1622.474Z" transform="translate(-1325.672 -1616.119)" fill="#2b1816"/>
            <path id="Trazado_133877" data-name="Trazado 133877" d="M1364.841,1608.414a1.185,1.185,0,1,1-1.334-1.3A1.338,1.338,0,0,1,1364.841,1608.414Z" transform="translate(-1349.663 -1607.104)" fill="#2b1816"/>
          </g>
          <g id="brows-2" data-name="brows" transform="translate(26.277 18.307)">
            <path id="Trazado_133878" data-name="Trazado 133878" d="M1316.709,1615.071a.592.592,0,0,0,.464-.278,7.164,7.164,0,0,1,4.437-2.771.565.565,0,0,0,.257-.964l-.015-.013c-.493-.424-4.9,1.479-5.445,3.5C1316.288,1614.99,1316.5,1615.08,1316.709,1615.071Z" transform="translate(-1316.372 -1606.939)" fill="#a48176"/>
            <path id="Trazado_133879" data-name="Trazado 133879" d="M1361.5,1599.453c-.435-.158-3.42.052-3.551.431,0,0-.005.011-.007.016a.565.565,0,0,0,.653.754,10.5,10.5,0,0,1,3.094-.207.332.332,0,0,0,.367-.346v-.011A1,1,0,0,0,1361.5,1599.453Z" transform="translate(-1343.39 -1599.4)" fill="#a48176"/>
          </g>
          <g id="hair1" transform="translate(11.622 0.188)">
            <path id="Trazado_133880" data-name="Trazado 133880" d="M1306.644,1562.282c-.028.022-.7.041-.748.062a12.924,12.924,0,0,0-11.143-5.107c-3.013.43-6.478,4.646-8.64,8.789a22.62,22.62,0,0,0-1.751,4.274,35.178,35.178,0,0,0-1.249,8.062s1.016,3.168,2.044,5.734c.081.207.083.35.017.4-.3.231-2.7-1.306-5.146-3.966a21.644,21.644,0,0,1-4.907-8.237c-2.508-8.5,1.888-19.843,10.442-23.193,5.193-2.033,8.379-2.482,14.3,1.058C1305.722,1553.659,1308.119,1561.181,1306.644,1562.282Z" transform="translate(-1274.421 -1547.532)" fill="#f3dda7"/>
            <path id="Trazado_133881" data-name="Trazado 133881" d="M1297.239,1618.53c.081.207.083.35.017.4-.3.231-1.821-2.221-4.267-4.88.876-7.929,4.856-13.828,5.206-13.59a22.618,22.618,0,0,0-1.751,4.274,35.172,35.172,0,0,0-1.249,8.062S1296.21,1615.965,1297.239,1618.53Z" transform="translate(-1286.503 -1581.966)" fill="#ddc28a"/>
          </g>
          <g id="ear-2" data-name="ear" transform="translate(16.383 29.901)">
            <path id="Trazado_133882" data-name="Trazado 133882" d="M1292.3,1632.613c-1.024-.152-3.637.429-4.157,2.753-.618,2.766,1.964,5.2,5.062,5.22,4.177.033,3.867-3.993,3.339-5.078C1296.49,1635.4,1292.3,1632.613,1292.3,1632.613Z" transform="translate(-1288.05 -1632.59)" fill="#eaac9d"/>
            <g id="Grupo_84157" data-name="Grupo 84157" transform="translate(2.211 1.901)">
              <path id="Trazado_133883" data-name="Trazado 133883" d="M1295.452,1642.98a.216.216,0,0,1-.195-.079,3.628,3.628,0,0,1,.123-4.8.212.212,0,0,1,.308,0,.232.232,0,0,1,0,.319,3.127,3.127,0,0,0-.1,4.194.231.231,0,0,1-.024.318A.21.21,0,0,1,1295.452,1642.98Z" transform="translate(-1294.379 -1638.031)" fill="#ae6356"/>
            </g>
            <g id="Grupo_84158" data-name="Grupo 84158" transform="translate(2.391 3.205)">
              <path id="Trazado_133884" data-name="Trazado 133884" d="M1297.416,1643.9a2.224,2.224,0,0,1-2.517-1.863.223.223,0,0,1,.169-.266.22.22,0,0,1,.258.178,1.773,1.773,0,0,0,2.031,1.5.226.226,0,0,1,.068.447Z" transform="translate(-1294.895 -1641.764)" fill="#ae6356"/>
            </g>
          </g>
        </g>
        <g id="hand_L" data-name="hand L" transform="translate(51.458 63.878)">
          <path id="hand_L-2" data-name="hand L" d="M1438.349,1773.812c-5.9-5.086-10.85-2.978-10.85-2.978s-22.835-12.906-22.835-14.429-10.461-26.553-10.461-26.553l-5.745,5.166s.341,27.28,4,30.029,15.821,8.409,27.614,8.853a8.078,8.078,0,0,1,1.657.181,8.63,8.63,0,0,1,4.043,2.167,2.46,2.46,0,0,0,1.174.608c4.68.978,6.477,1.724,7.211,2.246a2.745,2.745,0,0,0,1.973.6c.226-.058.332-.128.332-.238,0-.708-.577-1.537-1.6-2.495a5.146,5.146,0,0,1,2.48,1.816c.486.887.888,1.627,1.217,2.236a1.711,1.711,0,0,0,3.036-.048C1442.7,1778.782,1441.84,1776.822,1438.349,1773.812Z" transform="translate(-1388.457 -1729.852)" fill="#eaac9d"/>
          <path id="Trazado_133885" data-name="Trazado 133885" d="M1407.388,1779.554v0l0,.015a37.411,37.411,0,0,0-6.431,8.663,7.334,7.334,0,0,1-3.607,3.393v0l-3.525-6.54.823-5.514,8.708-10.318Z" transform="translate(-1391.952 -1755.489)" fill="#de9e90"/>
        </g>
        <g id="shelf" transform="translate(52.069 216.495)">
          <path id="Trazado_133886" data-name="Trazado 133886" d="M1415.529,2186.536l49.957-13.734-24.24-6.063-49.572,11.848Z" transform="translate(-1391.161 -2166.739)" fill="#4f3737"/>
          <path id="Trazado_133887" data-name="Trazado 133887" d="M1414.061,2193.136l49.957-13.734.513-2.306-24.753-3.758-49.572,11.848Z" transform="translate(-1390.206 -2171.034)" fill="#4f3737"/>
        </g>
        <g id="leg_R" data-name="leg R" transform="translate(58.358 158.866)">
          <path id="Trazado_133888" data-name="Trazado 133888" d="M1419.448,2160.275v12.591l5.716,2.7,3.434-4.165-1.052-11.125Z" transform="translate(-1415.521 -2104.903)" fill="#e4cfcf"/>
          <path id="Trazado_133889" data-name="Trazado 133889" d="M1435.81,2185.738s1.349-10.289,1.508-9.813,1.925,5.647,1.925,5.647Z" transform="translate(-1426.168 -2115.076)" fill="#aa9494"/>
          <path id="Trazado_133890" data-name="Trazado 133890" d="M1438.112,2072.428s-1.362-.475-3.454-1.284h0c-.768-.3-1.634-.643-2.57-1.024l-.8-.33q-.754-.315-1.552-.656c-.323-.138-.651-.28-.981-.426-.3-.13-.6-.263-.9-.4-.263-.118-.523-.235-.786-.355q-.615-.282-1.234-.571h0q-1.145-.541-2.275-1.109c-.881-.443-1.747-.9-2.583-1.367-.348-.192-.691-.388-1.026-.583-.29-.17-.578-.343-.858-.516-3.379-2.07-5.915-4.25-6.147-6.212a2.359,2.359,0,0,1-.01-.461,2.276,2.276,0,0,1,.243-.874c.521-1.039-.29-9.053-1.031-18.416q-.139-1.772-.288-3.5c-.35-4.092-.728-8-1.1-11.6-1.282-12.309-2.535-20.982-2.535-20.982l21.47,5.6c.085.243-.306,3.619-.929,8.477-.683,5.316-1.644,12.407-2.568,19.1-1.039,7.549-2.03,14.6-2.515,18.048a4.975,4.975,0,0,0,1.149,3.927l3.2,3.737,8.255,9.626Z" transform="translate(-1408.208 -2001.767)" fill="#eaac9d"/>
          <path id="Trazado_133891" data-name="Trazado 133891" d="M1419.448,2160.275a50.186,50.186,0,0,0,6.478,9.448c3.45,4.1,8.749,9.71,13.766,10.527,11.607,1.889,11.067-2.645,11.067-2.645l-6.419-5.57a23.4,23.4,0,0,0-3.46-3.972,30.542,30.542,0,0,0-4.485-3.806,9.427,9.427,0,0,1-1.074-.7c.1,1.551-.254,4.429-3.908,2.9A127.855,127.855,0,0,1,1419.448,2160.275Z" transform="translate(-1415.521 -2104.903)" fill="#f8e8e7"/>
          <g id="Grupo_84159" data-name="Grupo 84159" transform="translate(21.797 68.131)">
            <path id="Trazado_133892" data-name="Trazado 133892" d="M1482.094,2201.056l-1.136.711s-.739,2.611-4.736,1.889a9.648,9.648,0,0,1-3.995-1.654,6.7,6.7,0,0,1-1.622-1.584c.268,0,6.983-3.617,6.983-3.617l1.9,1.076,2.561,1.447A1.008,1.008,0,0,1,1482.094,2201.056Z" transform="translate(-1470.606 -2196.801)" fill="#eaac9d"/>
            <path id="Trazado_133893" data-name="Trazado 133893" d="M1477.589,2196.8l1.9,1.076c-2.6,1.352-5.3,2.938-7.266,4.125a6.7,6.7,0,0,1-1.622-1.584C1470.874,2200.417,1477.589,2196.8,1477.589,2196.8Z" transform="translate(-1470.606 -2196.801)" fill="#de9e90"/>
          </g>
          <path id="Trazado_133894" data-name="Trazado 133894" d="M1460.743,2185.018a1.825,1.825,0,0,0-.918,1.291c-.231.692-.2,1.137-1.007.73-.76-.384-.475-.7-.531-1.467-.014-.194-.162-.87-.474-.677a10.47,10.47,0,0,1-1.482.727c-.478.208-.555.4-.35-.065a5.679,5.679,0,0,1,1.488-1.985c.2-.173.011-1.044-.306-.956a7.842,7.842,0,0,1-2.548.31,12.259,12.259,0,0,1-1.259-.17c-.659-.1-.788.044.127-.365a10.175,10.175,0,0,1,4.374-.782c.243,0,.171-.751-.086-.782a8.633,8.633,0,0,0-4.081.5c-.591.223-1.545.481-1.587,1.234-.039.715.541.9,1.121,1.064a7.493,7.493,0,0,0,2.763.236,2.906,2.906,0,0,0-.736,2.257c.3,1.194,1.651.516,2.5.011,0,.925.082,1.98.963,2.349,1.436.6,1.619-1.92,2.36-2.488C1461.292,2185.822,1461.012,2184.884,1460.743,2185.018Z" transform="translate(-1436.768 -2118.236)" fill="#e4cfcf"/>
          <path id="Trazado_133895" data-name="Trazado 133895" d="M1433.471,2036.81c-.683,5.316-1.644,12.407-2.568,19.1-5.977.028-11.281-.325-14.334-.6-.35-4.092-.728-8-1.1-11.6l1.391-9.724S1424.514,2035.043,1433.471,2036.81Z" transform="translate(-1412.93 -2022.736)" fill="#de9e90"/>
        </g>
        <g id="leg_L" data-name="leg L" transform="translate(89.423 159.24)">
          <path id="Trazado_133896" data-name="Trazado 133896" d="M1497.157,2141.11v12.218l5.547,2.619,3.332-4.042-1.021-10.8Z" transform="translate(-1497.149 -2092.808)" fill="#e4cfcf"/>
          <path id="Trazado_133897" data-name="Trazado 133897" d="M1513.035,2165.819s1.31-9.984,1.464-9.522,1.868,5.48,1.868,5.48Z" transform="translate(-1507.481 -2102.68)" fill="#aa9494"/>
          <path id="Trazado_133898" data-name="Trazado 133898" d="M1522.351,2065.98s-1.714-.6-4.235-1.6c-.677-.266-1.41-.56-2.187-.883,0,0,0,0,0,0-.715-.294-1.463-.611-2.234-.943-2.6-1.129-5.438-2.46-7.979-3.875-.337-.187-.669-.378-1-.565-.284-.167-.563-.335-.835-.5a18.508,18.508,0,0,1-5.181-4.246,3.458,3.458,0,0,1-.8-2.229,2.237,2.237,0,0,1,.238-.847c.439-.875-.748-6.843-.971-14.373-.035-1.136-.046-2.305-.028-3.5.071-4.428.357-9.125.7-13.333.609-7.515,1.385-13.457,1.385-13.457l14.941-2.793c.142.414-1.126,10.135-2.546,20.577-.444,3.27-.9,6.61-1.339,9.755-.819,5.917-1.555,11.152-1.948,13.95a4.824,4.824,0,0,0,1.114,3.809l3.109,3.626,3.028,3.531.8.928v0l.852.992.644.753,2.209,2.574Z" transform="translate(-1497.135 -2002.84)" fill="#eaac9d"/>
          <path id="Trazado_133899" data-name="Trazado 133899" d="M1500.662,2147.205c-1.59-.837.932,1.978,1.986,3.433.776,1.07,1.687,2.251,2.743,3.506,3.348,3.979,8.49,9.423,13.359,10.216,5.946.968,8.607.2,9.794-.743a1.7,1.7,0,0,0,.045-2.6l-5.113-4.437a1.707,1.707,0,0,1-.313-.36,28.684,28.684,0,0,0-3.258-3.68,29.9,29.9,0,0,0-4.263-3.631,1.754,1.754,0,0,0-.187-.11c-.522-.273-.947-.664-.945-.626.1,1.5-.833,2.848-3.792,2.817C1508.741,2150.963,1502.6,2148.227,1500.662,2147.205Z" transform="translate(-1499.097 -2096.675)" fill="#f8e8e7"/>
          <g id="Grupo_84160" data-name="Grupo 84160" transform="translate(17.126 59.825)">
            <path id="Trazado_133900" data-name="Trazado 133900" d="M1557.8,2178.412l-1.151.718s-.751,2.646-4.8,1.915a9.843,9.843,0,0,1-3.9-1.567,6.883,6.883,0,0,1-1.8-1.715c.274,0,7.079-3.665,7.079-3.665l2.156,1.218,2.369,1.339A1.023,1.023,0,0,1,1557.8,2178.412Z" transform="translate(-1546.16 -2174.098)" fill="#eaac9d"/>
            <path id="Trazado_133901" data-name="Trazado 133901" d="M1555.395,2175.315c-1.423,1.772-4.641,3.2-7.439,4.162a6.883,6.883,0,0,1-1.8-1.715c.274,0,7.079-3.665,7.079-3.665Z" transform="translate(-1546.16 -2174.098)" fill="#de9e90"/>
          </g>
          <path id="Trazado_133902" data-name="Trazado 133902" d="M1537.493,2164.795a1.652,1.652,0,0,1,.832,1.17c.209.627.181,1.031.913.661.688-.348.431-.631.481-1.33.013-.175.146-.789.429-.613a9.465,9.465,0,0,0,1.343.659c.433.188.5.361.318-.059a5.148,5.148,0,0,0-1.348-1.8c-.177-.156-.01-.946.277-.867a7.092,7.092,0,0,0,2.31.281,11.075,11.075,0,0,0,1.141-.154c.6-.094.714.04-.115-.331a9.22,9.22,0,0,0-3.964-.709c-.22,0-.155-.68.078-.708a7.824,7.824,0,0,1,3.7.456c.536.2,1.4.436,1.438,1.119.035.648-.491.816-1.016.964a6.788,6.788,0,0,1-2.5.214,2.635,2.635,0,0,1,.667,2.045c-.275,1.082-1.5.468-2.261.01,0,.838-.074,1.794-.873,2.129-1.3.544-1.467-1.74-2.139-2.255C1537,2165.522,1537.249,2164.673,1537.493,2164.795Z" transform="translate(-1523.155 -2105.711)" fill="#e4cfcf"/>
          <path id="Trazado_133903" data-name="Trazado 133903" d="M1511.621,2053.684c-.444,3.27-.9,6.61-1.339,9.755a53.411,53.411,0,0,1-13.11,2.749c-.035-1.136-.046-2.305-.028-3.5.071-4.428.357-9.125.7-13.333A83.978,83.978,0,0,1,1511.621,2053.684Z" transform="translate(-1497.135 -2033.107)" fill="#de9e90"/>
        </g>
        <g id="scirt" transform="translate(10.652 90.117)">
          <path id="Trazado_133904" data-name="Trazado 133904" d="M1381.747,1891.714q-.135.558-.3,1.09a15.794,15.794,0,0,1-6.386,8.438q-.285.2-.583.385c-3.91,2.5-8.986,3.949-14.5,4.779-.173.028-.349.053-.524.077-2.183.314-4.43.532-6.7.686-.169.011-.338.024-.507.032q-1.437.093-2.875.152c-.141,0-.282.008-.423.015-3.69.141-7.368.148-10.842.135-.116,0-.233,0-.349,0-4.409-.019-8.477-.064-11.81.1-.2.009-.389.019-.58.03-15.528.913-6.589-11.853-8.041-29.795,0,0-22.137-5.661-39.157-17.155-11.021-7.443-6.4-34.291,1.416-41.452.186-.171.387-.342.6-.511,8.749-6.983,39.756-13.753,39.756-13.753a13.838,13.838,0,0,0-.479,1.524,17.265,17.265,0,0,0,.374,10.472c1.355,3.438,4.315,6.837,10.279,9,16.275,5.912,49.413,23.4,52.079,59.137A21.372,21.372,0,0,1,1381.747,1891.714Z" transform="translate(-1271.643 -1804.965)" fill="#e4cfcf"/>
          <g id="Grupo_84161" data-name="Grupo 84161" transform="translate(0 1.524)">
            <path id="Trazado_133905" data-name="Trazado 133905" d="M1375.06,1904.082q-.285.2-.583.385a49.674,49.674,0,0,0,.855-12.032c-.813-16.371-9.057-31.117-21.04-42.01-6.516-5.924-14.081-10.282-21.487-14.966-5.9-3.733-12.684-8-15.629-14.613-1.229.393-2.758.8-4.659,1.208-1.069.231-2.046.438-2.946.629-.975,4.609,2.444,8.819,6.211,11.139,3.808,2.345,8.178,3.733,12.223,5.606,7.066,3.273,13.955,7.3,19.362,12.99a47.356,47.356,0,0,1,10.884,19.92c3.4,12.033,2.946,24.527,1.727,36.908-.173.028-.349.053-.524.077a164.044,164.044,0,0,0,.979-16.841,69.821,69.821,0,0,0-4.188-24.95,44.04,44.04,0,0,0-14.457-19.336c-6.538-4.99-14.021-8.137-21.5-11.408-3.434-1.5-6.961-3.344-9.142-6.512a10.163,10.163,0,0,1-1.845-7.534l-2.037.43a13.675,13.675,0,0,0,5.809,12.3,58.888,58.888,0,0,0,5.719,3.282,69.488,69.488,0,0,1,6.363,3.974c3.568,2.478,7.034,5.14,10.418,7.862a35.582,35.582,0,0,1,8.435,9.274c4.195,6.953,6.741,15.1,8.212,23.045a83.38,83.38,0,0,1,.534,27.1c-.169.011-.338.024-.507.032q.594-3.688.83-7.458a80.291,80.291,0,0,0-2.45-25.277c-2.166-8.248-5.441-17.063-11.688-23.1a104.548,104.548,0,0,0-9.967-8.05,89.562,89.562,0,0,0-11.434-7.451c-3.166-1.7-6.41-3.476-8.377-6.6a14.863,14.863,0,0,1-2.11-8.885c-7.693,1.614-8.043,1.633-12.6,3.506-1.347.554-2.914,1.084-4.505,1.787l-.378.171h0c-4.744,2.179-9.584,6.008-9.431,16.557.09,6.13,8.559,9.106,18.269,13.865a.007.007,0,0,1,0,0c.629.308,1.266.625,1.9.949,12.6,6.416,26.475,16.285,26.645,39.976a44.514,44.514,0,0,1-1,10.412c-.2.009-.389.019-.58.03-15.528.913-6.589-11.853-8.041-29.8,0,0-22.137-5.661-39.157-17.155-11.021-7.443-6.4-34.291,1.416-41.452.186-.171.387-.342.6-.511l24.7-7.248,14.577-4.982a17.264,17.264,0,0,0,.374,10.472,17.953,17.953,0,0,1-2.378.952c1.807,3.758,4.907,6.724,8.214,9.227,4.045,3.059,8.424,5.653,12.736,8.306,7.361,4.528,14.357,9.442,20.3,15.774a64.025,64.025,0,0,1,12.9,19.879A56.253,56.253,0,0,1,1375.06,1904.082Z" transform="translate(-1271.643 -1809.328)" fill="#cfbdbd"/>
            <path id="Trazado_133906" data-name="Trazado 133906" d="M1406.043,1954.205c-.141,0-.282.008-.423.015.167-16.154-7.406-32.01-17.177-44.5a108.16,108.16,0,0,0-16.518-16.819c-5.225-4.3-11.554-8.574-13.187-15.58-.037-.156.122-.536.194-.235,1.065,4.381,4.15,7.729,7.462,10.609,3.22,2.8,6.651,5.334,9.82,8.2,11.483,10.371,20.961,23.27,26.1,37.949A61.494,61.494,0,0,1,1406.043,1954.205Z" transform="translate(-1328.309 -1853.341)" fill="#cfbdbd"/>
            <path id="Trazado_133907" data-name="Trazado 133907" d="M1494.9,1938.371q-.135.558-.3,1.09c-.053-.515-.114-1.029-.175-1.542a66.383,66.383,0,0,0-5.5-20.221,64.265,64.265,0,0,0-10.759-15.783c-9.247-10.16-20.916-17.636-32.549-24.754-.137-.083-.075-.566.066-.481a210.651,210.651,0,0,1,20.516,13.613c10.346,8,19.552,17.979,24.4,30.293A71.711,71.711,0,0,1,1494.9,1938.371Z" transform="translate(-1384.793 -1853.146)" fill="#cfbdbd"/>
            <path id="Trazado_133908" data-name="Trazado 133908" d="M1375.669,1945.426c-.116,0-.233,0-.349,0,0-.714-.023-1.428-.056-2.146a58.917,58.917,0,0,0-7.323-25.029,114.245,114.245,0,0,0-6.69-10.9,67.16,67.16,0,0,0-8.176-10.1c-5.794-5.693-13.474-9.146-18.827-15.323-4.332-5-6.867-12.637-2.927-18.624.12-.182.165.192.1.288-2.613,4.137-2.208,9.4.006,13.625,2.076,3.953,5.463,7.034,8.993,9.678,3.263,2.446,6.735,4.609,9.893,7.195a51.534,51.534,0,0,1,8.329,8.866,99.331,99.331,0,0,1,12.385,20.837A57.355,57.355,0,0,1,1375.669,1945.426Z" transform="translate(-1309.201 -1844.412)" fill="#cfbdbd"/>
            <path id="Trazado_133909" data-name="Trazado 133909" d="M1335.829,1907.781a26.108,26.108,0,0,0-10.123-15.024,47.142,47.142,0,0,1-7.012-5.747c-2.785-3.1-3.291-6.882-3.141-10.907.155-4.15.25-8.707,2.712-12.236.066-.095.024-.492-.07-.361-1.944,2.7-2.475,5.979-2.72,9.224-.267,3.52-.623,7.3.572,10.694,2.2,6.247,9.1,8.818,13.406,13.317a24.74,24.74,0,0,1,6.1,11.254C1335.659,1908.441,1335.9,1908.081,1335.829,1907.781Z" transform="translate(-1299.99 -1844.563)" fill="#cfbdbd"/>
          </g>
        </g>
        <g id="chair_front" data-name="chair front" transform="translate(1.569 110.257)">
          <path id="Trazado_133910" data-name="Trazado 133910" d="M1393.339,2046.095h-4.882l.515-130.681h4.883Z" transform="translate(-1338.568 -1896.971)" fill="#4f3737"/>
          <path id="Trazado_133911" data-name="Trazado 133911" d="M1297.973,2095.157l-52.33-17v-4.476l52.33,17Z" transform="translate(-1245.643 -1999.95)" fill="#4f3737"/>
          <path id="Trazado_133912" data-name="Trazado 133912" d="M1300.967,1886.937l-55.323-17.558v-6.76l55.323,17.558Z" transform="translate(-1245.643 -1862.619)" fill="#4f3737"/>
          <path id="Trazado_133913" data-name="Trazado 133913" d="M1300.415,1986.731l-54.771-17.8v-4.476l54.771,17.155Z" transform="translate(-1245.643 -1928.884)" fill="#4f3737"/>
        </g>
        <g id="hand_R-4" data-name="hand R" transform="translate(6.877 88.203)">
          <path id="Trazado_133914" data-name="Trazado 133914" d="M1313.551,1842.971a1.711,1.711,0,0,1-3.036.049c-.329-.609-.731-1.351-1.219-2.236a5.145,5.145,0,0,0-2.48-1.817c1.022.958,1.6,1.787,1.6,2.495,0,.111-.1.18-.332.238a2.042,2.042,0,0,1-1.973-.595c-1.445-1.51-5.615-3.363-8.42-4.46-1.088-.177-2.1-.321-2.965-.432-1.621-.212-2.7-.312-2.7-.312-1.439-.054-2.886-.186-4.321-.381-10.316-1.4-20.084-6.057-23.294-8.47-.922-.693-1.633-2.946-2.181-5.929a112.2,112.2,0,0,1-1.334-12.193c-.413-6.352,1.558-8.816,1.558-8.816l16.4-.625s-.6,4.71-1.182,9.441c-.4,3.269-.787,6.546-.956,8.293-.058.588-.09,1-.09,1.184,0,.969,8.223,6.053,14.209,9.627.761.453,1.486.883,2.153,1.277.258.151.5.3.744.438l0,0,.663.389s0,0,0,0c.24.137.464.27.676.394,1.167.682,1.885,1.095,1.885,1.095l.064-.015h0c.825-.19,9.182-1.965,14.784,2.863C1315.3,1837.488,1314.657,1840.784,1313.551,1842.971Z" transform="translate(-1260.838 -1799.487)" fill="#eaac9d"/>
          <g id="decor" transform="translate(26.582 27.911)">
            <path id="Trazado_133915" data-name="Trazado 133915" d="M1345.516,1880.409a4.536,4.536,0,0,0-4.628-.662,6.018,6.018,0,0,0-3.111,3.165c-1.9,4.187,0,5.272,0,5.272l6.122,1.292s1.012-4.849,3.412-6.6C1347.311,1882.88,1347.892,1882.309,1345.516,1880.409Z" transform="translate(-1336.932 -1879.386)" fill="#f3dda7"/>
            <path id="Trazado_133916" data-name="Trazado 133916" d="M1349.822,1885.858a1.611,1.611,0,0,0-2.177-1.127c-.129.052-.117.5.039.444a1.368,1.368,0,0,1,1.452.319,2.273,2.273,0,0,1,.422,1.654,2.307,2.307,0,0,1-.375.867,2.418,2.418,0,0,1-2.569,1.108,1.751,1.751,0,0,1-.653-.3,2.195,2.195,0,0,1-.464-1.434c.114-.417.637-.731,1-.9a1.828,1.828,0,0,1,.709-.251l.284-.037.428.854a.487.487,0,0,1-.314.219c-.028-.184-.106-.372-.219-.412-.4-.143-.809-.213-.968.269a.929.929,0,0,0,.2.839c.659.63,1.788-.109,1.929-.854a1.337,1.337,0,0,0-1.213-1.7,2.411,2.411,0,0,0-2.3,1.941c-.3,2.532,2.831,3.357,4.24,1.453A3.392,3.392,0,0,0,1349.822,1885.858Z" transform="translate(-1342.19 -1882.781)" fill="#ddc28a"/>
          </g>
          <path id="Trazado_133917" data-name="Trazado 133917" d="M1277.771,1826.514c-.4,3.269-.787,6.546-.956,8.293a21.43,21.43,0,0,1-6.365,4.319,8.436,8.436,0,0,1-8.116-.419,112.2,112.2,0,0,1-1.334-12.193Z" transform="translate(-1260.944 -1817.073)" fill="#de9e90"/>
        </g>
        <g id="top" transform="translate(5.016 45.196)">
          <path id="Trazado_133918" data-name="Trazado 133918" d="M1323.081,1717.885a30.007,30.007,0,0,1-3.457,1c-.785.169-1.223.221-1.223.221s-3.417-.792-7.079,2.91a16.147,16.147,0,0,0-1.873,2.3l-4.272,6.3-8.746,3.071h-11.55s-.282.267-.77.694c-1.851,1.613-6.666,5.522-10.177,5.78-.043,0-.086.007-.128.009-1.965.1-5.418.221-8.776.189-1.417-.016-2.818-.059-4.083-.146-2.506-.171-4.481-.511-5-1.129-1.407-1.67,1.037-11.364,1.037-11.364s0-.069.006-.2c.092-2.848,1.351-35.121,11.613-42.229,10.739-7.437,7.49-4.525,7.49-4.525s18.639,5.556,18.35-4.39c0,0,12.77,3.651,21.925,24.713S1325.929,1716.88,1323.081,1717.885Z" transform="translate(-1255.51 -1676.372)" fill="#f2f5f8"/>
          <path id="Trazado_133919" data-name="Trazado 133919" d="M1291.669,1816.909c-.043,0-.085.007-.128.009-1.965.1-5.418.221-8.777.189.881-6.581,3.425-23.189,6.581-22.771C1292.464,1794.752,1292.165,1808.384,1291.669,1816.909Z" transform="translate(-1273.243 -1753.123)" fill="#ededed"/>
          <path id="Trazado_133920" data-name="Trazado 133920" d="M1260.947,1814.005c-2.506-.171-4.481-.511-5-1.13-1.407-1.671,1.037-11.364,1.037-11.364s0-.068.006-.2c1.745-5.6,4.49-13.632,5.127-11.017C1262.814,1793.162,1262.471,1806.78,1260.947,1814.005Z" transform="translate(-1255.51 -1750.166)" fill="#ededed"/>
          <path id="Trazado_133921" data-name="Trazado 133921" d="M1339.265,1793.216h-7.93s-.282.267-.769.694c-1.379-8.423-4-26.94-3.626-26.011C1327.37,1768.952,1337.228,1785.788,1339.265,1793.216Z" transform="translate(-1301.964 -1735.903)" fill="#ededed"/>
          <path id="Trazado_133922" data-name="Trazado 133922" d="M1410.531,1753.582c-.785.169-1.223.221-1.223.221s-3.417-.792-7.079,2.91c-1.443-2.786-2.957-7.111-4.488-13.648-3.784-16.145-2.183-13.146-2.183-13.146C1396.268,1730.744,1406.652,1745.586,1410.531,1753.582Z" transform="translate(-1346.416 -1711.07)" fill="#ededed"/>
          <g id="Grupo_84162" data-name="Grupo 84162" transform="translate(30.522 2.587)">
            <path id="Trazado_133923" data-name="Trazado 133923" d="M1344.963,1690.593a9.124,9.124,0,0,1-1.824-.165.331.331,0,0,1,.151-.646,8.736,8.736,0,0,0,10.106-5.794.331.331,0,1,1,.617.242A9.288,9.288,0,0,1,1344.963,1690.593Z" transform="translate(-1342.883 -1683.778)" fill="#e6e4e1"/>
          </g>
        </g>
      </g>
    </g>
  </g>
</svg>
