<svg xmlns="http://www.w3.org/2000/svg" width="477" height="338.577" viewBox="0 0 477 338.577">
  <g id="Grupo_83342" data-name="Grupo 83342" transform="translate(-1630.317 -2433.857)">
    <path id="Trazado_115882" data-name="Trazado 115882" d="M1630.317,2664.238v-12.871L1743,2599.232l157.658,91.024-112.676,65.053Z" transform="translate(0 -96.645)" fill="#cfcfda"/>
    <path id="Trazado_115883" data-name="Trazado 115883" d="M1630.317,2633.261,1743,2568.251l157.658,91.024-112.676,65.053Z" transform="translate(0 -78.54)" fill="#eeeef4"/>
    <path id="Trazado_115886" data-name="Trazado 115886" d="M1919.387,2956.627v-12.9l6.844,1.617-.43,8.132Z" transform="translate(-168.933 -297.97)" fill="#0086b5"/>
    <path id="Trazado_115887" data-name="Trazado 115887" d="M2759.626,3003.684v-13.029h-10.313l-2.79,7.268Z" transform="translate(-652.312 -325.394)" fill="#0086b5"/>
    <path id="Trazado_115888" data-name="Trazado 115888" d="M1923.152,2835.612l147.2-84.985a21.006,21.006,0,0,1,21.008,0l181.215,104.644a7.345,7.345,0,0,1,0,12.722l-147.45,85.1a21.008,21.008,0,0,1-21,0l-180.971-104.442a7.529,7.529,0,0,1,0-13.043Z" transform="translate(-168.932 -183.476)" fill="#0086b5"/>
    <path id="Trazado_115889" data-name="Trazado 115889" d="M2272.575,2837.017l-147.45,85.1a21.009,21.009,0,0,1-21,0L1923.15,2817.677a7.535,7.535,0,0,1,0-13.046l147.2-84.979a20.966,20.966,0,0,1,21,0l30.259,17.469,8.584,4.962,142.377,82.214a7.466,7.466,0,0,1,2.3,10.234A10.018,10.018,0,0,1,2272.575,2837.017Z" transform="translate(-168.932 -165.371)" fill="#009adb"/>
    <path id="Trazado_115890" data-name="Trazado 115890" d="M2270.774,2837.876l-1.485.859-145.2,83.648-167.726-96.833-1.5-.858,146.721-84.387Z" transform="translate(-189.665 -179.089)" fill="#0086b5"/>
    <path id="Trazado_115891" data-name="Trazado 115891" d="M2271.4,2841.143l-3.519,2.026-40.3,23.215-53.124,30.6-48.258,27.8-167.725-96.833,145.227-83.532,86.652,49.983Z" transform="translate(-191.774 -181.496)" fill="#ddd"/>
    <path id="Trazado_115893" data-name="Trazado 115893" d="M2571.934,3080.536a15.637,15.637,0,0,1-14.146,0c-3.907-2.255-3.907-5.913,0-8.169a15.64,15.64,0,0,1,14.148,0C2575.847,3074.623,2575.847,3078.281,2571.934,3080.536Z" transform="translate(-540.303 -372.158)" fill="#50455f"/>
    <path id="Trazado_115894" data-name="Trazado 115894" d="M2576.117,3079.713a3.749,3.749,0,0,1-1.89,2.139,10.548,10.548,0,0,1-9.537,0,3.749,3.749,0,0,1-1.89-2.139c-.325-1.193.3-2.445,1.89-3.365a10.545,10.545,0,0,1,9.537,0C2575.808,3077.268,2576.443,3078.521,2576.117,3079.713Z" transform="translate(-544.897 -374.807)" fill="#d3d4e3"/>
    <path id="Trazado_115895" data-name="Trazado 115895" d="M2576.232,3081.441a3.751,3.751,0,0,1-1.889,2.138,10.546,10.546,0,0,1-9.536,0,2.153,2.153,0,0,1,0-4.275,10.542,10.542,0,0,1,9.536,0A3.749,3.749,0,0,1,2576.232,3081.441Z" transform="translate(-545.01 -376.534)" fill="#eeeef4"/>
    <path id="Trazado_115898" data-name="Trazado 115898" d="M2363.467,2909.638l-40.3,23.218-53.125,30.6c-15.12-11.262,1.682-21.367,19.236-31.038,18.8-10.36,12.351-14.085-13.417-28.961s-35.073.962-28.961,4.463c41.133,23.546,10.481,35.363-7.778,16.744s-40.67-2.265-57.991,8.953-58.385-6.5-42.387-24.472-39.193-31.477-5.715-45.726c22.3-9.49,37.158-2.9,44.6,2.566a8.581,8.581,0,0,1,2.686,10.547c-4.047,8.725-8.349,24.923,16.358,23.626,33.682-1.768-14.843-13.237,15.527-33.458s72.043-.833,71.434,20.025,58.034,18.721,71.4,20.009A17.657,17.657,0,0,1,2363.467,2909.638Z" transform="translate(-287.362 -247.968)" fill="#eeeef4"/>
    <ellipse id="Elipse_7955" data-name="Elipse 7955" cx="9.534" cy="16.514" rx="9.534" ry="16.514" transform="translate(1727.593 2579.345) rotate(-30.001)" fill="#50455f"/>
    <ellipse id="Elipse_7956" data-name="Elipse 7956" cx="9.534" cy="16.514" rx="9.534" ry="16.514" transform="translate(1676.263 2550.009) rotate(-30)" fill="#50455f"/>
    <ellipse id="Elipse_7957" data-name="Elipse 7957" cx="9.534" cy="16.514" rx="9.534" ry="16.514" transform="translate(1787.441 2614.165) rotate(-30.001)" fill="#50455f"/>
    <path id="Trazado_115899" data-name="Trazado 115899" d="M1725.47,2688.947l9.872-5.678,8.537,4.929-9.856,5.685Z" transform="translate(-55.608 -145.757)" fill="#b8b8c5"/>
    <path id="Trazado_115900" data-name="Trazado 115900" d="M2261.058,2819.449l-9.677-5.606-8.548,4.935,9.693,5.6Z" transform="translate(-357.955 -222.064)" fill="#b8b8c5"/>
    <path id="Trazado_115901" data-name="Trazado 115901" d="M1975.444,2599.024l59.837-34.547v78.973l-59.837,34.531Z" transform="translate(-201.692 -76.335)" fill="#eeeef4"/>
    <path id="Trazado_115902" data-name="Trazado 115902" d="M2179.242,2809.839,2119.4,2844.4l-.014-19.743,59.855-34.556Z" transform="translate(-285.814 -208.191)" fill="#46375d"/>
    <path id="Trazado_115903" data-name="Trazado 115903" d="M2155.2,2762.331l-17.1-19.743-59.855,34.554,17.1,19.744Z" transform="translate(-261.77 -180.423)" fill="#eeeef4"/>
    <path id="Trazado_115904" data-name="Trazado 115904" d="M2057.695,2694.032l8.546,34.542,4.038-2.332,52.357-30.229,3.452-2-8.56-34.536Z" transform="translate(-249.76 -131.853)" fill="#cfcfda"/>
    <path id="Trazado_115905" data-name="Trazado 115905" d="M2071.129,2709.524l6.7,27.07.306,1.231,52.357-30.229-7.015-28.3-1,.574Z" transform="translate(-257.611 -143.437)" fill="#46375d"/>
    <path id="Trazado_115906" data-name="Trazado 115906" d="M2071.129,2710.329l6.7,27.071,51.357-29.651-6.709-27.071Z" transform="translate(-257.611 -144.242)" fill="#586aa8"/>
    <path id="Trazado_115907" data-name="Trazado 115907" d="M2081.475,2638.685l-25.636-14.8L1996,2658.419l25.635,14.814Z" transform="translate(-213.706 -111.055)" fill="#eeeef4"/>
    <path id="Trazado_115908" data-name="Trazado 115908" d="M1996.018,2706.98v59.23l51.288,29.6-.018-19.743-17.09-19.743-8.55-34.535Z" transform="translate(-213.716 -159.613)" fill="#ddd"/>
    <path id="Trazado_115909" data-name="Trazado 115909" d="M1843.221,2650.243v-78.962L1749.19,2517v78.958Z" transform="translate(-69.47 -48.592)" fill="#bfbf00"/>
    <path id="Trazado_115910" data-name="Trazado 115910" d="M1934.306,2802.895l17.1,9.88,8.518-24.666-17.1-9.88Z" transform="translate(-177.651 -201.251)" fill="#b8b8c5"/>
    <path id="Trazado_115911" data-name="Trazado 115911" d="M1934.3,2793.021v9.872l8.55-4.927-.035-19.744S1934.3,2783.15,1934.3,2793.021Z" transform="translate(-177.65 -201.248)" fill="#b8b8c5"/>
    <path id="Trazado_115912" data-name="Trazado 115912" d="M1728.612,2695.124v9.863l85.485,49.348v-9.863Z" transform="translate(-57.444 -152.685)" fill="#b8b8c5"/>
    <path id="Trazado_115913" data-name="Trazado 115913" d="M1725.476,2696.922l.008,9.872,85.471,49.347,1.3-.75v-8.361Z" transform="translate(-55.611 -153.736)" fill="#cfcfda"/>
    <path id="Trazado_115914" data-name="Trazado 115914" d="M1843.221,2522.689l-94.031-54.277,59.837-34.555,94.031,54.283Z" transform="translate(-69.47)" fill="#a0a603"/>
    <path id="Trazado_115915" data-name="Trazado 115915" d="M2055.839,2576.378,1996,2610.921v9.857l59.827-34.528Z" transform="translate(-213.706 -83.289)" fill="#d3d4e3"/>
    <path id="Trazado_115916" data-name="Trazado 115916" d="M2043.833,2569.428l-8.548-4.951-59.837,34.547,8.548,4.949Z" transform="translate(-201.694 -76.335)" fill="#eeeef4"/>
    <path id="Trazado_115917" data-name="Trazado 115917" d="M1983.956,2662.411l-8.572-4.92.026-9.885,8.549,4.948Z" transform="translate(-201.657 -124.915)" fill="#635371"/>
    <path id="Trazado_115918" data-name="Trazado 115918" d="M1999.419,2661.881a2.478,2.478,0,0,0,.351,1.381c.483.742,1.42.892,2.508.266a6.325,6.325,0,0,0,2.859-4.951c0-1.328-.677-2.084-1.655-2.038a2.559,2.559,0,0,0-1.2.384A6.317,6.317,0,0,0,1999.419,2661.881Z" transform="translate(-215.702 -130.135)" fill="#eeeef4"/>
    <path id="Trazado_115919" data-name="Trazado 115919" d="M1999.419,2661.875a2.475,2.475,0,0,0,.351,1.375,2.624,2.624,0,0,0,1.206-.385,6.323,6.323,0,0,0,2.859-4.951,2.519,2.519,0,0,0-.352-1.387,2.566,2.566,0,0,0-1.2.384A6.317,6.317,0,0,0,1999.419,2661.875Z" transform="translate(-215.703 -130.129)" fill="#46375d"/>
    <path id="Trazado_115920" data-name="Trazado 115920" d="M2040.551,2638.471a2.482,2.482,0,0,0,.352,1.381c.481.742,1.42.892,2.507.268a6.326,6.326,0,0,0,2.86-4.951c0-1.328-.677-2.084-1.655-2.039a2.561,2.561,0,0,0-1.206.385A6.316,6.316,0,0,0,2040.551,2638.471Z" transform="translate(-239.74 -116.454)" fill="#eeeef4"/>
    <path id="Trazado_115921" data-name="Trazado 115921" d="M2040.551,2638.474a2.482,2.482,0,0,0,.352,1.381,2.625,2.625,0,0,0,1.205-.385,6.324,6.324,0,0,0,2.859-4.95,2.523,2.523,0,0,0-.351-1.387,2.561,2.561,0,0,0-1.206.385A6.316,6.316,0,0,0,2040.551,2638.474Z" transform="translate(-239.74 -116.457)" fill="#46375d"/>
    <path id="Trazado_115922" data-name="Trazado 115922" d="M2061.116,2626.269a2.471,2.471,0,0,0,.353,1.38c.481.743,1.419.893,2.508.268a6.324,6.324,0,0,0,2.859-4.951c0-1.328-.677-2.084-1.654-2.038a2.568,2.568,0,0,0-1.2.383A6.318,6.318,0,0,0,2061.116,2626.269Z" transform="translate(-251.758 -109.324)" fill="#eeeef4"/>
    <path id="Trazado_115923" data-name="Trazado 115923" d="M2061.116,2626.272a2.472,2.472,0,0,0,.353,1.38,2.625,2.625,0,0,0,1.2-.383,6.325,6.325,0,0,0,2.86-4.951,2.519,2.519,0,0,0-.352-1.387,2.563,2.563,0,0,0-1.2.384A6.317,6.317,0,0,0,2061.116,2626.272Z" transform="translate(-251.758 -109.326)" fill="#46375d"/>
    <path id="Trazado_115924" data-name="Trazado 115924" d="M2122.838,2590.544a2.474,2.474,0,0,0,.351,1.375c.482.742,1.419.892,2.508.268a6.325,6.325,0,0,0,2.86-4.951c0-1.328-.677-2.084-1.656-2.039a2.561,2.561,0,0,0-1.2.385A6.313,6.313,0,0,0,2122.838,2590.544Z" transform="translate(-287.829 -88.442)" fill="#eeeef4"/>
    <path id="Trazado_115925" data-name="Trazado 115925" d="M2122.838,2590.56a2.477,2.477,0,0,0,.352,1.381,2.615,2.615,0,0,0,1.205-.385,6.322,6.322,0,0,0,2.859-4.949,2.528,2.528,0,0,0-.352-1.388,2.554,2.554,0,0,0-1.2.385A6.313,6.313,0,0,0,2122.838,2590.56Z" transform="translate(-287.829 -88.456)" fill="#46375d"/>
    <path id="Trazado_115926" data-name="Trazado 115926" d="M2081.67,2614.645a2.475,2.475,0,0,0,.352,1.381c.481.743,1.42.893,2.508.268a6.327,6.327,0,0,0,2.859-4.952c0-1.328-.677-2.084-1.655-2.038a2.564,2.564,0,0,0-1.2.384A6.318,6.318,0,0,0,2081.67,2614.645Z" transform="translate(-263.77 -102.53)" fill="#eeeef4"/>
    <path id="Trazado_115927" data-name="Trazado 115927" d="M2081.67,2614.648a2.475,2.475,0,0,0,.352,1.381,2.613,2.613,0,0,0,1.2-.384,6.321,6.321,0,0,0,2.861-4.951,2.526,2.526,0,0,0-.352-1.387,2.557,2.557,0,0,0-1.2.383A6.319,6.319,0,0,0,2081.67,2614.648Z" transform="translate(-263.77 -102.533)" fill="#46375d"/>
    <path id="Trazado_115928" data-name="Trazado 115928" d="M2141.141,2838.2l41.033-23.7a.977.977,0,0,0,.357-1.334h0a.977.977,0,0,0-1.334-.357l-41.033,23.7a.978.978,0,0,0-.357,1.335h0A.978.978,0,0,0,2141.141,2838.2Z" transform="translate(-297.67 -221.381)" fill="#eeeef4"/>
    <path id="Trazado_115929" data-name="Trazado 115929" d="M2141.141,2849.171l41.033-23.7a.977.977,0,0,0,.357-1.334h0a.977.977,0,0,0-1.334-.358l-41.033,23.7a.977.977,0,0,0-.357,1.334h0a.976.976,0,0,0,1.333.358Z" transform="translate(-297.67 -227.795)" fill="#eeeef4"/>
    <path id="Trazado_115930" data-name="Trazado 115930" d="M2141.141,2861.709l41.033-23.7a.977.977,0,0,0,.357-1.334h0a.978.978,0,0,0-1.334-.358l-41.033,23.7a.977.977,0,0,0-.357,1.334h0A.977.977,0,0,0,2141.141,2861.709Z" transform="translate(-297.67 -235.122)" fill="#eeeef4"/>
    <path id="Trazado_115931" data-name="Trazado 115931" d="M2016.551,2758.46a6.772,6.772,0,0,0,3.374,5.849l19.308,11.145-.4-1.634-5.185-21.333-15.782-9.122-1.3-.75Z" transform="translate(-225.716 -180.439)" fill="#46375d"/>
    <path id="Trazado_115932" data-name="Trazado 115932" d="M2019.687,2758.86a6.772,6.772,0,0,0,3.374,5.85l17.607,10.161-5.185-21.333-15.782-9.122Z" transform="translate(-227.548 -181.491)" fill="#586aa8"/>
    <g id="Grupo_83341" data-name="Grupo 83341" transform="translate(1693.878 2488.151)">
      <path id="Trazado_115933" data-name="Trazado 115933" d="M1912.528,2692.037l.009-53.357a2.932,2.932,0,0,0-2.93-2.932h0a2.933,2.933,0,0,0-2.931,2.931l-.009,53.356a2.932,2.932,0,0,0,2.93,2.932h0A2.932,2.932,0,0,0,1912.528,2692.037Z" transform="translate(-1855.377 -2606.137)" fill="#ddd700"/>
      <path id="Trazado_115934" data-name="Trazado 115934" d="M1891.963,2680.163l.009-53.357a2.931,2.931,0,0,0-2.93-2.931h0a2.931,2.931,0,0,0-2.932,2.929h0l-.008,53.357a2.931,2.931,0,0,0,2.929,2.932h0A2.932,2.932,0,0,0,1891.963,2680.163Z" transform="translate(-1843.36 -2599.198)" fill="#ddd700"/>
      <path id="Trazado_115935" data-name="Trazado 115935" d="M1868.481,2671.229h0a2.93,2.93,0,0,0,2.93-2.93h0v-53.357a2.93,2.93,0,0,0-2.93-2.931h0a2.931,2.931,0,0,0-2.932,2.929h0V2668.3a2.93,2.93,0,0,0,2.929,2.931Z" transform="translate(-1831.348 -2592.264)" fill="#ddd700"/>
      <path id="Trazado_115936" data-name="Trazado 115936" d="M1847.89,2659.345h0a2.931,2.931,0,0,0,2.932-2.929V2603.05a2.93,2.93,0,0,0-2.929-2.931h0a2.93,2.93,0,0,0-2.931,2.93h0v53.365a2.931,2.931,0,0,0,2.931,2.93Z" transform="translate(-1819.315 -2585.315)" fill="#ddd700"/>
      <path id="Trazado_115937" data-name="Trazado 115937" d="M1827.322,2647.456h0a2.932,2.932,0,0,0,2.932-2.931h0v-53.357a2.932,2.932,0,0,0-2.932-2.932h0a2.932,2.932,0,0,0-2.931,2.932h0v53.357a2.93,2.93,0,0,0,2.929,2.931Z" transform="translate(-1807.295 -2578.371)" fill="#ddd700"/>
      <path id="Trazado_115938" data-name="Trazado 115938" d="M1806.774,2635.592h0a2.931,2.931,0,0,0,2.931-2.932h0V2579.3a2.931,2.931,0,0,0-2.931-2.931h0a2.931,2.931,0,0,0-2.931,2.931h0v53.357a2.932,2.932,0,0,0,2.931,2.932Z" transform="translate(-1795.287 -2571.437)" fill="#ddd700"/>
      <path id="Trazado_115939" data-name="Trazado 115939" d="M1786.188,2623.718h0a2.93,2.93,0,0,0,2.93-2.93h0v-53.357a2.931,2.931,0,0,0-2.93-2.931h0a2.931,2.931,0,0,0-2.932,2.931h0v53.357a2.93,2.93,0,0,0,2.929,2.931Z" transform="translate(-1783.256 -2564.498)" fill="#ddd700"/>
    </g>
    <ellipse id="Elipse_7958" data-name="Elipse 7958" cx="9.534" cy="16.514" rx="9.534" ry="16.514" transform="translate(1723.033 2581.986) rotate(-30)" fill="#46375d"/>
    <path id="Trazado_115940" data-name="Trazado 115940" d="M1877.837,2798.011a14.065,14.065,0,0,0,6.361,11.021c2.009,1.159,3.794,1.125,4.962.125a4.876,4.876,0,0,0,1.407-3.8,14.048,14.048,0,0,0-6.373-11.021,5.088,5.088,0,0,0-3.64-.781C1878.911,2793.936,1877.837,2795.524,1877.837,2798.011Z" transform="translate(-144.651 -210.167)" fill="#eeeef4"/>
    <path id="Trazado_115941" data-name="Trazado 115941" d="M1880.933,2797.368a14.05,14.05,0,0,0,6.373,11.021,5.1,5.1,0,0,0,3.657.781,4.873,4.873,0,0,0,1.407-3.8,14.048,14.048,0,0,0-6.373-11.021,5.088,5.088,0,0,0-3.639-.782A4.769,4.769,0,0,0,1880.933,2797.368Z" transform="translate(-146.451 -210.174)" fill="#d3d4e3"/>
    <ellipse id="Elipse_7959" data-name="Elipse 7959" cx="9.534" cy="16.514" rx="9.534" ry="16.514" transform="translate(1671.703 2552.649) rotate(-30.001)" fill="#46375d"/>
    <path id="Trazado_115942" data-name="Trazado 115942" d="M1754.328,2727.443a14.1,14.1,0,0,0,6.361,11.031c2,1.15,3.786,1.115,4.953.125a4.817,4.817,0,0,0,1.416-3.8,14.075,14.075,0,0,0-6.373-11.021,5.051,5.051,0,0,0-3.647-.772C1755.4,2723.375,1754.328,2724.955,1754.328,2727.443Z" transform="translate(-72.472 -168.935)" fill="#eeeef4"/>
    <path id="Trazado_115943" data-name="Trazado 115943" d="M1757.443,2726.784a14.073,14.073,0,0,0,6.361,11.03,5.056,5.056,0,0,0,3.649.772,4.819,4.819,0,0,0,1.416-3.8,14.077,14.077,0,0,0-6.373-11.021,5.059,5.059,0,0,0-3.649-.772A4.827,4.827,0,0,0,1757.443,2726.784Z" transform="translate(-74.284 -168.928)" fill="#d3d4e3"/>
    <path id="Trazado_115944" data-name="Trazado 115944" d="M2103.654,2825.762l-68.386,39.479-59.837-34.56-.011,9.872,59.832,34.551,68.4-39.487Z" transform="translate(-201.679 -229.03)" fill="#b8b8c5"/>
    <path id="Trazado_115945" data-name="Trazado 115945" d="M2103.212,2827.331l-69.514,40.13-60.966-35.214v9.884l60.952,35.193,69.51-40.133Z" transform="translate(-200.108 -229.947)" fill="#cfcfda"/>
    <ellipse id="Elipse_7960" data-name="Elipse 7960" cx="9.534" cy="16.514" rx="9.534" ry="16.514" transform="translate(1782.881 2616.807) rotate(-30.001)" fill="#46375d"/>
    <path id="Trazado_115946" data-name="Trazado 115946" d="M2021.834,2881.807a14.093,14.093,0,0,0,6.361,11.03c2.01,1.151,3.794,1.116,4.961.125a4.823,4.823,0,0,0,1.408-3.794,14.079,14.079,0,0,0-6.373-11.03,5.054,5.054,0,0,0-3.647-.772C2022.907,2877.74,2021.834,2879.32,2021.834,2881.807Z" transform="translate(-228.803 -259.145)" fill="#eeeef4"/>
    <path id="Trazado_115947" data-name="Trazado 115947" d="M1972.72,2831.307l8.566,4.944,1.116-.643v-9.888Z" transform="translate(-200.101 -229.005)" fill="#b8b8c5"/>
    <path id="Trazado_115948" data-name="Trazado 115948" d="M2024.954,2881.159a14.09,14.09,0,0,0,6.36,11.022,5.08,5.08,0,0,0,3.656.772,4.825,4.825,0,0,0,1.409-3.794,14.077,14.077,0,0,0-6.374-11.03,5.048,5.048,0,0,0-3.647-.772A4.872,4.872,0,0,0,2024.954,2881.159Z" transform="translate(-230.618 -259.14)" fill="#d3d4e3"/>
    <path id="Trazado_116230" data-name="Trazado 116230" d="M2368.3,2536.38c0-30.964-21.743-68.618-48.555-84.1s-48.555-2.931-48.555,28.033a89.218,89.218,0,0,0,6.527,31.831l-.065-.037,42.094,127.113,42.043-78.537-.014-.007C2365.918,2554.811,2368.3,2546.608,2368.3,2536.38Z" transform="translate(-374.527 -6.894)" fill="#e5ba03"/>
    <path id="Trazado_116231" data-name="Trazado 116231" d="M2362.429,2899.993l10.3-6.008L2374,2881.6l-12.144,5.557Z" transform="translate(-427.51 -261.659)" fill="#e5ba03"/>
    <path id="Trazado_116232" data-name="Trazado 116232" d="M2343.518,2550.829c0-30.965-21.742-68.617-48.555-84.1s-48.556-2.931-48.556,28.033a89.236,89.236,0,0,0,6.527,31.83l-.064-.036,42.095,127.11,42.042-78.537-.014-.007C2341.133,2569.263,2343.518,2561.06,2343.518,2550.829Z" transform="translate(-360.044 -15.338)" fill="gold"/>
    <path id="Trazado_116233" data-name="Trazado 116233" d="M2347.8,2583.615c0,8.712-2.206,15.553-6.026,20.172-6.721,8.164-18.446,9.366-31.794,1.665-20.883-12.06-37.82-41.39-37.82-65.51,0-15.4,6.9-24.952,17.331-26.712,5.906-.987,12.936.515,20.493,4.873C2330.878,2530.162,2347.8,2559.491,2347.8,2583.615Z" transform="translate(-375.097 -46.215)" fill="#e5ba03"/>
    <path id="Trazado_116234" data-name="Trazado 116234" d="M2363.7,2583.605c0,8.712-2.206,15.554-6.026,20.172-5.905,1-12.944-.506-20.493-4.874-20.891-12.06-37.819-41.381-37.819-65.5,0-8.721,2.216-15.571,6.034-20.189,5.905-.987,12.936.515,20.493,4.873C2346.769,2530.153,2363.7,2559.483,2363.7,2583.605Z" transform="translate(-390.988 -46.206)" fill="#c19c00"/>
    <path id="Trazado_116235" data-name="Trazado 116235" d="M2315.656,2607.994v39.057l-33.793-19.516v-39.052Z" transform="translate(-380.764 -90.363)" fill="#ff7882"/>
    <path id="Trazado_116236" data-name="Trazado 116236" d="M2363.175,2647.054l33.8-19.516v-39.049l-33.8,19.507Z" transform="translate(-428.283 -90.367)" fill="#ea3f4c"/>
    <path id="Trazado_116237" data-name="Trazado 116237" d="M2315.656,2580.56l-33.793-19.51,33.793-19.51,33.792,19.511Z" transform="translate(-380.764 -62.93)" fill="#ff545a"/>
  </g>
</svg>
