<svg xmlns="http://www.w3.org/2000/svg" width="294.25" height="293.613" viewBox="0 0 294.25 293.613">
  <g id="Grupo_84247" data-name="Grupo 84247" transform="translate(-1093.031 -2498.432)">
    <g id="Grupo_84245" data-name="Grupo 84245" transform="translate(1093.031 2498.432)">
      <g id="Grupo_84235" data-name="Grupo 84235" transform="translate(0 36.754)">
        <path id="Trazado_134312" data-name="Trazado 134312" d="M1260.377,2604.109c24.431,3.237,51.533,6.454,71.461,22.31,8.411,6.693,15.44,16.494,14.88,27.229-.995,19.072-24.515,31.4-24.843,50.5-.256,14.867,13.681,25.8,26.954,32.5s28.452,12.792,35.167,26.059c5.373,10.615,3.761,23.823-2,34.233s-15.17,18.353-25.229,24.706c-22.569,14.254-49,21.474-75.51,24.586s-53.307,2.3-79.991,1.576c-16.357-.442-32.845-.863-48.8-4.509s-31.533-10.794-42.613-22.835c-12.388-13.463-18.2-32.451-16.555-50.671s10.479-35.509,23.518-48.342c10.264-10.1,22.956-17.664,32.332-28.686,12.043-14.157,7.911-28.2,10.238-45.338a45.294,45.294,0,0,1,13.052-25.943c6.007-5.826,27.282-12.562,31.311-13.471,17.294-3.9,29.855-3.9,56.622-3.9" transform="translate(-1093.031 -2604.109)" fill="#9fc0ff"/>
        <path id="Trazado_134313" data-name="Trazado 134313" d="M1791.384,2873.621c-.145-.01-.288-.015-.43-.015a5.815,5.815,0,0,0-2.061.372,7.039,7.039,0,0,0-2.92,2.158,8.186,8.186,0,0,0-2.3,7.974c1.043,3.267,4.339,3.979,7.222,2.6,2.729-1.305,5.177-3.985,5.411-7.1A5.416,5.416,0,0,0,1791.384,2873.621Z" transform="translate(-1543.276 -2779.876)" fill="#9fc0ff"/>
        <path id="Trazado_134314" data-name="Trazado 134314" d="M1214.659,2806.487a12.317,12.317,0,0,0,4.929-2.957,10.762,10.762,0,0,0,3.251-4.733c1.123-3.624-.955-7.519-4.909-7.782a8.014,8.014,0,0,0-1.752.077c-3.384.819-5.879,3.667-7.745,6.652a8.88,8.88,0,0,0-.787,3.48A5.39,5.39,0,0,0,1214.659,2806.487Z" transform="translate(-1167.784 -2725.999)" fill="#9fc0ff"/>
      </g>
      <path id="Trazado_134315" data-name="Trazado 134315" d="M1218.267,3031.136a75.11,75.11,0,0,0,6.552-12.742,73.464,73.464,0,0,0,2.9-8.472c-.692-.193-1.38-.417-2.064-.677a71.934,71.934,0,0,1-8.7,20.063c-.151-.271-.3-.544-.449-.817a1.051,1.051,0,0,0,.144-.51c.248-7.293.48-15.087,3.554-21.836a19.02,19.02,0,0,1-1.611-1.448c-.119.259-.233.518-.345.773a35.8,35.8,0,0,0-2.132,6.6,74.325,74.325,0,0,0-1.442,13.008q-3.44-6.593-6.319-13.457a67.4,67.4,0,0,0,7.717-10.09,20.9,20.9,0,0,1-1.151-2.112c-.2.327-.392.653-.593.976a63.851,63.851,0,0,1-5.283,7.292,39.466,39.466,0,0,1,4.1-13.482,31.181,31.181,0,0,1-.558-3.292l-.088.147a41.8,41.8,0,0,0-2.728,5.5,41.02,41.02,0,0,0-2.856,11.512q-3.035-7.707-5.346-15.681c3.313-7.119,9.569-12.56,12.017-20.129.528-1.633.891-3.645-.13-5.17a3.571,3.571,0,0,0-4.834-.773c-1.729,1.031-2.994,3.012-4,4.7a29.492,29.492,0,0,0-2.648,5.9,48.378,48.378,0,0,0-1.973,9.645c-.043-.172-.084-.344-.127-.517q-.767-3.067-1.428-6.161-1.232-5.785-2.074-11.645.858-.364,1.736-.743.983-.426,1.978-.877c5.57-2.534,11.193-5.751,14.24-11.039a5.787,5.787,0,0,0,.571-5.279,3.832,3.832,0,0,0-4.039-2.248,9.891,9.891,0,0,0-4.889,2.64,34.412,34.412,0,0,0-4.329,4.379c-.818.98-1.591,1.993-2.333,3.028a63.537,63.537,0,0,0,1.536-6.409,66.518,66.518,0,0,0,.977-7.852c.154-2.41.445-5.291-.97-7.412a4.358,4.358,0,0,0-5.189-1.919c-1.713.711-2.534,2.535-2.857,4.259-.079.425-.139.855-.182,1.288a44.4,44.4,0,0,0-.071,5.319c0,.173.006.346.008.518q.048,3.792.261,7.579.134,2.378.334,4.752c-.444-1.23-.9-2.457-1.374-3.675-1.106-2.835-2.19-6.9-5.193-8.319a4.027,4.027,0,0,0-5.981,3.537,7.515,7.515,0,0,0,1.615,4.381c1.047,1.518,2.193,2.977,3.351,4.41a89.857,89.857,0,0,0,8.38,9.005,1.147,1.147,0,0,0,.342.762q1.153,8.126,3.05,16.121c-1.32-2.55-2.709-5.063-4.242-7.493-2.778-4.406-6.1-8.938-10.3-12.107-1.813-1.37-4.478-2.273-6.263-.345-1.839,1.986-.972,4.816.235,6.863,2.532,4.294,6.179,7.8,9.96,10.985,3.351,2.825,6.86,5.475,10.082,8.444q.876.807,1.72,1.651c.4.4.8.808,1.186,1.224a1.029,1.029,0,0,0,.089.082q2.078,7.06,4.73,13.935a95.607,95.607,0,0,0-8.185-8.512q-.82-.733-1.668-1.429a36.129,36.129,0,0,0-8.564-5.349c-1.855-.8-4.093-1.234-5.852.046a4.1,4.1,0,0,0-1.1,5.084c.894,2.017,2.926,3.137,4.748,4.194q3.3,1.914,6.682,3.687c.15.079.3.155.452.233q.924.48,1.854.951,6.563,3.315,13.38,6.089a1.056,1.056,0,0,0,.3.075c.056.133.11.268.166.4q2.463,5.814,5.334,11.44c-3.064-2.188-6.164-4.331-9.419-6.227a57.826,57.826,0,0,0-6.25-3.184c-1.9-.818-4.007-1.5-6.05-.77a4.3,4.3,0,0,0-2.94,3.915,6.351,6.351,0,0,0,2.515,4.978c3.186,2.675,7.357,4.306,11.318,5.425a94.016,94.016,0,0,0,14.4,2.518q3,5.31,6.366,10.405c.078-.4.155-.808.234-1.212s.159-.794.239-1.191c.035-.173.072-.346.106-.519q-2.34-3.642-4.5-7.395A1.139,1.139,0,0,0,1218.267,3031.136Zm-10.578-60.982c.694-.926,3.327-3.9,4.2-1.57.517,1.377-.305,3.224-.813,4.488a42.614,42.614,0,0,1-5.3,8.794c-1.29,1.789-2.6,3.574-3.779,5.434C1202.678,2981.213,1203.965,2975.124,1207.688,2970.154Zm-20.172-12.479c-1.22-1.483-2.417-3-3.507-4.579-.848-1.23-2.007-3.168-.937-4.625,1.142-1.554,3.25-.193,4.074.934a22.155,22.155,0,0,1,2.321,4.95c1.2,3.024,2.279,6.1,3.328,9.176Q1190.031,2960.719,1187.517,2957.674Zm11.8,4.021c2.547-3.951,5.444-7.72,9.242-10.413,1.134-.8,3.238-1.989,4.278-.419.981,1.479-.014,3.313-.9,4.561a24.428,24.428,0,0,1-7.362,6.481,51.948,51.948,0,0,1-4.8,2.549q-.972.46-1.955.895-.516.23-1.035.455.438-.732.885-1.47C1198.209,2963.452,1198.754,2962.569,1199.318,2961.7Zm-4.5-9.727q-.085-1.774-.133-3.549-.046-1.69-.064-3.381c-.012-1.281-.009-2.563.02-3.842.034-1.462.162-3.837,1.606-4.674a2.2,2.2,0,0,1,2.8.957,6.4,6.4,0,0,1,.8,3.752,56.55,56.55,0,0,1-.752,8.4c-.307,1.918-.707,3.819-1.187,5.7-.343,1.343-.724,2.676-1.153,3.994q-.515,1.582-1.111,3.135Q1195.068,2957.229,1194.816,2951.968Zm-13.722,21.942c-1.349-1.643-3.19-3.825-3.513-5.986-.141-.946.145-2.181,1.211-2.443,1.154-.285,2.427.722,3.241,1.409a47.469,47.469,0,0,1,9.262,11.113c2.033,3.226,3.817,6.6,5.518,10.008C1191.5,2983.383,1185.591,2979.387,1181.094,2973.91Zm13.513,31.213-.745-.374q-.927-.464-1.855-.935a92.866,92.866,0,0,1-8.835-4.97c-1.272-.832-3.367-2.856-1.969-4.479,1.365-1.585,4.044-.139,5.452.584a38.822,38.822,0,0,1,7.2,4.871q.835.7,1.639,1.436.255.232.507.467c2.455,2.293,4.723,4.773,6.938,7.3Q1198.725,3007.181,1194.607,3005.124Zm-.4,18.537a10.809,10.809,0,0,1-4.166-3.337c-.9-1.484-.675-3.439,1.155-3.994,1.921-.583,4.031.558,5.723,1.355,1.772.835,3.5,1.771,5.182,2.769,3.873,2.3,7.531,4.928,11.182,7.556a.888.888,0,0,0,.685.181c.149.275.3.551.447.825C1207.484,3028.168,1200.358,3027.1,1194.2,3023.66Z" transform="translate(-1146.8 -2782.658)" fill="#87acee"/>
      <path id="Trazado_134316" data-name="Trazado 134316" d="M1707.239,3047.593c-.179-2.687-.413-5.371-.843-8.03-.267-1.652-.584-3.379-1.033-5.066a22.728,22.728,0,0,0-1.844-4.873,3.518,3.518,0,0,0-2.71-2.14,2.42,2.42,0,0,0-1.049.172,3.082,3.082,0,0,0-1.768,2.131c-.383,1.557.243,3.26.64,4.756.483,1.818,1.044,3.615,1.657,5.394,1.369,3.969,3,7.842,4.627,11.709q-2.056,3.4-4.38,6.632c-.627.87-1.273,1.728-1.928,2.578a79.606,79.606,0,0,0-1.3-9.707q-.548-2.768-1.29-5.494a18.968,18.968,0,0,0-1.607-4.716,3.109,3.109,0,0,0-2.733-1.737c-.123.36-.252.717-.4,1.07a18.315,18.315,0,0,1-2.741,4.632,18.09,18.09,0,0,0,1.924,5.984c1.934,4.1,3.909,8.176,5.864,12.263a1.123,1.123,0,0,0,.211.3q-2.168,2.624-4.517,5.091l1.036,1.9q2.562-2.662,4.92-5.5a34.2,34.2,0,0,0,19.315-4.2c.348-.195.729-.4,1.1-.628a4.108,4.108,0,0,0,1.653-1.636,2.426,2.426,0,0,0,.16-.452,2.279,2.279,0,0,0-1.1-2.5,3.385,3.385,0,0,0-.839-.388,6.4,6.4,0,0,0-1.561-.26c-2.546-.126-5.327,1.05-7.459,2.1-2.7,1.333-5.3,3.032-8.164,4.021q2.573-3.439,4.85-7.084a1.17,1.17,0,0,0,.277.027,27.567,27.567,0,0,0,9.268-2.16c.638-.248,1.271-.508,1.9-.772q.521-.22,1.04-.441c3.662-1.57,7.472-3.167,10.515-5.8a10.482,10.482,0,0,0,3.408-4.421,3.033,3.033,0,0,0-2.012-4.05c-2-.526-4.066.8-5.764,1.693-1.965,1.03-3.875,2.162-5.737,3.369-1.55,1-3.063,2.063-4.554,3.15q-.85.62-1.691,1.252-1.74,1.309-3.453,2.656,1.237-2.288,2.355-4.638.55-1.151,1.072-2.315.922-2.063,1.754-4.167a111.726,111.726,0,0,0,9.986-5.742,48.294,48.294,0,0,0,4.488-3.352,24.079,24.079,0,0,0,3.9-3.858c.836-1.14,1.425-2.732.51-4.01s-2.652-1.345-4.04-.995a12.8,12.8,0,0,0-4.876,2.914c-1.385,1.155-2.74,2.349-4.038,3.6-1.082,1.045-2.118,2.129-3.094,3.26q1.094-3.644,1.915-7.365a51.26,51.26,0,0,0,13.386-17.445c.68-1.461,1.747-3.317,1.119-4.969a3.055,3.055,0,0,0-3.826-1.567,9.737,9.737,0,0,0-4.324,3.582,30.286,30.286,0,0,0-2.9,4.867q-.823,1.642-1.564,3.321.345-3.792.4-7.6a.954.954,0,0,0,.139-.479,41.251,41.251,0,0,0-1.048-11.277c-.369-1.541-.674-3.414-1.751-4.646a3.017,3.017,0,0,0-3.753-.674c-3.053,1.6-2.469,6.2-2.047,9,.612,4.076,1.369,8.134,2.058,12.2l1.187,6.993q-.907-1.835-1.858-3.647-1.346-2.56-2.779-5.072a30.775,30.775,0,0,0-2.655-4.384,3.126,3.126,0,0,0-3.234-1.333,3.22,3.22,0,0,0-2.136,3.228c-.007,3.577,2.954,6.6,5.078,9.179q4.13,5.007,8.576,9.741a.98.98,0,0,0-.109.581,100,100,0,0,1-2.959,10.6,66.059,66.059,0,0,0-2.984-7.646c-.764-1.644-1.6-3.251-2.491-4.83a28.508,28.508,0,0,0-2.751-4.384,2.992,2.992,0,0,0-3.246-1.218,3.135,3.135,0,0,0-1.846,3.241,13.669,13.669,0,0,0,1.616,4.706,36.278,36.278,0,0,0,2.631,4.561,80.812,80.812,0,0,0,7.623,9.257.905.905,0,0,0-.087.539q-.616,1.583-1.288,3.145-.5,1.165-1.03,2.318Q1708.827,3044.658,1707.239,3047.593Zm-14.521,3.188a25.353,25.353,0,0,1-1.842-4.548c-.334-1.3-.687-3.737.51-4.741,1.23-1.031,2.021,2.572,2.21,3.209q.859,2.917,1.482,5.894.791,3.788,1.2,7.637Q1694.5,3054.508,1692.719,3050.782Zm15.9,8.849a27.965,27.965,0,0,1,4.719-2.093,11.814,11.814,0,0,1,2.529-.5,7.716,7.716,0,0,1,1.6-.013c.39.055.705.181.741.442.026.191-.157.4-.41.592a9.883,9.883,0,0,1-1.19.7,29.894,29.894,0,0,1-2.674,1.365,32.744,32.744,0,0,1-5.151,1.828,31.384,31.384,0,0,1-7.075,1.008A50.947,50.947,0,0,0,1708.618,3059.63Zm-6.057-19.509c-.677-1.9-1.3-3.818-1.833-5.761-.176-.639-1.617-4.981.016-4.788.56.066.935.977,1.13,1.413a27.342,27.342,0,0,1,.976,2.576,39.094,39.094,0,0,1,1.378,5.645c.425,2.461.673,4.946.858,7.436C1704.2,3044.485,1703.343,3042.317,1702.561,3040.121Zm11,7.507q.839-.634,1.686-1.257a75.869,75.869,0,0,1,11.516-7.171,6.986,6.986,0,0,1,2.479-.946c1.163-.053,1.408.768,1.026,1.726a10.211,10.211,0,0,1-3.386,3.774,40.584,40.584,0,0,1-9.053,4.8c-.425.182-.851.364-1.277.542q-.952.4-1.913.774a30,30,0,0,1-6.243,1.775C1710.1,3050.3,1711.816,3048.946,1713.557,3047.628Zm2.375-48.294c-.542-3.2-1.458-6.583-1.224-9.846.069-.953.464-3.319,1.956-2.928,1.118.293,1.438,2.707,1.663,3.6a38.8,38.8,0,0,1,1.132,10.55,1.1,1.1,0,0,0-.148.554,95.632,95.632,0,0,1-.924,12.529Zm6.962,10.98a32.867,32.867,0,0,1,4.823-8.481c.558-.637,3.146-3.322,3.921-1.733.279.571-.3,1.579-.523,2.1q-.519,1.2-1.1,2.374a48.592,48.592,0,0,1-10.123,13.65A78.423,78.423,0,0,1,1722.894,3010.314Zm-12.024.222c-1.264-1.518-2.578-3.027-3.7-4.655a9.607,9.607,0,0,1-1.416-2.812c-.183-.651-.492-2.1.377-2.425,1.09-.406,2.421,2.7,2.8,3.349q1.574,2.7,3.041,5.454,1.52,2.857,2.925,5.773Q1712.849,3012.907,1710.87,3010.536Zm10.893,16.728c1.395-1.333,2.85-2.609,4.349-3.825a12.284,12.284,0,0,1,2.622-1.759c.62-.279,1.978-.817,2.622-.283,1.659,1.376-6.316,7.118-7.381,7.857a83.125,83.125,0,0,1-8.017,4.817A40.33,40.33,0,0,1,1721.764,3027.263Zm-14.664-1.513a33.812,33.812,0,0,1-2.794-4.708c-.4-.834-2.328-4.258-1.187-5.094,1.261-.925,5.19,7.35,5.693,8.4a65.736,65.736,0,0,1,2.942,7.219A65.567,65.567,0,0,1,1707.1,3025.75Z" transform="translate(-1481.427 -2815.433)" fill="#87acee"/>
      <g id="Grupo_84244" data-name="Grupo 84244" transform="translate(70.115)">
        <g id="Grupo_84236" data-name="Grupo 84236">
          <rect id="Rectángulo_6859" data-name="Rectángulo 6859" width="151.99" height="293.614" rx="21.349" fill="#fff"/>
          <rect id="Rectángulo_6860" data-name="Rectángulo 6860" width="146.298" height="286.87" rx="18.7" transform="translate(2.846 2.571)" fill="#e2e2e2"/>
          <path id="Trazado_134317" data-name="Trazado 134317" d="M1454.716,2530.016v254.638a10.813,10.813,0,0,1-10.814,10.813H1332.04a10.814,10.814,0,0,1-10.814-10.813V2530.016a10.814,10.814,0,0,1,10.814-10.814h18.654a2.735,2.735,0,0,1,2.445,1.51l1.981,3.955a5.344,5.344,0,0,0,4.792,2.968h56.118a5.344,5.344,0,0,0,4.792-2.968l1.981-3.955a2.735,2.735,0,0,1,2.446-1.51H1443.9A10.814,10.814,0,0,1,1454.716,2530.016Z" transform="translate(-1311.976 -2511.978)" fill="#fff"/>
          <path id="Trazado_134318" data-name="Trazado 134318" d="M1492.521,2523.008h-45.2a1.9,1.9,0,0,1-1.9-1.9h0a1.9,1.9,0,0,1,1.9-1.9h45.2a1.9,1.9,0,0,1,1.9,1.9h0A1.9,1.9,0,0,1,1492.521,2523.008Z" transform="translate(-1392.975 -2511.978)" fill="#fff"/>
        </g>
        <rect id="Rectángulo_6861" data-name="Rectángulo 6861" width="114.889" height="49.824" rx="8.379" transform="translate(17.248 224.828)" fill="none" stroke="#698bd1" stroke-linecap="round" stroke-linejoin="round" stroke-width="1" stroke-dasharray="2.837"/>
        <rect id="Rectángulo_6862" data-name="Rectángulo 6862" width="60.216" height="34.981" rx="6.044" transform="translate(64.83 117.407)" fill="none" stroke="#698bd1" stroke-linecap="round" stroke-linejoin="round" stroke-width="1" stroke-dasharray="2.837"/>
        <g id="Grupo_84240" data-name="Grupo 84240" transform="translate(17.248 156.268)">
          <rect id="Rectángulo_6863" data-name="Rectángulo 6863" width="115.345" height="55.76" rx="7.201" transform="translate(4.182 4.511)" fill="#4b5a9b"/>
          <path id="Trazado_134319" data-name="Trazado 134319" d="M1459.112,2953.883v43.488a6.134,6.134,0,0,1-6.139,6.131h-102.61a6.133,6.133,0,0,1-6.139-6.131v-43.488a6.14,6.14,0,0,1,6.139-6.14h102.61A6.141,6.141,0,0,1,1459.112,2953.883Z" transform="translate(-1344.223 -2947.743)" fill="#7f95f4"/>
          <rect id="Rectángulo_6864" data-name="Rectángulo 6864" width="38.531" height="38.531" rx="4.861" transform="translate(5.308 12.696)" fill="#fff"/>
          <g id="Grupo_84237" data-name="Grupo 84237" transform="translate(47.581 14.95)">
            <path id="Trazado_134320" data-name="Trazado 134320" d="M1508.966,2993.35h-26.624a1.311,1.311,0,0,1-1.311-1.311h0a1.311,1.311,0,0,1,1.311-1.311h26.624a1.311,1.311,0,0,1,1.311,1.311h0A1.311,1.311,0,0,1,1508.966,2993.35Z" transform="translate(-1481.032 -2990.728)" fill="#b2c1f9"/>
            <path id="Trazado_134321" data-name="Trazado 134321" d="M1496.834,3008.4h-14.491a1.311,1.311,0,0,1-1.311-1.311h0a1.311,1.311,0,0,1,1.311-1.311h14.491a1.311,1.311,0,0,1,1.311,1.311h0A1.311,1.311,0,0,1,1496.834,3008.4Z" transform="translate(-1481.032 -3000.542)" fill="#b2c1f9"/>
            <path id="Trazado_134322" data-name="Trazado 134322" d="M1578.553,3008.4h-39.211a1.311,1.311,0,0,1-1.311-1.311h0a1.311,1.311,0,0,1,1.311-1.311h39.211a1.311,1.311,0,0,1,1.311,1.311h0A1.311,1.311,0,0,1,1578.553,3008.4Z" transform="translate(-1518.207 -3000.542)" fill="#b2c1f9"/>
            <path id="Trazado_134323" data-name="Trazado 134323" d="M1504.764,3023.445h-22.421a1.311,1.311,0,0,1-1.311-1.311h0a1.311,1.311,0,0,1,1.311-1.311h22.421a1.311,1.311,0,0,1,1.31,1.311h0A1.311,1.311,0,0,1,1504.764,3023.445Z" transform="translate(-1481.032 -3010.356)" fill="#b2c1f9"/>
            <path id="Trazado_134324" data-name="Trazado 134324" d="M1575.1,3023.445H1561a1.311,1.311,0,0,1-1.311-1.311h0a1.311,1.311,0,0,1,1.311-1.311H1575.1a1.311,1.311,0,0,1,1.311,1.311h0A1.311,1.311,0,0,1,1575.1,3023.445Z" transform="translate(-1532.334 -3010.356)" fill="#b2c1f9"/>
            <path id="Trazado_134325" data-name="Trazado 134325" d="M1627.745,3023.445h-12.98a1.311,1.311,0,0,1-1.311-1.311h0a1.311,1.311,0,0,1,1.311-1.311h12.98a1.311,1.311,0,0,1,1.311,1.311h0A1.311,1.311,0,0,1,1627.745,3023.445Z" transform="translate(-1567.398 -3010.356)" fill="#b2c1f9"/>
            <path id="Trazado_134326" data-name="Trazado 134326" d="M1541.378,3038.493h-59.036a1.31,1.31,0,0,1-1.311-1.31h0a1.311,1.311,0,0,1,1.311-1.311h59.036a1.311,1.311,0,0,1,1.311,1.311h0A1.31,1.31,0,0,1,1541.378,3038.493Z" transform="translate(-1481.032 -3020.171)" fill="#b2c1f9"/>
            <path id="Trazado_134327" data-name="Trazado 134327" d="M1514.834,3053.542h-32.491a1.311,1.311,0,0,1-1.311-1.311h0a1.311,1.311,0,0,1,1.311-1.311h32.491a1.311,1.311,0,0,1,1.311,1.311h0A1.311,1.311,0,0,1,1514.834,3053.542Z" transform="translate(-1481.032 -3029.986)" fill="#b2c1f9"/>
            <path id="Trazado_134328" data-name="Trazado 134328" d="M1612.131,3053.542h-21.306a1.311,1.311,0,0,1-1.311-1.311h0a1.311,1.311,0,0,1,1.311-1.311h21.306a1.311,1.311,0,0,1,1.311,1.311h0A1.311,1.311,0,0,1,1612.131,3053.542Z" transform="translate(-1551.785 -3029.986)" fill="#b2c1f9"/>
            <path id="Trazado_134329" data-name="Trazado 134329" d="M1501.433,3068.589h-19.091a1.311,1.311,0,0,1-1.311-1.311h0a1.311,1.311,0,0,1,1.311-1.311h19.091a1.311,1.311,0,0,1,1.311,1.311h0A1.311,1.311,0,0,1,1501.433,3068.589Z" transform="translate(-1481.032 -3039.799)" fill="#b2c1f9"/>
            <path id="Trazado_134330" data-name="Trazado 134330" d="M1571.178,3068.589h-19.09a1.311,1.311,0,0,1-1.311-1.311h0a1.311,1.311,0,0,1,1.311-1.311h19.09a1.311,1.311,0,0,1,1.311,1.311h0A1.311,1.311,0,0,1,1571.178,3068.589Z" transform="translate(-1526.52 -3039.799)" fill="#b2c1f9"/>
            <path id="Trazado_134331" data-name="Trazado 134331" d="M1631.313,3068.589h-11.076a1.311,1.311,0,0,1-1.311-1.311h0a1.311,1.311,0,0,1,1.311-1.311h11.076a1.311,1.311,0,0,1,1.311,1.311h0A1.311,1.311,0,0,1,1631.313,3068.589Z" transform="translate(-1570.967 -3039.799)" fill="#b2c1f9"/>
            <path id="Trazado_134332" data-name="Trazado 134332" d="M1508.966,3083.636h-26.624a1.311,1.311,0,0,1-1.311-1.311h0a1.311,1.311,0,0,1,1.311-1.311h26.624a1.311,1.311,0,0,1,1.311,1.311h0A1.311,1.311,0,0,1,1508.966,3083.636Z" transform="translate(-1481.032 -3049.614)" fill="#b2c1f9"/>
            <path id="Trazado_134333" data-name="Trazado 134333" d="M1602.16,2993.35h-26.623a1.311,1.311,0,0,1-1.311-1.311h0a1.31,1.31,0,0,1,1.311-1.311h26.623a1.311,1.311,0,0,1,1.311,1.311h0A1.311,1.311,0,0,1,1602.16,2993.35Z" transform="translate(-1541.814 -2990.728)" fill="#b2c1f9"/>
          </g>
          <g id="Grupo_84239" data-name="Grupo 84239">
            <path id="Trazado_134334" data-name="Trazado 134334" d="M1459.112,2953.883v1.827H1344.223v-1.827a6.14,6.14,0,0,1,6.139-6.14h102.61A6.141,6.141,0,0,1,1459.112,2953.883Z" transform="translate(-1344.223 -2947.743)" fill="#3052ce"/>
            <g id="Grupo_84238" data-name="Grupo 84238" transform="translate(90.387 2.704)">
              <path id="Trazado_134335" data-name="Trazado 134335" d="M1606.956,2956.941a1.423,1.423,0,1,1-1.423-1.423A1.423,1.423,0,0,1,1606.956,2956.941Z" transform="translate(-1604.11 -2955.518)" fill="#dee3fc"/>
              <path id="Trazado_134336" data-name="Trazado 134336" d="M1627.893,2956.941a1.423,1.423,0,1,1-1.423-1.423A1.423,1.423,0,0,1,1627.893,2956.941Z" transform="translate(-1617.765 -2955.518)" fill="#dee3fc"/>
              <path id="Trazado_134337" data-name="Trazado 134337" d="M1648.83,2956.941a1.423,1.423,0,1,1-1.423-1.423A1.423,1.423,0,0,1,1648.83,2956.941Z" transform="translate(-1631.42 -2955.518)" fill="#dee3fc"/>
            </g>
          </g>
        </g>
        <g id="Grupo_84242" data-name="Grupo 84242" transform="translate(23.974 117.439)">
          <rect id="Rectángulo_6865" data-name="Rectángulo 6865" width="34.95" height="34.95" rx="7.151" fill="none" stroke="#495ad6" stroke-miterlimit="10" stroke-width="0.896"/>
          <g id="Grupo_84241" data-name="Grupo 84241" transform="translate(6.988 12.42)">
            <path id="Trazado_134338" data-name="Trazado 134338" d="M1388.688,2871.808l-5.035,5.035,5.075,5.075" transform="translate(-1383.653 -2871.808)" fill="none" stroke="#495ad6" stroke-linecap="round" stroke-linejoin="round" stroke-width="1.672"/>
            <path id="Trazado_134339" data-name="Trazado 134339" d="M1429.406,2871.808l5.035,5.035-5.075,5.075" transform="translate(-1413.468 -2871.808)" fill="none" stroke="#495ad6" stroke-linecap="round" stroke-linejoin="round" stroke-width="1.672"/>
            <line id="Línea_181" data-name="Línea 181" x1="4.716" y2="10.11" transform="translate(8.129)" fill="none" stroke="#495ad6" stroke-linecap="round" stroke-linejoin="round" stroke-width="1.672"/>
          </g>
        </g>
        <g id="Grupo_84243" data-name="Grupo 84243" transform="translate(17.248 25.147)">
          <path id="Trazado_134340" data-name="Trazado 134340" d="M1459.112,2577.721v71.1a6.982,6.982,0,0,1-6.985,6.985H1351.208a6.988,6.988,0,0,1-6.985-6.985v-71.1a6.988,6.988,0,0,1,6.985-6.985h100.919A6.982,6.982,0,0,1,1459.112,2577.721Z" transform="translate(-1344.223 -2570.736)" fill="#b2c1f9"/>
          <circle id="Elipse_8723" data-name="Elipse 8723" cx="16.651" cy="16.651" r="16.651" transform="translate(74.97 5.815)" fill="#f0f4ff"/>
          <path id="Trazado_134341" data-name="Trazado 134341" d="M1411.756,2691.808h-60.548a6.988,6.988,0,0,1-6.985-6.985v-11.194l26.5-45.9a3.6,3.6,0,0,1,6.233,0l20.007,34.65,14.857,25.736A3.531,3.531,0,0,1,1411.756,2691.808Z" transform="translate(-1344.223 -2606.737)" fill="#fff"/>
          <path id="Trazado_134342" data-name="Trazado 134342" d="M1504.9,2727.387h-57.9l16.992-29.424,9.153-15.856a3.238,3.238,0,0,1,5.61,0Z" transform="translate(-1411.251 -2642.316)" fill="#f0f4ff"/>
        </g>
      </g>
    </g>
    <g id="Grupo_84246" data-name="Grupo 84246" transform="translate(1110.294 2589.323)">
      <path id="Trazado_134343" data-name="Trazado 134343" d="M1257.481,2890.258a2.678,2.678,0,0,0,1.716-4.807,2.693,2.693,0,0,0-2.934-.192.459.459,0,0,0-.182.085c-.07.052-.137.107-.2.165a2.743,2.743,0,0,0-.221.189.489.489,0,0,0-.112.157,2.7,2.7,0,0,0-.545,2.49A2.764,2.764,0,0,0,1257.481,2890.258Zm-1.117-3.88a1.731,1.731,0,0,1,2.443.033,1.7,1.7,0,1,1-2.521,2.27A1.723,1.723,0,0,1,1256.364,2886.378Z" transform="translate(-1215.862 -2841.389)" fill="#fff"/>
      <path id="Trazado_134344" data-name="Trazado 134344" d="M1754.873,2760.6a4.191,4.191,0,0,0-4.565-.3.733.733,0,0,0-.283.133c-.11.081-.213.167-.315.257a4.324,4.324,0,0,0-.344.3.759.759,0,0,0-.175.244,4.2,4.2,0,0,0-.848,3.875,4.175,4.175,0,0,0,7.943.169A4.253,4.253,0,0,0,1754.873,2760.6Zm-.806,5.3a2.64,2.64,0,0,1-3.725-.273,2.64,2.64,0,0,1,3.923-3.532A2.65,2.65,0,0,1,1754.067,2765.9Z" transform="translate(-1537.584 -2759.768)" fill="#fff"/>
      <path id="Trazado_134345" data-name="Trazado 134345" d="M1151.831,3163.6a5.734,5.734,0,0,0-6.248-.408,1,1,0,0,0-.387.181c-.15.11-.292.229-.431.352a5.978,5.978,0,0,0-.471.4,1.054,1.054,0,0,0-.239.334,5.744,5.744,0,0,0-1.16,5.3,5.714,5.714,0,0,0,10.872.232A5.819,5.819,0,0,0,1151.831,3163.6Zm-1.1,7.254a3.613,3.613,0,0,1-5.1-.375,3.613,3.613,0,0,1,5.369-4.833A3.626,3.626,0,0,1,1150.728,3170.849Z" transform="translate(-1142.667 -3022.403)" fill="#fff"/>
      <path id="Trazado_134346" data-name="Trazado 134346" d="M1852.8,3112.472a4.5,4.5,0,0,0-.844-4.24,3.687,3.687,0,0,0-4.351-.62l-.07.031a5.388,5.388,0,0,0-1.031.64,6,6,0,0,0-1.376,1.543,5.776,5.776,0,0,0-2.407-2.183,3.708,3.708,0,0,0-4.42.588,4.5,4.5,0,0,0-.844,4.24,11.892,11.892,0,0,0,3.064,4.614,38.562,38.562,0,0,0,4.37,3.886.69.69,0,0,0,.211.114v.016l.026-.008.026.008v-.016a.689.689,0,0,0,.211-.114,38.522,38.522,0,0,0,4.37-3.886,19.259,19.259,0,0,0,1.97-2.366,9.1,9.1,0,0,0,.679-1.17A6.86,6.86,0,0,0,1852.8,3112.472Z" transform="translate(-1595.686 -2986.355)" fill="#fffaff"/>
    </g>
  </g>
</svg>
