<svg id="Grupo_83774" data-name="Grupo 83774" xmlns="http://www.w3.org/2000/svg" width="105" height="105" viewBox="0 0 105 105">
  <rect id="Rectángulo_5987" data-name="Rectángulo 5987" width="105" height="105" fill="none"/>
  <g id="atun" transform="translate(6 -56.461)">
    <path id="Trazado_132659" data-name="Trazado 132659" d="M53.116,174.94c-16.725,0-45.032-2.931-45.032-13.916v34.5c0,10.985,28.306,13.916,45.032,13.916s45.032-2.931,45.032-13.916v-34.5C98.147,172.009,69.841,174.94,53.116,174.94Z" transform="translate(-6.616 -69.314)" fill="#dce0e2"/>
    <path id="Trazado_132660" data-name="Trazado 132660" d="M43.581,122.017c.4.788,3.023,3.074,10.985,5.083a117.715,117.715,0,0,0,27.6,2.937,117.715,117.715,0,0,0,27.6-2.937c7.962-2.009,10.584-4.295,10.985-5.083-.4-.787-3.023-3.073-10.985-5.083A117.707,117.707,0,0,0,82.165,114a117.7,117.7,0,0,0-27.6,2.938C46.6,118.944,43.982,121.23,43.581,122.017Z" transform="translate(-35.665 -30.829)" fill="#ebeced"/>
    <path id="Trazado_132661" data-name="Trazado 132661" d="M130.778,219.334v-7.966c-9.768,3.456-24.543,4.579-34.889,4.579-10.578,0-25.786-1.174-35.538-4.814v34.5c9.752,3.641,24.96,4.814,35.538,4.814,10.346,0,25.122-1.123,34.889-4.579V224.229" transform="translate(-49.389 -110.321)" fill="#e95353"/>
    <path id="Trazado_132662" data-name="Trazado 132662" d="M53.116,112.242c-16.725,0-45.032-2.931-45.032-13.916S36.39,84.409,53.116,84.409,98.147,87.34,98.147,98.325,69.841,112.242,53.116,112.242ZM14.532,97.8c.4.788,3.023,3.074,10.985,5.083a117.715,117.715,0,0,0,27.6,2.937,117.715,117.715,0,0,0,27.6-2.937C88.676,100.877,91.3,98.592,91.7,97.8c-.4-.787-3.023-3.073-10.985-5.083a117.708,117.708,0,0,0-27.6-2.937,117.7,117.7,0,0,0-27.6,2.937C17.555,94.73,14.933,97.016,14.532,97.8Z" transform="translate(-6.616 -6.616)" fill="#dce0e2"/>
    <path id="Trazado_132663" data-name="Trazado 132663" d="M224.079,114c-1.993,0-3.967.028-5.91.083l-1.175,4.317c0,.922,1.052,1.669,2.35,1.669h9.471c1.3,0,2.35-.747,2.35-1.669l-1.175-4.317C228.046,114.026,226.072,114,224.079,114Z" transform="translate(-177.579 -30.83)" fill="#a4a4a5"/>
    <g id="Grupo_83777" data-name="Grupo 83777" transform="translate(28.393 112.089)">
      <path id="Trazado_132664" data-name="Trazado 132664" d="M191.263,278.967a21.378,21.378,0,0,0,29.175,0,21.378,21.378,0,0,0-29.175,0Z" transform="translate(-184.914 -273.217)" fill="#efac52"/>
      <path id="Trazado_132665" data-name="Trazado 132665" d="M156.312,282.027v8.3a21.443,21.443,0,0,0,6.469-4.151A21.438,21.438,0,0,0,156.312,282.027Z" transform="translate(-156.312 -280.427)" fill="#efac52"/>
    </g>
    <path id="Trazado_132666" data-name="Trazado 132666" d="M298.86,278.3a8.962,8.962,0,0,0-.228,9.724,21.382,21.382,0,0,0,8.59-4.9A21.381,21.381,0,0,0,298.86,278.3Z" transform="translate(-243.306 -165.286)" fill="#f4b76e"/>
    <g id="Grupo_83778" data-name="Grupo 83778" transform="translate(0 76.325)">
      <path id="Trazado_132667" data-name="Trazado 132667" d="M75.617,79.2c-11.3-2.6-24.126-2.876-29.117-2.876s-17.817.28-29.117,2.876C5.849,81.851,0,86.059,0,91.71v34.5c0,5.65,5.849,9.859,17.383,12.509a135.343,135.343,0,0,0,25.792,2.839l.232,0,.857.015.237,0,.881.009h.112c.363,0,.7,0,1,0a163.238,163.238,0,0,0,17.434-.952,90.847,90.847,0,0,0,15.672-2.97l.239-.073.505-.157q.393-.124.773-.251l.186-.062c.163-.055.323-.111.483-.167l.086-.03.009,0C89.266,134.317,93,130.725,93,126.213V91.71C93,86.059,87.151,81.851,75.617,79.2ZM18.041,82.063a136.455,136.455,0,0,1,28.459-2.8,136.452,136.452,0,0,1,28.459,2.8c6.89,1.583,15.1,4.541,15.1,9.647,0,3.645-4.187,6.2-9.09,7.932-.025.007-.049.013-.074.021-9.366,3.314-23.911,4.494-34.4,4.494q-.5,0-1.016,0h-.061c-3.434-.026-7.228-.173-11.1-.474l-.047,0q-.559-.044-1.12-.091l-.445-.04-.533-.048-.764-.073-.166-.016c-2.322-.23-4.57-.509-6.7-.833l-.512-.079-.375-.06a65.76,65.76,0,0,1-12.187-3c-.031-.011-.062-.019-.093-.028-4.62-1.729-8.446-4.213-8.446-7.7C2.937,86.6,11.15,83.646,18.041,82.063Zm-15.1,44.149V97.923c.119.111.242.22.368.329l.083.071q.209.178.43.353l.067.051q.216.168.444.334l.051.038c.159.114.324.227.492.339l.1.069q.25.165.512.326l.1.06c.178.108.359.215.545.32l.027.016c.191.108.389.215.589.321l.116.061q.293.153.6.3l.124.06c.211.1.426.2.646.3l.044.02q.321.145.656.287l.115.049q.222.093.448.185v31.32C5.765,131.464,2.937,129.208,2.937,126.213Zm87.126,0c0,3.167-3.161,5.507-7.206,7.206V113.907a1.468,1.468,0,1,0-2.937,0V134.5a80.09,80.09,0,0,1-14.157,2.956l-.116.015q-.521.067-1.045.13h0a157.127,157.127,0,0,1-18.1,1.061c-3.589,0-7.626-.137-11.758-.446l-.058,0q-.456-.034-.914-.072l-.373-.031-.545-.047-.6-.054L32.175,138c-2.419-.224-4.767-.5-6.993-.827l-.144-.021-.69-.1-.769-.121-.122-.019a68.622,68.622,0,0,1-11.027-2.626V102.874l.04.013q.4.128.814.253l.123.037q.411.123.835.243l.063.018c.292.082.589.162.889.241l.167.044q.442.116.9.228l.161.039c.317.078.638.154.964.229a133.832,133.832,0,0,0,25.046,2.821l.067,0,.876.02.242,0,.766.013.254,0,.839.008h.1c.331,0,.639,0,.922,0a163.275,163.275,0,0,0,17.43-.952,92.277,92.277,0,0,0,15.22-2.836l.125-.036.234-.07.082-.025.123-.037.205-.062v5.936a1.468,1.468,0,1,0,2.937,0v-6.94l.264-.1.142-.056q.351-.139.69-.282l.115-.049q.335-.143.658-.288l.043-.019c.221-.1.435-.2.647-.3l.123-.06q.305-.15.6-.3l.115-.061c.2-.106.4-.213.589-.321l.027-.016c.186-.106.367-.213.545-.32l.1-.059q.263-.161.513-.326l.1-.068q.252-.168.492-.34l.05-.037q.229-.166.446-.335l.066-.051q.222-.175.43-.353l.083-.071c.126-.109.249-.218.368-.329v28.29h0Z" transform="translate(0 -76.325)" fill="#3a3c07"/>
      <path id="Trazado_132668" data-name="Trazado 132668" d="M202.467,357.784c-4.007.308-8.2.471-12.121.471-4.218,0-8.707-.187-12.983-.54a1.468,1.468,0,0,0-.242,2.927c4.355.36,8.928.55,13.225.55,4,0,8.265-.166,12.346-.48a1.468,1.468,0,1,0-.225-2.928Z" transform="translate(-143.846 -306.599)" fill="#3a3c07"/>
      <path id="Trazado_132669" data-name="Trazado 132669" d="M202.467,385.391c-4.007.308-8.2.471-12.121.471-4.218,0-8.707-.187-12.983-.54a1.468,1.468,0,1,0-.242,2.927c4.355.36,8.928.55,13.225.55,4,0,8.265-.166,12.346-.48a1.468,1.468,0,1,0-.225-2.928Z" transform="translate(-143.846 -329.191)" fill="#3a3c07"/>
      <path id="Trazado_132670" data-name="Trazado 132670" d="M185.767,270.867l-.106-.092q-.19-.166-.382-.327l-.079-.066a22.784,22.784,0,0,0-7.872-4.249l-.043-.014-.009,0a22.862,22.862,0,0,0-21.174,4.234,22.8,22.8,0,0,0-5.847-3.507,1.468,1.468,0,0,0-2.027,1.358v8.3a1.469,1.469,0,0,0,2.027,1.358,22.805,22.805,0,0,0,5.847-3.508,22.869,22.869,0,0,0,20.937,4.306h0l.033-.01q.282-.083.562-.173l.1-.033q.276-.09.55-.187l.033-.012a22.791,22.791,0,0,0,6.862-3.9l.078-.064q.2-.166.4-.337l.106-.092c.156-.138.311-.277.463-.42a1.468,1.468,0,0,0,0-2.147Q186,271.069,185.767,270.867Zm-6.923,4c-.2.09-.4.174-.6.257l-.179.075c-.157.063-.315.122-.474.182-.078.029-.157.059-.235.087a7.506,7.506,0,0,1,.163-6.164l.161.06c.161.061.322.124.482.189l.2.085c.19.08.379.163.567.249l.093.044a20.128,20.128,0,0,1,3.94,2.426,20.1,20.1,0,0,1-4.1,2.5Zm-27.679-.688v-3.646a19.843,19.843,0,0,1,2.749,1.823A19.9,19.9,0,0,1,151.164,274.175Zm7.131-1.823a19.919,19.919,0,0,1,16.373-3.869,10.432,10.432,0,0,0-.156,7.768,19.9,19.9,0,0,1-16.217-3.9Z" transform="translate(-121.303 -230.838)" fill="#3a3c07"/>
      <path id="Trazado_132671" data-name="Trazado 132671" d="M36.791,117.373c1.692,1.415,5.113,3.1,10.8,4.534a106.193,106.193,0,0,0,19.329,2.735c2.811.163,5.7.247,8.628.247a119.2,119.2,0,0,0,27.958-2.982c7.58-1.913,11.135-4.271,11.934-5.84a1.469,1.469,0,0,0,0-1.334,6.063,6.063,0,0,0-2.129-2.033,33.494,33.494,0,0,0-9.8-3.806,110.054,110.054,0,0,0-21.695-2.852A1.464,1.464,0,0,0,81.5,106c-1.27-.036-2.553-.056-3.838-.068q-1.053-.015-2.114-.015t-2.114.015c-1.285.013-2.568.033-3.838.068a1.455,1.455,0,0,0-.312.047,110.081,110.081,0,0,0-21.694,2.852,33.5,33.5,0,0,0-9.8,3.806,6.063,6.063,0,0,0-2.129,2.033,1.469,1.469,0,0,0,0,1.334A4.454,4.454,0,0,0,36.791,117.373Zm66,1.687a116.232,116.232,0,0,1-27.239,2.892,116.232,116.232,0,0,1-27.239-2.892c-5.238-1.322-8.037-2.77-9.281-3.659,1.244-.889,4.044-2.337,9.281-3.659q.347-.087.7-.173a106.068,106.068,0,0,1,18.674-2.511l-.636,2.337a1.471,1.471,0,0,0-.051.385c0,1.759,1.677,3.138,3.818,3.138h9.471c2.141,0,3.818-1.378,3.818-3.138a1.47,1.47,0,0,0-.052-.385l-.636-2.337a104.167,104.167,0,0,1,19.374,2.684c5.237,1.322,8.037,2.77,9.281,3.659C110.824,116.29,108.025,117.738,102.787,119.06ZM80.334,108.926l.771,2.831a1.428,1.428,0,0,1-.821.225H70.812a1.427,1.427,0,0,1-.821-.225l.771-2.831q1.555-.05,3.133-.067,1.652-.013,3.306,0Q78.777,108.876,80.334,108.926Z" transform="translate(-29.048 -100.538)" fill="#3a3c07"/>
    </g>
    <g id="Grupo_83779" data-name="Grupo 83779" transform="translate(2.839 97.373)" opacity="0.15">
      <path id="Trazado_132672" data-name="Trazado 132672" d="M18.958,221.04V192.2H15.629v28.84c0,10.985,28.306,13.916,45.032,13.916q.814,0,1.664-.01C45.456,234.757,18.958,231.669,18.958,221.04Z" transform="translate(-15.629 -192.2)" fill="#202020"/>
    </g>
  </g>
</svg>
