<svg xmlns="http://www.w3.org/2000/svg" width="146" height="144.363" viewBox="0 0 146 144.363">
  <g id="Grupo_85313" data-name="Grupo 85313" transform="translate(-885 -2036)">
    <g id="Grupo_83958" data-name="Grupo 83958" transform="translate(-306.371 -11.596)">
      <path id="Trazado_133119" data-name="Trazado 133119" d="M1271.051,2047.6a69.258,69.258,0,0,0-69.179,69.179v.728h2.547v-.728a66.632,66.632,0,1,1,133.264,0v.728h2.547v-.728A69.258,69.258,0,0,0,1271.051,2047.6Z" transform="translate(-6.68)" fill="#e8e8e8"/>
      <path id="Trazado_133120" data-name="Trazado 133120" d="M1335.916,2239.71h-8.733v1.456a62.811,62.811,0,1,1-125.623,0v-1.456h-10.189v1.456a73,73,0,0,0,146,0v-1.456Z" transform="translate(0 -122.207)" fill="#529ad9"/>
    </g>
    <g id="Page-1" transform="translate(924.367 2071.836)">
      <g id="_019---Technology-Engineering" data-name="019---Technology-Engineering" transform="translate(0 -0.003)">
        <path id="Shape" d="M12.21,34.511A21.315,21.315,0,0,0,32.421,55.8a1.128,1.128,0,0,1,1.09,1.121V65.9a1.129,1.129,0,0,1-1.184,1.121c-.628-.027-1.251-.074-1.865-.143A2,2,0,0,1,28.735,65.2l-.706-4.319a26.532,26.532,0,0,1-9.26-3.848L15.2,59.587a2.018,2.018,0,0,1-2.422-.022c-.774-.65-1.525-1.323-2.253-2.053a29.567,29.567,0,0,1-2.052-2.261,2.018,2.018,0,0,1-.022-2.424l2.556-3.563A26.583,26.583,0,0,1,7.166,40L2.849,39.29a2.027,2.027,0,0,1-1.682-1.78,27.758,27.758,0,0,1,0-6.054,2,2,0,0,1,1.682-1.728l4.316-.706a26.583,26.583,0,0,1,3.845-9.267L8.455,16.191a2.018,2.018,0,0,1,.022-2.419,25.693,25.693,0,0,1,2.052-2.258A29.6,29.6,0,0,1,12.782,9.46,2.018,2.018,0,0,1,15.2,9.437L18.769,12a26.556,26.556,0,0,1,9.26-3.849l.706-4.318a2.024,2.024,0,0,1,1.726-1.7Q31.381,2.042,32.33,2a1.128,1.128,0,0,1,1.18,1.121V12.1a1.128,1.128,0,0,1-1.09,1.121A21.315,21.315,0,0,0,12.21,34.511Z" transform="translate(0.121 -0.876)" fill="#529ad9"/>
        <path id="Shape-2" data-name="Shape" d="M31.817,48.557a1.029,1.029,0,0,1-1.072,1.038,16.816,16.816,0,0,1,0-33.565,1.029,1.029,0,0,1,1.072,1.038Z" transform="translate(1.815 0.822)" fill="#a0a603"/>
        <g id="Grupo_83963" data-name="Grupo 83963" transform="translate(41.488 3.913)">
          <ellipse id="Oval" cx="2.348" cy="1.957" rx="2.348" ry="1.957" transform="translate(0 0)" fill="#60a917"/>
          <ellipse id="Oval-2" data-name="Oval" cx="2.348" cy="1.957" rx="2.348" ry="1.957" transform="translate(0 55.577)" fill="#60a917"/>
          <ellipse id="Oval-3" data-name="Oval" cx="2.348" cy="2.74" rx="2.348" ry="2.74" transform="translate(11.742 43.836)" fill="#60a917"/>
          <circle id="Oval-4" data-name="Oval" cx="2.348" cy="2.348" r="2.348" transform="translate(20.352 27.397)" fill="#60a917"/>
          <ellipse id="Oval-5" data-name="Oval" cx="2.348" cy="2.74" rx="2.348" ry="2.74" transform="translate(11.742 10.176)" fill="#60a917"/>
        </g>
        <path id="Shape-3" data-name="Shape" d="M2.787,28.748A3.139,3.139,0,0,0,.175,31.455a29.006,29.006,0,0,0-.007,6.3,3.159,3.159,0,0,0,2.621,2.763l3.567.584A27.555,27.555,0,0,0,9.779,49.35l-2.1,2.933a3.146,3.146,0,0,0,.049,3.8,30,30,0,0,0,2.13,2.342c.688.689,1.45,1.382,2.363,2.15a3.13,3.13,0,0,0,3.758.044L18.927,58.5a27.549,27.549,0,0,0,8.24,3.424l.585,3.573a3.139,3.139,0,0,0,2.707,2.613c.639.072,1.288.122,1.942.149h.1a2.28,2.28,0,0,0,1.569-.628,2.223,2.223,0,0,0,.687-1.612V57.038A2.251,2.251,0,0,0,32.6,54.8a20.2,20.2,0,0,1,0-40.337,2.252,2.252,0,0,0,2.154-2.242V3.242A2.251,2.251,0,0,0,32.407,1c-.652.026-1.3.073-1.963.14a3.127,3.127,0,0,0-2.691,2.626l-.584,3.569a27.557,27.557,0,0,0-8.24,3.425L15.982,8.65a3.139,3.139,0,0,0-3.786.061,30.521,30.521,0,0,0-2.331,2.118,27.114,27.114,0,0,0-2.15,2.365,3.139,3.139,0,0,0-.054,3.771l2.113,2.951a27.537,27.537,0,0,0-3.418,8.247Zm5.6.626A25.4,25.4,0,0,1,12.068,20.5a1.121,1.121,0,0,0-.026-1.27L9.485,15.656A.9.9,0,0,1,9.469,14.6a24.69,24.69,0,0,1,1.974-2.169,28.736,28.736,0,0,1,2.141-1.955.9.9,0,0,1,1.087,0l3.565,2.558a1.121,1.121,0,0,0,1.27.024,25.351,25.351,0,0,1,8.871-3.685,1.121,1.121,0,0,0,.88-.917l.705-4.317a.889.889,0,0,1,.733-.761c.593-.062,1.194-.105,1.815-.13l-.025,8.981a22.436,22.436,0,0,0,.025,44.815L32.5,66.022c-.6-.025-1.2-.072-1.787-.138a.88.88,0,0,1-.744-.749l-.706-4.319a1.121,1.121,0,0,0-.88-.917,25.359,25.359,0,0,1-8.871-3.686,1.121,1.121,0,0,0-1.27.025L14.668,58.8a.881.881,0,0,1-1.044.028c-.824-.694-1.538-1.345-2.182-1.988A28.3,28.3,0,0,1,9.489,54.7a.909.909,0,0,1,0-1.09l2.555-3.567a1.121,1.121,0,0,0,.025-1.27A25.382,25.382,0,0,1,8.384,39.9a1.121,1.121,0,0,0-.916-.88l-4.316-.707a.908.908,0,0,1-.754-.8,26.511,26.511,0,0,1,.007-5.8.881.881,0,0,1,.748-.747l4.315-.706a1.121,1.121,0,0,0,.917-.885Z" transform="translate(0 -0.997)" fill="#3a3c07"/>
        <path id="Shape-4" data-name="Shape" d="M62.207,31.028A3.363,3.363,0,0,0,59.05,33.27H33.059V29.907H51a3.363,3.363,0,0,0,3.363-3.363V20.732a3.363,3.363,0,1,0-2.242,0v5.812A1.121,1.121,0,0,1,51,27.665H33.059V24.3H45.391a1.121,1.121,0,0,0,0-2.242H33.059V19.818h6.726a3.363,3.363,0,0,0,3.363-3.363V9.522a3.363,3.363,0,1,0-2.242,0v6.933a1.121,1.121,0,0,1-1.121,1.121H32.763A2.072,2.072,0,0,0,30.8,16.49a17.937,17.937,0,0,0,0,35.8h.131a2.067,2.067,0,0,0,1.836-1.085h7.022a1.121,1.121,0,0,1,1.121,1.121v6.933a3.363,3.363,0,1,0,2.242,0V52.328a3.363,3.363,0,0,0-3.363-3.363H33.059V46.723H45.391a1.121,1.121,0,0,0,0-2.242H33.059V41.118H51a1.121,1.121,0,0,1,1.121,1.121V48.05a3.363,3.363,0,1,0,2.242,0V42.239A3.363,3.363,0,0,0,51,38.876H33.059V35.512H59.05a3.358,3.358,0,1,0,3.157-4.484ZM53.238,16.454a1.121,1.121,0,1,1-1.121,1.121A1.121,1.121,0,0,1,53.238,16.454ZM42.028,5.244a1.121,1.121,0,1,1-1.121,1.121A1.121,1.121,0,0,1,42.028,5.244Zm0,58.3a1.121,1.121,0,1,1,1.121-1.121A1.121,1.121,0,0,1,42.028,63.539ZM53.238,52.328a1.121,1.121,0,1,1,1.121-1.121A1.121,1.121,0,0,1,53.238,52.328Zm-37-17.937A15.714,15.714,0,0,1,30.817,18.737V50.046A15.714,15.714,0,0,1,16.243,34.391Zm45.964,1.121a1.121,1.121,0,1,1,1.121-1.121A1.121,1.121,0,0,1,62.207,35.512Z" transform="translate(1.694 -0.757)" fill="#3a3c07"/>
      </g>
    </g>
  </g>
</svg>
