<svg xmlns="http://www.w3.org/2000/svg" width="294.25" height="299.727" viewBox="0 0 294.25 299.727">
  <g id="Grupo_84177" data-name="Grupo 84177" transform="translate(-149.93 -1420.77)">
    <path id="Trazado_133924" data-name="Trazado 133924" d="M285.071,1429.667a149.777,149.777,0,0,1,70.855-7.551c15.1,2.054,30.738,6.973,40.695,18.51,25.957,30.077,2.17,76.718-6.416,109.541-1.715,6.558-3.446,13.283-2.788,20.029s4.208,13.629,10.412,16.358c11.582,5.1,25.777-6.03,37.211-.61,9.642,4.571,10.916,18.19,7.242,28.208-8.246,22.489-32.517,35.236-56.073,39.585s-47.893,2.419-71.533,6.282c-23.1,3.774-44.989,12.988-67.956,17.493s-48.741,3.578-67.175-10.842c-21.532-16.842-27.086-46.807-28.848-74.087-1.774-27.469-1.131-55.828,9.16-81.357,3.112-7.72,7.255-15.31,13.762-20.5s15.8-7.524,23.37-4.065c7.8,3.563,13.073,12.644,21.628,13.226,16.182,1.1,22.364-27.595,28.917-38.367,9-14.8,21.63-25.1,37.536-31.856" transform="translate(0 0)" fill="#4aaf95"/>
    <path id="Trazado_133925" data-name="Trazado 133925" d="M270.777,1788.632a32.7,32.7,0,0,0,5.941-9.633l.123-5.074.187.031v-.011q-.345-.034-.688-.076a30.206,30.206,0,0,1-1.609,5.154,29.623,29.623,0,0,1-5.384,8.506,32.67,32.67,0,0,1,.376-15.444,17.37,17.37,0,0,1-1.6-.839,27.217,27.217,0,0,0-.859,3.615,36.123,36.123,0,0,0,.193,12.336,53.788,53.788,0,0,1-11.748-7.671.785.785,0,0,0-.211-.425,72.587,72.587,0,0,0,8.311-11.293l.071-.122a17.532,17.532,0,0,1-1.186-1.552c-.095.165-.187.331-.284.495a70.143,70.143,0,0,1-8.2,11.208c-.484-7.4.535-15.318,5.135-21.279q-.142-1.3-.163-2.61a25.181,25.181,0,0,0-4.832,8,36.191,36.191,0,0,0-2.022,14.444,57.634,57.634,0,0,1-4.135-4.624,66.225,66.225,0,0,1-6.729-10.255c6.963-5.909,14.753-12.734,17.744-21.641l-.527-.123a.955.955,0,0,1-.6-1.437c.019-.165.041-.33.061-.5q.063-.514.135-1.025a57.556,57.556,0,0,1,1.286-6.45,5.2,5.2,0,0,0-1.483-1.724c-2.02-1.5-4.506-.861-6.347.586a21.793,21.793,0,0,0-4.721,6.014,51.531,51.531,0,0,0-7.3,22.8,89.225,89.225,0,0,1-6.412-19.751,50.858,50.858,0,0,0,14.408-14.4,21.872,21.872,0,0,0,3.308-6.534,7.086,7.086,0,0,0-.993-6.012,4.905,4.905,0,0,0-5.385-1.8,12.368,12.368,0,0,0-5.532,4.085,26.862,26.862,0,0,0-3.873,5.943,45.3,45.3,0,0,0-3.336,10.275q-.236-1.842-.418-3.683a173.61,173.61,0,0,1-.716-18.911,63.025,63.025,0,0,0,9.27-5.525q2.234-1.61,4.328-3.4a13.742,13.742,0,0,0,3.624-3.919,4.277,4.277,0,0,0-.108-4.341,4.078,4.078,0,0,0-3.675-1.543c-3.42.269-5.426,3.82-7.289,6.266l-6.056,7.948q.1-3.533.275-7.061a.907.907,0,0,0,.336-.453,62.076,62.076,0,0,0,2.85-9.78c.531-3,.928-6.728-.32-9.613-1.1-2.54-4.346-3.5-6.073-1a8.067,8.067,0,0,0-.984,4.225,39.2,39.2,0,0,0,.064,5.166,40.787,40.787,0,0,0,2.381,10.893,1,1,0,0,0-.043.244q-.193,3.947-.3,7.919a62.887,62.887,0,0,0-2.479-6.745q-1.093-2.519-2.41-4.932a18.524,18.524,0,0,0-2.555-3.94c-.083-.088-.164-.178-.251-.262a4.971,4.971,0,0,0-1.5-.982c-2.123-.9-4.726-.294-5.256,2.4-.63,3.206,2.269,5.685,4.289,7.787.08.083.16.167.238.25l1.37,1.462,7.556,8.063c.081.315.161.631.238.947a.786.786,0,0,0,.683.635,165.808,165.808,0,0,0,1.1,21.62,108.16,108.16,0,0,0-4.571-10.18,58.206,58.206,0,0,0-4.764-7.708c-.563-.761-1.148-1.539-1.775-2.286a19.115,19.115,0,0,0-1.59-1.693,11,11,0,0,0-2.678-1.888,6.828,6.828,0,0,0-7.228.438c-2.147,1.739-2.492,4.8-1.78,7.317a22.552,22.552,0,0,0,4.141,7.334,42.255,42.255,0,0,0,5.61,5.9c.207.181.417.358.627.537q.9.766,1.832,1.494a124.291,124.291,0,0,0,13.2,8.686.787.787,0,0,0,.2.083.983.983,0,0,0,.273,1.126,95.786,95.786,0,0,0,2.881,10.816q.923,2.78,2.039,5.5a109.528,109.528,0,0,0-8.351-8.22,57,57,0,0,0-6.233-4.734c-.8-.518-1.623-1.034-2.479-1.483a14.441,14.441,0,0,0-1.919-.847,9.427,9.427,0,0,0-2.451-.53,6.124,6.124,0,0,0-5.435,2.358,5.822,5.822,0,0,0,.154,6.275,14.153,14.153,0,0,0,5.181,4.4,65.344,65.344,0,0,0,6.318,3.239q.492.221.987.436.57.247,1.142.485c5.252,2.188,10.689,3.88,16.122,5.556a.958.958,0,0,0,.232.042,70.162,70.162,0,0,0,6.586,10.219,64.256,64.256,0,0,0-11.654-5.071,31.493,31.493,0,0,0-8.038-1.386q-.238-.008-.479-.012c-.616-.012-1.244-.005-1.873.029a13.009,13.009,0,0,0-5.346,1.284,6.037,6.037,0,0,0-3.463,5.561c.212,2.638,2.19,4.607,4.426,5.781a30.478,30.478,0,0,0,8.5,2.833q.951.18,1.908.316a54.35,54.35,0,0,0,5.463.489,111.5,111.5,0,0,0,18.636-1.267,54.759,54.759,0,0,0,8.239,5.925l.226.13a32.138,32.138,0,0,0-7.185.3,27.865,27.865,0,0,0-11.3,4.14c-1.321.911-2.654,2.493-1.878,4.182.714,1.555,2.581,1.8,4.1,1.906a28.673,28.673,0,0,0,11.251-1.538,29.325,29.325,0,0,0,10.393-6.241.913.913,0,0,0,1.131.437,49.206,49.206,0,0,0,7.023,2.254l.044-1.843A46.712,46.712,0,0,1,270.777,1788.632Zm-34.447-90.154,3.1-4.075a14.53,14.53,0,0,1,3.1-3.444,3.191,3.191,0,0,1,3.345-.356c1.353.816.832,2.6.069,3.646a20.312,20.312,0,0,1-3.475,3.288q-1.814,1.516-3.744,2.884a62.62,62.62,0,0,1-7.259,4.429Zm-13.48-.3-2.07-2.209L219.4,1694.5c-.08-.086-.162-.171-.245-.257a12.014,12.014,0,0,1-2.562-3.234c-.429-.977-.5-2.514.592-3.1a2.325,2.325,0,0,1,2.533.458,5.4,5.4,0,0,1,.931.92,12.45,12.45,0,0,1,.739,1.052c.585.919,1.086,1.911,1.586,2.856q1.058,2,1.964,4.073,1.129,2.583,1.993,5.27Zm-5.069,28.281q-.92-.761-1.8-1.562a36.833,36.833,0,0,1-6.861-8.177c-1.31-2.17-2.618-4.832-1.7-7.4.906-2.52,3.774-3.038,6.042-2.1a10.242,10.242,0,0,1,3.592,2.717c.561.62,1.081,1.279,1.573,1.929.18.238.356.476.529.709a57.128,57.128,0,0,1,4.324,6.878,125.932,125.932,0,0,1,6.692,15.412A99.873,99.873,0,0,1,217.781,1726.462Zm11.027-42.27a39.2,39.2,0,0,1-.055-5.333c.068-1.167.126-3.723,1.8-3.775,1.788-.055,2.169,2.453,2.3,3.75a21.7,21.7,0,0,1-.171,5.434,48.036,48.036,0,0,1-2.233,8.364A38.444,38.444,0,0,1,228.808,1684.192Zm3.9,50.972c1.4-8.112,3.3-17.22,10.006-22.578,1.508-1.205,3.751-2.222,5.409-.71a5.144,5.144,0,0,1,1.072,5.278,21.736,21.736,0,0,1-3.045,5.8,48.062,48.062,0,0,1-3.788,4.988,49.4,49.4,0,0,1-9.438,8.406C232.851,1735.952,232.778,1735.557,232.708,1735.163Zm-6.436,20.472c-1.166-.451-2.345-.922-3.518-1.422q-1.062-.451-2.114-.937a42.091,42.091,0,0,1-7.054-4.032c-1.667-1.21-3.264-3.045-3.019-5.256.23-2.067,2.341-3.046,4.219-2.985a8.025,8.025,0,0,1,3.1.815,18.342,18.342,0,0,1,2,1.108c.465.291.918.59,1.355.878a53.937,53.937,0,0,1,5.6,4.279,137.666,137.666,0,0,1,11.194,11.3.818.818,0,0,0,.515.278l.064.13C234.467,1758.514,230.323,1757.2,226.272,1755.635Zm24.26-22.484c1.162-1.627,3.176-4.06,5.471-3.552,2.525.559,2.771,3.756,2.445,5.809a28.9,28.9,0,0,1-5.959,12.8,74.5,74.5,0,0,1-11.045,10.964A49.6,49.6,0,0,1,250.532,1733.151Zm-20.652,46.5q-.97-.165-1.933-.378c-1.091-.242-2.176-.529-3.251-.873-2.225-.711-4.816-1.566-6.359-3.422a3.894,3.894,0,0,1,.774-5.914,10.263,10.263,0,0,1,5.693-1.5c.459-.013.912-.013,1.352-.007.177,0,.354.011.531.017a29.013,29.013,0,0,1,6.737,1.092c5.572,1.551,10.689,4.357,15.715,7.153a.945.945,0,0,0,.3.108q1.542,1.7,3.212,3.269C245.131,1780.135,237.36,1780.921,229.879,1779.649Zm20.018,15.93a16.543,16.543,0,0,1-4.578-.177c-.617-.146-1.4-.455-1.2-1.231.19-.721,1.024-1.265,1.62-1.624a28.7,28.7,0,0,1,9.811-3.57,29.423,29.423,0,0,1,10.572.086A27.492,27.492,0,0,1,249.9,1795.578Z" transform="translate(-22.824 -162.761)" fill="#379086"/>
    <g id="Grupo_84165" data-name="Grupo 84165" transform="translate(281.219 1535.144)">
      <path id="Trazado_133926" data-name="Trazado 133926" d="M521.714,1888.208c.842-2.621,1.631-5.26,2.224-7.949.369-1.671.718-3.432.927-5.2a23.223,23.223,0,0,0,.083-5.327,3.6,3.6,0,0,0-1.77-3.055,2.469,2.469,0,0,0-1.061-.233,3.154,3.154,0,0,0-2.483,1.36c-.951,1.335-1,3.19-1.183,4.762-.226,1.91-.369,3.829-.456,5.75-.194,4.288-.106,8.582-.014,12.872q-3.236,2.459-6.661,4.653c-.924.591-1.861,1.163-2.8,1.724a81.464,81.464,0,0,0,2.42-9.716q.521-2.837.844-5.707a19.363,19.363,0,0,0,.25-5.087,3.178,3.178,0,0,0-1.943-2.681c-.252.3-.51.587-.779.868a18.74,18.74,0,0,1-4.35,3.37,18.5,18.5,0,0,0-.426,6.412c.3,4.623.635,9.243.954,13.865a1.134,1.134,0,0,0,.086.368q-3.049,1.677-6.211,3.137l.27,2.192q3.439-1.564,6.75-3.377a34.965,34.965,0,0,0,19.94,3.285c.4-.054.843-.1,1.28-.183a4.2,4.2,0,0,0,2.187-.933,2.428,2.428,0,0,0,.322-.369,2.33,2.33,0,0,0-.1-2.794,3.457,3.457,0,0,0-.651-.685,6.545,6.545,0,0,0-1.385-.835c-2.372-1.079-5.458-1.009-7.881-.811-3.07.25-6.185.884-9.274.747q3.741-2.3,7.278-4.906a1.188,1.188,0,0,0,.253.13,28.189,28.189,0,0,0,9.622,1.439c.7,0,1.4,0,2.1-.018q.578-.012,1.155-.027c4.071-.112,8.295-.195,12.181-1.554a10.718,10.718,0,0,0,4.9-2.918,3.1,3.1,0,0,0-.387-4.607c-1.7-1.253-4.167-.768-6.116-.562-2.255.238-4.5.594-6.721,1.04-1.852.371-3.688.806-5.516,1.278q-1.041.269-2.079.553-2.147.589-4.283,1.224,2.038-1.709,3.986-3.521.956-.887,1.891-1.8,1.655-1.614,3.237-3.3a114.371,114.371,0,0,0,11.654-1.695,49.508,49.508,0,0,0,5.528-1.5,24.6,24.6,0,0,0,5.164-2.2c1.224-.768,2.384-2.059,1.995-3.619s-2.014-2.278-3.465-2.468a13.089,13.089,0,0,0-5.733.933c-1.752.576-3.489,1.2-5.194,1.9-1.422.586-2.815,1.226-4.169,1.933q2.412-3.051,4.6-6.279a52.409,52.409,0,0,0,19.294-11.538c1.2-1.131,2.91-2.494,2.936-4.3a3.122,3.122,0,0,0-3.046-2.931,9.955,9.955,0,0,0-5.459,1.776,30.963,30.963,0,0,0-4.586,3.535q-1.4,1.25-2.738,2.567,1.756-3.474,3.246-7.077a.977.977,0,0,0,.313-.4,42.169,42.169,0,0,0,3.252-11.112c.23-1.6.646-3.5.086-5.076a3.084,3.084,0,0,0-3.313-2.055c-3.506.374-4.682,4.963-5.338,7.786-.954,4.1-1.763,8.246-2.638,12.367l-1.507,7.093q-.17-2.085-.392-4.166-.315-2.94-.73-5.868a31.5,31.5,0,0,0-.872-5.167,3.2,3.2,0,0,0-2.572-2.486,3.293,3.293,0,0,0-3.246,2.263c-1.354,3.4.32,7.39,1.368,10.637q2.038,6.316,4.481,12.489a1,1,0,0,0-.323.511,102.147,102.147,0,0,1-6.807,8.963,67.566,67.566,0,0,0,.044-8.391c-.107-1.85-.3-3.693-.549-5.528a29.061,29.061,0,0,0-.962-5.2,3.059,3.059,0,0,0-2.626-2.381,3.206,3.206,0,0,0-2.976,2.384,13.985,13.985,0,0,0-.237,5.082,37.091,37.091,0,0,0,.782,5.325,82.569,82.569,0,0,0,3.757,11.67.927.927,0,0,0-.286.48q-1.183,1.272-2.409,2.5-.914.92-1.851,1.815Q524.328,1886.017,521.714,1888.208Zm-15-2.44a25.908,25.908,0,0,1-.038-5.017c.173-1.361.756-3.811,2.271-4.313,1.558-.517.952,3.206.891,3.882q-.282,3.1-.811,6.16-.675,3.9-1.733,7.712Q507,1889.98,506.712,1885.768Zm11.777,14.4a28.646,28.646,0,0,1,5.274-.213,12.1,12.1,0,0,1,2.592.476,7.848,7.848,0,0,1,1.521.589c.35.2.6.438.538.7-.047.192-.3.32-.613.408a10.139,10.139,0,0,1-1.4.218,30.254,30.254,0,0,1-3.056.289,33.448,33.448,0,0,1-5.584-.2,32.124,32.124,0,0,1-7.1-1.708A52.2,52.2,0,0,0,518.489,1900.168Zm1.593-20.825c.072-2.059.2-4.117.428-6.166.074-.674.341-5.343,1.819-4.545.507.274.521,1.281.542,1.768a27.865,27.865,0,0,1-.043,2.817,39.966,39.966,0,0,1-.816,5.883c-.524,2.5-1.224,4.955-1.987,7.391C520,1884.108,520,1881.725,520.083,1879.343Zm7.622,11.278q1.036-.287,2.076-.56a77.614,77.614,0,0,1,13.647-2.477,7.151,7.151,0,0,1,2.713.035c1.125.388,1.049,1.261.325,2.027a10.435,10.435,0,0,1-4.64,2.311,41.506,41.506,0,0,1-10.413,1.152q-.708.02-1.418.035c-.7.014-1.407.02-2.11.014a30.666,30.666,0,0,1-6.6-.664C523.414,1891.854,525.554,1891.217,527.705,1890.621Zm20.452-45.006c.689-3.244,1.094-6.806,2.546-9.819.424-.88,1.691-2.98,2.962-2.046.952.7.347,3.114.223,4.05a39.656,39.656,0,0,1-2.9,10.453,1.118,1.118,0,0,0-.35.47,97.81,97.81,0,0,1-5.6,11.56Zm2.48,13.059c2.348-2.3,4.828-4.732,7.779-6.245.771-.395,4.241-1.972,4.38-.17.05.648-.878,1.389-1.289,1.8q-.946.947-1.941,1.842a49.693,49.693,0,0,1-14.764,9.16A80.191,80.191,0,0,1,550.637,1858.674Zm-11.511-4.32c-.63-1.918-1.31-3.848-1.763-5.818a9.819,9.819,0,0,1-.286-3.207c.072-.687.324-2.182,1.272-2.163,1.189.024,1.285,3.476,1.4,4.238q.481,3.156.835,6.329.368,3.289.605,6.589Q540.113,1857.354,539.126,1854.354Zm4.052,20c1.828-.741,3.692-1.406,5.574-2a12.559,12.559,0,0,1,3.155-.684c.694-.032,2.188-.031,2.6.719,1.059,1.934-8.685,4.385-9.975,4.688a85.032,85.032,0,0,1-9.435,1.558A41.235,41.235,0,0,1,543.177,1874.357Zm-13.367-6.963a34.549,34.549,0,0,1-.881-5.527c-.066-.944-.609-4.924.791-5.289,1.547-.4,2.164,8.941,2.247,10.126a67.175,67.175,0,0,1,.077,7.97A67.154,67.154,0,0,1,529.81,1867.395Z" transform="translate(-493.52 -1799.804)" fill="#379086"/>
      <path id="Trazado_133927" data-name="Trazado 133927" d="M498.231,1743.547c-1.516,1.611-1.764,4.466-1.783,6.484a99.057,99.057,0,0,0,.807,10.638q.56,5.643,1.278,11.269c-.43,1.262-.878,2.514-1.331,3.761a65.835,65.835,0,0,0-.764-6.643q-.441-2.623-1.1-5.2a14.808,14.808,0,0,0-1.377-4.114,2.767,2.767,0,0,0-5.172.624c-.431,1.525.206,3.134.633,4.587q.758,2.58,1.591,5.137,1.864,5.717,4.087,11.305-.149.4-.3.809a.883.883,0,0,0-.3.8c-.625,1.664-1.267,3.322-1.94,4.966a54.166,54.166,0,0,0-1.329-8.309c-.411-1.685-.91-3.345-1.476-4.984a17.773,17.773,0,0,0-1.825-4.33,2.624,2.624,0,0,0-2.841-1.229,3.335,3.335,0,0,0-2.108,2.761c-.019.1-.035.2-.049.3q1.21,1.369,2.3,2.839a5.1,5.1,0,0,1-.011-3.286c.769-1.673,1.774,1.592,1.994,2.166a50.445,50.445,0,0,1,1.672,5.183q.389,1.473.691,2.966a68.859,68.859,0,0,1,4.5,11.339,34.849,34.849,0,0,0,15.642-2.149c1.3-.49,3.023-1.125,3.176-2.738.169-1.776-1.688-2.684-3.156-2.955a12.934,12.934,0,0,0-5.219.431,58.2,58.2,0,0,0-10.255,3.415c.762-1.826,1.483-3.67,2.181-5.522a1.127,1.127,0,0,0,.2.021,28.823,28.823,0,0,0,11.419-2.129,27.732,27.732,0,0,0,5.127-2.771c1.115-.761,2.975-1.97,2.1-3.579-.8-1.473-2.8-.943-4.108-.7a38.081,38.081,0,0,0-5.785,1.585,36.928,36.928,0,0,0-7.517,3.712c.75-2.028,1.5-4.061,2.208-6.106a53.521,53.521,0,0,0,14.507-4.846q.957-.481,1.893-1,2.225-1.232,4.334-2.672c1.222-.838,2.811-1.81,2.878-3.467a2.894,2.894,0,0,0-2.825-2.779,12.527,12.527,0,0,0-4.989,1.02,28.09,28.09,0,0,0-4.061,1.79c-.342.183-.682.37-1.018.566q-.427.247-.846.507c-.774.476-1.532.978-2.276,1.5q.905-1.083,1.779-2.191.7-.876,1.374-1.765a110.939,110.939,0,0,0,6.71-9.835c.97-1.6,1.988-3.519.942-5.354-.945-1.657-3.057-1.727-4.646-1.092-3.81,1.523-5.431,6.141-7.05,9.538l-.177.372-1.1,2.3-1.694,3.555a47.349,47.349,0,0,0,.591-5.311v-.017c.068-1.333.1-2.716.047-4.1a23.574,23.574,0,0,0-.632-4.808c-.458-1.824-1.866-3.693-3.756-3.331a3.162,3.162,0,0,0-.963.364A3.805,3.805,0,0,0,498.231,1743.547Zm-4.929,26.72q-.842-2.554-1.609-5.132c-.267-.9-1.707-4.157-.44-4.791,1.413-.707,2.741,7.16,2.916,8.113a63.837,63.837,0,0,1,.879,6.837Q494.137,1772.8,493.3,1770.268Zm9.472,18.335a33.134,33.134,0,0,1,4.432-.986,7.134,7.134,0,0,1,2.058-.012,2.973,2.973,0,0,1,1.01.287c.5.31.521.348.172.708a5.7,5.7,0,0,1-1.846.791c-.753.28-1.517.526-2.29.744a34.093,34.093,0,0,1-4.516.952,32.675,32.675,0,0,1-6.642.236A54.869,54.869,0,0,1,502.773,1788.6Zm1.633-9.647A34.461,34.461,0,0,1,509,1777.38q1.105-.292,2.228-.516c.39-.078.969-.087,1.466-.163-.209.154-.425.349-.6.471-.635.441-1.3.845-1.97,1.223a26.833,26.833,0,0,1-4.043,1.849,25.888,25.888,0,0,1-6.9,1.446A35.841,35.841,0,0,1,504.407,1778.956Zm2.48-20.393.106-.221.979-2.054q.925-1.942,1.851-3.884a19.868,19.868,0,0,1,2.585-4.41c.739-.869,2.776-2.748,4.039-1.79,1.368,1.038-1.056,4-1.65,4.941q-2.448,3.891-5.213,7.57-.68.905-1.377,1.8l-.2.254q-2.377,3.02-4.964,5.86Zm4.356,6.163c.068-.041.134-.085.2-.125q.817-.486,1.663-.928a25.316,25.316,0,0,1,3.824-1.644,17.19,17.19,0,0,1,2.879-.724c.635-.091,2.348-.051,1.531.984a8.963,8.963,0,0,1-2.076,1.6q-1.322.894-2.7,1.7-.692.405-1.4.788c-.628.342-1.264.667-1.906.983-.665.328-1.335.645-2.014.944a50.6,50.6,0,0,1-8.594,2.885A67.823,67.823,0,0,1,511.243,1764.726Zm-11.9-18.984c.446-.887,1.324-1.7,2.015-.565a8.819,8.819,0,0,1,.79,3.487c.1.855.16,1.708.194,2.56a49.961,49.961,0,0,1-2.263,15.832q-.773-6.641-1.326-13.307c-.208-2.516-.535-5.458.512-7.844Q499.3,1745.823,499.342,1745.741Z" transform="translate(-482.937 -1742.428)" fill="#379086"/>
    </g>
    <g id="Grupo_84175" data-name="Grupo 84175" transform="translate(226.82 1429.989)">
      <rect id="Rectángulo_6824" data-name="Rectángulo 6824" width="43.343" height="50.566" transform="translate(101.339 14.595)" fill="#27393b"/>
      <path id="Trazado_133928" data-name="Trazado 133928" d="M633.471,1626.7l-2.144-3.143s-.78-7.358-.78-8.044-.6-4.329-.6-4.329,2.351-.63,3.4,4.007l1.3,2.529,11.454-.014a43.432,43.432,0,0,1-7.92,10.62Z" transform="translate(-523.274 -1552.681)" fill="#faa284"/>
      <path id="Trazado_133929" data-name="Trazado 133929" d="M629.5,1656.855l3.815-6.813s-4.173-6.686-8.983-5.757l-4.045,5.744Z" transform="translate(-517.052 -1573.97)" fill="#a0dbeb"/>
      <path id="Trazado_133930" data-name="Trazado 133930" d="M501.335,1637.884s-2.105-3.7,25.753,24.687a198.474,198.474,0,0,1,16.448-19.748,14.065,14.065,0,0,1,11.424,7.039s-14.237,29.06-25.577,33.358c0,0-7.2-.138-25.753-18.608C503.63,1664.613,497.472,1642.642,501.335,1637.884Z" transform="translate(-439.574 -1569.8)" fill="#cbdaed"/>
      <g id="Grupo_84166" data-name="Grupo 84166" transform="translate(5.733 275.266)">
        <path id="Trazado_133931" data-name="Trazado 133931" d="M365.833,2232.945H346.225s-1.152-5.232,2.94-12.112l13.21.175A21.159,21.159,0,0,1,365.833,2232.945Z" transform="translate(-346.076 -2220.833)" fill="#1e1e1d"/>
        <rect id="Rectángulo_6825" data-name="Rectángulo 6825" width="19.607" height="3.096" transform="translate(0.321 12.112)" fill="#0c0c0c"/>
        <ellipse id="Elipse_8722" data-name="Elipse 8722" cx="7.396" cy="2.429" rx="7.396" ry="2.429" transform="translate(2.558 4.191)" fill="#444"/>
      </g>
      <g id="Grupo_84167" data-name="Grupo 84167" transform="translate(44.21 272.406)">
        <path id="Trazado_133932" data-name="Trazado 133932" d="M455.087,2214.45s-1.519,7.809-.373,13.313h36.922s1.261-8.029-14.791-8.01l-10.3-6.961Z" transform="translate(-454.286 -2212.791)" fill="#1e1e1d"/>
        <path id="Trazado_133933" data-name="Trazado 133933" d="M456.3,2257.991H468.12l.15-2.155a37.439,37.439,0,0,0,12.313,2.065c3.4,0,12.518.123,12.518.123V2254.9H456.3Z" transform="translate(-455.581 -2239.924)" fill="#0c0c0c"/>
        <path id="Trazado_133934" data-name="Trazado 133934" d="M520.642,2232.445s.542,5.689,13.283,5.419C533.925,2237.864,532.17,2232.686,520.642,2232.445Z" transform="translate(-497.047 -2225.457)" fill="#444"/>
        <path id="Trazado_133935" data-name="Trazado 133935" d="M466.716,2237.854s-.358-9.346-12.1-9.4c0,0-.623,6.307.294,9.4Z" transform="translate(-454.363 -2222.883)" fill="#161616"/>
      </g>
      <path id="Trazado_133936" data-name="Trazado 133936" d="M405.189,1860.2l.688,128.235s-10.033,5.032-19.492,1.1l-3.615-106.751-2.793-.134-13.658,106.893s-7.224,3.259-17.887-.673L359.256,1860.2Z" transform="translate(-341.86 -1713.165)" fill="#27393b"/>
      <path id="Trazado_133937" data-name="Trazado 133937" d="M470.349,2054.059l.265,49.29s-10.033,5.023-19.492,1.089l-2.233-65.941C454.184,2059.559,465.688,2056.372,470.349,2054.059Z" transform="translate(-406.597 -1828.066)" fill="#0f1417"/>
      <path id="Trazado_133938" data-name="Trazado 133938" d="M353.271,2060.313c7.086,19.214,16.459,6.885,20.48.013l-7.433,58.171s-7.224,3.274-17.887-.657Z" transform="translate(-341.86 -1842.125)" fill="#0f1417"/>
      <path id="Trazado_133939" data-name="Trazado 133939" d="M398.56,1629.42a66.62,66.62,0,0,1,24.319-1.018c-.056,5.76-.223,30.635-5.89,50.407C416.989,1678.809,401.081,1642.683,398.56,1629.42Z" transform="translate(-374.165 -1563.346)" fill="#b1f9fb"/>
      <path id="Trazado_133940" data-name="Trazado 133940" d="M435.28,1644.389l-3.161,5.579,7.715,34.141-5.231,6.776-5.419-4.919-.523-35.744-2.747-4.408,3.909-5.683Z" transform="translate(-391.792 -1571.35)" fill="#5cd8ff"/>
      <path id="Trazado_133941" data-name="Trazado 133941" d="M365.147,1918.217l4.881-58.022h45.933l.29,54.085a119.324,119.324,0,0,1-21.513,3.825l-1.2-35.328-2.793-.134-4.6,36.019A183.491,183.491,0,0,1,365.147,1918.217Z" transform="translate(-352.633 -1713.165)" fill="#0f1417"/>
      <path id="Trazado_133942" data-name="Trazado 133942" d="M352.3,1635.244a75.032,75.032,0,0,1,17.814-6.517c2.521,13.263,17.065,50.409,17.065,50.409,5.667-19.772,4.486-45.158,4.542-50.918,4.451.7,9.958,1.466,14.395,3.539,0,0,9.991,65.784,7.359,126.9a80.972,80.972,0,0,1-22.163,4.876l-6.331-18.053-6.426,18.329a90.479,90.479,0,0,1-26.253-5.153s8.412-80.684,4.271-97.421C356.57,1661.235,353.61,1645.764,352.3,1635.244Z" transform="translate(-344.353 -1563.674)" fill="#dfecfe"/>
      <path id="Trazado_133943" data-name="Trazado 133943" d="M419.844,1646.984l2.462,2.236s-6.58,25.883-11.309,35.267c0,0-13.65-22.865-17.948-32.857l2.055-3.26-4.506-1.385s-1.806-9.457-1.3-17.068c1.469-.437,3.011-.843,4.6-1.189,2.521,13.263,17.065,50.409,17.065,50.409,5.667-19.772,4.486-45.158,4.542-50.918,1.307.206,2.74.507,4.221.881l3.148,14.947Z" transform="translate(-368.138 -1563.674)" fill="#e9f3ff"/>
      <g id="Grupo_84171" data-name="Grupo 84171" transform="translate(18.045 57.979)">
        <g id="Grupo_84168" data-name="Grupo 84168" transform="translate(0 43.985)">
          <path id="Trazado_133944" data-name="Trazado 133944" d="M380.723,1738.825a4.9,4.9,0,1,1,5.35,4.415A4.9,4.9,0,0,1,380.723,1738.825Z" transform="translate(-380.7 -1733.452)" fill="#b7bcbc"/>
          <path id="Trazado_133945" data-name="Trazado 133945" d="M387,1742.665a2.669,2.669,0,1,1,2.912,2.4A2.67,2.67,0,0,1,387,1742.665Z" transform="translate(-384.751 -1737.505)" fill="#919191"/>
        </g>
        <rect id="Rectángulo_6826" data-name="Rectángulo 6826" width="1.376" height="2.752" transform="matrix(0.991, -0.132, 0.132, 0.991, 3.511, 43.923)" fill="#919191"/>
        <g id="Grupo_84169" data-name="Grupo 84169" transform="translate(30.187 23.564)">
          <path id="Trazado_133946" data-name="Trazado 133946" d="M465.876,1699.894c.18-.037,4.449-.938,6.735-2.473.493-.331,1.648-1.107,2.552-11.468.435-4.977.6-9.837.6-9.885l-1.375-.046c-.308,9.109-1.369,19.444-2.547,20.258-2.065,1.386-6.207,2.259-6.249,2.268Z" transform="translate(-465.595 -1676.021)" fill="#898989"/>
        </g>
        <g id="Grupo_84170" data-name="Grupo 84170" transform="translate(29.392 23.994)">
          <path id="Trazado_133947" data-name="Trazado 133947" d="M475.282,1701.51l.538-1.267c-.046-.019-4.475-1.9-5.71-2.565-.806-1.141-3.374-11.323-5.41-20.448l-1.343.3c.011.051,1.143,5.12,2.4,10.2,2.617,10.558,3.189,10.876,3.607,11.109C470.552,1699.5,475.09,1701.428,475.282,1701.51Z" transform="translate(-463.358 -1677.231)" fill="#898989"/>
        </g>
        <path id="Trazado_133948" data-name="Trazado 133948" d="M391.827,1615.162a14.337,14.337,0,0,1,10.456-5.357c5.975-.482,10.823,2.394,14.02,8.317a29.571,29.571,0,0,1,2.873,8.222,5.123,5.123,0,0,1,3.537,1.35c2.32,2.158,2.257,6.1,2.254,6.27l-1.72-.04c.022-.922-.243-3.612-1.7-4.97a3.657,3.657,0,0,0-3.007-.869,3.362,3.362,0,0,0-2.652,1.365c-1.287,1.892-.377,5.124-.368,5.155l-1.651.481c-.048-.164-1.147-4.032.593-6.6a4.757,4.757,0,0,1,3-1.963,28.082,28.082,0,0,0-2.688-7.625c-2.889-5.326-7.043-7.808-12.347-7.381a12.5,12.5,0,0,0-9.252,4.718c-5.038,6.291-6.239,19.1-3.569,38.079l-1.7.24C385.12,1634.817,386.405,1621.931,391.827,1615.162Z" transform="translate(-384.422 -1609.753)" fill="#4f4f4f"/>
        <path id="Trazado_133949" data-name="Trazado 133949" d="M460.506,1739.4a.976.976,0,0,0,1.168.732l.781-.179a.976.976,0,0,0,.733-1.169l-.1-.446a.975.975,0,0,0-1.169-.732l-.781.178a.975.975,0,0,0-.733,1.169Z" transform="translate(-432.046 -1692.126)" fill="#b7bcbc"/>
        <path id="Trazado_133950" data-name="Trazado 133950" d="M493.693,1741.3a.975.975,0,0,0,.658,1.212l.769.227a.975.975,0,0,0,1.212-.658l.131-.439a.976.976,0,0,0-.659-1.212l-.768-.228a.976.976,0,0,0-1.212.658Z" transform="translate(-453.489 -1693.79)" fill="#b7bcbc"/>
      </g>
      <g id="Grupo_84172" data-name="Grupo 84172" transform="translate(28.767 49.884)">
        <path id="Trazado_133951" data-name="Trazado 133951" d="M425.683,1614.238l.234,8.51-14.1.387-.3-11.071A27.735,27.735,0,0,0,425.683,1614.238Z" transform="translate(-411.28 -1603.149)" fill="#faa284"/>
        <path id="Trazado_133952" data-name="Trazado 133952" d="M411.09,1595.906l-.235-8.528,14.1-.388.305,11.09A27.737,27.737,0,0,1,411.09,1595.906Z" transform="translate(-410.855 -1586.989)" fill="#ef8d72"/>
      </g>
      <path id="Trazado_133953" data-name="Trazado 133953" d="M420.278,1620.657a9.423,9.423,0,0,1-5.163,6.917s-8.4-1.437-8.992-6.928l-3.034,3.686s1.392,8.309,7.9,10.737l4.069-6.2,5.529,5.117S424.44,1627.6,424,1623.6Z" transform="translate(-377.083 -1558.795)" fill="#97f7f7"/>
      <path id="Trazado_133954" data-name="Trazado 133954" d="M517.8,1891.283a20.458,20.458,0,0,1-4.267,1.018s.574,15.021,0,17.543l4.58,1.6S519.316,1898.865,517.8,1891.283Z" transform="translate(-448.256 -1733.198)" fill="#e9f3ff"/>
      <path id="Trazado_133955" data-name="Trazado 133955" d="M419.016,1472.391l1.646-5.614a11.936,11.936,0,0,0,5.045-8.643c.918-7.754-8.485-16.01-18.8-8.442,0,0-5.389-4.472-7.895,3.026,0,0-14.579,4.31-15.267,8.168s.632,15.186.632,15.186l5.79,8.019Z" transform="translate(-364.486 -1446.699)" fill="#3b221d"/>
      <path id="Trazado_133956" data-name="Trazado 133956" d="M380.557,1502.068l2.475,4.044,2.621-.276c-.029-3.368-.574-11.136-.574-11.136A40.154,40.154,0,0,0,403,1490.383c2.021,2.891,5.716,6.249,11.49,4.8a205.93,205.93,0,0,0-1.872,23.26c-.1,3.09-3.911,11.415-6.816,13.261-3.046,1.934-11.514,1.647-14.4-.767-9.548-7.984-9.733-16.507-9.733-16.507s-5.4-.579-6.143-8.1C374.909,1500.111,380.557,1502.068,380.557,1502.068Z" transform="translate(-359.289 -1474.85)" fill="#faa284"/>
      <path id="Trazado_133957" data-name="Trazado 133957" d="M425.2,1498.311c-4.3-.516-6.322-5.155-6.106-6.278,0,0-8.242,3.784-16.612,2.666a40.154,40.154,0,0,0,17.92-4.316c2.022,2.891,5.716,6.249,11.49,4.8q-.081.6-.16,1.2A8.664,8.664,0,0,1,425.2,1498.311Z" transform="translate(-376.691 -1474.85)" fill="#ef8d72"/>
      <path id="Trazado_133958" data-name="Trazado 133958" d="M462.985,1535.574c0-1.424.745-2.58,1.665-2.58s1.666,1.155,1.666,2.58-.746,2.58-1.666,2.58S462.985,1537,462.985,1535.574Z" transform="translate(-415.681 -1502.309)" fill="#502f26"/>
      <path id="Trazado_133959" data-name="Trazado 133959" d="M422.354,1535.574c0-1.424.745-2.58,1.665-2.58s1.666,1.155,1.666,2.58-.746,2.58-1.666,2.58S422.354,1537,422.354,1535.574Z" transform="translate(-389.498 -1502.309)" fill="#502f26"/>
      <g id="Grupo_84173" data-name="Grupo 84173" transform="translate(41.419 33.903)">
        <path id="Trazado_133960" data-name="Trazado 133960" d="M446.487,1549.633c3.185,1.125,4.806-.423,4.866-1.908a2.125,2.125,0,0,0-1.488-2.12c-1.94-.659-3.414-3.531-3.429-3.56h0a6.3,6.3,0,0,0,3.3,4.476c.536.281.876.587.857,1.065-.033.833-1.177,2.126-4.1,2.047Z" transform="translate(-446.436 -1542.044)" fill="#db7c65"/>
      </g>
      <path id="Trazado_133961" data-name="Trazado 133961" d="M394.9,1534.116l2.621-.276,1.49,9.388c9.448,2.659,23.094,1.3,25.555,1.021q-.042,1.067-.081,2.2c-.1,3.09-3.911,11.415-6.816,13.261-3.046,1.934-11.514,1.647-14.4-.767-6.493-5.429-8.654-11.1-9.374-14.183C395.259,1541.4,394.9,1534.116,394.9,1534.116Z" transform="translate(-371.158 -1502.855)" fill="#c67b61"/>
      <path id="Trazado_133962" data-name="Trazado 133962" d="M465.638,1513.921c.324-.785-.43-2.048-.885-2.617-.758-.946-1.624-.83-2.722-.72a10.773,10.773,0,0,0-2.818.639c-.453.175-2.018.791-2.086,1.33,0,0-.137,1.086.8.975s5.345-.305,6.921.414C465.332,1514.163,465.56,1514.109,465.638,1513.921Z" transform="translate(-411.901 -1487.821)" fill="#442f1e"/>
      <path id="Trazado_133963" data-name="Trazado 133963" d="M423.768,1513.882c.517.675.114,2.09-.178,2.756-.488,1.11-1.355,1.222-2.444,1.4a10.794,10.794,0,0,1-2.888.111c-.482-.052-2.154-.242-2.359-.745,0,0-.412-1.014.52-1.148s5.242-1.087,6.579-2.189C423.41,1513.728,423.644,1513.72,423.768,1513.882Z" transform="translate(-385.28 -1489.927)" fill="#442f1e"/>
      <path id="Trazado_133964" data-name="Trazado 133964" d="M429.6,1562.956s.653,2.772-2.413,2.269C427.188,1565.226,429.334,1564.847,429.6,1562.956Z" transform="translate(-392.613 -1521.618)" fill="#894d3d"/>
      <g id="Grupo_84174" data-name="Grupo 84174" transform="translate(36.52 43.21)">
        <path id="Trazado_133965" data-name="Trazado 133965" d="M443.264,1569.725s-7.464,1.677-10.6-1.5c0,0-.2,5.542,6.107,4.962C443.246,1572.771,443.264,1569.725,443.264,1569.725Z" transform="translate(-432.659 -1568.22)" fill="#491712"/>
        <path id="Trazado_133966" data-name="Trazado 133966" d="M438.219,1572.372c-4.092-.365-4.883-1.741-4.972-2.7,2.681,2.248,8.079,1.563,9.826,1.267C442.817,1571.419,441.79,1572.69,438.219,1572.372Z" transform="translate(-433.038 -1569.156)" fill="#fff"/>
      </g>
      <path id="Trazado_133967" data-name="Trazado 133967" d="M385.987,1879.764s-.436,1.848-.035,7.122c0,0,6.461,1.786,11.047.066,0,0,.384-6.871-3.973-10.311h-4.243Z" transform="translate(-365.931 -1723.763)" fill="#faa284"/>
      <path id="Trazado_133968" data-name="Trazado 133968" d="M391.721,1892.391s-9.546.459-15.9-1.146c0,0-.559,15.314-.014,18.665l7.835,3.351,8.074-3.351S390.574,1895.83,391.721,1892.391Z" transform="translate(-359.351 -1733.173)" fill="#e9f3ff"/>
      <path id="Trazado_133969" data-name="Trazado 133969" d="M375.573,1867.217l2.962,4.586s6.793.115,8.671-4.013l-1.763-4.7Z" transform="translate(-359.351 -1715.03)" fill="#b1f9fb"/>
      <path id="Trazado_133970" data-name="Trazado 133970" d="M337.9,1647.978s-10.548,4.7-7.338,47.964c0,0-.534,11.086,15.614,34.144a13.2,13.2,0,0,0,11.633-4.816l-13.659-29.328S348.217,1661.958,337.9,1647.978Z" transform="translate(-329.952 -1576.407)" fill="#cbdaed"/>
      <path id="Trazado_133971" data-name="Trazado 133971" d="M658.633,1501.988c-11.925-2.351-13.78,2.58-13.78,2.58V1500.9h13.76c1.013,0,1.719-1.111,1.719-2.125v-.114a1.513,1.513,0,0,0-1.719-1.545h-13.76v-5.5h-5.16v5.5H626.508c-1.014,0-1.95.532-1.95,1.545v.114a2.2,2.2,0,0,0,1.95,2.125h13.185v3.666s-1.72-4.93-13.645-2.58c0,0-6.264,13.52,3.052,29.038a9.081,9.081,0,0,0,10.592-6.965v12.96h5.16v-12.96c2.752,8.657,10.689,6.965,10.689,6.965C664.859,1515.508,658.633,1501.988,658.633,1501.988Zm-32.411,13.071s9.03.172,12.77.8c0,0-9.675,2.522-12.426,3.1A11.606,11.606,0,0,1,626.222,1515.06Zm.731,6.579s6.987.667,12.04-1.075c0,0-3.561,3.112-11.292,3.742A13.164,13.164,0,0,1,626.952,1521.639Zm2.709,7.181-.86-1.605a15.779,15.779,0,0,0,10.492-3.9C636.369,1528.59,629.662,1528.819,629.662,1528.819Zm-3.555-15.881a11.9,11.9,0,0,1,0-3.1c9.059-.516,13.187,2.236,13.187,2.236C633.158,1510.875,626.106,1512.938,626.106,1512.938Zm.115-5.791s.4-1.949.459-2.236c0,0,9.746-1.319,12.613,2.809A18.15,18.15,0,0,0,626.222,1507.148Zm31.955-2.236c.057.287.458,2.236.458,2.236a18.151,18.151,0,0,0-13.072.573C648.43,1503.593,658.176,1504.912,658.176,1504.912Zm-2.982,23.907s-6.708-.229-9.632-5.5a15.779,15.779,0,0,0,10.492,3.9Zm1.962-4.514c-7.731-.63-11.293-3.742-11.293-3.742,5.053,1.743,12.04,1.075,12.04,1.075A13.107,13.107,0,0,1,657.156,1524.305Zm1.134-5.347c-2.752-.573-12.426-3.1-12.426-3.1,3.741-.631,12.771-.8,12.771-.8A11.612,11.612,0,0,1,658.29,1518.958Zm-12.728-6.88s4.129-2.752,13.187-2.236a11.861,11.861,0,0,1,0,3.1S651.7,1510.875,645.563,1512.079Z" transform="translate(-519.435 -1475.643)" fill="#90d3be"/>
    </g>
    <g id="Grupo_84176" data-name="Grupo 84176" transform="translate(212.01 1463.362)">
      <path id="Trazado_133972" data-name="Trazado 133972" d="M694.6,1751.066l-.115.052a8.912,8.912,0,0,0-1.714,1.062,9.983,9.983,0,0,0-2.286,2.564,9.583,9.583,0,0,0-4-3.626c-2.429-1.143-5.437-1.143-7.344.976a7.483,7.483,0,0,0-1.4,7.045c.85,2.97,3.013,5.464,5.092,7.666a64.088,64.088,0,0,0,7.261,6.457,1.157,1.157,0,0,0,.35.189c0,.008,0,.017,0,.026l.043-.013.043.013c0-.009,0-.018,0-.026a1.155,1.155,0,0,0,.351-.189,64.114,64.114,0,0,0,7.261-6.457,32.1,32.1,0,0,0,3.274-3.931,15.256,15.256,0,0,0,1.128-1.945,11.338,11.338,0,0,0,.69-1.791,7.484,7.484,0,0,0-1.4-7.045C699.949,1750.009,697.005,1749.977,694.6,1751.066Z" transform="translate(-545.671 -1675.754)" fill="#f6cd60"/>
      <path id="Trazado_133973" data-name="Trazado 133973" d="M310.036,1556.675a3.61,3.61,0,0,0,.67.142,4.148,4.148,0,0,0,1.5-.111,6.027,6.027,0,0,0,2.59-1.509,12.388,12.388,0,0,0,3.82-8.415c.055-2.918-1.779-6.06-4.967-6.222-2.51-.127-3.914,1.546-4.714,3.582a1.169,1.169,0,0,0-.089.141c-1.468,2.759-2.612,6.7-1.444,9.764A4.26,4.26,0,0,0,310.036,1556.675Z" transform="translate(-306.92 -1540.553)" fill="#4aaf95"/>
      <path id="Trazado_133974" data-name="Trazado 133974" d="M868.178,1828.7c-2.292-1.654-4.909-1.218-7.164.02a1.136,1.136,0,0,0-.417.107,9.258,9.258,0,0,0-3.276,2.578,9.16,9.16,0,0,0-1.966,4.454,5.933,5.933,0,0,0,.644,3.968,4.1,4.1,0,0,0,.358.49,5.4,5.4,0,0,0,4.048,1.67c3.462.059,6.331-2.282,8.12-5.059C870.234,1834.275,871.144,1830.838,868.178,1828.7Z" transform="translate(-660.289 -1725.543)" fill="#4aaf95"/>
      <path id="Trazado_133975" data-name="Trazado 133975" d="M551.789,1611.983a4.394,4.394,0,0,0-.728-6.153,4.309,4.309,0,0,0-4.944,0,.842.842,0,0,0-.275.159,4.043,4.043,0,0,0-.336.33,4.428,4.428,0,0,0-.621.731.725.725,0,0,0-.135.447,4.333,4.333,0,0,0,.73,4.7A4.392,4.392,0,0,0,551.789,1611.983Zm-4.987-4.7a2.761,2.761,0,0,1,3.422-.087,2.658,2.658,0,1,1-3.422.087Z" transform="translate(-459.937 -1582.116)" fill="#fff"/>
      <path id="Trazado_133976" data-name="Trazado 133976" d="M781.117,1643.057a4.393,4.393,0,0,0-.728-6.153,4.308,4.308,0,0,0-4.944,0,.838.838,0,0,0-.275.16,3.9,3.9,0,0,0-.336.33,4.368,4.368,0,0,0-.62.731.725.725,0,0,0-.135.447,4.335,4.335,0,0,0,.73,4.7A4.392,4.392,0,0,0,781.117,1643.057Zm-4.987-4.7a2.76,2.76,0,0,1,3.422-.087,2.658,2.658,0,1,1-3.422.087Z" transform="translate(-607.721 -1602.141)" fill="#fff"/>
      <path id="Trazado_133977" data-name="Trazado 133977" d="M722.089,1923.57a4.309,4.309,0,0,0-4.944,0,.845.845,0,0,0-.275.159,4.06,4.06,0,0,0-.336.33,4.43,4.43,0,0,0-.621.731.727.727,0,0,0-.135.447,4.333,4.333,0,0,0,.73,4.7,4.248,4.248,0,1,0,5.58-6.368Zm-.58,5.227a2.639,2.639,0,1,1-.257-3.865A2.787,2.787,0,0,1,721.509,1928.8Z" transform="translate(-570.151 -1786.874)" fill="#fff"/>
    </g>
  </g>
</svg>
