<svg xmlns="http://www.w3.org/2000/svg" width="399" height="234" viewBox="0 0 399 234">
  <g id="Grupo_84248" data-name="Grupo 84248" transform="translate(-181 -580)">
    <rect id="Rectángulo_6139" data-name="Rectángulo 6139" width="399" height="177" rx="10" transform="translate(181 637)" fill="#d3e6f6"/>
    <g id="Grupo_68848" data-name="Grupo 68848" transform="translate(-848 -132)">
      <rect id="Rectángulo_6149" data-name="Rectángulo 6149" width="213" height="213" transform="translate(1117 712)" fill="none"/>
      <g id="Grupo_68968" data-name="Grupo 68968" transform="translate(-1823.948 -346.291)">
        <g id="Grupo_68961" data-name="Grupo 68961" transform="translate(2961.546 1072.486)">
          <path id="Trazado_116591" data-name="Trazado 116591" d="M2975.339,1201.8c20.345,28.021,59.3,42.008,92.962,35.9,29.007-5.263,57.765-25.7,69.288-53.357,15.356-36.85,7.226-86.223-30.577-104.633-24.17-11.771-57.427-9.514-77.631,9.458-5.751,5.4-8.5,13.339-13.525,19.437-6.113,7.416-15.022,9.7-23.634,13.029a41.924,41.924,0,0,0-17.731,12.8C2959.688,1152.741,2961.233,1182.369,2975.339,1201.8Z" transform="translate(-2964.056 -1072.486)" fill="#ffb743"/>
          <g id="Grupo_68960" data-name="Grupo 68960" transform="translate(15.993 9.145)">
            <path id="Trazado_116592" data-name="Trazado 116592" d="M3009.756,1106.971a14.127,14.127,0,1,1-2.469-19.825A14.127,14.127,0,0,1,3009.756,1106.971Z" transform="translate(-2984.482 -1084.166)" fill="#ffb743"/>
          </g>
        </g>
        <path id="Trazado_116593" data-name="Trazado 116593" d="M3145.13,1206.769c-5.159-19.57-19.417-26.473-19.417-26.473-7.274-15.4-25.04-24.679-53.868-22.142l-21.4,2.42c-11.894,1.947-24.336,8.414-30.146,18.265-6.7,11.351-23.122,2.27-23.122,2.27-20.648,1.987-12.847,43.491-8.613,49.927,12.051,18.316,56.343,24.788,79.637,22.251,10.914-1.189,22.85-6.742,33.226-14.677,3.079,5.62,7.174,9.793,12.624,10.974C3148.214,1256.99,3150.29,1226.339,3145.13,1206.769Z" transform="translate(-6.738 -18.5)"/>
        <path id="Trazado_116594" data-name="Trazado 116594" d="M3074.388,1171.269c7.715-.83,17.532-7.871,22.7-13.057a69.857,69.857,0,0,0-8.8.016l-21.4,2.42a57.829,57.829,0,0,0-7.594,1.783C3060.8,1165.547,3065.155,1172.264,3074.388,1171.269Z" transform="translate(-23.177 -18.574)" fill="#fff"/>
        <path id="Trazado_116595" data-name="Trazado 116595" d="M3057.3,1254.213a153.436,153.436,0,0,1-33.4-3.856c-12.549-2.909-28.968-8.6-35.927-19.173-3.153-4.79-8.533-29.233-2.178-42.508,2.387-4.986,6.15-7.76,11.185-8.244a.532.532,0,0,1,.31.064c.16.089,16.051,8.7,22.4-2.074,6.51-11.037,20.033-16.8,30.518-18.521l21.422-2.423c27.042-2.381,46.319,5.531,54.333,22.28,1.653.878,14.674,8.312,19.529,26.728,3.293,12.491,3.707,29.086-5.011,38.2-5.816,6.08-14.8,7.855-26.692,5.277-4.989-1.081-9.252-4.68-12.678-10.7-10.814,8.156-22.512,13.268-33,14.41A100.735,100.735,0,0,1,3057.3,1254.213Zm-60.376-72.7c-4.557.489-7.977,3.055-10.167,7.627-6.083,12.707-.871,36.935,2.105,41.46,11.481,17.449,54.535,24.692,79.134,22.013,10.456-1.139,22.161-6.313,32.958-14.57a.535.535,0,0,1,.792.167c3.321,6.062,7.449,9.665,12.269,10.71,11.509,2.493,20.153.821,25.7-4.971,8.422-8.8,7.823-25.536,4.75-37.189-5.038-19.112-18.993-26.061-19.134-26.128a.533.533,0,0,1-.25-.253c-7.763-16.427-26.708-24.183-53.339-21.837l-21.383,2.418c-12.85,2.1-24.536,9.174-29.746,18.006C3014.078,1190.035,2998.619,1182.4,2996.92,1181.51Z" transform="translate(-6.584 -18.353)"/>
        <path id="Trazado_116596" data-name="Trazado 116596" d="M3088.689,1124.548a17.052,17.052,0,1,1-18.8-15.1A17.051,17.051,0,0,1,3088.689,1124.548Z" transform="translate(-22.177 -7.998)"/>
        <path id="Trazado_116597" data-name="Trazado 116597" d="M3070.342,1123.706a1.963,1.963,0,0,1,3.09,1.575c.045,2.661.224,5.942.791,7.484.126.342,4.885,6.933,9.713,7.921l1.854,13.2-18.321,2-.65-5.093c-8.425.918-8.583-4.086-10.087-11.962a42.876,42.876,0,0,1-.634-10.122C3061.116,1129.46,3066.881,1126.15,3070.342,1123.706Z" transform="translate(-22.47 -11.037)" fill="#fff"/>
        <path id="Trazado_116598" data-name="Trazado 116598" d="M3067.057,1156.66a.534.534,0,0,1-.528-.464l-.453-3.4c-7.749.657-8.577-3.852-9.808-10.593-.11-.6-.222-1.214-.344-1.849a70.745,70.745,0,0,1-1.188-9.884.533.533,0,1,1,1.066-.033,69.828,69.828,0,0,0,1.171,9.716c.121.639.235,1.259.344,1.859,1.232,6.746,1.906,10.463,9.161,9.673a.536.536,0,0,1,.587.46l.521,3.914a.535.535,0,0,1-.459.6A.572.572,0,0,1,3067.057,1156.66Z" transform="translate(-22.188 -12.462)"/>
        <path id="Trazado_116599" data-name="Trazado 116599" d="M3093.244,1157.9a.533.533,0,0,1-.527-.458l-1.725-12.019a.534.534,0,0,1,1.056-.151l1.725,12.018a.534.534,0,0,1-.453.6A.619.619,0,0,1,3093.244,1157.9Z" transform="translate(-30.054 -15.694)"/>
        <path id="Trazado_116600" data-name="Trazado 116600" d="M3069.659,1158.181a.534.534,0,0,1-.078-1.062,19.792,19.792,0,0,0,6.708-2.082.534.534,0,0,1,.553.914,20.431,20.431,0,0,1-7.1,2.224A.435.435,0,0,1,3069.659,1158.181Z" transform="translate(-25.31 -17.897)"/>
        <path id="Trazado_116601" data-name="Trazado 116601" d="M3070.122,1159.836s1.121,3.4,3.582,3.08,3.656-7.163,3.656-7.163l-7.552,2.065Z" transform="translate(-25.458 -18.069)"/>
        <g id="Grupo_68962" data-name="Grupo 68962" transform="translate(3050.687 1118.594)">
          <path id="Trazado_116602" data-name="Trazado 116602" d="M3086.909,1135.4a4.517,4.517,0,1,1-4.98-4A4.517,4.517,0,0,1,3086.909,1135.4Z" transform="translate(-3077.902 -1131.373)" fill="#fff"/>
          <path id="Trazado_116603" data-name="Trazado 116603" d="M3082.58,1137.984a.534.534,0,0,1-.464-.795l1.393-2.481a.534.534,0,1,1,.93.523l-1.393,2.48A.533.533,0,0,1,3082.58,1137.984Z" transform="translate(-3078.801 -1132.037)"/>
        </g>
        <path id="Trazado_116604" data-name="Trazado 116604" d="M3070.857,1135.741a1.08,1.08,0,1,0,.835-1.278A1.079,1.079,0,0,0,3070.857,1135.741Z" transform="translate(-25.681 -13.444)"/>
        <path id="Trazado_116605" data-name="Trazado 116605" d="M3060.259,1136.9a1.08,1.08,0,1,0,.835-1.278A1.08,1.08,0,0,0,3060.259,1136.9Z" transform="translate(-23.381 -13.695)"/>
        <path id="Trazado_116606" data-name="Trazado 116606" d="M3064.264,1147.224c-.117-.013-2.621-.577-2.621-.577a.534.534,0,1,1,.234-1.041l2.5.564a.534.534,0,0,1-.117,1.055Z" transform="translate(-23.596 -15.864)"/>
        <circle id="Elipse_7968" data-name="Elipse 7968" cx="7.68" cy="7.68" r="7.68" transform="translate(3026.81 1102.423)"/>
        <path id="Trazado_116607" data-name="Trazado 116607" d="M3054.045,1124.836a8.213,8.213,0,1,1,8.214-8.214A8.223,8.223,0,0,1,3054.045,1124.836Zm0-15.359a7.146,7.146,0,1,0,7.146,7.146A7.153,7.153,0,0,0,3054.045,1109.476Z" transform="translate(-20.255 -7.795)"/>
        <path id="Trazado_116608" data-name="Trazado 116608" d="M2964.039,1143.017c15.648-6.98,35.78-.943,33.984,9.717v33.652c21.068-.424,40.145-13.377,68.993-22.138,47.251-14.349,59.7,11.742,59.7,11.742v92.626l-146.11,2.593a26.371,26.371,0,0,1-26.84-26.368V1163.95c1.031,3.874,0-.164,0-.164v.164A17.877,17.877,0,0,1,2964.039,1143.017Z" transform="translate(-0.151 -14.655)" fill="#fff"/>
        <path id="Trazado_116609" data-name="Trazado 116609" d="M2979.714,1271.6a26.645,26.645,0,0,1-26.631-26.645v-81.033a17.989,17.989,0,0,1-.53-6.126,18.436,18.436,0,0,1,11.118-15.417c12.923-5.764,28.122-2.737,33.079,3.819,2.772,3.667,2.272,8.113-1.408,12.519-7.913,9.476-18.423,8.573-22.574,7.746-6.056-1.207-11.04-4.469-12.118-7.929a.534.534,0,1,1,1.019-.318c.953,3.056,5.708,6.084,11.307,7.2,3.964.79,14,1.653,21.547-7.384,3.377-4.044,3.852-7.914,1.375-11.19-2.362-3.124-7.135-5.365-13.1-6.148a35.242,35.242,0,0,0-18.7,2.659,17.381,17.381,0,0,0-10.488,14.532,16.928,16.928,0,0,0,.409,5.407.531.531,0,0,1,.125.342v.139a16.877,16.877,0,0,0,7.045,9.606c30.213,20.06,49.455,12.125,76.086,1.143,8.628-3.558,18.408-7.591,29.428-10.938,24.581-7.464,39.655-3.833,47.973.529,9.071,4.757,12.234,11.222,12.365,11.5a.525.525,0,0,1,.052.229v92.626a.534.534,0,0,1-.524.534l-146.375,2.6C2980.039,1271.6,2979.876,1271.6,2979.714,1271.6Zm-25.563-104.744v78.1a25.578,25.578,0,0,0,26.031,25.574l145.85-2.589v-91.974c-.442-.841-3.735-6.677-11.915-10.944-8.136-4.244-22.912-7.76-47.1-.416-10.971,3.332-20.725,7.355-29.332,10.9-13.357,5.508-24.894,10.266-37,11.131q-1.909.138-3.808.137c-11.871,0-23.5-4.027-36.277-12.508A18.15,18.15,0,0,1,2954.151,1166.857Z" transform="translate(0 -14.504)"/>
        <g id="Grupo_68963" data-name="Grupo 68963" transform="translate(3052.891 1182.677)">
          <rect id="Rectángulo_6200" data-name="Rectángulo 6200" width="18.362" height="55.201" transform="translate(55.619 55.734) rotate(180)" fill="#529ad9"/>
          <path id="Trazado_116610" data-name="Trazado 116610" d="M3146.512,1269.484h-18.361a.534.534,0,0,1-.534-.534v-55.2a.534.534,0,0,1,.534-.533h18.361a.534.534,0,0,1,.534.533v55.2A.535.535,0,0,1,3146.512,1269.484Zm-17.828-1.068h17.294v-54.133h-17.294Z" transform="translate(-3090.894 -1213.216)"/>
          <rect id="Rectángulo_6201" data-name="Rectángulo 6201" width="18.362" height="38.286" transform="translate(37.257 55.734) rotate(180)" fill="#fee45a"/>
          <path id="Trazado_116611" data-name="Trazado 116611" d="M3123.063,1274.172H3104.7a.534.534,0,0,1-.533-.534v-38.286a.533.533,0,0,1,.533-.533h18.362a.533.533,0,0,1,.533.533v38.286A.534.534,0,0,1,3123.063,1274.172Zm-17.828-1.068h17.294v-37.218h-17.294Z" transform="translate(-3085.805 -1217.904)"/>
          <rect id="Rectángulo_6202" data-name="Rectángulo 6202" width="18.362" height="16.806" transform="translate(18.895 55.734) rotate(180)" fill="#fff"/>
          <path id="Trazado_116612" data-name="Trazado 116612" d="M3099.611,1280.125H3081.25a.534.534,0,0,1-.534-.534v-16.806a.534.534,0,0,1,.534-.534h18.361a.534.534,0,0,1,.534.534v16.806A.535.535,0,0,1,3099.611,1280.125Zm-17.827-1.068h17.294v-15.737h-17.294Z" transform="translate(-3080.716 -1223.857)"/>
        </g>
        <path id="Trazado_116613" data-name="Trazado 116613" d="M2963.15,1179.3a.534.534,0,0,1-.533-.534v-15.259a.534.534,0,1,1,1.067,0v15.259A.534.534,0,0,1,2963.15,1179.3Z" transform="translate(-2.198 -19.635)"/>
        <path id="Trazado_116614" data-name="Trazado 116614" d="M3010.3,1190.3a.534.534,0,0,1-.533-.534v-33.653a.534.534,0,1,1,1.067,0v33.653A.534.534,0,0,1,3010.3,1190.3Z" transform="translate(-12.43 -18.03)"/>
        <path id="Trazado_116615" data-name="Trazado 116615" d="M3018.421,1243.04h-39.252a.534.534,0,1,1,0-1.067h39l25.027-31.184a.535.535,0,0,1,.417-.2h21.786a.534.534,0,1,1,0,1.067h-21.53l-25.027,31.184A.535.535,0,0,1,3018.421,1243.04Z" transform="translate(-5.674 -29.968)"/>
        <path id="Trazado_116616" data-name="Trazado 116616" d="M2977.688,1255.6a5.878,5.878,0,1,0-5.878-5.879A5.885,5.885,0,0,0,2977.688,1255.6Z" transform="translate(-4.193 -37.185)"/>
        <path id="Trazado_116617" data-name="Trazado 116617" d="M3164.434,1149.148a6.955,6.955,0,1,1,6.955-6.955A6.963,6.963,0,0,1,3164.434,1149.148Zm0-12.843a5.887,5.887,0,1,0,5.887,5.888A5.895,5.895,0,0,0,3164.434,1136.305Z" transform="translate(-44.483 -13.617)"/>
        <g id="Grupo_68965" data-name="Grupo 68965" transform="translate(3073.376 1085.826)">
          <g id="Grupo_68964" data-name="Grupo 68964" transform="translate(0 0)">
            <path id="Trazado_116618" data-name="Trazado 116618" d="M3107.412,1097.995a.534.534,0,0,1-.377-.911l7.4-7.4a.533.533,0,1,1,.754.755l-7.4,7.4A.531.531,0,0,1,3107.412,1097.995Z" transform="translate(-3106.878 -1089.524)"/>
            <path id="Trazado_116619" data-name="Trazado 116619" d="M3114.816,1097.995a.532.532,0,0,1-.378-.157l-7.4-7.4a.534.534,0,0,1,.755-.755l7.4,7.4a.534.534,0,0,1-.376.911Z" transform="translate(-3106.878 -1089.524)"/>
          </g>
        </g>
        <g id="Grupo_68966" data-name="Grupo 68966" transform="translate(3028.725 1116.657)">
          <path id="Trazado_116620" data-name="Trazado 116620" d="M3055.755,1131.684a.534.534,0,0,1-.071-1.062l11.876-1.6a.533.533,0,1,1,.142,1.057l-11.876,1.6A.435.435,0,0,1,3055.755,1131.684Z" transform="translate(-3051.019 -1128.924)" fill="#529ad9"/>
          <path id="Trazado_116621" data-name="Trazado 116621" d="M3070.715,1140.293a5.7,5.7,0,1,1,1.062-.1A5.705,5.705,0,0,1,3070.715,1140.293Zm0-10.327a4.63,4.63,0,1,0,4.547,3.769A4.633,4.633,0,0,0,3070.719,1129.966Z" transform="translate(-3053.145 -1128.899)" fill="#529ad9"/>
          <path id="Trazado_116622" data-name="Trazado 116622" d="M3055.539,1142.34a5.7,5.7,0,1,1,1.072-.1A5.728,5.728,0,0,1,3055.539,1142.34Zm.014-10.328a4.63,4.63,0,1,0,4.546,3.769A4.633,4.633,0,0,0,3055.553,1132.012Z" transform="translate(-3049.853 -1129.343)" fill="#529ad9"/>
        </g>
        <path id="Trazado_116623" data-name="Trazado 116623" d="M3063.6,1142.289a.535.535,0,0,1-.534-.538l.062-7.181a.534.534,0,0,1,1.068.009l-.062,7.182A.534.534,0,0,1,3063.6,1142.289Z" transform="translate(-23.995 -13.357)"/>
        <path id="Trazado_116624" data-name="Trazado 116624" d="M3178.349,1210.531s3.943-3.062.756-9.055c0,0,4.789-2.4.445-8.316,0,0,3.277-3.162.172-6.017-1.856-1.706-7.224-3.311-13.7-3.742s-6.83,1.882-7.127,2.712c-.259.727-.428,4.237,7.392,5.732-3.653-.275-8.667-.053-9.34,3.1-.767,3.594,3.9,5.24,8.248,5.8-3.6.119-8,.975-8.332,4.4-.34,3.455,3.772,4.668,7.431,5.089-2.182.261-4.208,1.124-4.229,3.427-.044,5.005,10.987,5.242,10.987,5.242v5.4s9.049-4.151,9.3-8.362S3178.349,1210.531,3178.349,1210.531Z" transform="translate(-44.345 -24.057)" fill="#fff"/>
        <path id="Trazado_116625" data-name="Trazado 116625" d="M3170.906,1224.692a.535.535,0,0,1-.534-.534v-4.885c-2.279-.12-11.029-.9-10.986-5.758a3.5,3.5,0,0,1,2.229-3.309c-4.736-1.1-5.612-3.394-5.429-5.255.227-2.3,2.068-3.834,5.377-4.507a8.634,8.634,0,0,1-4.692-2.755,3.665,3.665,0,0,1-.592-3c.441-2.065,2.483-3.267,5.972-3.549a7.089,7.089,0,0,1-3.622-2.813,3.214,3.214,0,0,1-.382-2.542c.016-.043.032-.092.049-.143.329-1,1.1-3.355,7.616-2.923,6.321.421,11.957,1.981,14.024,3.882a4.2,4.2,0,0,1,1.508,3.08,5.409,5.409,0,0,1-1.357,3.371c1.426,2.065,1.944,3.96,1.539,5.634a4.94,4.94,0,0,1-1.971,2.834c2.3,4.716.337,7.714-.645,8.812.737.685,1.918,2.3,1.728,5.5-.265,4.478-9.227,8.64-9.608,8.815A.528.528,0,0,1,3170.906,1224.692Zm-6.927-32.544c-2.859,0-6.174.5-6.658,2.766a2.6,2.6,0,0,0,.419,2.157c1.017,1.435,3.705,2.528,7.376,3a.534.534,0,0,1-.05,1.063c-3.4.112-7.52.884-7.819,3.921s3.622,4.122,6.961,4.506a.534.534,0,0,1,0,1.06c-3.737.449-3.753,2.3-3.758,2.9-.032,3.67,7.543,4.639,10.464,4.7a.534.534,0,0,1,.522.534v4.546c2.789-1.406,8.06-4.645,8.232-7.543.223-3.773-1.648-4.868-1.728-4.913a.537.537,0,0,1-.073-.889c.146-.115,3.539-2.885.615-8.384a.533.533,0,0,1,.232-.728,3.987,3.987,0,0,0,1.872-2.427c.344-1.449-.2-3.163-1.619-5.1a.532.532,0,0,1,.059-.7,4.672,4.672,0,0,0,1.345-2.939,3.174,3.174,0,0,0-1.163-2.3c-1.532-1.409-6.369-3.137-13.373-3.6-5.69-.381-6.258,1.356-6.531,2.19-.02.061-.038.118-.057.17a2.133,2.133,0,0,0,.3,1.652c.615,1.074,2.273,2.531,6.688,3.376a.534.534,0,0,1-.14,1.056C3165.467,1192.183,3164.739,1192.148,3163.979,1192.148Z" transform="translate(-44.197 -23.91)"/>
        <g id="Grupo_68967" data-name="Grupo 68967" transform="translate(3119.417 1167.255)">
          <path id="Trazado_116626" data-name="Trazado 116626" d="M3182.019,1195.9c-.053,0-13.312-1.316-13.312-1.316a.534.534,0,1,1,.1-1.063l13.259,1.313a.534.534,0,0,1-.052,1.066Z" transform="translate(-3166.231 -1193.52)"/>
          <path id="Trazado_116627" data-name="Trazado 116627" d="M3180.945,1206.709l-13.612-.754a.534.534,0,0,1,.06-1.066l13.581.753a.534.534,0,0,1-.029,1.067Z" transform="translate(-3165.928 -1195.987)"/>
          <path id="Trazado_116628" data-name="Trazado 116628" d="M3180.25,1218.546l-14.056-.47a.533.533,0,0,1-.516-.551.525.525,0,0,1,.551-.516l14.038.469a.534.534,0,0,1-.018,1.067Z" transform="translate(-3165.679 -1198.617)"/>
        </g>
        <path id="Trazado_116629" data-name="Trazado 116629" d="M3033.309,1249.872a5.341,5.341,0,1,1-5.342-5.342A5.341,5.341,0,0,1,3033.309,1249.872Z" transform="translate(-15.22 -37.334)" fill="#fee45a"/>
        <path id="Trazado_116630" data-name="Trazado 116630" d="M3065.476,1209.791a5.341,5.341,0,1,1-5.341-5.342A5.342,5.342,0,0,1,3065.476,1209.791Z" transform="translate(-22.2 -28.636)" fill="#fee45a"/>
        <path id="Trazado_116631" data-name="Trazado 116631" d="M3093.3,1209.791a5.341,5.341,0,1,1-5.342-5.342A5.342,5.342,0,0,1,3093.3,1209.791Z" transform="translate(-28.238 -28.636)" fill="#529ad9"/>
      </g>
    </g>
  </g>
</svg>
