<svg id="Grupo_83768" data-name="Grupo 83768" xmlns="http://www.w3.org/2000/svg" width="105" height="105" viewBox="0 0 105 105">
  <rect id="Rectángulo_5987" data-name="Rectángulo 5987" width="105" height="105" fill="none"/>
  <g id="bolso-mujer" transform="translate(-12.653 -9.018)">
    <path id="Trazado_132646" data-name="Trazado 132646" d="M126.345,24A30.344,30.344,0,0,0,96,54.346v3.033h6.069V54.345a24.276,24.276,0,1,1,48.552,0v3.034h6.069V54.345A30.344,30.344,0,0,0,126.344,24Z" transform="translate(-61.192 -6.483)" fill="#d28f76"/>
    <path id="Trazado_132647" data-name="Trazado 132647" d="M96,184h60.69v57.655H96Z" transform="translate(-61.192 -136.138)" fill="#c2856c"/>
    <path id="Trazado_132648" data-name="Trazado 132648" d="M41.291,184H35.222l-6.683,50.795a6.069,6.069,0,0,0,6.017,6.861h6.735Z" transform="translate(-6.483 -136.138)" fill="#ab6647"/>
    <path id="Trazado_132649" data-name="Trazado 132649" d="M416,184h6.069l6.683,50.795a6.069,6.069,0,0,1-6.017,6.861H416Z" transform="translate(-320.503 -136.138)" fill="#ab6647"/>
    <path id="Trazado_132650" data-name="Trazado 132650" d="M96,424h6.069a6.069,6.069,0,0,1,6.069,6.069v6.069H96Z" transform="translate(-61.192 -330.62)" fill="#e0e2e5"/>
    <path id="Trazado_132651" data-name="Trazado 132651" d="M364.138,424h-6.069A6.069,6.069,0,0,0,352,430.069v6.069h12.138Z" transform="translate(-268.641 -330.62)" fill="#e0e2e5"/>
    <path id="Trazado_132652" data-name="Trazado 132652" d="M96,184h60.69v24.276H96Z" transform="translate(-61.192 -136.138)" fill="#d28f76"/>
    <path id="Trazado_132653" data-name="Trazado 132653" d="M144,232h42.483v6.069H144Z" transform="translate(-100.089 -175.034)" fill="#e0e2e5"/>
    <g id="Grupo_83776" data-name="Grupo 83776" transform="translate(34.808 41.793)">
      <path id="Trazado_132654" data-name="Trazado 132654" d="M232,232h9.1v6.069H232Z" transform="translate(-206.207 -216.828)" fill="#ab6647"/>
      <path id="Trazado_132655" data-name="Trazado 132655" d="M102.833,152a24.344,24.344,0,0,0-.764,6.069H96A30.466,30.466,0,0,1,96.607,152Z" transform="translate(-96 -152)" fill="#ab6647"/>
      <path id="Trazado_132656" data-name="Trazado 132656" d="M386.8,158.069h-6.069A24.345,24.345,0,0,0,379.97,152H386.2A30.467,30.467,0,0,1,386.8,158.069Z" transform="translate(-326.113 -152)" fill="#ab6647"/>
    </g>
    <path id="Trazado_132657" data-name="Trazado 132657" d="M109.754,98.459l-6.683-50.795a1.517,1.517,0,0,0-1.5-1.319H96.978a31.861,31.861,0,0,0-63.649,0h-4.59a1.517,1.517,0,0,0-1.5,1.319L20.551,98.459a7.586,7.586,0,0,0,7.521,8.576h74.161a7.586,7.586,0,0,0,7.521-8.576Zm-27.912.99V104H48.463V99.449a7.6,7.6,0,0,0-7.586-7.586H36.325V73.655H93.98V91.862H89.428a7.6,7.6,0,0,0-7.586,7.586Zm8.7-56.138H93.62a28.828,28.828,0,0,1,.321,3.034H90.9A25.755,25.755,0,0,0,90.543,43.31Zm3.437,27.31H36.325V49.379H93.98ZM42.446,46.345a22.758,22.758,0,0,1,45.414,0Zm-3.04,0H36.365a28.828,28.828,0,0,1,.321-3.035h3.076a25.754,25.754,0,0,0-.356,3.034Zm25.747-27.31A28.878,28.878,0,0,1,92.965,40.276H89.807a25.8,25.8,0,0,0-49.308,0H37.34A28.878,28.878,0,0,1,65.152,19.034ZM24.65,102.45a4.552,4.552,0,0,1-1.091-3.6l6.51-49.475H33.29V104H28.072a4.552,4.552,0,0,1-3.422-1.55ZM36.325,104V94.9h4.552a4.557,4.557,0,0,1,4.552,4.552V104Zm48.552-4.552A4.557,4.557,0,0,1,89.428,94.9H93.98V104h-9.1Zm20.778,3a4.552,4.552,0,0,1-3.422,1.55H97.015V49.379h3.221l6.51,49.475a4.552,4.552,0,0,1-1.091,3.6Z" fill="#3a3c07"/>
    <path id="Trazado_132658" data-name="Trazado 132658" d="M137.517,233.1H180a1.517,1.517,0,0,0,1.517-1.517v-6.069A1.517,1.517,0,0,0,180,224H137.517A1.517,1.517,0,0,0,136,225.517v6.069A1.517,1.517,0,0,0,137.517,233.1Zm40.966-3.035H164.828v-3.034h13.655Zm-16.69-3.034v3.034h-6.069v-3.034Zm-22.759,0H152.69v3.034H139.034Z" transform="translate(-93.606 -168.552)" fill="#3a3c07"/>
  </g>
</svg>
