<svg xmlns="http://www.w3.org/2000/svg" width="124" height="124" viewBox="0 0 124 124">
  <g id="Grupo_84098" data-name="Grupo 84098" transform="translate(-0.333)">
    <rect id="Rectángulo_5987" data-name="Rectángulo 5987" width="124" height="124" transform="translate(0.333)" fill="none"/>
    <g id="senal-de-advertencia" transform="translate(5.746 -13.469)">
      <g id="Grupo_84132" data-name="Grupo 84132" transform="translate(1.658 25.899)">
        <g id="Grupo_84122" data-name="Grupo 84122" transform="translate(34.386 91.994)">
          <path id="Trazado_133732" data-name="Trazado 133732" d="M163.065,447.931H204.15v7.145H163.065Z" transform="translate(-163.065 -447.931)" fill="#a2aae2"/>
        </g>
        <g id="Grupo_84123" data-name="Grupo 84123" transform="translate(70.112 91.994)">
          <path id="Trazado_133733" data-name="Trazado 133733" d="M324.691,447.931h5.359v7.145h-5.359Z" transform="translate(-324.691 -447.931)" fill="#8993da"/>
        </g>
        <g id="Grupo_84124" data-name="Grupo 84124" transform="translate(0 0)">
          <path id="Trazado_133734" data-name="Trazado 133734" d="M112.892,109.448H11.966A4.466,4.466,0,0,1,7.5,104.982V36.21a4.466,4.466,0,0,1,4.466-4.466H112.892a4.466,4.466,0,0,1,4.466,4.466v68.773A4.465,4.465,0,0,1,112.892,109.448Z" transform="translate(-7.5 -31.744)" fill="#a2aae2"/>
        </g>
        <g id="Grupo_84125" data-name="Grupo 84125" transform="translate(100.256 0)">
          <path id="Trazado_133735" data-name="Trazado 133735" d="M466.2,31.744h-5.136a4.466,4.466,0,0,1,4.466,4.466v68.773a4.466,4.466,0,0,1-4.466,4.466H466.2a4.466,4.466,0,0,0,4.466-4.466V36.21A4.466,4.466,0,0,0,466.2,31.744Z" transform="translate(-461.063 -31.744)" fill="#8993da"/>
        </g>
        <g id="Grupo_84126" data-name="Grupo 84126" transform="translate(7.145 7.145)">
          <path id="Trazado_133736" data-name="Trazado 133736" d="M0,0H63.414V95.567H0Z" transform="translate(95.567 0) rotate(90)" fill="#d3effb"/>
        </g>
        <g id="Grupo_84127" data-name="Grupo 84127" transform="translate(75.471 14.291)">
          <path id="Trazado_133737" data-name="Trazado 133737" d="M0,0H7.145V20.1H0Z" transform="translate(20.096 0) rotate(90)" fill="#e28086"/>
        </g>
        <g id="Grupo_84128" data-name="Grupo 84128" transform="translate(14.29 14.29)">
          <path id="Trazado_133738" data-name="Trazado 133738" d="M0,0H7.145V20.1H0Z" transform="translate(20.096 0) rotate(90)" fill="#e28086"/>
        </g>
        <g id="Grupo_84129" data-name="Grupo 84129" transform="translate(97.353 7.145)">
          <path id="Trazado_133739" data-name="Trazado 133739" d="M0,0H63.414V5.359H0Z" transform="translate(5.359) rotate(90)" fill="#b1e4f9"/>
        </g>
        <g id="Grupo_84130" data-name="Grupo 84130" transform="translate(39.745 77.704)">
          <path id="Trazado_133740" data-name="Trazado 133740" d="M217.676,397.571l-2.233-14.291h-25.9l-2.233,14.291Z" transform="translate(-187.309 -383.28)" fill="#707dd3"/>
        </g>
        <g id="Grupo_84131" data-name="Grupo 84131" transform="translate(41.28 77.704)">
          <path id="Trazado_133741" data-name="Trazado 133741" d="M221.551,387.746l-.7-4.466h-25.9l-.7,4.466Z" transform="translate(-194.254 -383.28)" fill="#5766cb"/>
        </g>
      </g>
      <g id="Grupo_84136" data-name="Grupo 84136" transform="translate(27.151 40.189)">
        <g id="Grupo_84133" data-name="Grupo 84133" transform="translate(0 0)">
          <path id="Trazado_133742" data-name="Trazado 133742" d="M147.7,98.92l-24.04,38.349a5.387,5.387,0,0,0,4.564,8.248h48.08a5.387,5.387,0,0,0,4.564-8.248L156.832,98.92A5.387,5.387,0,0,0,147.7,98.92Z" transform="translate(-122.832 -96.394)" fill="#ffe07d"/>
        </g>
        <g id="Grupo_84134" data-name="Grupo 84134" transform="translate(23.765 19.277)">
          <path id="Trazado_133743" data-name="Trazado 133743" d="M264.622,205.2l-13.539-21.6a36.189,36.189,0,0,1-20.736,29.846h29.71a5.387,5.387,0,0,0,4.564-8.248Z" transform="translate(-230.347 -183.604)" fill="#ffd064"/>
        </g>
        <g id="Grupo_84135" data-name="Grupo 84135" transform="translate(25.863 34.833)">
          <circle id="Elipse_8716" data-name="Elipse 8716" cx="3.573" cy="3.573" r="3.573" fill="#f4fbff"/>
        </g>
      </g>
      <g id="Grupo_84137" data-name="Grupo 84137" transform="translate(53.014 51.577)">
        <path id="Trazado_133744" data-name="Trazado 133744" d="M243.41,147.913a3.573,3.573,0,0,0-3.573,3.573v16.3a3.573,3.573,0,1,0,7.145,0v-16.3A3.573,3.573,0,0,0,243.41,147.913Z" transform="translate(-239.837 -147.913)" fill="#f4fbff"/>
      </g>
      <g id="Grupo_84138" data-name="Grupo 84138" transform="translate(0 24.24)">
        <path id="Trazado_133745" data-name="Trazado 133745" d="M363.189,99.356a1.658,1.658,0,0,0,1.658-1.658V90.553a1.658,1.658,0,0,0-1.658-1.658h-20.1a1.658,1.658,0,0,0-1.658,1.658V97.7a1.658,1.658,0,0,0,1.658,1.658Zm-18.438-7.145h16.78v3.83h-16.78Z" transform="translate(-265.964 -74.604)" fill="#3a3c07"/>
        <path id="Trazado_133746" data-name="Trazado 133746" d="M86.4,88.895h-20.1a1.658,1.658,0,0,0-1.658,1.658V97.7a1.658,1.658,0,0,0,1.658,1.658H86.4A1.658,1.658,0,0,0,88.062,97.7V90.553A1.658,1.658,0,0,0,86.4,88.9ZM84.746,96.04H67.966v-3.83h16.78Z" transform="translate(-50.36 -74.604)" fill="#3a3c07"/>
        <path id="Trazado_133747" data-name="Trazado 133747" d="M146.406,88.894a7.005,7.005,0,0,0-5.969,3.3l-24.04,38.35a7.045,7.045,0,0,0,5.969,10.786h48.08a7.045,7.045,0,0,0,5.969-10.786L152.375,92.2A7.006,7.006,0,0,0,146.406,88.894Zm27.3,47.2a3.682,3.682,0,0,1-3.263,1.924h-48.08a3.729,3.729,0,0,1-3.16-5.71l24.04-38.349a3.729,3.729,0,0,1,6.319,0l24.04,38.349A3.683,3.683,0,0,1,173.709,136.094Z" transform="translate(-89.819 -74.603)" fill="#3a3c07"/>
        <path id="Trazado_133748" data-name="Trazado 133748" d="M232.337,145.642v16.3a5.21,5.21,0,0,0,1.415,3.573,5.23,5.23,0,1,0,7.63,0,5.21,5.21,0,0,0,1.415-3.573v-16.3a5.23,5.23,0,1,0-10.461,0Zm5.23,25.36a1.915,1.915,0,1,1,1.915-1.915A1.917,1.917,0,0,1,237.568,171Zm1.915-25.36v16.3a1.915,1.915,0,1,1-3.83,0v-16.3a1.915,1.915,0,1,1,3.83,0Z" transform="translate(-180.981 -114.733)" fill="#3a3c07"/>
        <path id="Trazado_133749" data-name="Trazado 133749" d="M40.836,56.57H33.988a1.658,1.658,0,0,0-1.658,1.658v63.415a1.658,1.658,0,0,0,1.658,1.658h95.565a1.658,1.658,0,0,0,1.658-1.658V58.228a1.658,1.658,0,0,0-1.658-1.658H48.572a1.658,1.658,0,1,0,0,3.316h79.323v60.1H35.646v-60.1h5.19a1.658,1.658,0,0,0,0-3.316Z" transform="translate(-25.184 -49.424)" fill="#3a3c07"/>
        <path id="Trazado_133750" data-name="Trazado 133750" d="M107.05,24.24H6.123A6.131,6.131,0,0,0,0,30.365V99.138a6.13,6.13,0,0,0,6.123,6.123H41.7l-1.715,10.975H36.045a1.658,1.658,0,0,0-1.658,1.658v7.146a1.658,1.658,0,0,0,1.658,1.658H77.128a1.658,1.658,0,0,0,1.658-1.658v-7.146a1.658,1.658,0,0,0-1.658-1.658H73.189L71.474,105.26H88.543a1.658,1.658,0,1,0,0-3.316H6.123a2.81,2.81,0,0,1-2.807-2.807V30.365a2.812,2.812,0,0,1,2.807-2.809H107.05a2.812,2.812,0,0,1,2.807,2.809V99.138a2.81,2.81,0,0,1-2.807,2.807H96.279a1.658,1.658,0,1,0,0,3.316H107.05a6.13,6.13,0,0,0,6.123-6.123V30.365a6.131,6.131,0,0,0-6.123-6.125Zm-37.217,92h-2.9a1.658,1.658,0,1,0,0,3.316H75.47v3.831H37.7v-3.831h21.49a1.658,1.658,0,1,0,0-3.316H43.34l1.715-10.975H68.118Z" transform="translate(0 -24.24)" fill="#3a3c07"/>
      </g>
    </g>
  </g>
</svg>
