<svg xmlns="http://www.w3.org/2000/svg" width="39.5" height="39.5" viewBox="0 0 39.5 39.5">
  <path id="stars-regular" d="M20.034,6.632l3.83,1.6,1.6,3.83a.514.514,0,0,0,.92,0l1.6-3.83,3.83-1.6a.514.514,0,0,0,0-.92l-3.83-1.6-1.6-3.83a.514.514,0,0,0-.92,0l-1.6,3.83-3.83,1.6a.514.514,0,0,0,0,.92ZM39.272,16.914l-3.064-1.277-1.278-3.064a.411.411,0,0,0-.736,0l-1.278,3.064-3.064,1.277a.412.412,0,0,0,0,.736l3.064,1.278L34.2,21.991a.411.411,0,0,0,.736,0l1.278-3.064,3.064-1.278a.412.412,0,0,0,0-.736ZM28.106,20.622l-8.086-1.18L16.4,12.1a1.756,1.756,0,0,0-1.6-.987,1.728,1.728,0,0,0-1.582.987L9.6,19.442l-8.086,1.18a1.772,1.772,0,0,0-.979,3.024L6.4,29.355,5.006,37.424A1.773,1.773,0,0,0,6.749,39.5a1.716,1.716,0,0,0,.825-.209l7.238-3.81,7.238,3.81a1.764,1.764,0,0,0,2.568-1.867l-1.381-8.069,5.856-5.709A1.776,1.776,0,0,0,28.106,20.622Zm-8.858,7.445L20.3,34.192,14.812,31.3l-5.5,2.893,1.058-6.126-4.46-4.343,6.158-.894,2.746-5.57,2.746,5.57,6.158.894Z" fill="#a0a603"/>
</svg>
