<svg id="Grupo_83343" data-name="Grupo 83343" xmlns="http://www.w3.org/2000/svg" width="105" height="105" viewBox="0 0 105 105">
  <rect id="Rectángulo_5987" data-name="Rectángulo 5987" width="105" height="105" fill="none"/>
  <g id="iphone-5" transform="translate(-40.706 5.625)">
    <path id="Trazado_130304" data-name="Trazado 130304" d="M88.758,91.953V14.172a6.624,6.624,0,0,1,6.6-6.6H71.952a6.624,6.624,0,0,0-6.6,6.6V91.953a6.624,6.624,0,0,0,6.6,6.6H95.363A6.624,6.624,0,0,1,88.758,91.953Z" transform="translate(-7.051 -6.182)" fill="#f7cf9c"/>
    <path id="Trazado_130305" data-name="Trazado 130305" d="M70.839,91.953V14.172a6.624,6.624,0,0,1,6.6-6.6H71.951a6.624,6.624,0,0,0-6.6,6.6V91.953a6.624,6.624,0,0,0,6.6,6.6h5.493A6.624,6.624,0,0,1,70.839,91.953Z" transform="translate(-7.05 -6.182)" fill="#efbb81"/>
    <path id="Trazado_130306" data-name="Trazado 130306" d="M65.346,14.172v6.942H88.757V14.172a6.624,6.624,0,0,1,6.6-6.6H71.951A6.624,6.624,0,0,0,65.346,14.172Z" transform="translate(-7.05 -6.182)" fill="#efefef"/>
    <path id="Trazado_130307" data-name="Trazado 130307" d="M65.346,21.114h5.493V14.172a6.624,6.624,0,0,1,6.6-6.6H71.951a6.623,6.623,0,0,0-6.6,6.6Z" transform="translate(-7.05 -6.182)" fill="#ddd"/>
    <path id="Trazado_130308" data-name="Trazado 130308" d="M65.346,437.458v-6.942H88.757v6.942a6.624,6.624,0,0,0,6.6,6.6H71.951A6.624,6.624,0,0,1,65.346,437.458Z" transform="translate(-7.05 -351.687)" fill="#efefef"/>
    <path id="Trazado_130309" data-name="Trazado 130309" d="M70.839,437.458v-6.942H65.346v6.942a6.624,6.624,0,0,0,6.6,6.6h5.493A6.624,6.624,0,0,1,70.839,437.458Z" transform="translate(-7.05 -351.687)" fill="#ddd"/>
    <circle id="Elipse_7985" data-name="Elipse 7985" cx="2.531" cy="2.531" r="2.531" transform="translate(63.434 6.145)" fill="#666"/>
    <path id="Trazado_130310" data-name="Trazado 130310" d="M95.939,33.571a2.532,2.532,0,1,0,2.19,3.794A2.529,2.529,0,0,1,95.939,33.571Z" transform="translate(-29.972 -27.424)" fill="#535454"/>
    <path id="Trazado_130311" data-name="Trazado 130311" d="M232.421,98.558H198.809a6.624,6.624,0,0,1-6.6-6.6V14.172a6.624,6.624,0,0,1,6.6-6.6h33.613a6.624,6.624,0,0,1,6.6,6.6V91.953A6.624,6.624,0,0,1,232.421,98.558Z" transform="translate(-110.68 -6.182)" fill="#efefef"/>
    <path id="Trazado_130312" data-name="Trazado 130312" d="M196.186,91.953V14.172a6.624,6.624,0,0,1,6.6-6.6h-3.982a6.624,6.624,0,0,0-6.6,6.6V91.953a6.624,6.624,0,0,0,6.6,6.6h3.982A6.624,6.624,0,0,1,196.186,91.953Z" transform="translate(-110.68 -6.182)" fill="#ddd"/>
    <path id="Trazado_130313" data-name="Trazado 130313" d="M251.453,147.879H215.5a1.43,1.43,0,0,1-1.43-1.43V88.981a1.43,1.43,0,0,1,1.43-1.43h35.954a1.43,1.43,0,0,1,1.43,1.43v57.467A1.43,1.43,0,0,1,251.453,147.879Z" transform="translate(-128.54 -71.52)" fill="#a4d9f4"/>
    <path id="Trazado_130314" data-name="Trazado 130314" d="M218.05,146.448V88.981a1.43,1.43,0,0,1,1.43-1.43H215.5a1.43,1.43,0,0,0-1.43,1.43v57.467a1.43,1.43,0,0,0,1.43,1.43h3.982A1.43,1.43,0,0,1,218.05,146.448Z" transform="translate(-128.54 -71.52)" fill="#7cc9e8"/>
    <path id="Trazado_130315" data-name="Trazado 130315" d="M214.068,88.981v4.33h38.815v-4.33a1.43,1.43,0,0,0-1.43-1.43H215.5A1.431,1.431,0,0,0,214.068,88.981Z" transform="translate(-128.54 -71.52)" fill="#70b5e8"/>
    <path id="Trazado_130316" data-name="Trazado 130316" d="M214.068,88.964v4.33h3.982v-4.33a1.43,1.43,0,0,1,1.43-1.43c-4.053.037-4.073-.085-4.539.112A1.431,1.431,0,0,0,214.068,88.964Z" transform="translate(-128.54 -71.503)" fill="#52a5d8"/>
    <path id="Trazado_130317" data-name="Trazado 130317" d="M240.1,289.965h-3.675a.614.614,0,0,1-.612-.612v-3.675a.614.614,0,0,1,.612-.612H240.1a.614.614,0,0,1,.612.612v3.675A.614.614,0,0,1,240.1,289.965Z" transform="translate(-146.305 -232.869)" fill="#f94a46"/>
    <path id="Trazado_130318" data-name="Trazado 130318" d="M287.346,289.965h-3.675a.614.614,0,0,1-.612-.612v-3.675a.614.614,0,0,1,.612-.612h3.675a.614.614,0,0,1,.612.612v3.675A.614.614,0,0,1,287.346,289.965Z" transform="translate(-184.899 -232.869)" fill="#898989"/>
    <path id="Trazado_130319" data-name="Trazado 130319" d="M240.1,145.6h-3.675a.614.614,0,0,1-.612-.612v-3.675a.614.614,0,0,1,.612-.612H240.1a.614.614,0,0,1,.612.612v3.675A.614.614,0,0,1,240.1,145.6Z" transform="translate(-146.305 -114.934)" fill="#92b620"/>
    <path id="Trazado_130320" data-name="Trazado 130320" d="M287.346,145.6h-3.675a.614.614,0,0,1-.612-.612v-3.675a.614.614,0,0,1,.612-.612h3.675a.614.614,0,0,1,.612.612v3.675A.614.614,0,0,1,287.346,145.6Z" transform="translate(-184.899 -114.934)" fill="#f94a46"/>
    <path id="Trazado_130321" data-name="Trazado 130321" d="M334.59,145.6h-3.675a.614.614,0,0,1-.612-.612v-3.675a.614.614,0,0,1,.612-.612h3.675a.614.614,0,0,1,.613.612v3.675A.614.614,0,0,1,334.59,145.6Z" transform="translate(-223.492 -114.934)" fill="#ffb70d"/>
    <path id="Trazado_130322" data-name="Trazado 130322" d="M381.833,145.6h-3.675a.614.614,0,0,1-.612-.612v-3.675a.614.614,0,0,1,.612-.612h3.675a.614.614,0,0,1,.612.612v3.675A.614.614,0,0,1,381.833,145.6Z" transform="translate(-262.085 -114.934)" fill="#efefef"/>
    <path id="Trazado_130323" data-name="Trazado 130323" d="M240.1,193.306h-3.675a.614.614,0,0,1-.612-.612v-3.675a.614.614,0,0,1,.612-.612H240.1a.614.614,0,0,1,.612.612v3.675A.614.614,0,0,1,240.1,193.306Z" transform="translate(-146.305 -153.908)" fill="#dda36f"/>
    <path id="Trazado_130324" data-name="Trazado 130324" d="M287.346,193.306h-3.675a.614.614,0,0,1-.612-.612v-3.675a.614.614,0,0,1,.612-.612h3.675a.614.614,0,0,1,.612.612v3.675A.614.614,0,0,1,287.346,193.306Z" transform="translate(-184.899 -153.908)" fill="#70b5e8"/>
    <path id="Trazado_130325" data-name="Trazado 130325" d="M334.59,193.306h-3.675a.614.614,0,0,1-.612-.612v-3.675a.614.614,0,0,1,.612-.612h3.675a.614.614,0,0,1,.613.612v3.675A.615.615,0,0,1,334.59,193.306Z" transform="translate(-223.492 -153.908)" fill="#f9d698"/>
    <path id="Trazado_130326" data-name="Trazado 130326" d="M381.833,193.306h-3.675a.614.614,0,0,1-.612-.612v-3.675a.614.614,0,0,1,.612-.612h3.675a.614.614,0,0,1,.612.612v3.675A.614.614,0,0,1,381.833,193.306Z" transform="translate(-262.085 -153.908)" fill="#70b5e8"/>
    <path id="Trazado_130327" data-name="Trazado 130327" d="M240.1,241.636h-3.675a.614.614,0,0,1-.612-.612v-3.675a.614.614,0,0,1,.612-.612H240.1a.614.614,0,0,1,.612.612v3.675A.614.614,0,0,1,240.1,241.636Z" transform="translate(-146.305 -193.389)" fill="#efefef"/>
    <path id="Trazado_130328" data-name="Trazado 130328" d="M287.346,241.636h-3.675a.614.614,0,0,1-.612-.612v-3.675a.614.614,0,0,1,.612-.612h3.675a.614.614,0,0,1,.612.612v3.675A.614.614,0,0,1,287.346,241.636Z" transform="translate(-184.899 -193.389)" fill="#ffb70d"/>
    <path id="Trazado_130330" data-name="Trazado 130330" d="M381.833,241.636h-3.675a.614.614,0,0,1-.612-.612v-3.675a.614.614,0,0,1,.612-.612h3.675a.614.614,0,0,1,.612.612v3.675A.614.614,0,0,1,381.833,241.636Z" transform="translate(-262.085 -193.389)" fill="#efefef"/>
    <path id="Trazado_130331" data-name="Trazado 130331" d="M240.1,373.165h-3.675a.614.614,0,0,1-.612-.612v-3.675a.614.614,0,0,1,.612-.612H240.1a.614.614,0,0,1,.612.612v3.675A.614.614,0,0,1,240.1,373.165Z" transform="translate(-146.305 -300.835)" fill="#92b620"/>
    <path id="Trazado_130332" data-name="Trazado 130332" d="M287.346,373.165h-3.675a.614.614,0,0,1-.612-.612v-3.675a.614.614,0,0,1,.612-.612h3.675a.614.614,0,0,1,.612.612v3.675A.614.614,0,0,1,287.346,373.165Z" transform="translate(-184.899 -300.835)" fill="#70b5e8"/>
    <path id="Trazado_130333" data-name="Trazado 130333" d="M334.59,373.165h-3.675a.614.614,0,0,1-.612-.612v-3.675a.614.614,0,0,1,.612-.612h3.675a.614.614,0,0,1,.613.612v3.675A.614.614,0,0,1,334.59,373.165Z" transform="translate(-223.492 -300.835)" fill="#52a5d8"/>
    <path id="Trazado_130334" data-name="Trazado 130334" d="M381.833,373.165h-3.675a.614.614,0,0,1-.612-.612v-3.675a.614.614,0,0,1,.612-.612h3.675a.614.614,0,0,1,.612.612v3.675A.614.614,0,0,1,381.833,373.165Z" transform="translate(-262.085 -300.835)" fill="#efefef"/>
    <path id="Trazado_130335" data-name="Trazado 130335" d="M84.777,29.966a3.9,3.9,0,1,0,3.9-3.9A3.909,3.909,0,0,0,84.777,29.966Zm3.9-1.158a1.158,1.158,0,1,1-1.158,1.158A1.16,1.16,0,0,1,88.682,28.807Z" transform="translate(-22.923 -21.289)" fill="#3a3c07"/>
    <path id="Trazado_130336" data-name="Trazado 130336" d="M248,140.323V82.856a2.8,2.8,0,0,0-2.8-2.8H209.239a2.815,2.815,0,0,0-2.8,2.8v57.467a2.807,2.807,0,0,0,2.8,2.8h35.954A2.807,2.807,0,0,0,248,140.323Zm-38.815,0V88.559h24.756a1.373,1.373,0,0,0,0-2.746H209.182V82.856a.058.058,0,0,1,.057-.057c37.388.027,36.012-.056,36.012.057v2.957h-4.9a1.373,1.373,0,1,0,0,2.746h4.9c-.027,54.022.056,51.821-.057,51.821H209.239A.057.057,0,0,1,209.182,140.323Z" transform="translate(-122.305 -65.394)" fill="#3a3c07"/>
    <path id="Trazado_130337" data-name="Trazado 130337" d="M310.007,53.084a1.373,1.373,0,0,0,1.373,1.373h5.944a1.373,1.373,0,1,0,0-2.746H311.38A1.373,1.373,0,0,0,310.007,53.084Z" transform="translate(-206.912 -42.243)" fill="#3a3c07"/>
    <path id="Trazado_130338" data-name="Trazado 130338" d="M283.241,54.349a1.543,1.543,0,0,0,.256.079,1.489,1.489,0,0,0,.269.026,1.456,1.456,0,0,0,.267-.026,1.625,1.625,0,0,0,.258-.079,1.463,1.463,0,0,0,.236-.126,1.346,1.346,0,0,0,.209-.17,1.377,1.377,0,0,0,0-1.943,1.241,1.241,0,0,0-.209-.17,1.332,1.332,0,0,0-.236-.126,1.456,1.456,0,0,0-.258-.079,1.325,1.325,0,0,0-.537,0,1.387,1.387,0,0,0-.256.079,1.378,1.378,0,0,0-.447.3,1.377,1.377,0,0,0,0,1.943,1.437,1.437,0,0,0,.209.17A1.475,1.475,0,0,0,283.241,54.349Z" transform="translate(-184.355 -42.239)" fill="#3a3c07"/>
    <path id="Trazado_130339" data-name="Trazado 130339" d="M317.611,29.821a1.29,1.29,0,0,0,.238.126,1.383,1.383,0,0,0,.256.079,1.325,1.325,0,0,0,.537,0,1.38,1.38,0,0,0,.256-.079,1.282,1.282,0,0,0,.238-.126,1.335,1.335,0,0,0,.209-.17,1.382,1.382,0,0,0,.4-.97,1.356,1.356,0,0,0-.027-.269,1.384,1.384,0,0,0-.079-.256,1.483,1.483,0,0,0-.127-.238,1.437,1.437,0,0,0-.17-.209,1.387,1.387,0,0,0-1.24-.375,1.535,1.535,0,0,0-.256.079,1.41,1.41,0,0,0-.238.126,1.583,1.583,0,0,0-.209.17,1.327,1.327,0,0,0-.17.209,1.479,1.479,0,0,0-.126.238,1.4,1.4,0,0,0-.079.256,1.328,1.328,0,0,0-.027.269,1.386,1.386,0,0,0,.4.97A1.346,1.346,0,0,0,317.611,29.821Z" transform="translate(-212.624 -22.307)" fill="#3a3c07"/>
    <path id="Trazado_130340" data-name="Trazado 130340" d="M136.654,42.4a1.373,1.373,0,1,0-1.734-.17A1.4,1.4,0,0,0,136.654,42.4Z" transform="translate(-63.556 -32.585)" fill="#3a3c07"/>
    <path id="Trazado_130341" data-name="Trazado 130341" d="M293.6,438.828a4.821,4.821,0,1,0,4.821-4.821A4.827,4.827,0,0,0,293.6,438.828Zm6.9,0a2.075,2.075,0,1,1-2.075-2.075A2.077,2.077,0,0,1,300.495,438.828Z" transform="translate(-193.509 -354.538)" fill="#3a3c07"/>
    <path id="Trazado_130342" data-name="Trazado 130342" d="M158.225,35.295a1.373,1.373,0,0,0,1.373-1.373v-4.24a1.373,1.373,0,0,0-2.746,0v4.24A1.373,1.373,0,0,0,158.225,35.295Z" transform="translate(-81.801 -23.126)" fill="#3a3c07"/>
    <path id="Trazado_130343" data-name="Trazado 130343" d="M128.323,74.528a1.373,1.373,0,0,0,1.373-1.373V7.99A7.987,7.987,0,0,0,121.718.012H88.105C63.651.135,64.359-.263,62.324.372A7.992,7.992,0,0,0,56.716,7.99V85.771a7.987,7.987,0,0,0,7.978,7.978h57.024a7.987,7.987,0,0,0,7.978-7.978V79.563a1.373,1.373,0,0,0-2.746,0v6.209A5.237,5.237,0,0,1,121.718,91H88.105a5.237,5.237,0,0,1-5.231-5.231V7.99a5.238,5.238,0,0,1,5.231-5.232h33.613a5.237,5.237,0,0,1,5.231,5.232V73.155A1.373,1.373,0,0,0,128.323,74.528ZM64.694,91a5.237,5.237,0,0,1-5.231-5.231V80.2h3.092a1.373,1.373,0,1,0,0-2.746H59.462V16.306H80.127V77.456H68.963a1.373,1.373,0,0,0,0,2.746H80.127c0,6.373-.011,5.625.019,6.09A7.954,7.954,0,0,0,82.087,91H64.694ZM80.127,7.99v5.569H59.462V7.99a5.238,5.238,0,0,1,5.231-5.232H82.087A7.976,7.976,0,0,0,80.127,7.99Z" transform="translate(0 0)" fill="#3a3c07"/>
  </g>
</svg>
