<svg xmlns="http://www.w3.org/2000/svg" width="400" height="234" viewBox="0 0 400 234">
  <g id="Grupo_84249" data-name="Grupo 84249" transform="translate(-600 -580)">
    <rect id="Rectángulo_6141" data-name="Rectángulo 6141" width="400" height="177" rx="10" transform="translate(600 637)" fill="#b9d6f0"/>
    <g id="Grupo_68847" data-name="Grupo 68847" transform="translate(-423 -132)">
      <rect id="Rectángulo_6149" data-name="Rectángulo 6149" width="213" height="213" transform="translate(1117 712)" fill="none"/>
      <g id="Grupo_68959" data-name="Grupo 68959" transform="translate(-2209.313 -349.354)">
        <g id="Grupo_68939" data-name="Grupo 68939" transform="translate(3374.574 1095.104)">
          <path id="Trazado_116526" data-name="Trazado 116526" d="M3387.938,1114.474a12.077,12.077,0,1,0,12.077-12.077A12.077,12.077,0,0,0,3387.938,1114.474Z" transform="translate(-3387.938 -1102.397)" fill="#ffb743"/>
        </g>
        <path id="Trazado_116527" data-name="Trazado 116527" d="M3482.437,1078.165a56.332,56.332,0,0,0-23.425,10.1c-21.415,15.781-25.35,49.344,1.727,61.454,13.772,6.16,30.887,9.606,35.1,26.44,3.674,14.666,18.054,21.914,32.417,22.627,46.568,2.312,47.373-59.088,28.075-87.5A80.2,80.2,0,0,0,3515.9,1081,66.78,66.78,0,0,0,3482.437,1078.165Z" transform="translate(-28.906)" fill="#ffb743"/>
        <rect id="Rectángulo_6198" data-name="Rectángulo 6198" width="134.798" height="120.545" transform="translate(3342.182 1111.871)" fill="#fff"/>
        <path id="Trazado_116528" data-name="Trazado 116528" d="M3476.98,1246.8h-134.8a.456.456,0,0,1-.456-.456V1125.8a.456.456,0,0,1,.456-.456h134.8a.456.456,0,0,1,.456.456v120.544A.456.456,0,0,1,3476.98,1246.8Zm-134.343-.912h133.886V1126.258H3342.638Z" transform="translate(0 -13.93)"/>
        <g id="Grupo_68941" data-name="Grupo 68941" transform="translate(3483.928 1206.25)">
          <g id="Grupo_68940" data-name="Grupo 68940" transform="translate(0 0)">
            <path id="Trazado_116529" data-name="Trazado 116529" d="M3541.782,1259.9l6.945,50.691h27.886a.837.837,0,0,0,.943-.821c.037-7.291-10.4-6.841-10.4-6.841l-7.719-44.163Z" transform="translate(-3541.782 -1258.763)" fill="#fff"/>
          </g>
        </g>
        <g id="Grupo_68943" data-name="Grupo 68943" transform="translate(3440.638 1206.25)">
          <g id="Grupo_68942" data-name="Grupo 68942" transform="translate(0 0)">
            <path id="Trazado_116530" data-name="Trazado 116530" d="M3516.655,1259.9l-6.945,50.691h-27.886a.836.836,0,0,1-.942-.821c-.038-7.291,10.4-6.841,10.4-6.841l7.718-44.163Z" transform="translate(-3480.881 -1258.763)" fill="#fff"/>
          </g>
        </g>
        <path id="Trazado_116531" data-name="Trazado 116531" d="M3517.532,1301.633h-18.8a.456.456,0,0,1,0-.913h18.8a.456.456,0,1,1,0,.913Z" transform="translate(-45.274 -64.646)" fill="#529ad9"/>
        <path id="Trazado_116532" data-name="Trazado 116532" d="M3565.874,1301.633h-18.659a.456.456,0,0,1,0-.913h18.659a.456.456,0,1,1,0,.913Z" transform="translate(-59.294 -64.646)" fill="#529ad9"/>
        <g id="Grupo_68945" data-name="Grupo 68945" transform="translate(3483.471 1205.794)">
          <g id="Grupo_68944" data-name="Grupo 68944">
            <path id="Trazado_116533" data-name="Trazado 116533" d="M3576.432,1310.859h-27.891a.456.456,0,0,1-.452-.395l-6.945-50.691a.457.457,0,0,1,.423-.518l17.658-1.134a.461.461,0,0,1,.478.377l7.651,43.779c1.409,0,6,.2,8.62,2.729a6.061,6.061,0,0,1,1.853,4.578A1.285,1.285,0,0,1,3576.432,1310.859Zm-27.493-.913h27.488c.186,0,.485-.048.487-.367a5.178,5.178,0,0,0-1.571-3.914c-2.773-2.672-8.3-2.471-8.351-2.469a.457.457,0,0,1-.469-.377l-7.648-43.76-16.76,1.076Z" transform="translate(-3541.14 -1258.121)"/>
          </g>
          <path id="Trazado_116534" data-name="Trazado 116534" d="M3551.108,1328.425h27.886a.837.837,0,0,0,.943-.821c.037-7.291-10.4-6.841-10.4-6.841l-.049-.321h-19.477Z" transform="translate(-3543.706 -1276.144)"/>
        </g>
        <g id="Grupo_68947" data-name="Grupo 68947" transform="translate(3440.182 1205.794)">
          <g id="Grupo_68946" data-name="Grupo 68946">
            <path id="Trazado_116535" data-name="Trazado 116535" d="M3481.631,1310.859a1.283,1.283,0,0,1-1.393-1.275,6.058,6.058,0,0,1,1.852-4.578c2.624-2.526,7.211-2.729,8.611-2.729.009,0,7.66-43.779,7.66-43.779a.461.461,0,0,1,.479-.377l17.658,1.134a.46.46,0,0,1,.324.167.454.454,0,0,1,.1.351l-6.944,50.691a.458.458,0,0,1-.453.395h-27.892Zm9.14-7.666c-1.2,0-5.651.161-8.05,2.473a5.179,5.179,0,0,0-1.571,3.914c0,.318.3.367.481.367h27.494l6.823-49.811-16.759-1.076-7.648,43.76a.461.461,0,0,1-.469.377C3491.065,1303.2,3490.958,1303.193,3490.771,1303.193Z" transform="translate(-3480.239 -1258.121)"/>
          </g>
          <path id="Trazado_116536" data-name="Trazado 116536" d="M3509.709,1328.425h-27.886a.836.836,0,0,1-.942-.821c-.038-7.291,10.4-6.841,10.4-6.841l.048-.321H3510.8Z" transform="translate(-3480.425 -1276.144)"/>
        </g>
        <path id="Trazado_116537" data-name="Trazado 116537" d="M3389.55,1246.8a.457.457,0,0,1-.457-.456V1125.8a.456.456,0,0,1,.913,0v120.544A.456.456,0,0,1,3389.55,1246.8Z" transform="translate(-13.698 -13.93)"/>
        <path id="Trazado_116538" data-name="Trazado 116538" d="M3363.039,1150.645l8.405,8.4-4.962,4.963-8.406-8.405-3.327,3.328-1.021-6.829-1.021-6.829,6.83,1.02,6.829,1.021Z" transform="translate(-3.176 -19.694)"/>
        <g id="Grupo_68948" data-name="Grupo 68948" transform="translate(3351.89 1156.897)">
          <path id="Trazado_116539" data-name="Trazado 116539" d="M3370.046,1202.7a7.01,7.01,0,0,1-14.02,0c0-3.872,7.01-13.37,7.01-13.37S3370.046,1198.829,3370.046,1202.7Z" transform="translate(-3356.026 -1189.331)" fill="#529ad9"/>
          <path id="Trazado_116540" data-name="Trazado 116540" d="M3367.573,1206.984a2.842,2.842,0,1,1-2.842-2.842A2.842,2.842,0,0,1,3367.573,1206.984Z" transform="translate(-3357.722 -1193.614)" fill="#fff"/>
          <rect id="Rectángulo_6199" data-name="Rectángulo 6199" width="13.371" height="5.04" transform="translate(0.325 21.847)" fill="#529ad9"/>
        </g>
        <g id="Grupo_68949" data-name="Grupo 68949" transform="translate(3349.133 1199.734)">
          <path id="Trazado_116541" data-name="Trazado 116541" d="M3365.042,1262.948H3352.6a.457.457,0,0,1-.456-.456v-12.439a.457.457,0,0,1,.456-.456h12.439a.456.456,0,0,1,.456.456v12.439A.456.456,0,0,1,3365.042,1262.948Zm-11.983-.913h11.527v-11.526h-11.527Z" transform="translate(-3352.146 -1249.596)"/>
          <path id="Trazado_116542" data-name="Trazado 116542" d="M3373.978,1265.208a6.22,6.22,0,1,1-6.22-6.219A6.22,6.22,0,0,1,3373.978,1265.208Z" transform="translate(-3354.862 -1252.312)" fill="#529ad9"/>
        </g>
        <path id="Trazado_116543" data-name="Trazado 116543" d="M3407.56,1160.134a4.435,4.435,0,1,1-4.436-4.436A4.436,4.436,0,0,1,3407.56,1160.134Z" transform="translate(-16.473 -22.708)"/>
        <g id="Grupo_68951" data-name="Grupo 68951" transform="translate(3444.8 1091.483)">
          <g id="Grupo_68950" data-name="Grupo 68950" transform="translate(0 0)">
            <path id="Trazado_116544" data-name="Trazado 116544" d="M3493.521,1104.545a.456.456,0,0,1-.323-.134l-6.329-6.33a.456.456,0,0,1,.645-.645l6.33,6.329a.456.456,0,0,1-.323.779Z" transform="translate(-3486.736 -1097.303)"/>
            <path id="Trazado_116545" data-name="Trazado 116545" d="M3487.192,1104.545a.456.456,0,0,1-.322-.779l6.329-6.329a.456.456,0,0,1,.645.645l-6.33,6.33A.455.455,0,0,1,3487.192,1104.545Z" transform="translate(-3486.736 -1097.303)"/>
          </g>
        </g>
        <path id="Trazado_116546" data-name="Trazado 116546" d="M3583.93,1154.882a6.135,6.135,0,1,1,6.135-6.136A6.143,6.143,0,0,1,3583.93,1154.882Zm0-11.358a5.223,5.223,0,1,0,5.222,5.222A5.228,5.228,0,0,0,3583.93,1143.524Z" transform="translate(-68.269 -18.923)"/>
        <path id="Trazado_116547" data-name="Trazado 116547" d="M3524.994,1143.356a8.785,8.785,0,1,0,8.34-9.208A8.785,8.785,0,0,0,3524.994,1143.356Z" transform="translate(-52.996 -16.473)"/>
        <path id="Trazado_116548" data-name="Trazado 116548" d="M3533.823,1124.744a8.785,8.785,0,1,0,8.34-9.208A8.784,8.784,0,0,0,3533.823,1124.744Z" transform="translate(-55.549 -11.09)"/>
        <path id="Trazado_116549" data-name="Trazado 116549" d="M3541.388,1132a9.241,9.241,0,1,1,.467-.011Q3541.622,1132,3541.388,1132Zm.021-17.57c-.14,0-.281,0-.421.011a8.3,8.3,0,1,0,.421-.011Z" transform="translate(-55.071 -10.51)"/>
        <path id="Trazado_116550" data-name="Trazado 116550" d="M3540.24,1157.837a6.731,6.731,0,1,0,6.39-7.055A6.731,6.731,0,0,0,3540.24,1157.837Z" transform="translate(-57.406 -21.283)"/>
        <path id="Trazado_116551" data-name="Trazado 116551" d="M3523.7,1157.837a6.731,6.731,0,1,0,6.39-7.055A6.732,6.732,0,0,0,3523.7,1157.837Z" transform="translate(-52.624 -21.283)"/>
        <path id="Trazado_116552" data-name="Trazado 116552" d="M3551.777,1259.25l-8.031-37.839h-33l-8.522,37.839Z" transform="translate(-46.414 -41.711)" fill="#fff"/>
        <path id="Trazado_116553" data-name="Trazado 116553" d="M3551.592,1259.52h-49.557a.456.456,0,0,1-.444-.557l8.523-37.839a.456.456,0,0,1,.445-.356h33a.457.457,0,0,1,.446.362l8.031,37.839a.455.455,0,0,1-.446.551Zm-48.987-.913h48.423l-7.836-36.927h-32.269Z" transform="translate(-46.228 -41.525)"/>
        <path id="Trazado_116554" data-name="Trazado 116554" d="M3544.51,1173.066c-3.25-5.1-7.681-9.012-16.589-9.422l-10.121-.12c-12.665.9-16.6,6.181-16.847,17.231l-.014-.16-4.282-5.4-12.56,4.233s-5.818,32.345,18.67,37.061l2.561-11.822h19.406l-4.045,10.45,11.256,9.651c8.671-10.354,15.4-14.844,17.053-27.09C3550.519,1186.392,3548.233,1178.9,3544.51,1173.066Z" transform="translate(-40.998 -24.971)"/>
        <path id="Trazado_116555" data-name="Trazado 116555" d="M3539.922,1157.362l-3.187-.038c-3.345-2.847-.245-9.509-.245-9.509-5.717-.4-9.279-7.211-10.19-5.829a4.072,4.072,0,0,0-.7,1.815c-.571,5.638-1.323,11.7,4.036,11.43l.1,2.017a36.029,36.029,0,0,0-4.748.637c.193.149,8.413,6.42,20.238.245A25.544,25.544,0,0,0,3539.922,1157.362Z" transform="translate(-52.999 -18.689)" fill="#fff"/>
        <path id="Trazado_116556" data-name="Trazado 116556" d="M3531.761,1225.047a.454.454,0,0,1-.3-.11l-11.257-9.651a.456.456,0,0,1-.128-.511l3.8-9.829h-18.372l-2.483,11.462a.458.458,0,0,1-.532.351c-10.213-1.966-16.741-9.112-18.881-20.664a53.4,53.4,0,0,1-.152-16.926.456.456,0,0,1,.3-.352l12.561-4.233a.457.457,0,0,1,.5.149l3.534,4.456c.284-5.182,1.5-8.8,3.8-11.308,2.675-2.924,6.886-4.507,13.253-4.981a.457.457,0,0,1,.068.911c-11.6.863-16.005,5.408-16.263,16.775a.456.456,0,0,1-.442.445.461.461,0,0,1-.469-.417c0-.024-4-5.063-4-5.063l-12,4.043a52.594,52.594,0,0,0,.2,16.357c2.068,11.13,8.026,17.8,17.714,19.823l2.466-11.381a.457.457,0,0,1,.446-.36h19.406a.457.457,0,0,1,.426.621l-3.929,10.149,10.661,9.141c1.789-2.12,3.466-3.964,5.089-5.751,5.976-6.574,10.295-11.325,11.565-20.754,1.318-9.788-.085-17.512-4.42-24.308-2.954-4.633-6.351-7.242-11.013-8.461a.456.456,0,0,1,.23-.883c4.9,1.281,8.465,4.011,11.553,8.852,4.456,6.989,5.9,14.908,4.554,24.922-1.308,9.71-5.706,14.548-11.794,21.245-1.707,1.878-3.472,3.821-5.361,6.076a.457.457,0,0,1-.312.162Z" transform="translate(-40.814 -24.79)"/>
        <path id="Trazado_116557" data-name="Trazado 116557" d="M3541.327,1211.02a.471.471,0,0,1-.45-.535c.058-.325,1.456-8.021,6-11.286,4.141-2.973.873-14.6.838-14.714a.456.456,0,0,1,.877-.252c.144.5,3.474,12.363-1.183,15.707-4.245,3.047-5.624,10.627-5.637,10.7A.458.458,0,0,1,3541.327,1211.02Z" transform="translate(-57.591 -30.864)" fill="#fff"/>
        <g id="Grupo_68952" data-name="Grupo 68952" transform="translate(3459.055 1147.432)">
          <path id="Trazado_116558" data-name="Trazado 116558" d="M3512.368,1198.474a.455.455,0,0,1-.2-.046,9.463,9.463,0,0,1-.9-16.58.456.456,0,0,1,.48.776,8.552,8.552,0,0,0,.816,14.983.456.456,0,0,1-.2.868Z" transform="translate(-3506.79 -1177.682)" fill="#fff"/>
          <path id="Trazado_116559" data-name="Trazado 116559" d="M3512.968,1181.027a.457.457,0,0,1-.45-.382l-.675-4.1a.457.457,0,0,1,.9-.149l.675,4.1a.454.454,0,0,1-.451.53Z" transform="translate(-3508.25 -1176.015)" fill="#fff"/>
          <path id="Trazado_116560" data-name="Trazado 116560" d="M3514.487,1216.825a.457.457,0,0,1-.457-.455l-.032-11.935a.456.456,0,1,1,.913,0l.032,11.934a.457.457,0,0,1-.456.457Z" transform="translate(-3508.875 -1184.102)" fill="#fff"/>
        </g>
        <g id="Grupo_68954" data-name="Grupo 68954" transform="translate(3398.499 1136.97)">
          <path id="Trazado_116561" data-name="Trazado 116561" d="M3534.156,1270.015a5.146,5.146,0,0,1-4.5-1.284l-76.1-70.817,7.018-7.541,76.1,70.817a5.151,5.151,0,0,1-2.515,8.825Z" transform="translate(-3430.84 -1169.705)" fill="#529ad9"/>
          <g id="Grupo_68953" data-name="Grupo 68953">
            <path id="Trazado_116562" data-name="Trazado 116562" d="M3459.209,1173.886a16.44,16.44,0,0,1-22.4,24.069c-6.647-6.186-14.57-36.017-14.57-36.017S3452.563,1167.7,3459.209,1173.886Z" transform="translate(-3421.783 -1161.482)" fill="#fff"/>
            <path id="Trazado_116563" data-name="Trazado 116563" d="M3447.809,1202.632a16.774,16.774,0,0,1-11.5-4.528c-6.667-6.2-14.375-35.011-14.7-36.234a.457.457,0,0,1,.527-.565c1.243.236,30.529,5.858,37.2,12.062a16.9,16.9,0,0,1-10.905,29.254C3448.222,1202.628,3448.015,1202.632,3447.809,1202.632Zm-25.122-40.29c1.249,4.545,8.336,29.593,14.247,35.094a15.984,15.984,0,1,0,21.779-23.4C3452.8,1168.533,3427.309,1163.261,3422.687,1162.342Z" transform="translate(-3421.598 -1161.296)"/>
            <path id="Trazado_116564" data-name="Trazado 116564" d="M3455.59,1199.9a7.107,7.107,0,1,1,.262,0C3455.765,1199.9,3455.677,1199.9,3455.59,1199.9Zm.008-13.327a6.206,6.206,0,1,0,4.228,1.661A6.192,6.192,0,0,0,3455.6,1186.576Z" transform="translate(-3429.371 -1168.343)"/>
            <path id="Trazado_116565" data-name="Trazado 116565" d="M3442.945,1181.651a.452.452,0,0,1-.31-.122l-20.892-19.442a.456.456,0,0,1,.622-.668l20.891,19.442a.456.456,0,0,1-.311.79Z" transform="translate(-3421.598 -1161.296)"/>
          </g>
        </g>
        <path id="Trazado_116566" data-name="Trazado 116566" d="M3529.541,1157.074a.456.456,0,0,1-.456-.456v-1.56a4.069,4.069,0,0,1-3-1.182c-1.923-2.027-1.492-6.255-1.074-10.343l.042-.414a11.943,11.943,0,0,1,1.2-3.312.456.456,0,0,1,.762.5,11.545,11.545,0,0,0-1.053,2.9l-.042.414c-.4,3.884-.805,7.9.829,9.622a3.377,3.377,0,0,0,2.773.892.455.455,0,0,1,.479.456v2.023A.456.456,0,0,1,3529.541,1157.074Z" transform="translate(-52.9 -18.052)"/>
        <g id="Grupo_68956" data-name="Grupo 68956" transform="translate(3472.862 1126.371)">
          <path id="Trazado_116567" data-name="Trazado 116567" d="M3533.105,1148.232a.516.516,0,1,1-.54-.49A.515.515,0,0,1,3533.105,1148.232Z" transform="translate(-3527.909 -1146.777)"/>
          <path id="Trazado_116568" data-name="Trazado 116568" d="M3527.245,1148.521a.516.516,0,1,1-.541-.49A.515.515,0,0,1,3527.245,1148.521Z" transform="translate(-3526.214 -1146.861)"/>
          <g id="Grupo_68955" data-name="Grupo 68955" transform="translate(7.444 0)">
            <path id="Trazado_116569" data-name="Trazado 116569" d="M3541.119,1148.492a2.217,2.217,0,1,1-2.324-2.1A2.217,2.217,0,0,1,3541.119,1148.492Z" transform="translate(-3536.687 -1146.385)" fill="#fff"/>
            <path id="Trazado_116570" data-name="Trazado 116570" d="M3539.076,1149.884a.456.456,0,0,1-.384-.7l.754-1.175a.456.456,0,1,1,.768.493l-.755,1.176A.454.454,0,0,1,3539.076,1149.884Z" transform="translate(-3537.246 -1146.793)"/>
          </g>
        </g>
        <path id="Trazado_116571" data-name="Trazado 116571" d="M3528.7,1151.334a.461.461,0,0,1-.456-.487l.237-3.5a.456.456,0,1,1,.911.062l-.238,3.5A.456.456,0,0,1,3528.7,1151.334Z" transform="translate(-53.94 -20.168)"/>
        <path id="Trazado_116572" data-name="Trazado 116572" d="M3527.976,1154.586a2,2,0,0,1-1.287-.881.456.456,0,0,1,.769-.491,1.1,1.1,0,0,0,.584.464.456.456,0,0,1-.066.908Z" transform="translate(-53.469 -21.928)"/>
        <path id="Trazado_116573" data-name="Trazado 116573" d="M3531.636,1162.534a1.709,1.709,0,0,0,2.03.065c.981-.759,1.107-2.992,1.107-2.992l-3.243.773Z" transform="translate(-54.889 -23.838)"/>
        <path id="Trazado_116574" data-name="Trazado 116574" d="M3531.344,1160.7a.456.456,0,0,1-.022-.912,9.222,9.222,0,0,0,2.85-.606.456.456,0,0,1,.361.837,9.93,9.93,0,0,1-3.167.68Z" transform="translate(-54.704 -23.706)"/>
        <path id="Trazado_116575" data-name="Trazado 116575" d="M3453.68,1228.5h-48.937a.457.457,0,0,1-.456-.456v-66.3a.457.457,0,0,1,.456-.456h48.937a.456.456,0,0,1,0,.913H3405.2v65.383h48.481a.456.456,0,0,1,0,.913Z" transform="translate(-18.092 -24.326)"/>
        <path id="Trazado_116576" data-name="Trazado 116576" d="M3407.56,1253.4a4.435,4.435,0,1,1-4.436-4.436A4.436,4.436,0,0,1,3407.56,1253.4Z" transform="translate(-16.473 -49.679)"/>
        <path id="Trazado_116577" data-name="Trazado 116577" d="M3476.407,1253.4a4.436,4.436,0,1,1-4.436-4.436A4.436,4.436,0,0,1,3476.407,1253.4Z" transform="translate(-36.383 -49.679)" fill="#fee45a"/>
        <path id="Trazado_116578" data-name="Trazado 116578" d="M3548.081,1331.944h-96.809a.456.456,0,0,1,0-.913h96.809a.456.456,0,1,1,0,.913Z" transform="translate(-31.548 -73.412)"/>
        <path id="Trazado_116579" data-name="Trazado 116579" d="M3475.807,1157.907a4.436,4.436,0,1,1-6.063-1.61A4.436,4.436,0,0,1,3475.807,1157.907Z" transform="translate(-36.383 -22.707)" fill="#fee45a"/>
        <path id="Trazado_116580" data-name="Trazado 116580" d="M3492.029,1171.69l-.8-1.55s-.5-6.527-2.324-8a21.84,21.84,0,0,0-4.115-2.519s-1.61-3.566-4.861-4.8-6.3-.835-6.729,1.2,3.875,2.754,5.2,4.214,1.014,1.876,1.014,1.876a3.08,3.08,0,0,0-2.76,3.019,11.333,11.333,0,0,0-4.146-1.671c-1.9-.249-3.157.8-3.12,2.642s3.938,2.8,5.271,4.787,2.789,5.165,5.6,5.57l.552,1.06a6.323,6.323,0,0,0,11.223-5.827Z" transform="translate(-36.918 -22.252)" fill="#fff"/>
        <path id="Trazado_116581" data-name="Trazado 116581" d="M3486.244,1181.189a6.8,6.8,0,0,1-6.029-3.648l-.447-.859c-2.412-.478-3.847-2.8-5.009-4.674-.232-.376-.452-.732-.668-1.054a8.538,8.538,0,0,0-2.6-2.078c-1.4-.866-2.723-1.685-2.75-2.954a3.036,3.036,0,0,1,.937-2.411,3.324,3.324,0,0,1,2.7-.693,10.885,10.885,0,0,1,3.726,1.368,3.462,3.462,0,0,1,2.629-2.643,4.734,4.734,0,0,0-.859-1.19,8.026,8.026,0,0,0-2.216-1.341c-1.609-.777-3.434-1.657-3.094-3.273a2.547,2.547,0,0,1,1.33-1.738c1.4-.765,3.642-.688,6.006.207a10.273,10.273,0,0,1,5.04,4.878,21.926,21.926,0,0,1,4.063,2.509c1.85,1.5,2.4,7.21,2.483,8.231l.761,1.468a6.775,6.775,0,0,1-6,9.9Zm-14.467-17.5a1.969,1.969,0,0,0-2.12,2.213c.016.773,1.134,1.464,2.317,2.2a9.117,9.117,0,0,1,2.876,2.346c.225.336.449.7.686,1.081,1.156,1.867,2.465,3.983,4.6,4.291a.46.46,0,0,1,.34.241l.551,1.06a5.866,5.866,0,0,0,10.412-5.406l-.8-1.55a.454.454,0,0,1-.05-.174c-.136-1.761-.789-6.577-2.156-7.686a21.515,21.515,0,0,0-4.017-2.457.459.459,0,0,1-.228-.228c-.015-.034-1.576-3.411-4.607-4.557-2.085-.789-4.095-.889-5.243-.26a1.642,1.642,0,0,0-.877,1.125c-.178.852.964,1.475,2.6,2.264a8.335,8.335,0,0,1,2.494,1.549c1.305,1.436,1.288,2.128,1.042,2.456a.457.457,0,0,1-.326.181,2.621,2.621,0,0,0-2.344,2.587.456.456,0,0,1-.711.357,10.947,10.947,0,0,0-3.951-1.6A3.691,3.691,0,0,0,3471.778,1163.69Z" transform="translate(-36.732 -22.065)"/>
        <g id="Grupo_68957" data-name="Grupo 68957" transform="translate(3441.532 1136.909)">
          <path id="Trazado_116582" data-name="Trazado 116582" d="M3492.994,1165.175a.456.456,0,0,1-.375-.2l-2.126-3.052a.456.456,0,0,1,.748-.522l2.127,3.052a.456.456,0,0,1-.375.717Z" transform="translate(-3484.53 -1161.21)"/>
          <path id="Trazado_116583" data-name="Trazado 116583" d="M3484.1,1171.891a.455.455,0,0,1-.389-.218l-1.5-2.45a.457.457,0,0,1,.779-.477l1.5,2.45a.456.456,0,0,1-.151.627A.449.449,0,0,1,3484.1,1171.891Z" transform="translate(-3482.137 -1163.327)"/>
        </g>
        <path id="Trazado_116584" data-name="Trazado 116584" d="M3482.34,1171.052c-1.787,0-3.242-2.511-3.313-2.634a.456.456,0,0,1,.792-.452c.016.028,1.624,2.749,3,2.053a.631.631,0,0,0,.331-.42c.313-1.1-.874-3.4-1.357-4.189a.456.456,0,1,1,.779-.476c.2.327,1.933,3.239,1.455,4.915a1.541,1.541,0,0,1-.8.985A1.955,1.955,0,0,1,3482.34,1171.052Z" transform="translate(-39.689 -25.315)"/>
        <path id="Trazado_116585" data-name="Trazado 116585" d="M3543.964,1138.731a.465.465,0,0,1-.183-.039l-9.29-4.072a.456.456,0,0,1,.366-.836l9.29,4.071a.457.457,0,0,1-.183.875Z" transform="translate(-55.667 -16.359)" fill="#529ad9"/>
        <path id="Trazado_116586" data-name="Trazado 116586" d="M3538.985,1232.741a7.341,7.341,0,0,0-9.712,2.521l-3.018,4.766a6.785,6.785,0,0,0-6.57,1.06s3.162,4.294.557,6.826a7.962,7.962,0,0,1-6.163,2.03s-.106,3.347,4.083,3.8c0,0,.691,3.314,5,2.847,0,0,.608,1.561,3.295,1.358s5.329-.057,9.146-5.7c1.724-2.551,4.01-6,6-9.013A7.34,7.34,0,0,0,3538.985,1232.741Z" transform="translate(-49.843 -44.729)" fill="#fff"/>
        <path id="Trazado_116587" data-name="Trazado 116587" d="M3525.8,1258.241a3.467,3.467,0,0,1-3.075-1.353c-3.595.264-4.781-2.042-5.1-2.911-4.256-.62-4.193-4.194-4.191-4.23a.456.456,0,0,1,.52-.438,7.568,7.568,0,0,0,5.78-1.905c2.287-2.223-.578-6.189-.607-6.229a.456.456,0,0,1,.087-.629,7.213,7.213,0,0,1,6.661-1.255l2.821-4.456a7.8,7.8,0,1,1,13.1,8.464c-1.729,2.62-4.173,6.31-6,9.017-3.725,5.51-6.424,5.694-9.034,5.872l-.456.032Q3526.043,1258.241,3525.8,1258.241Zm-2.824-2.289a.456.456,0,0,1,.425.291c.019.045.556,1.239,2.836,1.069.154-.012.308-.022.462-.033,2.5-.171,4.866-.332,8.34-5.473,1.826-2.7,4.269-6.391,6-9.009a6.809,6.809,0,0,0,.932-5.456,6.886,6.886,0,0,0-12.5-2.017l-3.017,4.766a.454.454,0,0,1-.566.174,6.267,6.267,0,0,0-5.766.75c.742,1.161,2.662,4.7.252,7.045a8.252,8.252,0,0,1-5.977,2.2c.155.849.819,2.548,3.629,2.852a.457.457,0,0,1,.4.36c.026.117.677,2.9,4.5,2.486A.371.371,0,0,1,3522.979,1255.951Z" transform="translate(-49.658 -44.546)"/>
        <g id="Grupo_68958" data-name="Grupo 68958" transform="translate(3467.864 1206.909)">
          <path id="Trazado_116588" data-name="Trazado 116588" d="M3519.639,1262.252a.457.457,0,0,1-.1-.9,24.014,24.014,0,0,0,3.991-1.611.457.457,0,1,1,.411.815,24.436,24.436,0,0,1-4.209,1.687A.436.436,0,0,1,3519.639,1262.252Z" transform="translate(-3519.183 -1259.69)"/>
          <path id="Trazado_116589" data-name="Trazado 116589" d="M3526.673,1265.9a.457.457,0,0,1-.1-.9,12.913,12.913,0,0,0,3.788-2.422.456.456,0,1,1,.6.689c-.106.093-2.644,2.291-4.194,2.626A.462.462,0,0,1,3526.673,1265.9Z" transform="translate(-3521.218 -1260.492)"/>
          <path id="Trazado_116590" data-name="Trazado 116590" d="M3533.747,1267.344a.456.456,0,0,1-.1-.9c1.055-.228,2.779-2.249,3.353-3.009a.457.457,0,0,1,.728.551c-.233.307-2.314,3.01-3.887,3.35A.453.453,0,0,1,3533.747,1267.344Z" transform="translate(-3523.263 -1260.72)"/>
        </g>
      </g>
    </g>
  </g>
</svg>
