<svg xmlns="http://www.w3.org/2000/svg" width="161.333" height="161.333" viewBox="0 0 161.333 161.333">
  <g id="Grupo_83988" data-name="Grupo 83988" transform="translate(-1199 -1222.5)">
    <g id="Grupo_68984" data-name="Grupo 68984" transform="translate(1199 1222.5)">
      <rect id="Rectángulo_6027" data-name="Rectángulo 6027" width="161.333" height="161.333" fill="none"/>
      <g id="_16_copy_2" data-name="16 copy 2" transform="translate(-54.083 -9.993)">
        <path id="Trazado_133663" data-name="Trazado 133663" d="M120,248h4.977v4.977H120Z" transform="translate(-27.557 -159.83)"/>
        <g id="Grupo_84094" data-name="Grupo 84094" transform="translate(80 16)">
          <g id="Grupo_84092" data-name="Grupo 84092" transform="translate(0.812 34.841)">
            <g id="Grupo_84089" data-name="Grupo 84089" transform="translate(1.677 2.489)">
              <path id="Trazado_133664" data-name="Trazado 133664" d="M102.932,320l4.977,22.4-2.489,19.287-2.489,2.489-8.212.622A6.719,6.719,0,0,0,88,371.515v.747h44.8v-.747a6.719,6.719,0,0,0-6.719-6.719l-8.212-.622-2.489-2.489L112.886,342.4l4.977-22.4Z" transform="translate(-88 -262.761)" fill="#effaff"/>
              <path id="Trazado_133665" data-name="Trazado 133665" d="M98.491,136H126.7l7.661,39.538c.962,4.965-1.205,11.886-4.84,15.461l-5.652,5.556a16.694,16.694,0,0,1-10.189,4.149h-2.166a16.691,16.691,0,0,1-10.189-4.149L95.67,191c-3.635-3.574-5.8-10.495-4.84-15.461Z" transform="translate(-89.792 -136)" fill="#effaff"/>
              <path id="Trazado_133666" data-name="Trazado 133666" d="M98.491,136H126.7l7.661,39.538c.962,4.965-1.205,11.886-4.84,15.461l-5.652,5.556a16.694,16.694,0,0,1-10.189,4.149h-2.166a16.691,16.691,0,0,1-10.189-4.149L95.67,191c-3.635-3.574-5.8-10.495-4.84-15.461Z" transform="translate(-89.792 -136)" fill="#effaff"/>
              <path id="Trazado_133667" data-name="Trazado 133667" d="M98.491,136H126.7l7.661,39.538c.962,4.965-1.205,11.886-4.84,15.461l-5.652,5.556a16.694,16.694,0,0,1-10.189,4.149h-2.166a16.691,16.691,0,0,1-10.189-4.149L95.67,191c-3.635-3.574-5.8-10.495-4.84-15.461Z" transform="translate(-89.792 -136)" fill="#effaff"/>
            </g>
            <g id="Grupo_84090" data-name="Grupo 84090" transform="translate(0 0)">
              <path id="Trazado_133668" data-name="Trazado 133668" d="M98.491,136H126.7l7.661,39.538c.962,4.965-1.205,11.886-4.84,15.461l-5.652,5.556a16.694,16.694,0,0,1-10.189,4.149h-2.166a16.691,16.691,0,0,1-10.189-4.149L95.67,191c-3.635-3.574-5.8-10.495-4.84-15.461Z" transform="translate(-88.116 -133.511)" fill="#fefefe"/>
              <path id="Trazado_133669" data-name="Trazado 133669" d="M108.172,197.682h-2.166a19.274,19.274,0,0,1-11.934-4.863l-5.653-5.556c-4.225-4.154-6.657-11.932-5.537-17.707l7.661-39.54A2.489,2.489,0,0,1,92.985,128h28.208a2.489,2.489,0,0,1,2.443,2.015l7.661,39.538c1.12,5.775-1.313,13.554-5.537,17.707l-5.652,5.557a19.277,19.277,0,0,1-11.935,4.864Zm-13.134-64.7L87.767,170.5c-.805,4.16,1.091,10.211,4.141,13.213l5.653,5.557a14.323,14.323,0,0,0,8.445,3.434h2.166a14.319,14.319,0,0,0,8.445-3.435l5.652-5.555c3.051-3,4.946-9.052,4.141-13.213l-7.271-37.524Z" transform="translate(-82.61 -128)"/>
            </g>
            <g id="Grupo_84091" data-name="Grupo 84091" transform="translate(0 0)">
              <path id="Trazado_133670" data-name="Trazado 133670" d="M98.491,136H126.7l7.661,39.538c.962,4.965-1.205,11.886-4.84,15.461l-5.652,5.556a16.694,16.694,0,0,1-10.189,4.149h-2.166a16.691,16.691,0,0,1-10.189-4.149L95.67,191c-3.635-3.574-5.8-10.495-4.84-15.461Z" transform="translate(-88.116 -133.511)" fill="#fefefe"/>
              <path id="Trazado_133671" data-name="Trazado 133671" d="M108.172,197.682h-2.166a19.274,19.274,0,0,1-11.934-4.863l-5.653-5.556c-4.225-4.154-6.657-11.932-5.537-17.707l7.661-39.54A2.489,2.489,0,0,1,92.985,128h28.208a2.489,2.489,0,0,1,2.443,2.015l7.661,39.538c1.12,5.775-1.313,13.554-5.537,17.707l-5.652,5.557a19.277,19.277,0,0,1-11.935,4.864Zm-13.134-64.7L87.767,170.5c-.805,4.16,1.091,10.211,4.141,13.213l5.653,5.557a14.323,14.323,0,0,0,8.445,3.434h2.166a14.319,14.319,0,0,0,8.445-3.435l5.652-5.555c3.051-3,4.946-9.052,4.141-13.213l-7.271-37.524Z" transform="translate(-82.61 -128)"/>
            </g>
            <path id="Trazado_133672" data-name="Trazado 133672" d="M98.491,136H126.7l7.661,39.538c.962,4.965-1.205,11.886-4.84,15.461l-5.652,5.556a16.694,16.694,0,0,1-10.189,4.149h-2.166a16.691,16.691,0,0,1-10.189-4.149L95.67,191c-3.635-3.574-5.8-10.495-4.84-15.461Z" transform="translate(-88.116 -133.511)" fill="#effaff"/>
          </g>
          <path id="Trazado_133673" data-name="Trazado 133673" d="M132.17,200.866c-10.027-2.536-20.7-9.181-36.884-11.7l-4.456,23c-.962,4.965,1.205,11.886,4.84,15.461l5.652,5.557a16.693,16.693,0,0,0,10.189,4.149h2.166a16.692,16.692,0,0,0,10.189-4.149l5.652-5.557c3.635-3.574,5.8-10.495,4.84-15.461Z" transform="translate(-87.304 -135.299)" fill="#d75246"/>
          <path id="Trazado_133674" data-name="Trazado 133674" d="M120.666,230.034l-7.206-.546-1.237-1.237L109.9,210.24l3.128-14.073a17.294,17.294,0,0,0,5.282-3.348l5.652-5.556a18.5,18.5,0,0,0,3.715-5.48q.055-.12.109-.242l.018-.04a21.066,21.066,0,0,0,1.7-11.945l-7.661-39.538A2.489,2.489,0,0,0,119.395,128H91.187a2.489,2.489,0,0,0-2.443,2.015l-3.2,16.538v0l-4.457,23c-.009.045-.017.09-.026.136q-.037.2-.069.412l-.02.138c-.812,5.693,1.594,13.03,5.653,17.022l5.653,5.556q.133.131.274.26a15.451,15.451,0,0,0,2.75,1.972l.1.055.169.093.124.068.234.124.149.077.138.071.075.038.187.093.116.056.07.033,3.217,14.477L97.55,228.248l-1.237,1.237-7.207.549A9.218,9.218,0,0,0,80,239.242v.747a2.489,2.489,0,0,0,2.489,2.489h44.8a2.489,2.489,0,0,0,2.489-2.489v-.747a9.218,9.218,0,0,0-9.106-9.208Zm-18.393-32.5.03,0,.269.037q.2.026.4.047l.193.018q.193.017.383.027l.189.009q.235.01.465.01h2.166q.6,0,1.231-.064l-2.66,11.968a2.486,2.486,0,0,0-.059.538,2.486,2.486,0,0,0-.059-.538l-2.684-12.076ZM93.24,132.977h24.1l4.3,22.19c-1.778-.6-3.688-1.33-5.886-2.2l-1.83,4.629c2.819,1.114,5.8,2.26,8.791,3.124l1.687,8.7.208,1.076a10.4,10.4,0,0,1,.175,1.533c0,.035,0,.071,0,.107q.007.214.007.431c0,3.907-1.753,8.61-4.327,11.141l-5.652,5.557a8.238,8.238,0,0,1-.95.791,14.686,14.686,0,0,1-7.495,2.644h-2.166a14.311,14.311,0,0,1-8.445-3.435l-5.653-5.555a16.3,16.3,0,0,1-4.031-8.2l-.008-.044q-.018-.093-.035-.187c-.008-.045-.016-.09-.024-.135q-.02-.114-.038-.228-.054-.342-.093-.682-.013-.113-.024-.226c-.008-.075-.015-.15-.021-.225q-.048-.56-.053-1.107v-.218a10.835,10.835,0,0,1,.185-1.962l3.993-20.61a102.719,102.719,0,0,1,18.994,5.735l1.814-4.635a107.328,107.328,0,0,0-19.861-5.987ZM85.353,237.5a4.237,4.237,0,0,1,3.855-2.489q.093,0,.187-.007l8.212-.622a2.489,2.489,0,0,0,1.572-.722l2.489-2.489a2.491,2.491,0,0,0,.709-1.441l2.489-19.287a2.508,2.508,0,0,0,.02-.316,2.511,2.511,0,0,0,.02.316l2.489,19.287a2.491,2.491,0,0,0,.709,1.441l2.489,2.489a2.489,2.489,0,0,0,1.572.722l8.212.622q.093.007.187.007a4.237,4.237,0,0,1,3.855,2.489Z" transform="translate(-80 -93.159)" fill="#3a3c07"/>
          <path id="Trazado_133675" data-name="Trazado 133675" d="M176,272h4.977v4.977H176Z" transform="translate(-146.136 -192.364)" fill="#3a3c07"/>
          <g id="Grupo_84093" data-name="Grupo 84093" transform="translate(64.704 0)">
            <path id="Trazado_133676" data-name="Trazado 133676" d="M323.375,65.265V27.111A3.111,3.111,0,0,0,320.264,24h-8.71a3.111,3.111,0,0,0-3.111,3.111V65.265A19.916,19.916,0,0,0,296,83.727v78.392a6.222,6.222,0,0,0,6.222,6.222H329.6a6.222,6.222,0,0,0,6.222-6.222V83.727a19.916,19.916,0,0,0-12.444-18.462Z" transform="translate(-293.511 -21.511)" fill="#afafaf"/>
            <path id="Trazado_133677" data-name="Trazado 133677" d="M336,72h14.932v9.955H336Z" transform="translate(-321.068 -54.58)" fill="#fafafa"/>
            <path id="Trazado_133678" data-name="Trazado 133678" d="M296,232h24.886v64.7H296Z" transform="translate(-293.511 -164.807)" fill="#d75246"/>
            <path id="Trazado_133679" data-name="Trazado 133679" d="M332.8,137.943V78.216a22.3,22.3,0,0,0-12.443-20.071V21.6a5.606,5.606,0,0,0-5.6-5.6h-8.71a5.606,5.606,0,0,0-5.6,5.6V58.145A22.3,22.3,0,0,0,288,78.216v78.392a8.72,8.72,0,0,0,8.71,8.71h27.375a8.72,8.72,0,0,0,8.71-8.71V142.92h-4.977v13.687a3.737,3.737,0,0,1-3.733,3.733H296.71a3.737,3.737,0,0,1-3.733-3.733v-6.222h22.4a2.489,2.489,0,0,0,2.489-2.489V95.636h-4.977v49.773H292.977V85.682h19.909v4.977h4.977V83.193a2.489,2.489,0,0,0-2.489-2.489h-22.4V78.216a17.355,17.355,0,0,1,10.888-16.155,2.489,2.489,0,0,0,1.555-2.307V45.864h9.955v13.89a2.489,2.489,0,0,0,1.555,2.307,17.355,17.355,0,0,1,10.888,16.155v59.727ZM305.42,21.6a.622.622,0,0,1,.622-.622h8.71a.622.622,0,0,1,.622.622v9.332H305.42Zm0,19.287V35.909h9.955v4.977Z" transform="translate(-288 -16)" fill="#3a3c07"/>
          </g>
        </g>
      </g>
    </g>
  </g>
</svg>
